M48
; DRILL file {KiCad (7.0.0)} date Wed Mar  1 19:42:41 2023
; FORMAT={-:-/ absolute / metric / decimal}
; #@! TF.CreationDate,2023-03-01T19:42:41-06:00
; #@! TF.GenerationSoftware,Kicad,Pcbnew,(7.0.0)
; #@! TF.FileFunction,Plated,1,4,PTH
FMAT,2
METRIC
; #@! TA.AperFunction,Plated,PTH,ViaDrill
T1C0.250
; #@! TA.AperFunction,Plated,PTH,ViaDrill
T2C0.500
; #@! TA.AperFunction,Plated,PTH,ComponentDrill
T3C0.800
; #@! TA.AperFunction,Plated,PTH,ComponentDrill
T4C1.016
; #@! TA.AperFunction,Plated,PTH,ComponentDrill
T5C1.200
%
G90
G05
T1
X97.79Y-81.534
X98.298Y-82.296
X98.298Y-93.218
X98.806Y-81.534
X99.822Y-81.534
X99.822Y-90.932
X100.33Y-82.296
X100.838Y-81.534
X103.632Y-91.44
X119.38Y-81.496
X119.888Y-82.258
X119.888Y-93.18
X120.396Y-81.496
X121.412Y-81.496
X121.412Y-90.894
X121.92Y-82.258
X122.428Y-81.496
X125.222Y-91.402
T2
X86.36Y-87.63
X91.948Y-97.79
X91.948Y-100.33
X93.98Y-87.63
X93.98Y-97.79
X93.98Y-100.33
X94.742Y-80.264
X94.742Y-81.788
X96.266Y-93.472
X97.028Y-97.79
X97.028Y-100.33
X97.282Y-85.852
X97.282Y-87.376
X99.06Y-97.79
X99.06Y-100.33
X100.076Y-94.488
X101.854Y-78.74
X102.616Y-90.932
X102.87Y-85.852
X102.87Y-87.376
X103.886Y-80.518
X112.776Y-97.79
X112.776Y-100.33
X114.808Y-97.79
X114.808Y-100.33
X116.332Y-80.226
X116.332Y-81.75
X117.856Y-93.434
X117.856Y-97.79
X117.856Y-100.33
X118.872Y-85.852
X118.872Y-87.376
X119.888Y-97.79
X119.888Y-100.33
X121.666Y-94.45
X123.444Y-78.702
X124.206Y-90.894
X124.46Y-85.852
X124.46Y-87.376
X125.476Y-80.48
X131.064Y-93.98
X131.064Y-96.52
X133.096Y-93.98
X133.096Y-96.52
X136.652Y-94.996
X136.652Y-97.028
X137.922Y-93.218
T3
X93.02Y-99.06
X98.02Y-99.06
X113.872Y-99.06
X118.872Y-99.06
X132.08Y-95.48
X132.08Y-98.98
T4
X94.996Y-63.5
X97.536Y-63.5
X100.076Y-63.5
X102.616Y-63.5
X104.14Y-111.76
X105.156Y-63.5
X106.68Y-111.76
X107.696Y-63.5
X109.22Y-111.76
X110.236Y-63.5
X111.76Y-111.76
X112.776Y-63.5
X114.3Y-111.76
X115.316Y-63.5
X116.84Y-111.76
X117.856Y-63.5
X119.38Y-111.76
X121.92Y-63.5
X121.92Y-111.76
X124.46Y-63.5
X127.0Y-63.5
X127.0Y-111.76
X129.54Y-63.5
X129.54Y-111.76
X132.08Y-63.5
X132.08Y-111.76
X134.62Y-63.5
X134.62Y-111.76
X137.16Y-63.5
X137.16Y-111.76
X139.7Y-63.5
X139.7Y-111.76
X139.827Y-83.82
X139.827Y-86.36
X139.827Y-88.9
X142.367Y-83.82
X142.367Y-86.36
X142.367Y-88.9
T5
X84.212Y-94.825
X84.212Y-98.325
X98.72Y-73.152
X102.22Y-73.152
X105.72Y-73.152
X109.22Y-73.152
X120.31Y-73.152
X123.81Y-73.152
X127.31Y-73.152
X130.81Y-73.152
T0
M30
