%TF.GenerationSoftware,KiCad,Pcbnew,(7.0.0)*%
%TF.CreationDate,2023-04-12T12:24:06-05:00*%
%TF.ProjectId,TurretCtl,54757272-6574-4437-946c-2e6b69636164,rev?*%
%TF.SameCoordinates,Original*%
%TF.FileFunction,Copper,L1,Top*%
%TF.FilePolarity,Positive*%
%FSLAX46Y46*%
G04 Gerber Fmt 4.6, Leading zero omitted, Abs format (unit mm)*
G04 Created by KiCad (PCBNEW (7.0.0)) date 2023-04-12 12:24:06*
%MOMM*%
%LPD*%
G01*
G04 APERTURE LIST*
G04 Aperture macros list*
%AMRoundRect*
0 Rectangle with rounded corners*
0 $1 Rounding radius*
0 $2 $3 $4 $5 $6 $7 $8 $9 X,Y pos of 4 corners*
0 Add a 4 corners polygon primitive as box body*
4,1,4,$2,$3,$4,$5,$6,$7,$8,$9,$2,$3,0*
0 Add four circle primitives for the rounded corners*
1,1,$1+$1,$2,$3*
1,1,$1+$1,$4,$5*
1,1,$1+$1,$6,$7*
1,1,$1+$1,$8,$9*
0 Add four rect primitives between the rounded corners*
20,1,$1+$1,$2,$3,$4,$5,0*
20,1,$1+$1,$4,$5,$6,$7,0*
20,1,$1+$1,$6,$7,$8,$9,0*
20,1,$1+$1,$8,$9,$2,$3,0*%
G04 Aperture macros list end*
%TA.AperFunction,SMDPad,CuDef*%
%ADD10RoundRect,0.140000X-0.170000X0.140000X-0.170000X-0.140000X0.170000X-0.140000X0.170000X0.140000X0*%
%TD*%
%TA.AperFunction,SMDPad,CuDef*%
%ADD11RoundRect,0.218750X-0.256250X0.218750X-0.256250X-0.218750X0.256250X-0.218750X0.256250X0.218750X0*%
%TD*%
%TA.AperFunction,ComponentPad*%
%ADD12C,1.600000*%
%TD*%
%TA.AperFunction,SMDPad,CuDef*%
%ADD13RoundRect,0.135000X-0.185000X0.135000X-0.185000X-0.135000X0.185000X-0.135000X0.185000X0.135000X0*%
%TD*%
%TA.AperFunction,SMDPad,CuDef*%
%ADD14RoundRect,0.218750X0.256250X-0.218750X0.256250X0.218750X-0.256250X0.218750X-0.256250X-0.218750X0*%
%TD*%
%TA.AperFunction,SMDPad,CuDef*%
%ADD15RoundRect,0.135000X0.185000X-0.135000X0.185000X0.135000X-0.185000X0.135000X-0.185000X-0.135000X0*%
%TD*%
%TA.AperFunction,ComponentPad*%
%ADD16O,1.727200X1.727200*%
%TD*%
%TA.AperFunction,ComponentPad*%
%ADD17R,1.727200X1.727200*%
%TD*%
%TA.AperFunction,SMDPad,CuDef*%
%ADD18RoundRect,0.100000X0.100000X-0.687500X0.100000X0.687500X-0.100000X0.687500X-0.100000X-0.687500X0*%
%TD*%
%TA.AperFunction,SMDPad,CuDef*%
%ADD19R,7.800000X3.400000*%
%TD*%
%TA.AperFunction,SMDPad,CuDef*%
%ADD20RoundRect,0.140000X0.170000X-0.140000X0.170000X0.140000X-0.170000X0.140000X-0.170000X-0.140000X0*%
%TD*%
%TA.AperFunction,ComponentPad*%
%ADD21RoundRect,0.250000X-0.650000X-1.550000X0.650000X-1.550000X0.650000X1.550000X-0.650000X1.550000X0*%
%TD*%
%TA.AperFunction,ComponentPad*%
%ADD22O,1.800000X3.600000*%
%TD*%
%TA.AperFunction,ComponentPad*%
%ADD23RoundRect,0.250000X-1.550000X0.650000X-1.550000X-0.650000X1.550000X-0.650000X1.550000X0.650000X0*%
%TD*%
%TA.AperFunction,ComponentPad*%
%ADD24O,3.600000X1.800000*%
%TD*%
%TA.AperFunction,ViaPad*%
%ADD25C,0.530000*%
%TD*%
%TA.AperFunction,ViaPad*%
%ADD26C,0.800000*%
%TD*%
%TA.AperFunction,Conductor*%
%ADD27C,0.254000*%
%TD*%
%TA.AperFunction,Conductor*%
%ADD28C,0.508000*%
%TD*%
G04 APERTURE END LIST*
D10*
%TO.P,C10,1*%
%TO.N,+12V*%
X138684000Y-68636000D03*
%TO.P,C10,2*%
%TO.N,GND*%
X138684000Y-69596000D03*
%TD*%
D11*
%TO.P,D8,1,K*%
%TO.N,Net-(D8-K)*%
X126746000Y-92460000D03*
%TO.P,D8,2,A*%
%TO.N,S1_AOUT1*%
X126746000Y-94035000D03*
%TD*%
D12*
%TO.P,C15,1*%
%TO.N,+5V*%
X91440000Y-78740000D03*
%TO.P,C15,2*%
%TO.N,GND*%
X94940000Y-78740000D03*
%TD*%
D13*
%TO.P,R21,1*%
%TO.N,Net-(D17-K)*%
X112522000Y-87376000D03*
%TO.P,R21,2*%
%TO.N,GND*%
X112522000Y-88396000D03*
%TD*%
D14*
%TO.P,D3,1,K*%
%TO.N,Net-(D3-K)*%
X126746000Y-85852000D03*
%TO.P,D3,2,A*%
%TO.N,S2_BOUT1*%
X126746000Y-84277000D03*
%TD*%
D15*
%TO.P,R6,1*%
%TO.N,Net-(D2-K)*%
X120650000Y-90932000D03*
%TO.P,R6,2*%
%TO.N,GND*%
X120650000Y-89912000D03*
%TD*%
D13*
%TO.P,R3,1*%
%TO.N,/Stepper2/DVDD*%
X140462000Y-56638000D03*
%TO.P,R3,2*%
%TO.N,/Stepper2/nFAULT*%
X140462000Y-57658000D03*
%TD*%
%TO.P,R24,1*%
%TO.N,Net-(D20-K)*%
X118618000Y-87376000D03*
%TO.P,R24,2*%
%TO.N,GND*%
X118618000Y-88396000D03*
%TD*%
D15*
%TO.P,R12,1*%
%TO.N,Net-(D8-K)*%
X126746000Y-90936000D03*
%TO.P,R12,2*%
%TO.N,GND*%
X126746000Y-89916000D03*
%TD*%
D14*
%TO.P,D1,1,K*%
%TO.N,Net-(D1-K)*%
X114554000Y-77775000D03*
%TO.P,D1,2,A*%
%TO.N,+12V*%
X114554000Y-76200000D03*
%TD*%
D16*
%TO.P,XA1,*%
%TO.N,*%
X114299999Y-99059999D03*
%TO.P,XA1,3V3,3.3V*%
%TO.N,unconnected-(XA1-3.3V-Pad3V3)*%
X121919999Y-99059999D03*
%TO.P,XA1,5V1,5V*%
%TO.N,+5V*%
X124459999Y-99059999D03*
%TO.P,XA1,5V2,SPI_5V*%
%TO.N,unconnected-(XA1-SPI_5V-Pad5V2)*%
X152526999Y-71119999D03*
%TO.P,XA1,A0,A0*%
%TO.N,unconnected-(XA1-PadA0)*%
X137159999Y-99059999D03*
%TO.P,XA1,A1,A1*%
%TO.N,unconnected-(XA1-PadA1)*%
X139699999Y-99059999D03*
%TO.P,XA1,A2,A2*%
%TO.N,unconnected-(XA1-PadA2)*%
X142239999Y-99059999D03*
%TO.P,XA1,A3,A3*%
%TO.N,unconnected-(XA1-PadA3)*%
X144779999Y-99059999D03*
%TO.P,XA1,A4,A4*%
%TO.N,unconnected-(XA1-PadA4)*%
X147319999Y-99059999D03*
%TO.P,XA1,A5,A5*%
%TO.N,unconnected-(XA1-PadA5)*%
X149859999Y-99059999D03*
%TO.P,XA1,AREF,AREF*%
%TO.N,unconnected-(XA1-PadAREF)*%
X110235999Y-50799999D03*
%TO.P,XA1,D0,D0_RX0*%
%TO.N,unconnected-(XA1-D0_RX0-PadD0)*%
X149859999Y-50799999D03*
%TO.P,XA1,D1,D1_TX0*%
%TO.N,unconnected-(XA1-D1_TX0-PadD1)*%
X147319999Y-50799999D03*
%TO.P,XA1,D2,D2_INT0*%
%TO.N,S2_DIR*%
X144779999Y-50799999D03*
%TO.P,XA1,D3,D3_INT1*%
%TO.N,S2_STEP*%
X142239999Y-50799999D03*
%TO.P,XA1,D4,D4*%
%TO.N,S1_DIR*%
X139699999Y-50799999D03*
%TO.P,XA1,D5,D5*%
%TO.N,S1_STEP*%
X137159999Y-50799999D03*
%TO.P,XA1,D6,D6*%
%TO.N,D6*%
X134619999Y-50799999D03*
%TO.P,XA1,D7,D7*%
%TO.N,D7*%
X132079999Y-50799999D03*
%TO.P,XA1,D8,D8*%
%TO.N,D8*%
X128015999Y-50799999D03*
%TO.P,XA1,D9,D9*%
%TO.N,Net-(D10-A)*%
X125475999Y-50799999D03*
%TO.P,XA1,D10,D10_CS*%
%TO.N,unconnected-(XA1-D10_CS-PadD10)*%
X122935999Y-50799999D03*
%TO.P,XA1,D11,D11*%
%TO.N,unconnected-(XA1-PadD11)*%
X120395999Y-50799999D03*
%TO.P,XA1,D12,D12*%
%TO.N,unconnected-(XA1-PadD12)*%
X117855999Y-50799999D03*
%TO.P,XA1,D13,D13*%
%TO.N,unconnected-(XA1-PadD13)*%
X115315999Y-50799999D03*
D17*
%TO.P,XA1,GND1,GND*%
%TO.N,GND*%
X112775999Y-50799999D03*
%TO.P,XA1,GND2,GND*%
X126999999Y-99059999D03*
%TO.P,XA1,GND3,GND*%
X129539999Y-99059999D03*
%TO.P,XA1,GND4,SPI_GND*%
%TO.N,unconnected-(XA1-SPI_GND-PadGND4)*%
X152526999Y-76199999D03*
D16*
%TO.P,XA1,IORF,IOREF*%
%TO.N,unconnected-(XA1-IOREF-PadIORF)*%
X116839999Y-99059999D03*
%TO.P,XA1,MISO,SPI_MISO*%
%TO.N,unconnected-(XA1-SPI_MISO-PadMISO)*%
X149986999Y-71119999D03*
%TO.P,XA1,MOSI,SPI_MOSI*%
%TO.N,unconnected-(XA1-SPI_MOSI-PadMOSI)*%
X152526999Y-73659999D03*
%TO.P,XA1,RST1,RESET*%
%TO.N,unconnected-(XA1-RESET-PadRST1)*%
X119379999Y-99059999D03*
%TO.P,XA1,RST2,SPI_RESET*%
%TO.N,unconnected-(XA1-SPI_RESET-PadRST2)*%
X149986999Y-76199999D03*
%TO.P,XA1,SCK,SPI_SCK*%
%TO.N,unconnected-(XA1-SPI_SCK-PadSCK)*%
X149986999Y-73659999D03*
%TO.P,XA1,SCL,SCL*%
%TO.N,SCL*%
X105155999Y-50799999D03*
%TO.P,XA1,SDA,SDA*%
%TO.N,SDA*%
X107695999Y-50799999D03*
%TO.P,XA1,VIN,VIN*%
%TO.N,+12V*%
X132079999Y-99059999D03*
%TD*%
D15*
%TO.P,R8,1*%
%TO.N,Net-(D4-K)*%
X122682000Y-90932000D03*
%TO.P,R8,2*%
%TO.N,GND*%
X122682000Y-89912000D03*
%TD*%
%TO.P,R26,1*%
%TO.N,Net-(D22-K)*%
X118618000Y-90932000D03*
%TO.P,R26,2*%
%TO.N,GND*%
X118618000Y-89912000D03*
%TD*%
D13*
%TO.P,R11,1*%
%TO.N,Net-(D7-K)*%
X122682000Y-87376000D03*
%TO.P,R11,2*%
%TO.N,GND*%
X122682000Y-88396000D03*
%TD*%
D12*
%TO.P,C7,1*%
%TO.N,+12V*%
X101600000Y-89789000D03*
%TO.P,C7,2*%
%TO.N,GND*%
X106600000Y-89789000D03*
%TD*%
D14*
%TO.P,D18,1,K*%
%TO.N,Net-(D18-K)*%
X118618000Y-77724000D03*
%TO.P,D18,2,A*%
%TO.N,D7*%
X118618000Y-76149000D03*
%TD*%
D11*
%TO.P,D16,1,K*%
%TO.N,Net-(D16-K)*%
X112522000Y-92456000D03*
%TO.P,D16,2,A*%
%TO.N,+5V*%
X112522000Y-94031000D03*
%TD*%
D18*
%TO.P,U2,1,CPL*%
%TO.N,/Stepper1/CPL*%
X118345000Y-66362500D03*
%TO.P,U2,2,CPH*%
%TO.N,/Stepper1/CPH*%
X118995000Y-66362500D03*
%TO.P,U2,3,VCP*%
%TO.N,/Stepper1/VCP*%
X119645000Y-66362500D03*
%TO.P,U2,4,VM*%
%TO.N,+12V*%
X120295000Y-66362500D03*
%TO.P,U2,5,AOUT1*%
%TO.N,S1_AOUT1*%
X120945000Y-66362500D03*
%TO.P,U2,6,PGND*%
%TO.N,GND*%
X121595000Y-66362500D03*
%TO.P,U2,7,AOUT2*%
%TO.N,S1_AOUT2*%
X122245000Y-66362500D03*
%TO.P,U2,8,BOUT2*%
%TO.N,S1_BOUT2*%
X122895000Y-66362500D03*
%TO.P,U2,9,PGND*%
%TO.N,GND*%
X123545000Y-66362500D03*
%TO.P,U2,10,BOUT1*%
%TO.N,S1_BOUT1*%
X124195000Y-66362500D03*
%TO.P,U2,11,VM*%
%TO.N,+12V*%
X124845000Y-66362500D03*
%TO.P,U2,12,GND*%
%TO.N,GND*%
X125495000Y-66362500D03*
%TO.P,U2,13,AVDD*%
%TO.N,/Stepper1/AVDD*%
X125495000Y-60637500D03*
%TO.P,U2,14,DVDD*%
%TO.N,/Stepper1/DVDD*%
X124845000Y-60637500D03*
%TO.P,U2,15,nFAULT*%
%TO.N,/Stepper1/nFAULT*%
X124195000Y-60637500D03*
%TO.P,U2,16,RREF*%
%TO.N,/Stepper1/RREF*%
X123545000Y-60637500D03*
%TO.P,U2,17,nSLEEP*%
%TO.N,+5V*%
X122895000Y-60637500D03*
%TO.P,U2,18,ENABLE*%
X122245000Y-60637500D03*
%TO.P,U2,19,STEP*%
%TO.N,S1_STEP*%
X121595000Y-60637500D03*
%TO.P,U2,20,DIR*%
%TO.N,S1_DIR*%
X120945000Y-60637500D03*
%TO.P,U2,21,M0*%
%TO.N,/Stepper1/DVDD*%
X120295000Y-60637500D03*
%TO.P,U2,22,M1*%
%TO.N,GND*%
X119645000Y-60637500D03*
%TO.P,U2,23,TRQ*%
X118995000Y-60637500D03*
%TO.P,U2,24,DECAY*%
%TO.N,/Stepper1/DVDD*%
X118345000Y-60637500D03*
D19*
%TO.P,U2,25*%
%TO.N,N/C*%
X121919999Y-63499999D03*
%TD*%
D20*
%TO.P,C9,1*%
%TO.N,/Stepper1/AVDD*%
X125984000Y-58420000D03*
%TO.P,C9,2*%
%TO.N,GND*%
X125984000Y-57460000D03*
%TD*%
D21*
%TO.P,J1,1,Pin_1*%
%TO.N,+5V*%
X91440000Y-58420000D03*
D22*
%TO.P,J1,2,Pin_2*%
%TO.N,unconnected-(J1-Pin_2-Pad2)*%
X94939999Y-58419999D03*
%TO.P,J1,3,Pin_3*%
%TO.N,unconnected-(J1-Pin_3-Pad3)*%
X98439999Y-58419999D03*
%TO.P,J1,4,Pin_4*%
%TO.N,SCL*%
X101939999Y-58419999D03*
%TO.P,J1,5,Pin_5*%
%TO.N,SDA*%
X105439999Y-58419999D03*
%TO.P,J1,6,Pin_6*%
%TO.N,GND*%
X108939999Y-58419999D03*
%TD*%
D21*
%TO.P,J5,1,Pin_1*%
%TO.N,+5V*%
X91440000Y-68580000D03*
D22*
%TO.P,J5,2,Pin_2*%
%TO.N,D8*%
X94939999Y-68579999D03*
%TO.P,J5,3,Pin_3*%
%TO.N,+5V*%
X98439999Y-68579999D03*
%TO.P,J5,4,Pin_4*%
%TO.N,D7*%
X101939999Y-68579999D03*
%TO.P,J5,5,Pin_5*%
%TO.N,+5V*%
X105439999Y-68579999D03*
%TO.P,J5,6,Pin_6*%
%TO.N,D6*%
X108939999Y-68579999D03*
%TD*%
D14*
%TO.P,D11,1,K*%
%TO.N,Net-(D11-K)*%
X116586000Y-85852000D03*
%TO.P,D11,2,A*%
%TO.N,S2_STEP*%
X116586000Y-84277000D03*
%TD*%
%TO.P,D7,1,K*%
%TO.N,Net-(D7-K)*%
X122682000Y-85852000D03*
%TO.P,D7,2,A*%
%TO.N,S2_AOUT2*%
X122682000Y-84277000D03*
%TD*%
D15*
%TO.P,R20,1*%
%TO.N,Net-(D16-K)*%
X112522000Y-90932000D03*
%TO.P,R20,2*%
%TO.N,GND*%
X112522000Y-89912000D03*
%TD*%
D20*
%TO.P,C8,1*%
%TO.N,/Stepper1/DVDD*%
X124714000Y-58420000D03*
%TO.P,C8,2*%
%TO.N,GND*%
X124714000Y-57460000D03*
%TD*%
D18*
%TO.P,U1,1,CPL*%
%TO.N,/Stepper2/CPL*%
X136125000Y-66362500D03*
%TO.P,U1,2,CPH*%
%TO.N,/Stepper2/CPH*%
X136775000Y-66362500D03*
%TO.P,U1,3,VCP*%
%TO.N,/Stepper2/VCP*%
X137425000Y-66362500D03*
%TO.P,U1,4,VM*%
%TO.N,+12V*%
X138075000Y-66362500D03*
%TO.P,U1,5,AOUT1*%
%TO.N,S2_AOUT1*%
X138725000Y-66362500D03*
%TO.P,U1,6,PGND*%
%TO.N,GND*%
X139375000Y-66362500D03*
%TO.P,U1,7,AOUT2*%
%TO.N,S2_AOUT2*%
X140025000Y-66362500D03*
%TO.P,U1,8,BOUT2*%
%TO.N,S2_BOUT2*%
X140675000Y-66362500D03*
%TO.P,U1,9,PGND*%
%TO.N,GND*%
X141325000Y-66362500D03*
%TO.P,U1,10,BOUT1*%
%TO.N,S2_BOUT1*%
X141975000Y-66362500D03*
%TO.P,U1,11,VM*%
%TO.N,+12V*%
X142625000Y-66362500D03*
%TO.P,U1,12,GND*%
%TO.N,GND*%
X143275000Y-66362500D03*
%TO.P,U1,13,AVDD*%
%TO.N,/Stepper2/AVDD*%
X143275000Y-60637500D03*
%TO.P,U1,14,DVDD*%
%TO.N,/Stepper2/DVDD*%
X142625000Y-60637500D03*
%TO.P,U1,15,nFAULT*%
%TO.N,/Stepper2/nFAULT*%
X141975000Y-60637500D03*
%TO.P,U1,16,RREF*%
%TO.N,/Stepper2/RREF*%
X141325000Y-60637500D03*
%TO.P,U1,17,nSLEEP*%
%TO.N,+5V*%
X140675000Y-60637500D03*
%TO.P,U1,18,ENABLE*%
X140025000Y-60637500D03*
%TO.P,U1,19,STEP*%
%TO.N,S2_STEP*%
X139375000Y-60637500D03*
%TO.P,U1,20,DIR*%
%TO.N,S2_DIR*%
X138725000Y-60637500D03*
%TO.P,U1,21,M0*%
%TO.N,/Stepper2/DVDD*%
X138075000Y-60637500D03*
%TO.P,U1,22,M1*%
%TO.N,GND*%
X137425000Y-60637500D03*
%TO.P,U1,23,TRQ*%
X136775000Y-60637500D03*
%TO.P,U1,24,DECAY*%
%TO.N,/Stepper2/DVDD*%
X136125000Y-60637500D03*
D19*
%TO.P,U1,25*%
%TO.N,N/C*%
X139699999Y-63499999D03*
%TD*%
D14*
%TO.P,D17,1,K*%
%TO.N,Net-(D17-K)*%
X112522000Y-85852000D03*
%TO.P,D17,2,A*%
%TO.N,+5V*%
X112522000Y-84277000D03*
%TD*%
D13*
%TO.P,R14,1*%
%TO.N,Net-(D10-K)*%
X122682000Y-79248000D03*
%TO.P,R14,2*%
%TO.N,GND*%
X122682000Y-80268000D03*
%TD*%
D12*
%TO.P,C12,1*%
%TO.N,+12V*%
X101600000Y-78740000D03*
%TO.P,C12,2*%
%TO.N,GND*%
X106600000Y-78740000D03*
%TD*%
D13*
%TO.P,R23,1*%
%TO.N,Net-(D19-K)*%
X116586000Y-79248000D03*
%TO.P,R23,2*%
%TO.N,GND*%
X116586000Y-80268000D03*
%TD*%
D20*
%TO.P,C13,1*%
%TO.N,/Stepper2/DVDD*%
X142494000Y-58420000D03*
%TO.P,C13,2*%
%TO.N,GND*%
X142494000Y-57460000D03*
%TD*%
%TO.P,C3,1*%
%TO.N,/Stepper1/CPH*%
X118364000Y-69519800D03*
%TO.P,C3,2*%
%TO.N,/Stepper1/CPL*%
X118364000Y-68559800D03*
%TD*%
D11*
%TO.P,D12,1,K*%
%TO.N,Net-(D12-K)*%
X114554000Y-92456000D03*
%TO.P,D12,2,A*%
%TO.N,+5V*%
X114554000Y-94031000D03*
%TD*%
D13*
%TO.P,R22,1*%
%TO.N,Net-(D18-K)*%
X118618000Y-79248000D03*
%TO.P,R22,2*%
%TO.N,GND*%
X118618000Y-80268000D03*
%TD*%
D20*
%TO.P,C1,1*%
%TO.N,/Stepper2/CPH*%
X136144000Y-69540000D03*
%TO.P,C1,2*%
%TO.N,/Stepper2/CPL*%
X136144000Y-68580000D03*
%TD*%
D14*
%TO.P,D20,1,K*%
%TO.N,Net-(D20-K)*%
X118618000Y-85852000D03*
%TO.P,D20,2,A*%
%TO.N,S2_DIR*%
X118618000Y-84277000D03*
%TD*%
%TO.P,D19,1,K*%
%TO.N,Net-(D19-K)*%
X116586000Y-77775000D03*
%TO.P,D19,2,A*%
%TO.N,D8*%
X116586000Y-76200000D03*
%TD*%
D20*
%TO.P,C11,1*%
%TO.N,+12V*%
X143256000Y-69596000D03*
%TO.P,C11,2*%
%TO.N,GND*%
X143256000Y-68636000D03*
%TD*%
D11*
%TO.P,D6,1,K*%
%TO.N,Net-(D6-K)*%
X124714000Y-92460000D03*
%TO.P,D6,2,A*%
%TO.N,S1_AOUT2*%
X124714000Y-94035000D03*
%TD*%
D13*
%TO.P,R18,1*%
%TO.N,Net-(D14-K)*%
X112522000Y-79248000D03*
%TO.P,R18,2*%
%TO.N,GND*%
X112522000Y-80268000D03*
%TD*%
D14*
%TO.P,D14,1,K*%
%TO.N,Net-(D14-K)*%
X112522000Y-77775000D03*
%TO.P,D14,2,A*%
%TO.N,+5V*%
X112522000Y-76200000D03*
%TD*%
D21*
%TO.P,J2,1,Pin_1*%
%TO.N,S1_AOUT1*%
X132080000Y-88900000D03*
D22*
%TO.P,J2,2,Pin_2*%
%TO.N,S1_AOUT2*%
X135579999Y-88899999D03*
%TO.P,J2,3,Pin_3*%
%TO.N,S1_BOUT2*%
X139079999Y-88899999D03*
%TO.P,J2,4,Pin_4*%
%TO.N,S1_BOUT1*%
X142579999Y-88899999D03*
%TD*%
D21*
%TO.P,J3,1,Pin_1*%
%TO.N,S2_AOUT1*%
X132080000Y-78740000D03*
D22*
%TO.P,J3,2,Pin_2*%
%TO.N,S2_AOUT2*%
X135579999Y-78739999D03*
%TO.P,J3,3,Pin_3*%
%TO.N,S2_BOUT2*%
X139079999Y-78739999D03*
%TO.P,J3,4,Pin_4*%
%TO.N,S2_BOUT1*%
X142579999Y-78739999D03*
%TD*%
D23*
%TO.P,J4,1,Pin_1*%
%TO.N,GND*%
X93980000Y-91440000D03*
D24*
%TO.P,J4,2,Pin_2*%
%TO.N,+12V*%
X93979999Y-94939999D03*
%TD*%
D13*
%TO.P,R7,1*%
%TO.N,Net-(D3-K)*%
X126746000Y-87376000D03*
%TO.P,R7,2*%
%TO.N,GND*%
X126746000Y-88396000D03*
%TD*%
D20*
%TO.P,C2,1*%
%TO.N,+12V*%
X137414000Y-71374000D03*
%TO.P,C2,2*%
%TO.N,/Stepper2/VCP*%
X137414000Y-70414000D03*
%TD*%
D13*
%TO.P,R13,1*%
%TO.N,Net-(D9-K)*%
X120650000Y-87376000D03*
%TO.P,R13,2*%
%TO.N,GND*%
X120650000Y-88396000D03*
%TD*%
D14*
%TO.P,D9,1,K*%
%TO.N,Net-(D9-K)*%
X120650000Y-85852000D03*
%TO.P,D9,2,A*%
%TO.N,S2_AOUT1*%
X120650000Y-84277000D03*
%TD*%
D20*
%TO.P,C6,1*%
%TO.N,+12V*%
X125476000Y-69596000D03*
%TO.P,C6,2*%
%TO.N,GND*%
X125476000Y-68636000D03*
%TD*%
D13*
%TO.P,R19,1*%
%TO.N,Net-(D15-K)*%
X120650000Y-79248000D03*
%TO.P,R19,2*%
%TO.N,GND*%
X120650000Y-80268000D03*
%TD*%
%TO.P,R17,1*%
%TO.N,Net-(D13-K)*%
X114554000Y-87376000D03*
%TO.P,R17,2*%
%TO.N,GND*%
X114554000Y-88396000D03*
%TD*%
D15*
%TO.P,R25,1*%
%TO.N,Net-(D21-K)*%
X116586000Y-90932000D03*
%TO.P,R25,2*%
%TO.N,GND*%
X116586000Y-89912000D03*
%TD*%
D14*
%TO.P,D5,1,K*%
%TO.N,Net-(D5-K)*%
X124714000Y-85852000D03*
%TO.P,D5,2,A*%
%TO.N,S2_BOUT2*%
X124714000Y-84277000D03*
%TD*%
D10*
%TO.P,C5,1*%
%TO.N,+12V*%
X120904000Y-68580000D03*
%TO.P,C5,2*%
%TO.N,GND*%
X120904000Y-69540000D03*
%TD*%
D20*
%TO.P,C14,1*%
%TO.N,/Stepper2/AVDD*%
X143764000Y-58420000D03*
%TO.P,C14,2*%
%TO.N,GND*%
X143764000Y-57460000D03*
%TD*%
D15*
%TO.P,R4,1*%
%TO.N,/Stepper2/RREF*%
X138938000Y-57658000D03*
%TO.P,R4,2*%
%TO.N,GND*%
X138938000Y-56638000D03*
%TD*%
D13*
%TO.P,R5,1*%
%TO.N,Net-(D1-K)*%
X114554000Y-79248000D03*
%TO.P,R5,2*%
%TO.N,GND*%
X114554000Y-80268000D03*
%TD*%
D15*
%TO.P,R10,1*%
%TO.N,Net-(D6-K)*%
X124714000Y-90936000D03*
%TO.P,R10,2*%
%TO.N,GND*%
X124714000Y-89916000D03*
%TD*%
D14*
%TO.P,D13,1,K*%
%TO.N,Net-(D13-K)*%
X114554000Y-85852000D03*
%TO.P,D13,2,A*%
%TO.N,+5V*%
X114554000Y-84277000D03*
%TD*%
D11*
%TO.P,D2,1,K*%
%TO.N,Net-(D2-K)*%
X120650000Y-92405000D03*
%TO.P,D2,2,A*%
%TO.N,S1_BOUT1*%
X120650000Y-93980000D03*
%TD*%
D13*
%TO.P,R9,1*%
%TO.N,Net-(D5-K)*%
X124714000Y-87376000D03*
%TO.P,R9,2*%
%TO.N,GND*%
X124714000Y-88396000D03*
%TD*%
%TO.P,R2,1*%
%TO.N,/Stepper1/DVDD*%
X122682000Y-56642000D03*
%TO.P,R2,2*%
%TO.N,/Stepper1/nFAULT*%
X122682000Y-57662000D03*
%TD*%
D11*
%TO.P,D22,1,K*%
%TO.N,Net-(D22-K)*%
X118618000Y-92456000D03*
%TO.P,D22,2,A*%
%TO.N,S1_DIR*%
X118618000Y-94031000D03*
%TD*%
D13*
%TO.P,R15,1*%
%TO.N,Net-(D11-K)*%
X116586000Y-87376000D03*
%TO.P,R15,2*%
%TO.N,GND*%
X116586000Y-88396000D03*
%TD*%
D11*
%TO.P,D21,1,K*%
%TO.N,Net-(D21-K)*%
X116586000Y-92456000D03*
%TO.P,D21,2,A*%
%TO.N,S1_STEP*%
X116586000Y-94031000D03*
%TD*%
D20*
%TO.P,C4,1*%
%TO.N,+12V*%
X119634000Y-71318000D03*
%TO.P,C4,2*%
%TO.N,/Stepper1/VCP*%
X119634000Y-70358000D03*
%TD*%
D15*
%TO.P,R1,1*%
%TO.N,/Stepper1/RREF*%
X121158000Y-57658000D03*
%TO.P,R1,2*%
%TO.N,GND*%
X121158000Y-56638000D03*
%TD*%
%TO.P,R16,1*%
%TO.N,Net-(D12-K)*%
X114554000Y-90932000D03*
%TO.P,R16,2*%
%TO.N,GND*%
X114554000Y-89912000D03*
%TD*%
D11*
%TO.P,D4,1,K*%
%TO.N,Net-(D4-K)*%
X122682000Y-92456000D03*
%TO.P,D4,2,A*%
%TO.N,S1_BOUT2*%
X122682000Y-94031000D03*
%TD*%
D14*
%TO.P,D10,1,K*%
%TO.N,Net-(D10-K)*%
X122682000Y-77724000D03*
%TO.P,D10,2,A*%
%TO.N,Net-(D10-A)*%
X122682000Y-76149000D03*
%TD*%
%TO.P,D15,1,K*%
%TO.N,Net-(D15-K)*%
X120650000Y-77724000D03*
%TO.P,D15,2,A*%
%TO.N,D6*%
X120650000Y-76149000D03*
%TD*%
D25*
%TO.N,+12V*%
X120147200Y-68587700D03*
X144018000Y-69596000D03*
X113538000Y-74981000D03*
X126243200Y-69603700D03*
X137922000Y-68580000D03*
%TO.N,GND*%
X114554000Y-81077000D03*
X124460000Y-63500000D03*
X143764000Y-56896000D03*
X112522000Y-81077000D03*
X118618000Y-89154000D03*
X120650000Y-89154000D03*
X125989200Y-56903700D03*
X141478000Y-68580000D03*
X123703200Y-68580000D03*
X126243200Y-68587700D03*
X116586000Y-81026000D03*
X114554000Y-89154000D03*
X120650000Y-81026000D03*
X138153500Y-56642000D03*
X120378700Y-56649700D03*
X124714000Y-89154000D03*
X112522000Y-89154000D03*
X144018000Y-68580000D03*
X119380000Y-63500000D03*
X119385200Y-59189700D03*
X142240000Y-63500000D03*
X137160000Y-63500000D03*
X122682000Y-89154000D03*
X137160000Y-59182000D03*
X126746000Y-89154000D03*
X122682000Y-81026000D03*
X118618000Y-81026000D03*
X116586000Y-89154000D03*
%TO.N,/Stepper1/DVDD*%
X120147200Y-59189700D03*
X124719200Y-59189700D03*
X123449200Y-56649700D03*
X118369200Y-59189700D03*
%TO.N,/Stepper2/DVDD*%
X141224000Y-56642000D03*
X137922000Y-59182000D03*
X142494000Y-59182000D03*
X136144000Y-59182000D03*
%TO.N,+5V*%
X122433200Y-59189700D03*
X111506000Y-75032000D03*
X111252000Y-93980000D03*
X111252000Y-84328000D03*
X140208000Y-59182000D03*
%TO.N,S1_BOUT1*%
X124211200Y-67825700D03*
%TO.N,S2_BOUT1*%
X141986000Y-67818000D03*
%TO.N,S1_BOUT2*%
X122941200Y-67825700D03*
%TO.N,S2_BOUT2*%
X140716000Y-67818000D03*
%TO.N,S1_AOUT2*%
X122179200Y-67825700D03*
%TO.N,S2_AOUT2*%
X139954000Y-67818000D03*
%TO.N,S1_AOUT1*%
X120909200Y-67825700D03*
%TO.N,S2_AOUT1*%
X138684000Y-67818000D03*
D26*
%TO.N,D6*%
X114819428Y-60209428D03*
%TO.N,D7*%
X113797714Y-60203714D03*
%TO.N,D8*%
X112776000Y-60198000D03*
D25*
%TO.N,S2_STEP*%
X117602000Y-82550000D03*
X136144000Y-57658000D03*
%TO.N,S2_DIR*%
X136144000Y-58420000D03*
X119380000Y-82550000D03*
%TO.N,S1_STEP*%
X117602000Y-95758000D03*
X118364000Y-57658000D03*
%TO.N,S1_DIR*%
X119380000Y-95758000D03*
X118364000Y-58420000D03*
D26*
%TO.N,Net-(D10-A)*%
X125476000Y-54864000D03*
%TD*%
D27*
%TO.N,+5V*%
X122433200Y-60175700D02*
X122895000Y-60637500D01*
X122433200Y-59189700D02*
X122433200Y-60175700D01*
X122433200Y-59189700D02*
X122245000Y-59377900D01*
%TO.N,GND*%
X140462000Y-69596000D02*
X141478000Y-68580000D01*
X138684000Y-69596000D02*
X140462000Y-69596000D01*
X122743200Y-69540000D02*
X123703200Y-68580000D01*
X120904000Y-69540000D02*
X122743200Y-69540000D01*
%TO.N,/Stepper2/CPH*%
X136781000Y-69213000D02*
X136454000Y-69540000D01*
X136775000Y-66362500D02*
X136781000Y-66368500D01*
X136781000Y-66368500D02*
X136781000Y-69213000D01*
X136454000Y-69540000D02*
X136144000Y-69540000D01*
%TO.N,/Stepper2/CPL*%
X136125000Y-66362500D02*
X136125000Y-68561000D01*
X136125000Y-68561000D02*
X136144000Y-68580000D01*
%TO.N,+12V*%
X138684000Y-68636000D02*
X137978000Y-68636000D01*
X125470762Y-69603700D02*
X125481200Y-69603700D01*
X113538000Y-74981000D02*
X113538000Y-75184000D01*
X137414000Y-71374000D02*
X137424438Y-71374000D01*
X142625000Y-66362500D02*
X142625000Y-68016215D01*
X120401200Y-70630138D02*
X120401200Y-70104000D01*
X142494000Y-68147215D02*
X142494000Y-68844438D01*
X124850200Y-66370200D02*
X124850200Y-68023915D01*
X137922000Y-68580000D02*
X138075000Y-68427000D01*
X124714000Y-68846938D02*
X125470762Y-69603700D01*
X119639200Y-71381700D02*
X119649638Y-71381700D01*
X138075000Y-68427000D02*
X138075000Y-66362500D01*
D28*
X125481200Y-69603700D02*
X126243200Y-69603700D01*
D27*
X120909200Y-68643700D02*
X120203200Y-68643700D01*
X113538000Y-75184000D02*
X114554000Y-76200000D01*
X137424438Y-71374000D02*
X138176000Y-70622438D01*
X120401200Y-70104000D02*
X120147200Y-69850000D01*
X124714000Y-68160115D02*
X124714000Y-68846938D01*
X142625000Y-68016215D02*
X142494000Y-68147215D01*
X120300200Y-68434700D02*
X120300200Y-66370200D01*
X137978000Y-68636000D02*
X137922000Y-68580000D01*
X138176000Y-70205562D02*
X137922000Y-69951562D01*
X143245562Y-69596000D02*
X143256000Y-69596000D01*
X120147200Y-68587700D02*
X120300200Y-68434700D01*
D28*
X143256000Y-69596000D02*
X144018000Y-69596000D01*
D27*
X124850200Y-68023915D02*
X124714000Y-68160115D01*
X137922000Y-69951562D02*
X137922000Y-68580000D01*
X120147200Y-69850000D02*
X120147200Y-68587700D01*
X120203200Y-68643700D02*
X120147200Y-68587700D01*
X138176000Y-70622438D02*
X138176000Y-70205562D01*
X119649638Y-71381700D02*
X120401200Y-70630138D01*
X142494000Y-68844438D02*
X143245562Y-69596000D01*
%TO.N,/Stepper2/VCP*%
X137425000Y-66362500D02*
X137330000Y-66457500D01*
X137330000Y-66457500D02*
X137330000Y-70330000D01*
X137330000Y-70330000D02*
X137414000Y-70414000D01*
%TO.N,/Stepper1/CPH*%
X119006200Y-66376200D02*
X119006200Y-69220700D01*
X119006200Y-69220700D02*
X118679200Y-69547700D01*
X119000200Y-66370200D02*
X119006200Y-66376200D01*
X118679200Y-69547700D02*
X118369200Y-69547700D01*
%TO.N,/Stepper1/CPL*%
X118350200Y-66370200D02*
X118350200Y-68568700D01*
%TO.N,/Stepper1/VCP*%
X119650200Y-66370200D02*
X119555200Y-66465200D01*
X119555200Y-66465200D02*
X119555200Y-70337700D01*
X119555200Y-70337700D02*
X119639200Y-70421700D01*
%TO.N,GND*%
X121587200Y-66383200D02*
X121587200Y-69433700D01*
X121600200Y-66370200D02*
X121587200Y-66383200D01*
D28*
X112522000Y-89154000D02*
X126492000Y-89154000D01*
D27*
X143275000Y-68617000D02*
X143256000Y-68636000D01*
D28*
X142494000Y-57460000D02*
X143764000Y-57460000D01*
X124714000Y-88396000D02*
X124714000Y-89912000D01*
X116586000Y-80268000D02*
X114808000Y-80268000D01*
D27*
X137425000Y-60637500D02*
X137425000Y-59522215D01*
D28*
X125481200Y-68643700D02*
X126187200Y-68643700D01*
X120650000Y-80268000D02*
X120650000Y-81026000D01*
D27*
X139375000Y-66362500D02*
X139362000Y-66375500D01*
D28*
X120382700Y-56645700D02*
X120378700Y-56649700D01*
X125989200Y-57467700D02*
X125989200Y-56903700D01*
D27*
X125500200Y-68624700D02*
X125481200Y-68643700D01*
X125500200Y-66370200D02*
X125500200Y-68624700D01*
D28*
X120650000Y-80268000D02*
X122682000Y-80268000D01*
X126187200Y-68643700D02*
X126243200Y-68587700D01*
X118618000Y-88396000D02*
X118618000Y-89912000D01*
X112522000Y-80268000D02*
X112522000Y-81077000D01*
X143256000Y-68636000D02*
X143962000Y-68636000D01*
D27*
X137160000Y-59257215D02*
X137160000Y-59182000D01*
D28*
X122682000Y-80268000D02*
X122682000Y-81026000D01*
D27*
X119000200Y-59574700D02*
X119385200Y-59189700D01*
D28*
X122682000Y-88396000D02*
X122682000Y-89912000D01*
D27*
X125984000Y-57460000D02*
X124714000Y-57460000D01*
X121587200Y-69433700D02*
X121417200Y-69603700D01*
D28*
X118618000Y-80268000D02*
X120650000Y-80268000D01*
X116586000Y-80268000D02*
X116586000Y-81026000D01*
D27*
X139362000Y-69426000D02*
X139192000Y-69596000D01*
D28*
X138938000Y-56638000D02*
X138157500Y-56638000D01*
X143962000Y-68636000D02*
X144018000Y-68580000D01*
X143764000Y-57460000D02*
X143764000Y-56896000D01*
X126746000Y-88396000D02*
X126746000Y-89408000D01*
X114554000Y-80268000D02*
X114554000Y-81077000D01*
X121163200Y-56645700D02*
X120382700Y-56645700D01*
D27*
X119650200Y-60645200D02*
X119650200Y-59529915D01*
D28*
X116586000Y-80268000D02*
X118618000Y-80268000D01*
D27*
X139362000Y-66375500D02*
X139362000Y-69426000D01*
D28*
X112522000Y-88396000D02*
X112522000Y-89912000D01*
D27*
X141478000Y-68580000D02*
X141325000Y-68427000D01*
X119000200Y-60645200D02*
X119000200Y-59574700D01*
D28*
X126492000Y-89154000D02*
X126746000Y-89408000D01*
X118618000Y-80268000D02*
X118618000Y-81026000D01*
D27*
X123550200Y-68427000D02*
X123550200Y-66370200D01*
X139192000Y-69596000D02*
X138684000Y-69596000D01*
X137425000Y-59522215D02*
X137160000Y-59257215D01*
D28*
X112522000Y-80268000D02*
X114808000Y-80268000D01*
D27*
X143275000Y-66362500D02*
X143275000Y-68617000D01*
D28*
X116586000Y-88396000D02*
X116586000Y-89912000D01*
X114808000Y-80268000D02*
X114554000Y-80268000D01*
D27*
X136775000Y-59567000D02*
X137160000Y-59182000D01*
X123703200Y-68580000D02*
X123550200Y-68427000D01*
D28*
X114554000Y-88396000D02*
X114554000Y-89912000D01*
X126746000Y-89408000D02*
X126746000Y-89912000D01*
X120650000Y-88396000D02*
X120650000Y-89912000D01*
D27*
X119650200Y-59529915D02*
X119385200Y-59264915D01*
X121417200Y-69603700D02*
X120909200Y-69603700D01*
X141325000Y-68427000D02*
X141325000Y-66362500D01*
D28*
X138157500Y-56638000D02*
X138153500Y-56642000D01*
D27*
X136775000Y-60637500D02*
X136775000Y-59567000D01*
X119385200Y-59264915D02*
X119385200Y-59189700D01*
%TO.N,/Stepper1/DVDD*%
X118369200Y-59189700D02*
X118369200Y-60626200D01*
X120300200Y-60645200D02*
X120300200Y-59342700D01*
X120300200Y-59342700D02*
X120147200Y-59189700D01*
X124850200Y-60645200D02*
X124850200Y-59320700D01*
X124719200Y-58425200D02*
X124714000Y-58420000D01*
X118369200Y-60626200D02*
X118350200Y-60645200D01*
D28*
X122691200Y-56649700D02*
X122687200Y-56645700D01*
X123449200Y-56649700D02*
X122691200Y-56649700D01*
D27*
X124850200Y-59320700D02*
X124719200Y-59189700D01*
X124719200Y-59189700D02*
X124719200Y-58425200D01*
%TO.N,/Stepper1/AVDD*%
X125495000Y-58909000D02*
X125984000Y-58420000D01*
X125495000Y-60637500D02*
X125495000Y-58909000D01*
%TO.N,/Stepper2/DVDD*%
X136144000Y-59182000D02*
X136144000Y-60618500D01*
D28*
X140466000Y-56642000D02*
X140462000Y-56638000D01*
D27*
X136144000Y-60618500D02*
X136125000Y-60637500D01*
X138075000Y-59335000D02*
X137922000Y-59182000D01*
D28*
X141224000Y-56642000D02*
X140466000Y-56642000D01*
D27*
X142625000Y-59313000D02*
X142494000Y-59182000D01*
X142494000Y-59182000D02*
X142494000Y-58420000D01*
X138075000Y-60637500D02*
X138075000Y-59335000D01*
X142625000Y-60637500D02*
X142625000Y-59313000D01*
%TO.N,/Stepper2/AVDD*%
X143275000Y-60637500D02*
X143275000Y-58909000D01*
X143275000Y-58909000D02*
X143764000Y-58420000D01*
D28*
%TO.N,+5V*%
X140208000Y-60174500D02*
X140671000Y-60637500D01*
X140208000Y-59182000D02*
X140208000Y-60174500D01*
X140208000Y-60458500D02*
X140029000Y-60637500D01*
D27*
X112471000Y-84328000D02*
X112522000Y-84277000D01*
X112471000Y-93980000D02*
X112522000Y-94031000D01*
X111252000Y-93980000D02*
X112471000Y-93980000D01*
D28*
X140208000Y-59182000D02*
X140208000Y-60458500D01*
D27*
X111252000Y-84328000D02*
X112471000Y-84328000D01*
X122245000Y-60637500D02*
X122245000Y-59377900D01*
X111506000Y-75235000D02*
X112522000Y-76251000D01*
D28*
X114554000Y-94031000D02*
X112522000Y-94031000D01*
X114554000Y-84277000D02*
X112522000Y-84277000D01*
D27*
X122895000Y-60637500D02*
X122245000Y-60637500D01*
D28*
%TO.N,Net-(D1-K)*%
X114554000Y-77775000D02*
X114554000Y-79248000D01*
%TO.N,Net-(D2-K)*%
X120650000Y-90932000D02*
X120650000Y-92405000D01*
D27*
%TO.N,S1_BOUT1*%
X124200200Y-66370200D02*
X124200200Y-67814700D01*
X124200200Y-67814700D02*
X124211200Y-67825700D01*
X142580000Y-88900000D02*
X135772500Y-95707500D01*
X122377500Y-95707500D02*
X120650000Y-93980000D01*
X135772500Y-95707500D02*
X122377500Y-95707500D01*
D28*
%TO.N,Net-(D3-K)*%
X126746000Y-85852000D02*
X126746000Y-87376000D01*
D27*
%TO.N,S2_BOUT1*%
X141975000Y-66362500D02*
X141975000Y-67807000D01*
X142580000Y-78740000D02*
X138262000Y-83058000D01*
X127965000Y-83058000D02*
X126746000Y-84277000D01*
X138262000Y-83058000D02*
X127965000Y-83058000D01*
X141975000Y-67807000D02*
X141986000Y-67818000D01*
D28*
%TO.N,Net-(D4-K)*%
X122682000Y-90932000D02*
X122682000Y-92456000D01*
D27*
%TO.N,S1_BOUT2*%
X123904500Y-95253500D02*
X122682000Y-94031000D01*
X139080000Y-88900000D02*
X132726500Y-95253500D01*
X132726500Y-95253500D02*
X123904500Y-95253500D01*
X122900200Y-67784700D02*
X122941200Y-67825700D01*
X122900200Y-66370200D02*
X122900200Y-67784700D01*
D28*
%TO.N,Net-(D5-K)*%
X124714000Y-85852000D02*
X124714000Y-87376000D01*
D27*
%TO.N,S2_BOUT2*%
X140675000Y-67777000D02*
X140716000Y-67818000D01*
X135524000Y-82296000D02*
X126695000Y-82296000D01*
X139080000Y-78740000D02*
X135524000Y-82296000D01*
X140675000Y-66362500D02*
X140675000Y-67777000D01*
X126695000Y-82296000D02*
X124714000Y-84277000D01*
D28*
%TO.N,Net-(D6-K)*%
X124714000Y-90936000D02*
X124714000Y-92460000D01*
D27*
%TO.N,S1_AOUT2*%
X135580000Y-88900000D02*
X129680500Y-94799500D01*
X122250200Y-67754700D02*
X122179200Y-67825700D01*
X122250200Y-66370200D02*
X122250200Y-67754700D01*
X129680500Y-94799500D02*
X125478500Y-94799500D01*
X125478500Y-94799500D02*
X124714000Y-94035000D01*
D28*
%TO.N,Net-(D7-K)*%
X122682000Y-85852000D02*
X122682000Y-87376000D01*
D27*
%TO.N,S2_AOUT2*%
X132532000Y-81788000D02*
X125171000Y-81788000D01*
X125171000Y-81788000D02*
X122682000Y-84277000D01*
X140025000Y-66362500D02*
X140025000Y-67747000D01*
X140025000Y-67747000D02*
X139954000Y-67818000D01*
X135580000Y-78740000D02*
X132532000Y-81788000D01*
D28*
%TO.N,Net-(D8-K)*%
X126746000Y-90936000D02*
X126746000Y-92460000D01*
D27*
%TO.N,S1_AOUT1*%
X120950200Y-67784700D02*
X120909200Y-67825700D01*
X126945000Y-94035000D02*
X126746000Y-94035000D01*
X132080000Y-88900000D02*
X126945000Y-94035000D01*
X120950200Y-66370200D02*
X120950200Y-67784700D01*
D28*
%TO.N,Net-(D9-K)*%
X120650000Y-85852000D02*
X120650000Y-87376000D01*
D27*
%TO.N,S2_AOUT1*%
X138725000Y-66362500D02*
X138725000Y-67777000D01*
X138725000Y-67777000D02*
X138684000Y-67818000D01*
X132080000Y-78740000D02*
X129794000Y-81026000D01*
X129794000Y-81026000D02*
X123901000Y-81026000D01*
X123901000Y-81026000D02*
X120650000Y-84277000D01*
D28*
%TO.N,Net-(D12-K)*%
X114554000Y-90932000D02*
X114554000Y-92456000D01*
%TO.N,Net-(D13-K)*%
X114554000Y-85852000D02*
X114554000Y-87376000D01*
%TO.N,Net-(D14-K)*%
X112522000Y-77775000D02*
X112522000Y-79248000D01*
%TO.N,Net-(D16-K)*%
X112522000Y-90932000D02*
X112522000Y-92456000D01*
%TO.N,Net-(D17-K)*%
X112522000Y-85852000D02*
X112522000Y-87376000D01*
D27*
%TO.N,SCL*%
X105156000Y-50800000D02*
X105156000Y-55204000D01*
X105156000Y-55204000D02*
X101940000Y-58420000D01*
%TO.N,SDA*%
X107696000Y-50800000D02*
X107696000Y-56164000D01*
X107696000Y-56164000D02*
X105440000Y-58420000D01*
%TO.N,D6*%
X114819428Y-60209428D02*
X108940000Y-66088856D01*
X108940000Y-68580000D02*
X113081000Y-68580000D01*
X113081000Y-68580000D02*
X120650000Y-76149000D01*
X108940000Y-66088856D02*
X108940000Y-68580000D01*
%TO.N,D7*%
X113797714Y-60203714D02*
X113503000Y-60203714D01*
X113503000Y-60499134D02*
X111572134Y-62430000D01*
X104734000Y-71374000D02*
X113843000Y-71374000D01*
X113503000Y-60203714D02*
X113503000Y-60499134D01*
X101940000Y-64430000D02*
X101940000Y-68580000D01*
X101940000Y-68580000D02*
X104734000Y-71374000D01*
X113843000Y-71425000D02*
X118618000Y-76200000D01*
X111572134Y-62430000D02*
X103940000Y-62430000D01*
X103940000Y-62430000D02*
X101940000Y-64430000D01*
%TO.N,D8*%
X97028000Y-61976000D02*
X94940000Y-64064000D01*
X110998000Y-61976000D02*
X97028000Y-61976000D01*
X94940000Y-64064000D02*
X94940000Y-68580000D01*
X112776000Y-60198000D02*
X110998000Y-61976000D01*
X99004000Y-72644000D02*
X113030000Y-72644000D01*
X113030000Y-72695000D02*
X116535000Y-76200000D01*
X116535000Y-76149000D02*
X116586000Y-76149000D01*
X94940000Y-68580000D02*
X99004000Y-72644000D01*
%TO.N,/Stepper1/RREF*%
X123550200Y-60645200D02*
X123550200Y-59895883D01*
X121760200Y-58262700D02*
X121163200Y-57665700D01*
X123120200Y-59465883D02*
X123120200Y-58740752D01*
X123550200Y-59895883D02*
X123120200Y-59465883D01*
X122642148Y-58262700D02*
X121760200Y-58262700D01*
X123120200Y-58740752D02*
X122642148Y-58262700D01*
%TO.N,/Stepper1/nFAULT*%
X124195000Y-60637500D02*
X124127200Y-60569700D01*
X122940000Y-57662000D02*
X122682000Y-57662000D01*
X124127200Y-60569700D02*
X124127200Y-58849200D01*
X124127200Y-58849200D02*
X122940000Y-57662000D01*
%TO.N,/Stepper2/nFAULT*%
X141902000Y-60564500D02*
X141902000Y-59098000D01*
X141975000Y-60637500D02*
X141902000Y-60564500D01*
X141902000Y-59098000D02*
X140462000Y-57658000D01*
%TO.N,/Stepper2/RREF*%
X139535000Y-58255000D02*
X138938000Y-57658000D01*
X140895000Y-58733052D02*
X140416948Y-58255000D01*
X140895000Y-59458183D02*
X140895000Y-58733052D01*
X140416948Y-58255000D02*
X139535000Y-58255000D01*
X141325000Y-60637500D02*
X141325000Y-59888183D01*
X141325000Y-59888183D02*
X140895000Y-59458183D01*
%TO.N,S2_STEP*%
X116891000Y-84277000D02*
X116586000Y-84277000D01*
X136144000Y-56896000D02*
X136144000Y-57658000D01*
X139375000Y-59155733D02*
X139375000Y-60637500D01*
X137877267Y-57658000D02*
X139375000Y-59155733D01*
X142240000Y-50800000D02*
X136144000Y-56896000D01*
X117602000Y-83566000D02*
X116891000Y-84277000D01*
X136144000Y-57658000D02*
X137877267Y-57658000D01*
X117602000Y-82550000D02*
X117602000Y-83566000D01*
%TO.N,S2_DIR*%
X119380000Y-83515000D02*
X118618000Y-84277000D01*
X136144000Y-58420000D02*
X137997215Y-58420000D01*
X137997215Y-58420000D02*
X138725000Y-59147785D01*
X119380000Y-82550000D02*
X119380000Y-83515000D01*
X138725000Y-59147785D02*
X138725000Y-60637500D01*
%TO.N,S1_STEP*%
X122936000Y-53086000D02*
X118364000Y-57658000D01*
X120094767Y-57658000D02*
X118364000Y-57658000D01*
X121595000Y-59158233D02*
X120094767Y-57658000D01*
X117602000Y-94767500D02*
X116865500Y-94031000D01*
X116865500Y-94031000D02*
X116586000Y-94031000D01*
X137160000Y-50800000D02*
X134874000Y-53086000D01*
X117602000Y-95758000D02*
X117602000Y-94767500D01*
X121595000Y-60637500D02*
X121595000Y-59158233D01*
X134874000Y-53086000D02*
X122936000Y-53086000D01*
%TO.N,S1_DIR*%
X119380000Y-94793000D02*
X118618000Y-94031000D01*
X120945000Y-59150285D02*
X120214715Y-58420000D01*
X120214715Y-58420000D02*
X118364000Y-58420000D01*
X120945000Y-60637500D02*
X120945000Y-59150285D01*
X119380000Y-95758000D02*
X119380000Y-94793000D01*
D28*
%TO.N,Net-(D15-K)*%
X120650000Y-77724000D02*
X120650000Y-79248000D01*
%TO.N,Net-(D18-K)*%
X118618000Y-77724000D02*
X118618000Y-79248000D01*
%TO.N,Net-(D19-K)*%
X116586000Y-79248000D02*
X116586000Y-77724000D01*
%TO.N,Net-(D10-K)*%
X122682000Y-77724000D02*
X122682000Y-79248000D01*
%TO.N,Net-(D11-K)*%
X116586000Y-85852000D02*
X116586000Y-87376000D01*
%TO.N,Net-(D20-K)*%
X118618000Y-85852000D02*
X118618000Y-87376000D01*
%TO.N,Net-(D21-K)*%
X116586000Y-90932000D02*
X116586000Y-92456000D01*
%TO.N,Net-(D22-K)*%
X118618000Y-90932000D02*
X118618000Y-92456000D01*
D27*
%TO.N,Net-(D10-A)*%
X127508000Y-71323000D02*
X122682000Y-76149000D01*
X125476000Y-54864000D02*
X127508000Y-56896000D01*
X127508000Y-56896000D02*
X127508000Y-71323000D01*
%TD*%
M02*
