%TF.GenerationSoftware,KiCad,Pcbnew,(7.0.0)*%
%TF.CreationDate,2023-04-12T12:24:06-05:00*%
%TF.ProjectId,TurretCtl,54757272-6574-4437-946c-2e6b69636164,rev?*%
%TF.SameCoordinates,Original*%
%TF.FileFunction,Legend,Top*%
%TF.FilePolarity,Positive*%
%FSLAX46Y46*%
G04 Gerber Fmt 4.6, Leading zero omitted, Abs format (unit mm)*
G04 Created by KiCad (PCBNEW (7.0.0)) date 2023-04-12 12:24:06*
%MOMM*%
%LPD*%
G01*
G04 APERTURE LIST*
%ADD10C,0.150000*%
%ADD11C,0.127000*%
%ADD12C,0.063500*%
%ADD13C,0.075000*%
%ADD14C,0.120000*%
G04 APERTURE END LIST*
D10*
X117407961Y-66294000D02*
G75*
G03*
X117407961Y-66294000I-567961J0D01*
G01*
X135187961Y-66294000D02*
G75*
G03*
X135187961Y-66294000I-567961J0D01*
G01*
D11*
X111856761Y-96428439D02*
X111929333Y-96452629D01*
X111929333Y-96452629D02*
X112050285Y-96452629D01*
X112050285Y-96452629D02*
X112098666Y-96428439D01*
X112098666Y-96428439D02*
X112122857Y-96404248D01*
X112122857Y-96404248D02*
X112147047Y-96355867D01*
X112147047Y-96355867D02*
X112147047Y-96307486D01*
X112147047Y-96307486D02*
X112122857Y-96259105D01*
X112122857Y-96259105D02*
X112098666Y-96234915D01*
X112098666Y-96234915D02*
X112050285Y-96210724D01*
X112050285Y-96210724D02*
X111953523Y-96186534D01*
X111953523Y-96186534D02*
X111905142Y-96162343D01*
X111905142Y-96162343D02*
X111880952Y-96138153D01*
X111880952Y-96138153D02*
X111856761Y-96089772D01*
X111856761Y-96089772D02*
X111856761Y-96041391D01*
X111856761Y-96041391D02*
X111880952Y-95993010D01*
X111880952Y-95993010D02*
X111905142Y-95968820D01*
X111905142Y-95968820D02*
X111953523Y-95944629D01*
X111953523Y-95944629D02*
X112074476Y-95944629D01*
X112074476Y-95944629D02*
X112147047Y-95968820D01*
X112292190Y-96113962D02*
X112485714Y-96113962D01*
X112364762Y-95944629D02*
X112364762Y-96380058D01*
X112364762Y-96380058D02*
X112388952Y-96428439D01*
X112388952Y-96428439D02*
X112437333Y-96452629D01*
X112437333Y-96452629D02*
X112485714Y-96452629D01*
X112848572Y-96428439D02*
X112800191Y-96452629D01*
X112800191Y-96452629D02*
X112703429Y-96452629D01*
X112703429Y-96452629D02*
X112655048Y-96428439D01*
X112655048Y-96428439D02*
X112630857Y-96380058D01*
X112630857Y-96380058D02*
X112630857Y-96186534D01*
X112630857Y-96186534D02*
X112655048Y-96138153D01*
X112655048Y-96138153D02*
X112703429Y-96113962D01*
X112703429Y-96113962D02*
X112800191Y-96113962D01*
X112800191Y-96113962D02*
X112848572Y-96138153D01*
X112848572Y-96138153D02*
X112872762Y-96186534D01*
X112872762Y-96186534D02*
X112872762Y-96234915D01*
X112872762Y-96234915D02*
X112630857Y-96283296D01*
X113090477Y-96113962D02*
X113090477Y-96621962D01*
X113090477Y-96138153D02*
X113138858Y-96113962D01*
X113138858Y-96113962D02*
X113235620Y-96113962D01*
X113235620Y-96113962D02*
X113284001Y-96138153D01*
X113284001Y-96138153D02*
X113308191Y-96162343D01*
X113308191Y-96162343D02*
X113332382Y-96210724D01*
X113332382Y-96210724D02*
X113332382Y-96355867D01*
X113332382Y-96355867D02*
X113308191Y-96404248D01*
X113308191Y-96404248D02*
X113284001Y-96428439D01*
X113284001Y-96428439D02*
X113235620Y-96452629D01*
X113235620Y-96452629D02*
X113138858Y-96452629D01*
X113138858Y-96452629D02*
X113090477Y-96428439D01*
X113550096Y-96113962D02*
X113550096Y-96621962D01*
X113550096Y-96138153D02*
X113598477Y-96113962D01*
X113598477Y-96113962D02*
X113695239Y-96113962D01*
X113695239Y-96113962D02*
X113743620Y-96138153D01*
X113743620Y-96138153D02*
X113767810Y-96162343D01*
X113767810Y-96162343D02*
X113792001Y-96210724D01*
X113792001Y-96210724D02*
X113792001Y-96355867D01*
X113792001Y-96355867D02*
X113767810Y-96404248D01*
X113767810Y-96404248D02*
X113743620Y-96428439D01*
X113743620Y-96428439D02*
X113695239Y-96452629D01*
X113695239Y-96452629D02*
X113598477Y-96452629D01*
X113598477Y-96452629D02*
X113550096Y-96428439D01*
X114203239Y-96428439D02*
X114154858Y-96452629D01*
X114154858Y-96452629D02*
X114058096Y-96452629D01*
X114058096Y-96452629D02*
X114009715Y-96428439D01*
X114009715Y-96428439D02*
X113985524Y-96380058D01*
X113985524Y-96380058D02*
X113985524Y-96186534D01*
X113985524Y-96186534D02*
X114009715Y-96138153D01*
X114009715Y-96138153D02*
X114058096Y-96113962D01*
X114058096Y-96113962D02*
X114154858Y-96113962D01*
X114154858Y-96113962D02*
X114203239Y-96138153D01*
X114203239Y-96138153D02*
X114227429Y-96186534D01*
X114227429Y-96186534D02*
X114227429Y-96234915D01*
X114227429Y-96234915D02*
X113985524Y-96283296D01*
X114445144Y-96452629D02*
X114445144Y-96113962D01*
X114445144Y-96210724D02*
X114469334Y-96162343D01*
X114469334Y-96162343D02*
X114493525Y-96138153D01*
X114493525Y-96138153D02*
X114541906Y-96113962D01*
X114541906Y-96113962D02*
X114590287Y-96113962D01*
X115330515Y-96452629D02*
X115040229Y-96452629D01*
X115185372Y-96452629D02*
X115185372Y-95944629D01*
X115185372Y-95944629D02*
X115136991Y-96017200D01*
X115136991Y-96017200D02*
X115088610Y-96065581D01*
X115088610Y-96065581D02*
X115040229Y-96089772D01*
X115853030Y-96259105D02*
X116240078Y-96259105D01*
X116481982Y-96259105D02*
X116869030Y-96259105D01*
X117110934Y-96259105D02*
X117497982Y-96259105D01*
X117739886Y-96259105D02*
X118126934Y-96259105D01*
X118368838Y-96259105D02*
X118755886Y-96259105D01*
X118997790Y-96259105D02*
X119384838Y-96259105D01*
X119626742Y-96259105D02*
X120013790Y-96259105D01*
X120255694Y-96259105D02*
X120642742Y-96259105D01*
X120884646Y-96259105D02*
X121271694Y-96259105D01*
X121513598Y-96259105D02*
X121900646Y-96259105D01*
X122142550Y-96259105D02*
X122529598Y-96259105D01*
X122771502Y-96259105D02*
X123158550Y-96259105D01*
X123400454Y-96259105D02*
X123787502Y-96259105D01*
X124029406Y-96259105D02*
X124416454Y-96259105D01*
X124658358Y-96259105D02*
X125045406Y-96259105D01*
X125287310Y-96259105D02*
X125674358Y-96259105D01*
X125916262Y-96259105D02*
X126303310Y-96259105D01*
X126545214Y-96259105D02*
X126932262Y-96259105D01*
X127174166Y-96259105D02*
X127561214Y-96259105D01*
X126080761Y-95291486D02*
X126322666Y-95291486D01*
X126032380Y-95436629D02*
X126201714Y-94928629D01*
X126201714Y-94928629D02*
X126371047Y-95436629D01*
X126806476Y-95436629D02*
X126516190Y-95436629D01*
X126661333Y-95436629D02*
X126661333Y-94928629D01*
X126661333Y-94928629D02*
X126612952Y-95001200D01*
X126612952Y-95001200D02*
X126564571Y-95049581D01*
X126564571Y-95049581D02*
X126516190Y-95073772D01*
X114179047Y-75167629D02*
X113888761Y-75167629D01*
X114033904Y-75167629D02*
X114033904Y-74659629D01*
X114033904Y-74659629D02*
X113985523Y-74732200D01*
X113985523Y-74732200D02*
X113937142Y-74780581D01*
X113937142Y-74780581D02*
X113888761Y-74804772D01*
X114372571Y-74708010D02*
X114396762Y-74683820D01*
X114396762Y-74683820D02*
X114445143Y-74659629D01*
X114445143Y-74659629D02*
X114566095Y-74659629D01*
X114566095Y-74659629D02*
X114614476Y-74683820D01*
X114614476Y-74683820D02*
X114638667Y-74708010D01*
X114638667Y-74708010D02*
X114662857Y-74756391D01*
X114662857Y-74756391D02*
X114662857Y-74804772D01*
X114662857Y-74804772D02*
X114638667Y-74877343D01*
X114638667Y-74877343D02*
X114348381Y-75167629D01*
X114348381Y-75167629D02*
X114662857Y-75167629D01*
X114808000Y-74659629D02*
X114977334Y-75167629D01*
X114977334Y-75167629D02*
X115146667Y-74659629D01*
D12*
X119186476Y-75285962D02*
X119380000Y-75285962D01*
X119283238Y-75382724D02*
X119283238Y-75189200D01*
X123250476Y-75285962D02*
X123444000Y-75285962D01*
X123347238Y-75382724D02*
X123347238Y-75189200D01*
D11*
X136494761Y-54518439D02*
X136567333Y-54542629D01*
X136567333Y-54542629D02*
X136688285Y-54542629D01*
X136688285Y-54542629D02*
X136736666Y-54518439D01*
X136736666Y-54518439D02*
X136760857Y-54494248D01*
X136760857Y-54494248D02*
X136785047Y-54445867D01*
X136785047Y-54445867D02*
X136785047Y-54397486D01*
X136785047Y-54397486D02*
X136760857Y-54349105D01*
X136760857Y-54349105D02*
X136736666Y-54324915D01*
X136736666Y-54324915D02*
X136688285Y-54300724D01*
X136688285Y-54300724D02*
X136591523Y-54276534D01*
X136591523Y-54276534D02*
X136543142Y-54252343D01*
X136543142Y-54252343D02*
X136518952Y-54228153D01*
X136518952Y-54228153D02*
X136494761Y-54179772D01*
X136494761Y-54179772D02*
X136494761Y-54131391D01*
X136494761Y-54131391D02*
X136518952Y-54083010D01*
X136518952Y-54083010D02*
X136543142Y-54058820D01*
X136543142Y-54058820D02*
X136591523Y-54034629D01*
X136591523Y-54034629D02*
X136712476Y-54034629D01*
X136712476Y-54034629D02*
X136785047Y-54058820D01*
X136930190Y-54203962D02*
X137123714Y-54203962D01*
X137002762Y-54034629D02*
X137002762Y-54470058D01*
X137002762Y-54470058D02*
X137026952Y-54518439D01*
X137026952Y-54518439D02*
X137075333Y-54542629D01*
X137075333Y-54542629D02*
X137123714Y-54542629D01*
X137486572Y-54518439D02*
X137438191Y-54542629D01*
X137438191Y-54542629D02*
X137341429Y-54542629D01*
X137341429Y-54542629D02*
X137293048Y-54518439D01*
X137293048Y-54518439D02*
X137268857Y-54470058D01*
X137268857Y-54470058D02*
X137268857Y-54276534D01*
X137268857Y-54276534D02*
X137293048Y-54228153D01*
X137293048Y-54228153D02*
X137341429Y-54203962D01*
X137341429Y-54203962D02*
X137438191Y-54203962D01*
X137438191Y-54203962D02*
X137486572Y-54228153D01*
X137486572Y-54228153D02*
X137510762Y-54276534D01*
X137510762Y-54276534D02*
X137510762Y-54324915D01*
X137510762Y-54324915D02*
X137268857Y-54373296D01*
X137728477Y-54203962D02*
X137728477Y-54711962D01*
X137728477Y-54228153D02*
X137776858Y-54203962D01*
X137776858Y-54203962D02*
X137873620Y-54203962D01*
X137873620Y-54203962D02*
X137922001Y-54228153D01*
X137922001Y-54228153D02*
X137946191Y-54252343D01*
X137946191Y-54252343D02*
X137970382Y-54300724D01*
X137970382Y-54300724D02*
X137970382Y-54445867D01*
X137970382Y-54445867D02*
X137946191Y-54494248D01*
X137946191Y-54494248D02*
X137922001Y-54518439D01*
X137922001Y-54518439D02*
X137873620Y-54542629D01*
X137873620Y-54542629D02*
X137776858Y-54542629D01*
X137776858Y-54542629D02*
X137728477Y-54518439D01*
X138188096Y-54203962D02*
X138188096Y-54711962D01*
X138188096Y-54228153D02*
X138236477Y-54203962D01*
X138236477Y-54203962D02*
X138333239Y-54203962D01*
X138333239Y-54203962D02*
X138381620Y-54228153D01*
X138381620Y-54228153D02*
X138405810Y-54252343D01*
X138405810Y-54252343D02*
X138430001Y-54300724D01*
X138430001Y-54300724D02*
X138430001Y-54445867D01*
X138430001Y-54445867D02*
X138405810Y-54494248D01*
X138405810Y-54494248D02*
X138381620Y-54518439D01*
X138381620Y-54518439D02*
X138333239Y-54542629D01*
X138333239Y-54542629D02*
X138236477Y-54542629D01*
X138236477Y-54542629D02*
X138188096Y-54518439D01*
X138841239Y-54518439D02*
X138792858Y-54542629D01*
X138792858Y-54542629D02*
X138696096Y-54542629D01*
X138696096Y-54542629D02*
X138647715Y-54518439D01*
X138647715Y-54518439D02*
X138623524Y-54470058D01*
X138623524Y-54470058D02*
X138623524Y-54276534D01*
X138623524Y-54276534D02*
X138647715Y-54228153D01*
X138647715Y-54228153D02*
X138696096Y-54203962D01*
X138696096Y-54203962D02*
X138792858Y-54203962D01*
X138792858Y-54203962D02*
X138841239Y-54228153D01*
X138841239Y-54228153D02*
X138865429Y-54276534D01*
X138865429Y-54276534D02*
X138865429Y-54324915D01*
X138865429Y-54324915D02*
X138623524Y-54373296D01*
X139083144Y-54542629D02*
X139083144Y-54203962D01*
X139083144Y-54300724D02*
X139107334Y-54252343D01*
X139107334Y-54252343D02*
X139131525Y-54228153D01*
X139131525Y-54228153D02*
X139179906Y-54203962D01*
X139179906Y-54203962D02*
X139228287Y-54203962D01*
X139968515Y-54542629D02*
X139678229Y-54542629D01*
X139823372Y-54542629D02*
X139823372Y-54034629D01*
X139823372Y-54034629D02*
X139774991Y-54107200D01*
X139774991Y-54107200D02*
X139726610Y-54155581D01*
X139726610Y-54155581D02*
X139678229Y-54179772D01*
X140491030Y-54349105D02*
X140878078Y-54349105D01*
D12*
X117154476Y-83413962D02*
X117348000Y-83413962D01*
X117251238Y-83510724D02*
X117251238Y-83317200D01*
D11*
X111880952Y-95170534D02*
X112050285Y-95170534D01*
X112122857Y-95436629D02*
X111880952Y-95436629D01*
X111880952Y-95436629D02*
X111880952Y-94928629D01*
X111880952Y-94928629D02*
X112122857Y-94928629D01*
X112340571Y-95097962D02*
X112340571Y-95436629D01*
X112340571Y-95146343D02*
X112364761Y-95122153D01*
X112364761Y-95122153D02*
X112413142Y-95097962D01*
X112413142Y-95097962D02*
X112485714Y-95097962D01*
X112485714Y-95097962D02*
X112534095Y-95122153D01*
X112534095Y-95122153D02*
X112558285Y-95170534D01*
X112558285Y-95170534D02*
X112558285Y-95436629D01*
X113017904Y-95436629D02*
X113017904Y-95170534D01*
X113017904Y-95170534D02*
X112993714Y-95122153D01*
X112993714Y-95122153D02*
X112945333Y-95097962D01*
X112945333Y-95097962D02*
X112848571Y-95097962D01*
X112848571Y-95097962D02*
X112800190Y-95122153D01*
X113017904Y-95412439D02*
X112969523Y-95436629D01*
X112969523Y-95436629D02*
X112848571Y-95436629D01*
X112848571Y-95436629D02*
X112800190Y-95412439D01*
X112800190Y-95412439D02*
X112775999Y-95364058D01*
X112775999Y-95364058D02*
X112775999Y-95315677D01*
X112775999Y-95315677D02*
X112800190Y-95267296D01*
X112800190Y-95267296D02*
X112848571Y-95243105D01*
X112848571Y-95243105D02*
X112969523Y-95243105D01*
X112969523Y-95243105D02*
X113017904Y-95218915D01*
D12*
X115122476Y-83413962D02*
X115316000Y-83413962D01*
X115219238Y-83510724D02*
X115219238Y-83317200D01*
X115122476Y-75285962D02*
X115316000Y-75285962D01*
X115219238Y-75382724D02*
X115219238Y-75189200D01*
D11*
X115920761Y-83220439D02*
X115993333Y-83244629D01*
X115993333Y-83244629D02*
X116114285Y-83244629D01*
X116114285Y-83244629D02*
X116162666Y-83220439D01*
X116162666Y-83220439D02*
X116186857Y-83196248D01*
X116186857Y-83196248D02*
X116211047Y-83147867D01*
X116211047Y-83147867D02*
X116211047Y-83099486D01*
X116211047Y-83099486D02*
X116186857Y-83051105D01*
X116186857Y-83051105D02*
X116162666Y-83026915D01*
X116162666Y-83026915D02*
X116114285Y-83002724D01*
X116114285Y-83002724D02*
X116017523Y-82978534D01*
X116017523Y-82978534D02*
X115969142Y-82954343D01*
X115969142Y-82954343D02*
X115944952Y-82930153D01*
X115944952Y-82930153D02*
X115920761Y-82881772D01*
X115920761Y-82881772D02*
X115920761Y-82833391D01*
X115920761Y-82833391D02*
X115944952Y-82785010D01*
X115944952Y-82785010D02*
X115969142Y-82760820D01*
X115969142Y-82760820D02*
X116017523Y-82736629D01*
X116017523Y-82736629D02*
X116138476Y-82736629D01*
X116138476Y-82736629D02*
X116211047Y-82760820D01*
X116356190Y-82905962D02*
X116549714Y-82905962D01*
X116428762Y-82736629D02*
X116428762Y-83172058D01*
X116428762Y-83172058D02*
X116452952Y-83220439D01*
X116452952Y-83220439D02*
X116501333Y-83244629D01*
X116501333Y-83244629D02*
X116549714Y-83244629D01*
X116912572Y-83220439D02*
X116864191Y-83244629D01*
X116864191Y-83244629D02*
X116767429Y-83244629D01*
X116767429Y-83244629D02*
X116719048Y-83220439D01*
X116719048Y-83220439D02*
X116694857Y-83172058D01*
X116694857Y-83172058D02*
X116694857Y-82978534D01*
X116694857Y-82978534D02*
X116719048Y-82930153D01*
X116719048Y-82930153D02*
X116767429Y-82905962D01*
X116767429Y-82905962D02*
X116864191Y-82905962D01*
X116864191Y-82905962D02*
X116912572Y-82930153D01*
X116912572Y-82930153D02*
X116936762Y-82978534D01*
X116936762Y-82978534D02*
X116936762Y-83026915D01*
X116936762Y-83026915D02*
X116694857Y-83075296D01*
X117154477Y-82905962D02*
X117154477Y-83413962D01*
X117154477Y-82930153D02*
X117202858Y-82905962D01*
X117202858Y-82905962D02*
X117299620Y-82905962D01*
X117299620Y-82905962D02*
X117348001Y-82930153D01*
X117348001Y-82930153D02*
X117372191Y-82954343D01*
X117372191Y-82954343D02*
X117396382Y-83002724D01*
X117396382Y-83002724D02*
X117396382Y-83147867D01*
X117396382Y-83147867D02*
X117372191Y-83196248D01*
X117372191Y-83196248D02*
X117348001Y-83220439D01*
X117348001Y-83220439D02*
X117299620Y-83244629D01*
X117299620Y-83244629D02*
X117202858Y-83244629D01*
X117202858Y-83244629D02*
X117154477Y-83220439D01*
X111856761Y-82204439D02*
X111929333Y-82228629D01*
X111929333Y-82228629D02*
X112050285Y-82228629D01*
X112050285Y-82228629D02*
X112098666Y-82204439D01*
X112098666Y-82204439D02*
X112122857Y-82180248D01*
X112122857Y-82180248D02*
X112147047Y-82131867D01*
X112147047Y-82131867D02*
X112147047Y-82083486D01*
X112147047Y-82083486D02*
X112122857Y-82035105D01*
X112122857Y-82035105D02*
X112098666Y-82010915D01*
X112098666Y-82010915D02*
X112050285Y-81986724D01*
X112050285Y-81986724D02*
X111953523Y-81962534D01*
X111953523Y-81962534D02*
X111905142Y-81938343D01*
X111905142Y-81938343D02*
X111880952Y-81914153D01*
X111880952Y-81914153D02*
X111856761Y-81865772D01*
X111856761Y-81865772D02*
X111856761Y-81817391D01*
X111856761Y-81817391D02*
X111880952Y-81769010D01*
X111880952Y-81769010D02*
X111905142Y-81744820D01*
X111905142Y-81744820D02*
X111953523Y-81720629D01*
X111953523Y-81720629D02*
X112074476Y-81720629D01*
X112074476Y-81720629D02*
X112147047Y-81744820D01*
X112292190Y-81889962D02*
X112485714Y-81889962D01*
X112364762Y-81720629D02*
X112364762Y-82156058D01*
X112364762Y-82156058D02*
X112388952Y-82204439D01*
X112388952Y-82204439D02*
X112437333Y-82228629D01*
X112437333Y-82228629D02*
X112485714Y-82228629D01*
X112848572Y-82204439D02*
X112800191Y-82228629D01*
X112800191Y-82228629D02*
X112703429Y-82228629D01*
X112703429Y-82228629D02*
X112655048Y-82204439D01*
X112655048Y-82204439D02*
X112630857Y-82156058D01*
X112630857Y-82156058D02*
X112630857Y-81962534D01*
X112630857Y-81962534D02*
X112655048Y-81914153D01*
X112655048Y-81914153D02*
X112703429Y-81889962D01*
X112703429Y-81889962D02*
X112800191Y-81889962D01*
X112800191Y-81889962D02*
X112848572Y-81914153D01*
X112848572Y-81914153D02*
X112872762Y-81962534D01*
X112872762Y-81962534D02*
X112872762Y-82010915D01*
X112872762Y-82010915D02*
X112630857Y-82059296D01*
X113090477Y-81889962D02*
X113090477Y-82397962D01*
X113090477Y-81914153D02*
X113138858Y-81889962D01*
X113138858Y-81889962D02*
X113235620Y-81889962D01*
X113235620Y-81889962D02*
X113284001Y-81914153D01*
X113284001Y-81914153D02*
X113308191Y-81938343D01*
X113308191Y-81938343D02*
X113332382Y-81986724D01*
X113332382Y-81986724D02*
X113332382Y-82131867D01*
X113332382Y-82131867D02*
X113308191Y-82180248D01*
X113308191Y-82180248D02*
X113284001Y-82204439D01*
X113284001Y-82204439D02*
X113235620Y-82228629D01*
X113235620Y-82228629D02*
X113138858Y-82228629D01*
X113138858Y-82228629D02*
X113090477Y-82204439D01*
X113550096Y-81889962D02*
X113550096Y-82397962D01*
X113550096Y-81914153D02*
X113598477Y-81889962D01*
X113598477Y-81889962D02*
X113695239Y-81889962D01*
X113695239Y-81889962D02*
X113743620Y-81914153D01*
X113743620Y-81914153D02*
X113767810Y-81938343D01*
X113767810Y-81938343D02*
X113792001Y-81986724D01*
X113792001Y-81986724D02*
X113792001Y-82131867D01*
X113792001Y-82131867D02*
X113767810Y-82180248D01*
X113767810Y-82180248D02*
X113743620Y-82204439D01*
X113743620Y-82204439D02*
X113695239Y-82228629D01*
X113695239Y-82228629D02*
X113598477Y-82228629D01*
X113598477Y-82228629D02*
X113550096Y-82204439D01*
X114203239Y-82204439D02*
X114154858Y-82228629D01*
X114154858Y-82228629D02*
X114058096Y-82228629D01*
X114058096Y-82228629D02*
X114009715Y-82204439D01*
X114009715Y-82204439D02*
X113985524Y-82156058D01*
X113985524Y-82156058D02*
X113985524Y-81962534D01*
X113985524Y-81962534D02*
X114009715Y-81914153D01*
X114009715Y-81914153D02*
X114058096Y-81889962D01*
X114058096Y-81889962D02*
X114154858Y-81889962D01*
X114154858Y-81889962D02*
X114203239Y-81914153D01*
X114203239Y-81914153D02*
X114227429Y-81962534D01*
X114227429Y-81962534D02*
X114227429Y-82010915D01*
X114227429Y-82010915D02*
X113985524Y-82059296D01*
X114445144Y-82228629D02*
X114445144Y-81889962D01*
X114445144Y-81986724D02*
X114469334Y-81938343D01*
X114469334Y-81938343D02*
X114493525Y-81914153D01*
X114493525Y-81914153D02*
X114541906Y-81889962D01*
X114541906Y-81889962D02*
X114590287Y-81889962D01*
X115040229Y-81769010D02*
X115064420Y-81744820D01*
X115064420Y-81744820D02*
X115112801Y-81720629D01*
X115112801Y-81720629D02*
X115233753Y-81720629D01*
X115233753Y-81720629D02*
X115282134Y-81744820D01*
X115282134Y-81744820D02*
X115306325Y-81769010D01*
X115306325Y-81769010D02*
X115330515Y-81817391D01*
X115330515Y-81817391D02*
X115330515Y-81865772D01*
X115330515Y-81865772D02*
X115306325Y-81938343D01*
X115306325Y-81938343D02*
X115016039Y-82228629D01*
X115016039Y-82228629D02*
X115330515Y-82228629D01*
X115853030Y-82035105D02*
X116240078Y-82035105D01*
X116481982Y-82035105D02*
X116869030Y-82035105D01*
X117110934Y-82035105D02*
X117497982Y-82035105D01*
X117739886Y-82035105D02*
X118126934Y-82035105D01*
X118368838Y-82035105D02*
X118755886Y-82035105D01*
X118997790Y-82035105D02*
X119384838Y-82035105D01*
X119626742Y-82035105D02*
X120013790Y-82035105D01*
X120255694Y-82035105D02*
X120642742Y-82035105D01*
X120884646Y-82035105D02*
X121271694Y-82035105D01*
X121513598Y-82035105D02*
X121900646Y-82035105D01*
X122142550Y-82035105D02*
X122529598Y-82035105D01*
X122771502Y-82035105D02*
X123158550Y-82035105D01*
X123400454Y-82035105D02*
X123787502Y-82035105D01*
X124029406Y-82035105D02*
X124416454Y-82035105D01*
X124658358Y-82035105D02*
X125045406Y-82035105D01*
X125287310Y-82035105D02*
X125674358Y-82035105D01*
X125916262Y-82035105D02*
X126303310Y-82035105D01*
X126545214Y-82035105D02*
X126932262Y-82035105D01*
X127174166Y-82035105D02*
X127561214Y-82035105D01*
D12*
X119186476Y-94843962D02*
X119380000Y-94843962D01*
X119283238Y-94940724D02*
X119283238Y-94747200D01*
D11*
X144138952Y-53018629D02*
X144138952Y-52510629D01*
X144138952Y-52510629D02*
X144259904Y-52510629D01*
X144259904Y-52510629D02*
X144332476Y-52534820D01*
X144332476Y-52534820D02*
X144380857Y-52583200D01*
X144380857Y-52583200D02*
X144405047Y-52631581D01*
X144405047Y-52631581D02*
X144429238Y-52728343D01*
X144429238Y-52728343D02*
X144429238Y-52800915D01*
X144429238Y-52800915D02*
X144405047Y-52897677D01*
X144405047Y-52897677D02*
X144380857Y-52946058D01*
X144380857Y-52946058D02*
X144332476Y-52994439D01*
X144332476Y-52994439D02*
X144259904Y-53018629D01*
X144259904Y-53018629D02*
X144138952Y-53018629D01*
X144646952Y-53018629D02*
X144646952Y-52679962D01*
X144646952Y-52510629D02*
X144622761Y-52534820D01*
X144622761Y-52534820D02*
X144646952Y-52559010D01*
X144646952Y-52559010D02*
X144671142Y-52534820D01*
X144671142Y-52534820D02*
X144646952Y-52510629D01*
X144646952Y-52510629D02*
X144646952Y-52559010D01*
X144888857Y-53018629D02*
X144888857Y-52679962D01*
X144888857Y-52776724D02*
X144913047Y-52728343D01*
X144913047Y-52728343D02*
X144937238Y-52704153D01*
X144937238Y-52704153D02*
X144985619Y-52679962D01*
X144985619Y-52679962D02*
X145034000Y-52679962D01*
X122210285Y-95170534D02*
X122282857Y-95194724D01*
X122282857Y-95194724D02*
X122307047Y-95218915D01*
X122307047Y-95218915D02*
X122331238Y-95267296D01*
X122331238Y-95267296D02*
X122331238Y-95339867D01*
X122331238Y-95339867D02*
X122307047Y-95388248D01*
X122307047Y-95388248D02*
X122282857Y-95412439D01*
X122282857Y-95412439D02*
X122234476Y-95436629D01*
X122234476Y-95436629D02*
X122040952Y-95436629D01*
X122040952Y-95436629D02*
X122040952Y-94928629D01*
X122040952Y-94928629D02*
X122210285Y-94928629D01*
X122210285Y-94928629D02*
X122258666Y-94952820D01*
X122258666Y-94952820D02*
X122282857Y-94977010D01*
X122282857Y-94977010D02*
X122307047Y-95025391D01*
X122307047Y-95025391D02*
X122307047Y-95073772D01*
X122307047Y-95073772D02*
X122282857Y-95122153D01*
X122282857Y-95122153D02*
X122258666Y-95146343D01*
X122258666Y-95146343D02*
X122210285Y-95170534D01*
X122210285Y-95170534D02*
X122040952Y-95170534D01*
X122524761Y-94977010D02*
X122548952Y-94952820D01*
X122548952Y-94952820D02*
X122597333Y-94928629D01*
X122597333Y-94928629D02*
X122718285Y-94928629D01*
X122718285Y-94928629D02*
X122766666Y-94952820D01*
X122766666Y-94952820D02*
X122790857Y-94977010D01*
X122790857Y-94977010D02*
X122815047Y-95025391D01*
X122815047Y-95025391D02*
X122815047Y-95073772D01*
X122815047Y-95073772D02*
X122790857Y-95146343D01*
X122790857Y-95146343D02*
X122500571Y-95436629D01*
X122500571Y-95436629D02*
X122815047Y-95436629D01*
D12*
X113090476Y-94843962D02*
X113284000Y-94843962D01*
X113187238Y-94940724D02*
X113187238Y-94747200D01*
X121218476Y-83413962D02*
X121412000Y-83413962D01*
X121315238Y-83510724D02*
X121315238Y-83317200D01*
X127314476Y-94843962D02*
X127508000Y-94843962D01*
X127411238Y-94940724D02*
X127411238Y-94747200D01*
D11*
X139058952Y-53018629D02*
X139058952Y-52510629D01*
X139058952Y-52510629D02*
X139179904Y-52510629D01*
X139179904Y-52510629D02*
X139252476Y-52534820D01*
X139252476Y-52534820D02*
X139300857Y-52583200D01*
X139300857Y-52583200D02*
X139325047Y-52631581D01*
X139325047Y-52631581D02*
X139349238Y-52728343D01*
X139349238Y-52728343D02*
X139349238Y-52800915D01*
X139349238Y-52800915D02*
X139325047Y-52897677D01*
X139325047Y-52897677D02*
X139300857Y-52946058D01*
X139300857Y-52946058D02*
X139252476Y-52994439D01*
X139252476Y-52994439D02*
X139179904Y-53018629D01*
X139179904Y-53018629D02*
X139058952Y-53018629D01*
X139566952Y-53018629D02*
X139566952Y-52679962D01*
X139566952Y-52510629D02*
X139542761Y-52534820D01*
X139542761Y-52534820D02*
X139566952Y-52559010D01*
X139566952Y-52559010D02*
X139591142Y-52534820D01*
X139591142Y-52534820D02*
X139566952Y-52510629D01*
X139566952Y-52510629D02*
X139566952Y-52559010D01*
X139808857Y-53018629D02*
X139808857Y-52679962D01*
X139808857Y-52776724D02*
X139833047Y-52728343D01*
X139833047Y-52728343D02*
X139857238Y-52704153D01*
X139857238Y-52704153D02*
X139905619Y-52679962D01*
X139905619Y-52679962D02*
X139954000Y-52679962D01*
D12*
X121218476Y-94843962D02*
X121412000Y-94843962D01*
X121315238Y-94940724D02*
X121315238Y-94747200D01*
D11*
X122282857Y-74100629D02*
X122040952Y-74100629D01*
X122040952Y-74100629D02*
X122040952Y-73592629D01*
X122452190Y-74100629D02*
X122452190Y-73761962D01*
X122452190Y-73592629D02*
X122427999Y-73616820D01*
X122427999Y-73616820D02*
X122452190Y-73641010D01*
X122452190Y-73641010D02*
X122476380Y-73616820D01*
X122476380Y-73616820D02*
X122452190Y-73592629D01*
X122452190Y-73592629D02*
X122452190Y-73641010D01*
X122911809Y-74100629D02*
X122911809Y-73592629D01*
X122911809Y-74076439D02*
X122863428Y-74100629D01*
X122863428Y-74100629D02*
X122766666Y-74100629D01*
X122766666Y-74100629D02*
X122718285Y-74076439D01*
X122718285Y-74076439D02*
X122694095Y-74052248D01*
X122694095Y-74052248D02*
X122669904Y-74003867D01*
X122669904Y-74003867D02*
X122669904Y-73858724D01*
X122669904Y-73858724D02*
X122694095Y-73810343D01*
X122694095Y-73810343D02*
X122718285Y-73786153D01*
X122718285Y-73786153D02*
X122766666Y-73761962D01*
X122766666Y-73761962D02*
X122863428Y-73761962D01*
X122863428Y-73761962D02*
X122911809Y-73786153D01*
X123371428Y-74100629D02*
X123371428Y-73834534D01*
X123371428Y-73834534D02*
X123347238Y-73786153D01*
X123347238Y-73786153D02*
X123298857Y-73761962D01*
X123298857Y-73761962D02*
X123202095Y-73761962D01*
X123202095Y-73761962D02*
X123153714Y-73786153D01*
X123371428Y-74076439D02*
X123323047Y-74100629D01*
X123323047Y-74100629D02*
X123202095Y-74100629D01*
X123202095Y-74100629D02*
X123153714Y-74076439D01*
X123153714Y-74076439D02*
X123129523Y-74028058D01*
X123129523Y-74028058D02*
X123129523Y-73979677D01*
X123129523Y-73979677D02*
X123153714Y-73931296D01*
X123153714Y-73931296D02*
X123202095Y-73907105D01*
X123202095Y-73907105D02*
X123323047Y-73907105D01*
X123323047Y-73907105D02*
X123371428Y-73882915D01*
X123613333Y-74100629D02*
X123613333Y-73761962D01*
X123613333Y-73858724D02*
X123637523Y-73810343D01*
X123637523Y-73810343D02*
X123661714Y-73786153D01*
X123661714Y-73786153D02*
X123710095Y-73761962D01*
X123710095Y-73761962D02*
X123758476Y-73761962D01*
D12*
X123250476Y-83413962D02*
X123444000Y-83413962D01*
X123347238Y-83510724D02*
X123347238Y-83317200D01*
D11*
X127604761Y-52994439D02*
X127677333Y-53018629D01*
X127677333Y-53018629D02*
X127798285Y-53018629D01*
X127798285Y-53018629D02*
X127846666Y-52994439D01*
X127846666Y-52994439D02*
X127870857Y-52970248D01*
X127870857Y-52970248D02*
X127895047Y-52921867D01*
X127895047Y-52921867D02*
X127895047Y-52873486D01*
X127895047Y-52873486D02*
X127870857Y-52825105D01*
X127870857Y-52825105D02*
X127846666Y-52800915D01*
X127846666Y-52800915D02*
X127798285Y-52776724D01*
X127798285Y-52776724D02*
X127701523Y-52752534D01*
X127701523Y-52752534D02*
X127653142Y-52728343D01*
X127653142Y-52728343D02*
X127628952Y-52704153D01*
X127628952Y-52704153D02*
X127604761Y-52655772D01*
X127604761Y-52655772D02*
X127604761Y-52607391D01*
X127604761Y-52607391D02*
X127628952Y-52559010D01*
X127628952Y-52559010D02*
X127653142Y-52534820D01*
X127653142Y-52534820D02*
X127701523Y-52510629D01*
X127701523Y-52510629D02*
X127822476Y-52510629D01*
X127822476Y-52510629D02*
X127895047Y-52534820D01*
X128378857Y-53018629D02*
X128088571Y-53018629D01*
X128233714Y-53018629D02*
X128233714Y-52510629D01*
X128233714Y-52510629D02*
X128185333Y-52583200D01*
X128185333Y-52583200D02*
X128136952Y-52631581D01*
X128136952Y-52631581D02*
X128088571Y-52655772D01*
X126274285Y-82978534D02*
X126346857Y-83002724D01*
X126346857Y-83002724D02*
X126371047Y-83026915D01*
X126371047Y-83026915D02*
X126395238Y-83075296D01*
X126395238Y-83075296D02*
X126395238Y-83147867D01*
X126395238Y-83147867D02*
X126371047Y-83196248D01*
X126371047Y-83196248D02*
X126346857Y-83220439D01*
X126346857Y-83220439D02*
X126298476Y-83244629D01*
X126298476Y-83244629D02*
X126104952Y-83244629D01*
X126104952Y-83244629D02*
X126104952Y-82736629D01*
X126104952Y-82736629D02*
X126274285Y-82736629D01*
X126274285Y-82736629D02*
X126322666Y-82760820D01*
X126322666Y-82760820D02*
X126346857Y-82785010D01*
X126346857Y-82785010D02*
X126371047Y-82833391D01*
X126371047Y-82833391D02*
X126371047Y-82881772D01*
X126371047Y-82881772D02*
X126346857Y-82930153D01*
X126346857Y-82930153D02*
X126322666Y-82954343D01*
X126322666Y-82954343D02*
X126274285Y-82978534D01*
X126274285Y-82978534D02*
X126104952Y-82978534D01*
X126879047Y-83244629D02*
X126588761Y-83244629D01*
X126733904Y-83244629D02*
X126733904Y-82736629D01*
X126733904Y-82736629D02*
X126685523Y-82809200D01*
X126685523Y-82809200D02*
X126637142Y-82857581D01*
X126637142Y-82857581D02*
X126588761Y-82881772D01*
X136494761Y-52994439D02*
X136567333Y-53018629D01*
X136567333Y-53018629D02*
X136688285Y-53018629D01*
X136688285Y-53018629D02*
X136736666Y-52994439D01*
X136736666Y-52994439D02*
X136760857Y-52970248D01*
X136760857Y-52970248D02*
X136785047Y-52921867D01*
X136785047Y-52921867D02*
X136785047Y-52873486D01*
X136785047Y-52873486D02*
X136760857Y-52825105D01*
X136760857Y-52825105D02*
X136736666Y-52800915D01*
X136736666Y-52800915D02*
X136688285Y-52776724D01*
X136688285Y-52776724D02*
X136591523Y-52752534D01*
X136591523Y-52752534D02*
X136543142Y-52728343D01*
X136543142Y-52728343D02*
X136518952Y-52704153D01*
X136518952Y-52704153D02*
X136494761Y-52655772D01*
X136494761Y-52655772D02*
X136494761Y-52607391D01*
X136494761Y-52607391D02*
X136518952Y-52559010D01*
X136518952Y-52559010D02*
X136543142Y-52534820D01*
X136543142Y-52534820D02*
X136591523Y-52510629D01*
X136591523Y-52510629D02*
X136712476Y-52510629D01*
X136712476Y-52510629D02*
X136785047Y-52534820D01*
X136930190Y-52679962D02*
X137123714Y-52679962D01*
X137002762Y-52510629D02*
X137002762Y-52946058D01*
X137002762Y-52946058D02*
X137026952Y-52994439D01*
X137026952Y-52994439D02*
X137075333Y-53018629D01*
X137075333Y-53018629D02*
X137123714Y-53018629D01*
X137486572Y-52994439D02*
X137438191Y-53018629D01*
X137438191Y-53018629D02*
X137341429Y-53018629D01*
X137341429Y-53018629D02*
X137293048Y-52994439D01*
X137293048Y-52994439D02*
X137268857Y-52946058D01*
X137268857Y-52946058D02*
X137268857Y-52752534D01*
X137268857Y-52752534D02*
X137293048Y-52704153D01*
X137293048Y-52704153D02*
X137341429Y-52679962D01*
X137341429Y-52679962D02*
X137438191Y-52679962D01*
X137438191Y-52679962D02*
X137486572Y-52704153D01*
X137486572Y-52704153D02*
X137510762Y-52752534D01*
X137510762Y-52752534D02*
X137510762Y-52800915D01*
X137510762Y-52800915D02*
X137268857Y-52849296D01*
X137728477Y-52679962D02*
X137728477Y-53187962D01*
X137728477Y-52704153D02*
X137776858Y-52679962D01*
X137776858Y-52679962D02*
X137873620Y-52679962D01*
X137873620Y-52679962D02*
X137922001Y-52704153D01*
X137922001Y-52704153D02*
X137946191Y-52728343D01*
X137946191Y-52728343D02*
X137970382Y-52776724D01*
X137970382Y-52776724D02*
X137970382Y-52921867D01*
X137970382Y-52921867D02*
X137946191Y-52970248D01*
X137946191Y-52970248D02*
X137922001Y-52994439D01*
X137922001Y-52994439D02*
X137873620Y-53018629D01*
X137873620Y-53018629D02*
X137776858Y-53018629D01*
X137776858Y-53018629D02*
X137728477Y-52994439D01*
X88512952Y-78689925D02*
X88900000Y-78689925D01*
X88706476Y-78883449D02*
X88706476Y-78496401D01*
X134782439Y-64927238D02*
X134806629Y-64854666D01*
X134806629Y-64854666D02*
X134806629Y-64733714D01*
X134806629Y-64733714D02*
X134782439Y-64685333D01*
X134782439Y-64685333D02*
X134758248Y-64661142D01*
X134758248Y-64661142D02*
X134709867Y-64636952D01*
X134709867Y-64636952D02*
X134661486Y-64636952D01*
X134661486Y-64636952D02*
X134613105Y-64661142D01*
X134613105Y-64661142D02*
X134588915Y-64685333D01*
X134588915Y-64685333D02*
X134564724Y-64733714D01*
X134564724Y-64733714D02*
X134540534Y-64830476D01*
X134540534Y-64830476D02*
X134516343Y-64878857D01*
X134516343Y-64878857D02*
X134492153Y-64903047D01*
X134492153Y-64903047D02*
X134443772Y-64927238D01*
X134443772Y-64927238D02*
X134395391Y-64927238D01*
X134395391Y-64927238D02*
X134347010Y-64903047D01*
X134347010Y-64903047D02*
X134322820Y-64878857D01*
X134322820Y-64878857D02*
X134298629Y-64830476D01*
X134298629Y-64830476D02*
X134298629Y-64709523D01*
X134298629Y-64709523D02*
X134322820Y-64636952D01*
X134467962Y-64491809D02*
X134467962Y-64298285D01*
X134298629Y-64419237D02*
X134734058Y-64419237D01*
X134734058Y-64419237D02*
X134782439Y-64395047D01*
X134782439Y-64395047D02*
X134806629Y-64346666D01*
X134806629Y-64346666D02*
X134806629Y-64298285D01*
X134782439Y-63935427D02*
X134806629Y-63983808D01*
X134806629Y-63983808D02*
X134806629Y-64080570D01*
X134806629Y-64080570D02*
X134782439Y-64128951D01*
X134782439Y-64128951D02*
X134734058Y-64153142D01*
X134734058Y-64153142D02*
X134540534Y-64153142D01*
X134540534Y-64153142D02*
X134492153Y-64128951D01*
X134492153Y-64128951D02*
X134467962Y-64080570D01*
X134467962Y-64080570D02*
X134467962Y-63983808D01*
X134467962Y-63983808D02*
X134492153Y-63935427D01*
X134492153Y-63935427D02*
X134540534Y-63911237D01*
X134540534Y-63911237D02*
X134588915Y-63911237D01*
X134588915Y-63911237D02*
X134637296Y-64153142D01*
X134467962Y-63693522D02*
X134975962Y-63693522D01*
X134492153Y-63693522D02*
X134467962Y-63645141D01*
X134467962Y-63645141D02*
X134467962Y-63548379D01*
X134467962Y-63548379D02*
X134492153Y-63499998D01*
X134492153Y-63499998D02*
X134516343Y-63475808D01*
X134516343Y-63475808D02*
X134564724Y-63451617D01*
X134564724Y-63451617D02*
X134709867Y-63451617D01*
X134709867Y-63451617D02*
X134758248Y-63475808D01*
X134758248Y-63475808D02*
X134782439Y-63499998D01*
X134782439Y-63499998D02*
X134806629Y-63548379D01*
X134806629Y-63548379D02*
X134806629Y-63645141D01*
X134806629Y-63645141D02*
X134782439Y-63693522D01*
X134467962Y-63233903D02*
X134975962Y-63233903D01*
X134492153Y-63233903D02*
X134467962Y-63185522D01*
X134467962Y-63185522D02*
X134467962Y-63088760D01*
X134467962Y-63088760D02*
X134492153Y-63040379D01*
X134492153Y-63040379D02*
X134516343Y-63016189D01*
X134516343Y-63016189D02*
X134564724Y-62991998D01*
X134564724Y-62991998D02*
X134709867Y-62991998D01*
X134709867Y-62991998D02*
X134758248Y-63016189D01*
X134758248Y-63016189D02*
X134782439Y-63040379D01*
X134782439Y-63040379D02*
X134806629Y-63088760D01*
X134806629Y-63088760D02*
X134806629Y-63185522D01*
X134806629Y-63185522D02*
X134782439Y-63233903D01*
X134782439Y-62580760D02*
X134806629Y-62629141D01*
X134806629Y-62629141D02*
X134806629Y-62725903D01*
X134806629Y-62725903D02*
X134782439Y-62774284D01*
X134782439Y-62774284D02*
X134734058Y-62798475D01*
X134734058Y-62798475D02*
X134540534Y-62798475D01*
X134540534Y-62798475D02*
X134492153Y-62774284D01*
X134492153Y-62774284D02*
X134467962Y-62725903D01*
X134467962Y-62725903D02*
X134467962Y-62629141D01*
X134467962Y-62629141D02*
X134492153Y-62580760D01*
X134492153Y-62580760D02*
X134540534Y-62556570D01*
X134540534Y-62556570D02*
X134588915Y-62556570D01*
X134588915Y-62556570D02*
X134637296Y-62798475D01*
X134806629Y-62338855D02*
X134467962Y-62338855D01*
X134564724Y-62338855D02*
X134516343Y-62314665D01*
X134516343Y-62314665D02*
X134492153Y-62290474D01*
X134492153Y-62290474D02*
X134467962Y-62242093D01*
X134467962Y-62242093D02*
X134467962Y-62193712D01*
X134347010Y-61743770D02*
X134322820Y-61719579D01*
X134322820Y-61719579D02*
X134298629Y-61671198D01*
X134298629Y-61671198D02*
X134298629Y-61550246D01*
X134298629Y-61550246D02*
X134322820Y-61501865D01*
X134322820Y-61501865D02*
X134347010Y-61477674D01*
X134347010Y-61477674D02*
X134395391Y-61453484D01*
X134395391Y-61453484D02*
X134443772Y-61453484D01*
X134443772Y-61453484D02*
X134516343Y-61477674D01*
X134516343Y-61477674D02*
X134806629Y-61767960D01*
X134806629Y-61767960D02*
X134806629Y-61453484D01*
X124242285Y-82978534D02*
X124314857Y-83002724D01*
X124314857Y-83002724D02*
X124339047Y-83026915D01*
X124339047Y-83026915D02*
X124363238Y-83075296D01*
X124363238Y-83075296D02*
X124363238Y-83147867D01*
X124363238Y-83147867D02*
X124339047Y-83196248D01*
X124339047Y-83196248D02*
X124314857Y-83220439D01*
X124314857Y-83220439D02*
X124266476Y-83244629D01*
X124266476Y-83244629D02*
X124072952Y-83244629D01*
X124072952Y-83244629D02*
X124072952Y-82736629D01*
X124072952Y-82736629D02*
X124242285Y-82736629D01*
X124242285Y-82736629D02*
X124290666Y-82760820D01*
X124290666Y-82760820D02*
X124314857Y-82785010D01*
X124314857Y-82785010D02*
X124339047Y-82833391D01*
X124339047Y-82833391D02*
X124339047Y-82881772D01*
X124339047Y-82881772D02*
X124314857Y-82930153D01*
X124314857Y-82930153D02*
X124290666Y-82954343D01*
X124290666Y-82954343D02*
X124242285Y-82978534D01*
X124242285Y-82978534D02*
X124072952Y-82978534D01*
X124556761Y-82785010D02*
X124580952Y-82760820D01*
X124580952Y-82760820D02*
X124629333Y-82736629D01*
X124629333Y-82736629D02*
X124750285Y-82736629D01*
X124750285Y-82736629D02*
X124798666Y-82760820D01*
X124798666Y-82760820D02*
X124822857Y-82785010D01*
X124822857Y-82785010D02*
X124847047Y-82833391D01*
X124847047Y-82833391D02*
X124847047Y-82881772D01*
X124847047Y-82881772D02*
X124822857Y-82954343D01*
X124822857Y-82954343D02*
X124532571Y-83244629D01*
X124532571Y-83244629D02*
X124847047Y-83244629D01*
X131668761Y-52994439D02*
X131741333Y-53018629D01*
X131741333Y-53018629D02*
X131862285Y-53018629D01*
X131862285Y-53018629D02*
X131910666Y-52994439D01*
X131910666Y-52994439D02*
X131934857Y-52970248D01*
X131934857Y-52970248D02*
X131959047Y-52921867D01*
X131959047Y-52921867D02*
X131959047Y-52873486D01*
X131959047Y-52873486D02*
X131934857Y-52825105D01*
X131934857Y-52825105D02*
X131910666Y-52800915D01*
X131910666Y-52800915D02*
X131862285Y-52776724D01*
X131862285Y-52776724D02*
X131765523Y-52752534D01*
X131765523Y-52752534D02*
X131717142Y-52728343D01*
X131717142Y-52728343D02*
X131692952Y-52704153D01*
X131692952Y-52704153D02*
X131668761Y-52655772D01*
X131668761Y-52655772D02*
X131668761Y-52607391D01*
X131668761Y-52607391D02*
X131692952Y-52559010D01*
X131692952Y-52559010D02*
X131717142Y-52534820D01*
X131717142Y-52534820D02*
X131765523Y-52510629D01*
X131765523Y-52510629D02*
X131886476Y-52510629D01*
X131886476Y-52510629D02*
X131959047Y-52534820D01*
X132152571Y-52559010D02*
X132176762Y-52534820D01*
X132176762Y-52534820D02*
X132225143Y-52510629D01*
X132225143Y-52510629D02*
X132346095Y-52510629D01*
X132346095Y-52510629D02*
X132394476Y-52534820D01*
X132394476Y-52534820D02*
X132418667Y-52559010D01*
X132418667Y-52559010D02*
X132442857Y-52607391D01*
X132442857Y-52607391D02*
X132442857Y-52655772D01*
X132442857Y-52655772D02*
X132418667Y-52728343D01*
X132418667Y-52728343D02*
X132128381Y-53018629D01*
X132128381Y-53018629D02*
X132442857Y-53018629D01*
X117002439Y-64927238D02*
X117026629Y-64854666D01*
X117026629Y-64854666D02*
X117026629Y-64733714D01*
X117026629Y-64733714D02*
X117002439Y-64685333D01*
X117002439Y-64685333D02*
X116978248Y-64661142D01*
X116978248Y-64661142D02*
X116929867Y-64636952D01*
X116929867Y-64636952D02*
X116881486Y-64636952D01*
X116881486Y-64636952D02*
X116833105Y-64661142D01*
X116833105Y-64661142D02*
X116808915Y-64685333D01*
X116808915Y-64685333D02*
X116784724Y-64733714D01*
X116784724Y-64733714D02*
X116760534Y-64830476D01*
X116760534Y-64830476D02*
X116736343Y-64878857D01*
X116736343Y-64878857D02*
X116712153Y-64903047D01*
X116712153Y-64903047D02*
X116663772Y-64927238D01*
X116663772Y-64927238D02*
X116615391Y-64927238D01*
X116615391Y-64927238D02*
X116567010Y-64903047D01*
X116567010Y-64903047D02*
X116542820Y-64878857D01*
X116542820Y-64878857D02*
X116518629Y-64830476D01*
X116518629Y-64830476D02*
X116518629Y-64709523D01*
X116518629Y-64709523D02*
X116542820Y-64636952D01*
X116687962Y-64491809D02*
X116687962Y-64298285D01*
X116518629Y-64419237D02*
X116954058Y-64419237D01*
X116954058Y-64419237D02*
X117002439Y-64395047D01*
X117002439Y-64395047D02*
X117026629Y-64346666D01*
X117026629Y-64346666D02*
X117026629Y-64298285D01*
X117002439Y-63935427D02*
X117026629Y-63983808D01*
X117026629Y-63983808D02*
X117026629Y-64080570D01*
X117026629Y-64080570D02*
X117002439Y-64128951D01*
X117002439Y-64128951D02*
X116954058Y-64153142D01*
X116954058Y-64153142D02*
X116760534Y-64153142D01*
X116760534Y-64153142D02*
X116712153Y-64128951D01*
X116712153Y-64128951D02*
X116687962Y-64080570D01*
X116687962Y-64080570D02*
X116687962Y-63983808D01*
X116687962Y-63983808D02*
X116712153Y-63935427D01*
X116712153Y-63935427D02*
X116760534Y-63911237D01*
X116760534Y-63911237D02*
X116808915Y-63911237D01*
X116808915Y-63911237D02*
X116857296Y-64153142D01*
X116687962Y-63693522D02*
X117195962Y-63693522D01*
X116712153Y-63693522D02*
X116687962Y-63645141D01*
X116687962Y-63645141D02*
X116687962Y-63548379D01*
X116687962Y-63548379D02*
X116712153Y-63499998D01*
X116712153Y-63499998D02*
X116736343Y-63475808D01*
X116736343Y-63475808D02*
X116784724Y-63451617D01*
X116784724Y-63451617D02*
X116929867Y-63451617D01*
X116929867Y-63451617D02*
X116978248Y-63475808D01*
X116978248Y-63475808D02*
X117002439Y-63499998D01*
X117002439Y-63499998D02*
X117026629Y-63548379D01*
X117026629Y-63548379D02*
X117026629Y-63645141D01*
X117026629Y-63645141D02*
X117002439Y-63693522D01*
X116687962Y-63233903D02*
X117195962Y-63233903D01*
X116712153Y-63233903D02*
X116687962Y-63185522D01*
X116687962Y-63185522D02*
X116687962Y-63088760D01*
X116687962Y-63088760D02*
X116712153Y-63040379D01*
X116712153Y-63040379D02*
X116736343Y-63016189D01*
X116736343Y-63016189D02*
X116784724Y-62991998D01*
X116784724Y-62991998D02*
X116929867Y-62991998D01*
X116929867Y-62991998D02*
X116978248Y-63016189D01*
X116978248Y-63016189D02*
X117002439Y-63040379D01*
X117002439Y-63040379D02*
X117026629Y-63088760D01*
X117026629Y-63088760D02*
X117026629Y-63185522D01*
X117026629Y-63185522D02*
X117002439Y-63233903D01*
X117002439Y-62580760D02*
X117026629Y-62629141D01*
X117026629Y-62629141D02*
X117026629Y-62725903D01*
X117026629Y-62725903D02*
X117002439Y-62774284D01*
X117002439Y-62774284D02*
X116954058Y-62798475D01*
X116954058Y-62798475D02*
X116760534Y-62798475D01*
X116760534Y-62798475D02*
X116712153Y-62774284D01*
X116712153Y-62774284D02*
X116687962Y-62725903D01*
X116687962Y-62725903D02*
X116687962Y-62629141D01*
X116687962Y-62629141D02*
X116712153Y-62580760D01*
X116712153Y-62580760D02*
X116760534Y-62556570D01*
X116760534Y-62556570D02*
X116808915Y-62556570D01*
X116808915Y-62556570D02*
X116857296Y-62798475D01*
X117026629Y-62338855D02*
X116687962Y-62338855D01*
X116784724Y-62338855D02*
X116736343Y-62314665D01*
X116736343Y-62314665D02*
X116712153Y-62290474D01*
X116712153Y-62290474D02*
X116687962Y-62242093D01*
X116687962Y-62242093D02*
X116687962Y-62193712D01*
X117026629Y-61453484D02*
X117026629Y-61743770D01*
X117026629Y-61598627D02*
X116518629Y-61598627D01*
X116518629Y-61598627D02*
X116591200Y-61647008D01*
X116591200Y-61647008D02*
X116639581Y-61695389D01*
X116639581Y-61695389D02*
X116663772Y-61743770D01*
X141574761Y-54518439D02*
X141647333Y-54542629D01*
X141647333Y-54542629D02*
X141768285Y-54542629D01*
X141768285Y-54542629D02*
X141816666Y-54518439D01*
X141816666Y-54518439D02*
X141840857Y-54494248D01*
X141840857Y-54494248D02*
X141865047Y-54445867D01*
X141865047Y-54445867D02*
X141865047Y-54397486D01*
X141865047Y-54397486D02*
X141840857Y-54349105D01*
X141840857Y-54349105D02*
X141816666Y-54324915D01*
X141816666Y-54324915D02*
X141768285Y-54300724D01*
X141768285Y-54300724D02*
X141671523Y-54276534D01*
X141671523Y-54276534D02*
X141623142Y-54252343D01*
X141623142Y-54252343D02*
X141598952Y-54228153D01*
X141598952Y-54228153D02*
X141574761Y-54179772D01*
X141574761Y-54179772D02*
X141574761Y-54131391D01*
X141574761Y-54131391D02*
X141598952Y-54083010D01*
X141598952Y-54083010D02*
X141623142Y-54058820D01*
X141623142Y-54058820D02*
X141671523Y-54034629D01*
X141671523Y-54034629D02*
X141792476Y-54034629D01*
X141792476Y-54034629D02*
X141865047Y-54058820D01*
X142010190Y-54203962D02*
X142203714Y-54203962D01*
X142082762Y-54034629D02*
X142082762Y-54470058D01*
X142082762Y-54470058D02*
X142106952Y-54518439D01*
X142106952Y-54518439D02*
X142155333Y-54542629D01*
X142155333Y-54542629D02*
X142203714Y-54542629D01*
X142566572Y-54518439D02*
X142518191Y-54542629D01*
X142518191Y-54542629D02*
X142421429Y-54542629D01*
X142421429Y-54542629D02*
X142373048Y-54518439D01*
X142373048Y-54518439D02*
X142348857Y-54470058D01*
X142348857Y-54470058D02*
X142348857Y-54276534D01*
X142348857Y-54276534D02*
X142373048Y-54228153D01*
X142373048Y-54228153D02*
X142421429Y-54203962D01*
X142421429Y-54203962D02*
X142518191Y-54203962D01*
X142518191Y-54203962D02*
X142566572Y-54228153D01*
X142566572Y-54228153D02*
X142590762Y-54276534D01*
X142590762Y-54276534D02*
X142590762Y-54324915D01*
X142590762Y-54324915D02*
X142348857Y-54373296D01*
X142808477Y-54203962D02*
X142808477Y-54711962D01*
X142808477Y-54228153D02*
X142856858Y-54203962D01*
X142856858Y-54203962D02*
X142953620Y-54203962D01*
X142953620Y-54203962D02*
X143002001Y-54228153D01*
X143002001Y-54228153D02*
X143026191Y-54252343D01*
X143026191Y-54252343D02*
X143050382Y-54300724D01*
X143050382Y-54300724D02*
X143050382Y-54445867D01*
X143050382Y-54445867D02*
X143026191Y-54494248D01*
X143026191Y-54494248D02*
X143002001Y-54518439D01*
X143002001Y-54518439D02*
X142953620Y-54542629D01*
X142953620Y-54542629D02*
X142856858Y-54542629D01*
X142856858Y-54542629D02*
X142808477Y-54518439D01*
X143268096Y-54203962D02*
X143268096Y-54711962D01*
X143268096Y-54228153D02*
X143316477Y-54203962D01*
X143316477Y-54203962D02*
X143413239Y-54203962D01*
X143413239Y-54203962D02*
X143461620Y-54228153D01*
X143461620Y-54228153D02*
X143485810Y-54252343D01*
X143485810Y-54252343D02*
X143510001Y-54300724D01*
X143510001Y-54300724D02*
X143510001Y-54445867D01*
X143510001Y-54445867D02*
X143485810Y-54494248D01*
X143485810Y-54494248D02*
X143461620Y-54518439D01*
X143461620Y-54518439D02*
X143413239Y-54542629D01*
X143413239Y-54542629D02*
X143316477Y-54542629D01*
X143316477Y-54542629D02*
X143268096Y-54518439D01*
X143921239Y-54518439D02*
X143872858Y-54542629D01*
X143872858Y-54542629D02*
X143776096Y-54542629D01*
X143776096Y-54542629D02*
X143727715Y-54518439D01*
X143727715Y-54518439D02*
X143703524Y-54470058D01*
X143703524Y-54470058D02*
X143703524Y-54276534D01*
X143703524Y-54276534D02*
X143727715Y-54228153D01*
X143727715Y-54228153D02*
X143776096Y-54203962D01*
X143776096Y-54203962D02*
X143872858Y-54203962D01*
X143872858Y-54203962D02*
X143921239Y-54228153D01*
X143921239Y-54228153D02*
X143945429Y-54276534D01*
X143945429Y-54276534D02*
X143945429Y-54324915D01*
X143945429Y-54324915D02*
X143703524Y-54373296D01*
X144163144Y-54542629D02*
X144163144Y-54203962D01*
X144163144Y-54300724D02*
X144187334Y-54252343D01*
X144187334Y-54252343D02*
X144211525Y-54228153D01*
X144211525Y-54228153D02*
X144259906Y-54203962D01*
X144259906Y-54203962D02*
X144308287Y-54203962D01*
X144758229Y-54083010D02*
X144782420Y-54058820D01*
X144782420Y-54058820D02*
X144830801Y-54034629D01*
X144830801Y-54034629D02*
X144951753Y-54034629D01*
X144951753Y-54034629D02*
X145000134Y-54058820D01*
X145000134Y-54058820D02*
X145024325Y-54083010D01*
X145024325Y-54083010D02*
X145048515Y-54131391D01*
X145048515Y-54131391D02*
X145048515Y-54179772D01*
X145048515Y-54179772D02*
X145024325Y-54252343D01*
X145024325Y-54252343D02*
X144734039Y-54542629D01*
X144734039Y-54542629D02*
X145048515Y-54542629D01*
X93859047Y-98738629D02*
X93568761Y-98738629D01*
X93713904Y-98738629D02*
X93713904Y-98230629D01*
X93713904Y-98230629D02*
X93665523Y-98303200D01*
X93665523Y-98303200D02*
X93617142Y-98351581D01*
X93617142Y-98351581D02*
X93568761Y-98375772D01*
X94052571Y-98279010D02*
X94076762Y-98254820D01*
X94076762Y-98254820D02*
X94125143Y-98230629D01*
X94125143Y-98230629D02*
X94246095Y-98230629D01*
X94246095Y-98230629D02*
X94294476Y-98254820D01*
X94294476Y-98254820D02*
X94318667Y-98279010D01*
X94318667Y-98279010D02*
X94342857Y-98327391D01*
X94342857Y-98327391D02*
X94342857Y-98375772D01*
X94342857Y-98375772D02*
X94318667Y-98448343D01*
X94318667Y-98448343D02*
X94028381Y-98738629D01*
X94028381Y-98738629D02*
X94342857Y-98738629D01*
X94488000Y-98230629D02*
X94657334Y-98738629D01*
X94657334Y-98738629D02*
X94826667Y-98230629D01*
X111880952Y-82978534D02*
X112050285Y-82978534D01*
X112122857Y-83244629D02*
X111880952Y-83244629D01*
X111880952Y-83244629D02*
X111880952Y-82736629D01*
X111880952Y-82736629D02*
X112122857Y-82736629D01*
X112340571Y-82905962D02*
X112340571Y-83244629D01*
X112340571Y-82954343D02*
X112364761Y-82930153D01*
X112364761Y-82930153D02*
X112413142Y-82905962D01*
X112413142Y-82905962D02*
X112485714Y-82905962D01*
X112485714Y-82905962D02*
X112534095Y-82930153D01*
X112534095Y-82930153D02*
X112558285Y-82978534D01*
X112558285Y-82978534D02*
X112558285Y-83244629D01*
X113017904Y-83244629D02*
X113017904Y-82978534D01*
X113017904Y-82978534D02*
X112993714Y-82930153D01*
X112993714Y-82930153D02*
X112945333Y-82905962D01*
X112945333Y-82905962D02*
X112848571Y-82905962D01*
X112848571Y-82905962D02*
X112800190Y-82930153D01*
X113017904Y-83220439D02*
X112969523Y-83244629D01*
X112969523Y-83244629D02*
X112848571Y-83244629D01*
X112848571Y-83244629D02*
X112800190Y-83220439D01*
X112800190Y-83220439D02*
X112775999Y-83172058D01*
X112775999Y-83172058D02*
X112775999Y-83123677D01*
X112775999Y-83123677D02*
X112800190Y-83075296D01*
X112800190Y-83075296D02*
X112848571Y-83051105D01*
X112848571Y-83051105D02*
X112969523Y-83051105D01*
X112969523Y-83051105D02*
X113017904Y-83026915D01*
D12*
X113090476Y-83413962D02*
X113284000Y-83413962D01*
X113187238Y-83510724D02*
X113187238Y-83317200D01*
D11*
X112613560Y-64358761D02*
X112589370Y-64431333D01*
X112589370Y-64431333D02*
X112589370Y-64552285D01*
X112589370Y-64552285D02*
X112613560Y-64600666D01*
X112613560Y-64600666D02*
X112637751Y-64624857D01*
X112637751Y-64624857D02*
X112686132Y-64649047D01*
X112686132Y-64649047D02*
X112734513Y-64649047D01*
X112734513Y-64649047D02*
X112782894Y-64624857D01*
X112782894Y-64624857D02*
X112807084Y-64600666D01*
X112807084Y-64600666D02*
X112831275Y-64552285D01*
X112831275Y-64552285D02*
X112855465Y-64455523D01*
X112855465Y-64455523D02*
X112879656Y-64407142D01*
X112879656Y-64407142D02*
X112903846Y-64382952D01*
X112903846Y-64382952D02*
X112952227Y-64358761D01*
X112952227Y-64358761D02*
X113000608Y-64358761D01*
X113000608Y-64358761D02*
X113048989Y-64382952D01*
X113048989Y-64382952D02*
X113073180Y-64407142D01*
X113073180Y-64407142D02*
X113097370Y-64455523D01*
X113097370Y-64455523D02*
X113097370Y-64576476D01*
X113097370Y-64576476D02*
X113073180Y-64649047D01*
X112613560Y-65060286D02*
X112589370Y-65011905D01*
X112589370Y-65011905D02*
X112589370Y-64915143D01*
X112589370Y-64915143D02*
X112613560Y-64866762D01*
X112613560Y-64866762D02*
X112661941Y-64842571D01*
X112661941Y-64842571D02*
X112855465Y-64842571D01*
X112855465Y-64842571D02*
X112903846Y-64866762D01*
X112903846Y-64866762D02*
X112928037Y-64915143D01*
X112928037Y-64915143D02*
X112928037Y-65011905D01*
X112928037Y-65011905D02*
X112903846Y-65060286D01*
X112903846Y-65060286D02*
X112855465Y-65084476D01*
X112855465Y-65084476D02*
X112807084Y-65084476D01*
X112807084Y-65084476D02*
X112758703Y-64842571D01*
X112928037Y-65302191D02*
X112589370Y-65302191D01*
X112879656Y-65302191D02*
X112903846Y-65326381D01*
X112903846Y-65326381D02*
X112928037Y-65374762D01*
X112928037Y-65374762D02*
X112928037Y-65447334D01*
X112928037Y-65447334D02*
X112903846Y-65495715D01*
X112903846Y-65495715D02*
X112855465Y-65519905D01*
X112855465Y-65519905D02*
X112589370Y-65519905D01*
X112613560Y-65737619D02*
X112589370Y-65786000D01*
X112589370Y-65786000D02*
X112589370Y-65882762D01*
X112589370Y-65882762D02*
X112613560Y-65931143D01*
X112613560Y-65931143D02*
X112661941Y-65955334D01*
X112661941Y-65955334D02*
X112686132Y-65955334D01*
X112686132Y-65955334D02*
X112734513Y-65931143D01*
X112734513Y-65931143D02*
X112758703Y-65882762D01*
X112758703Y-65882762D02*
X112758703Y-65810191D01*
X112758703Y-65810191D02*
X112782894Y-65761810D01*
X112782894Y-65761810D02*
X112831275Y-65737619D01*
X112831275Y-65737619D02*
X112855465Y-65737619D01*
X112855465Y-65737619D02*
X112903846Y-65761810D01*
X112903846Y-65761810D02*
X112928037Y-65810191D01*
X112928037Y-65810191D02*
X112928037Y-65882762D01*
X112928037Y-65882762D02*
X112903846Y-65931143D01*
X112589370Y-66245619D02*
X112613560Y-66197238D01*
X112613560Y-66197238D02*
X112637751Y-66173048D01*
X112637751Y-66173048D02*
X112686132Y-66148857D01*
X112686132Y-66148857D02*
X112831275Y-66148857D01*
X112831275Y-66148857D02*
X112879656Y-66173048D01*
X112879656Y-66173048D02*
X112903846Y-66197238D01*
X112903846Y-66197238D02*
X112928037Y-66245619D01*
X112928037Y-66245619D02*
X112928037Y-66318191D01*
X112928037Y-66318191D02*
X112903846Y-66366572D01*
X112903846Y-66366572D02*
X112879656Y-66390762D01*
X112879656Y-66390762D02*
X112831275Y-66414953D01*
X112831275Y-66414953D02*
X112686132Y-66414953D01*
X112686132Y-66414953D02*
X112637751Y-66390762D01*
X112637751Y-66390762D02*
X112613560Y-66366572D01*
X112613560Y-66366572D02*
X112589370Y-66318191D01*
X112589370Y-66318191D02*
X112589370Y-66245619D01*
X112589370Y-66632667D02*
X112928037Y-66632667D01*
X112831275Y-66632667D02*
X112879656Y-66656857D01*
X112879656Y-66656857D02*
X112903846Y-66681048D01*
X112903846Y-66681048D02*
X112928037Y-66729429D01*
X112928037Y-66729429D02*
X112928037Y-66777810D01*
X112613560Y-66922952D02*
X112589370Y-66971333D01*
X112589370Y-66971333D02*
X112589370Y-67068095D01*
X112589370Y-67068095D02*
X112613560Y-67116476D01*
X112613560Y-67116476D02*
X112661941Y-67140667D01*
X112661941Y-67140667D02*
X112686132Y-67140667D01*
X112686132Y-67140667D02*
X112734513Y-67116476D01*
X112734513Y-67116476D02*
X112758703Y-67068095D01*
X112758703Y-67068095D02*
X112758703Y-66995524D01*
X112758703Y-66995524D02*
X112782894Y-66947143D01*
X112782894Y-66947143D02*
X112831275Y-66922952D01*
X112831275Y-66922952D02*
X112855465Y-66922952D01*
X112855465Y-66922952D02*
X112903846Y-66947143D01*
X112903846Y-66947143D02*
X112928037Y-66995524D01*
X112928037Y-66995524D02*
X112928037Y-67068095D01*
X112928037Y-67068095D02*
X112903846Y-67116476D01*
D12*
X127314476Y-83413962D02*
X127508000Y-83413962D01*
X127411238Y-83510724D02*
X127411238Y-83317200D01*
D11*
X117976952Y-95436629D02*
X117976952Y-94928629D01*
X117976952Y-94928629D02*
X118097904Y-94928629D01*
X118097904Y-94928629D02*
X118170476Y-94952820D01*
X118170476Y-94952820D02*
X118218857Y-95001200D01*
X118218857Y-95001200D02*
X118243047Y-95049581D01*
X118243047Y-95049581D02*
X118267238Y-95146343D01*
X118267238Y-95146343D02*
X118267238Y-95218915D01*
X118267238Y-95218915D02*
X118243047Y-95315677D01*
X118243047Y-95315677D02*
X118218857Y-95364058D01*
X118218857Y-95364058D02*
X118170476Y-95412439D01*
X118170476Y-95412439D02*
X118097904Y-95436629D01*
X118097904Y-95436629D02*
X117976952Y-95436629D01*
X118484952Y-95436629D02*
X118484952Y-95097962D01*
X118484952Y-94928629D02*
X118460761Y-94952820D01*
X118460761Y-94952820D02*
X118484952Y-94977010D01*
X118484952Y-94977010D02*
X118509142Y-94952820D01*
X118509142Y-94952820D02*
X118484952Y-94928629D01*
X118484952Y-94928629D02*
X118484952Y-94977010D01*
X118726857Y-95436629D02*
X118726857Y-95097962D01*
X118726857Y-95194724D02*
X118751047Y-95146343D01*
X118751047Y-95146343D02*
X118775238Y-95122153D01*
X118775238Y-95122153D02*
X118823619Y-95097962D01*
X118823619Y-95097962D02*
X118872000Y-95097962D01*
X119984761Y-83099486D02*
X120226666Y-83099486D01*
X119936380Y-83244629D02*
X120105714Y-82736629D01*
X120105714Y-82736629D02*
X120275047Y-83244629D01*
X120710476Y-83244629D02*
X120420190Y-83244629D01*
X120565333Y-83244629D02*
X120565333Y-82736629D01*
X120565333Y-82736629D02*
X120516952Y-82809200D01*
X120516952Y-82809200D02*
X120468571Y-82857581D01*
X120468571Y-82857581D02*
X120420190Y-82881772D01*
X112122857Y-74659629D02*
X111880952Y-74659629D01*
X111880952Y-74659629D02*
X111856761Y-74901534D01*
X111856761Y-74901534D02*
X111880952Y-74877343D01*
X111880952Y-74877343D02*
X111929333Y-74853153D01*
X111929333Y-74853153D02*
X112050285Y-74853153D01*
X112050285Y-74853153D02*
X112098666Y-74877343D01*
X112098666Y-74877343D02*
X112122857Y-74901534D01*
X112122857Y-74901534D02*
X112147047Y-74949915D01*
X112147047Y-74949915D02*
X112147047Y-75070867D01*
X112147047Y-75070867D02*
X112122857Y-75119248D01*
X112122857Y-75119248D02*
X112098666Y-75143439D01*
X112098666Y-75143439D02*
X112050285Y-75167629D01*
X112050285Y-75167629D02*
X111929333Y-75167629D01*
X111929333Y-75167629D02*
X111880952Y-75143439D01*
X111880952Y-75143439D02*
X111856761Y-75119248D01*
X112292190Y-74659629D02*
X112461524Y-75167629D01*
X112461524Y-75167629D02*
X112630857Y-74659629D01*
D12*
X125282476Y-94843962D02*
X125476000Y-94843962D01*
X125379238Y-94940724D02*
X125379238Y-94747200D01*
D11*
X112335370Y-54464857D02*
X112335370Y-54222952D01*
X112335370Y-54222952D02*
X112843370Y-54222952D01*
X112335370Y-54634190D02*
X112674037Y-54634190D01*
X112843370Y-54634190D02*
X112819180Y-54609999D01*
X112819180Y-54609999D02*
X112794989Y-54634190D01*
X112794989Y-54634190D02*
X112819180Y-54658380D01*
X112819180Y-54658380D02*
X112843370Y-54634190D01*
X112843370Y-54634190D02*
X112794989Y-54634190D01*
X112335370Y-55093809D02*
X112843370Y-55093809D01*
X112359560Y-55093809D02*
X112335370Y-55045428D01*
X112335370Y-55045428D02*
X112335370Y-54948666D01*
X112335370Y-54948666D02*
X112359560Y-54900285D01*
X112359560Y-54900285D02*
X112383751Y-54876095D01*
X112383751Y-54876095D02*
X112432132Y-54851904D01*
X112432132Y-54851904D02*
X112577275Y-54851904D01*
X112577275Y-54851904D02*
X112625656Y-54876095D01*
X112625656Y-54876095D02*
X112649846Y-54900285D01*
X112649846Y-54900285D02*
X112674037Y-54948666D01*
X112674037Y-54948666D02*
X112674037Y-55045428D01*
X112674037Y-55045428D02*
X112649846Y-55093809D01*
X112335370Y-55553428D02*
X112601465Y-55553428D01*
X112601465Y-55553428D02*
X112649846Y-55529238D01*
X112649846Y-55529238D02*
X112674037Y-55480857D01*
X112674037Y-55480857D02*
X112674037Y-55384095D01*
X112674037Y-55384095D02*
X112649846Y-55335714D01*
X112359560Y-55553428D02*
X112335370Y-55505047D01*
X112335370Y-55505047D02*
X112335370Y-55384095D01*
X112335370Y-55384095D02*
X112359560Y-55335714D01*
X112359560Y-55335714D02*
X112407941Y-55311523D01*
X112407941Y-55311523D02*
X112456322Y-55311523D01*
X112456322Y-55311523D02*
X112504703Y-55335714D01*
X112504703Y-55335714D02*
X112528894Y-55384095D01*
X112528894Y-55384095D02*
X112528894Y-55505047D01*
X112528894Y-55505047D02*
X112553084Y-55553428D01*
X112335370Y-55795333D02*
X112674037Y-55795333D01*
X112577275Y-55795333D02*
X112625656Y-55819523D01*
X112625656Y-55819523D02*
X112649846Y-55843714D01*
X112649846Y-55843714D02*
X112674037Y-55892095D01*
X112674037Y-55892095D02*
X112674037Y-55940476D01*
X117976952Y-83244629D02*
X117976952Y-82736629D01*
X117976952Y-82736629D02*
X118097904Y-82736629D01*
X118097904Y-82736629D02*
X118170476Y-82760820D01*
X118170476Y-82760820D02*
X118218857Y-82809200D01*
X118218857Y-82809200D02*
X118243047Y-82857581D01*
X118243047Y-82857581D02*
X118267238Y-82954343D01*
X118267238Y-82954343D02*
X118267238Y-83026915D01*
X118267238Y-83026915D02*
X118243047Y-83123677D01*
X118243047Y-83123677D02*
X118218857Y-83172058D01*
X118218857Y-83172058D02*
X118170476Y-83220439D01*
X118170476Y-83220439D02*
X118097904Y-83244629D01*
X118097904Y-83244629D02*
X117976952Y-83244629D01*
X118484952Y-83244629D02*
X118484952Y-82905962D01*
X118484952Y-82736629D02*
X118460761Y-82760820D01*
X118460761Y-82760820D02*
X118484952Y-82785010D01*
X118484952Y-82785010D02*
X118509142Y-82760820D01*
X118509142Y-82760820D02*
X118484952Y-82736629D01*
X118484952Y-82736629D02*
X118484952Y-82785010D01*
X118726857Y-83244629D02*
X118726857Y-82905962D01*
X118726857Y-83002724D02*
X118751047Y-82954343D01*
X118751047Y-82954343D02*
X118775238Y-82930153D01*
X118775238Y-82930153D02*
X118823619Y-82905962D01*
X118823619Y-82905962D02*
X118872000Y-82905962D01*
X125289370Y-52686857D02*
X125289370Y-52444952D01*
X125289370Y-52444952D02*
X125797370Y-52444952D01*
X125289370Y-52856190D02*
X125628037Y-52856190D01*
X125797370Y-52856190D02*
X125773180Y-52831999D01*
X125773180Y-52831999D02*
X125748989Y-52856190D01*
X125748989Y-52856190D02*
X125773180Y-52880380D01*
X125773180Y-52880380D02*
X125797370Y-52856190D01*
X125797370Y-52856190D02*
X125748989Y-52856190D01*
X125289370Y-53315809D02*
X125797370Y-53315809D01*
X125313560Y-53315809D02*
X125289370Y-53267428D01*
X125289370Y-53267428D02*
X125289370Y-53170666D01*
X125289370Y-53170666D02*
X125313560Y-53122285D01*
X125313560Y-53122285D02*
X125337751Y-53098095D01*
X125337751Y-53098095D02*
X125386132Y-53073904D01*
X125386132Y-53073904D02*
X125531275Y-53073904D01*
X125531275Y-53073904D02*
X125579656Y-53098095D01*
X125579656Y-53098095D02*
X125603846Y-53122285D01*
X125603846Y-53122285D02*
X125628037Y-53170666D01*
X125628037Y-53170666D02*
X125628037Y-53267428D01*
X125628037Y-53267428D02*
X125603846Y-53315809D01*
X125289370Y-53775428D02*
X125555465Y-53775428D01*
X125555465Y-53775428D02*
X125603846Y-53751238D01*
X125603846Y-53751238D02*
X125628037Y-53702857D01*
X125628037Y-53702857D02*
X125628037Y-53606095D01*
X125628037Y-53606095D02*
X125603846Y-53557714D01*
X125313560Y-53775428D02*
X125289370Y-53727047D01*
X125289370Y-53727047D02*
X125289370Y-53606095D01*
X125289370Y-53606095D02*
X125313560Y-53557714D01*
X125313560Y-53557714D02*
X125361941Y-53533523D01*
X125361941Y-53533523D02*
X125410322Y-53533523D01*
X125410322Y-53533523D02*
X125458703Y-53557714D01*
X125458703Y-53557714D02*
X125482894Y-53606095D01*
X125482894Y-53606095D02*
X125482894Y-53727047D01*
X125482894Y-53727047D02*
X125507084Y-53775428D01*
X125289370Y-54017333D02*
X125628037Y-54017333D01*
X125531275Y-54017333D02*
X125579656Y-54041523D01*
X125579656Y-54041523D02*
X125603846Y-54065714D01*
X125603846Y-54065714D02*
X125628037Y-54114095D01*
X125628037Y-54114095D02*
X125628037Y-54162476D01*
X117952761Y-75092439D02*
X118025333Y-75116629D01*
X118025333Y-75116629D02*
X118146285Y-75116629D01*
X118146285Y-75116629D02*
X118194666Y-75092439D01*
X118194666Y-75092439D02*
X118218857Y-75068248D01*
X118218857Y-75068248D02*
X118243047Y-75019867D01*
X118243047Y-75019867D02*
X118243047Y-74971486D01*
X118243047Y-74971486D02*
X118218857Y-74923105D01*
X118218857Y-74923105D02*
X118194666Y-74898915D01*
X118194666Y-74898915D02*
X118146285Y-74874724D01*
X118146285Y-74874724D02*
X118049523Y-74850534D01*
X118049523Y-74850534D02*
X118001142Y-74826343D01*
X118001142Y-74826343D02*
X117976952Y-74802153D01*
X117976952Y-74802153D02*
X117952761Y-74753772D01*
X117952761Y-74753772D02*
X117952761Y-74705391D01*
X117952761Y-74705391D02*
X117976952Y-74657010D01*
X117976952Y-74657010D02*
X118001142Y-74632820D01*
X118001142Y-74632820D02*
X118049523Y-74608629D01*
X118049523Y-74608629D02*
X118170476Y-74608629D01*
X118170476Y-74608629D02*
X118243047Y-74632820D01*
X118436571Y-74657010D02*
X118460762Y-74632820D01*
X118460762Y-74632820D02*
X118509143Y-74608629D01*
X118509143Y-74608629D02*
X118630095Y-74608629D01*
X118630095Y-74608629D02*
X118678476Y-74632820D01*
X118678476Y-74632820D02*
X118702667Y-74657010D01*
X118702667Y-74657010D02*
X118726857Y-74705391D01*
X118726857Y-74705391D02*
X118726857Y-74753772D01*
X118726857Y-74753772D02*
X118702667Y-74826343D01*
X118702667Y-74826343D02*
X118412381Y-75116629D01*
X118412381Y-75116629D02*
X118726857Y-75116629D01*
X98418952Y-78689925D02*
X98806000Y-78689925D01*
X98612476Y-78883449D02*
X98612476Y-78496401D01*
X141574761Y-52994439D02*
X141647333Y-53018629D01*
X141647333Y-53018629D02*
X141768285Y-53018629D01*
X141768285Y-53018629D02*
X141816666Y-52994439D01*
X141816666Y-52994439D02*
X141840857Y-52970248D01*
X141840857Y-52970248D02*
X141865047Y-52921867D01*
X141865047Y-52921867D02*
X141865047Y-52873486D01*
X141865047Y-52873486D02*
X141840857Y-52825105D01*
X141840857Y-52825105D02*
X141816666Y-52800915D01*
X141816666Y-52800915D02*
X141768285Y-52776724D01*
X141768285Y-52776724D02*
X141671523Y-52752534D01*
X141671523Y-52752534D02*
X141623142Y-52728343D01*
X141623142Y-52728343D02*
X141598952Y-52704153D01*
X141598952Y-52704153D02*
X141574761Y-52655772D01*
X141574761Y-52655772D02*
X141574761Y-52607391D01*
X141574761Y-52607391D02*
X141598952Y-52559010D01*
X141598952Y-52559010D02*
X141623142Y-52534820D01*
X141623142Y-52534820D02*
X141671523Y-52510629D01*
X141671523Y-52510629D02*
X141792476Y-52510629D01*
X141792476Y-52510629D02*
X141865047Y-52534820D01*
X142010190Y-52679962D02*
X142203714Y-52679962D01*
X142082762Y-52510629D02*
X142082762Y-52946058D01*
X142082762Y-52946058D02*
X142106952Y-52994439D01*
X142106952Y-52994439D02*
X142155333Y-53018629D01*
X142155333Y-53018629D02*
X142203714Y-53018629D01*
X142566572Y-52994439D02*
X142518191Y-53018629D01*
X142518191Y-53018629D02*
X142421429Y-53018629D01*
X142421429Y-53018629D02*
X142373048Y-52994439D01*
X142373048Y-52994439D02*
X142348857Y-52946058D01*
X142348857Y-52946058D02*
X142348857Y-52752534D01*
X142348857Y-52752534D02*
X142373048Y-52704153D01*
X142373048Y-52704153D02*
X142421429Y-52679962D01*
X142421429Y-52679962D02*
X142518191Y-52679962D01*
X142518191Y-52679962D02*
X142566572Y-52704153D01*
X142566572Y-52704153D02*
X142590762Y-52752534D01*
X142590762Y-52752534D02*
X142590762Y-52800915D01*
X142590762Y-52800915D02*
X142348857Y-52849296D01*
X142808477Y-52679962D02*
X142808477Y-53187962D01*
X142808477Y-52704153D02*
X142856858Y-52679962D01*
X142856858Y-52679962D02*
X142953620Y-52679962D01*
X142953620Y-52679962D02*
X143002001Y-52704153D01*
X143002001Y-52704153D02*
X143026191Y-52728343D01*
X143026191Y-52728343D02*
X143050382Y-52776724D01*
X143050382Y-52776724D02*
X143050382Y-52921867D01*
X143050382Y-52921867D02*
X143026191Y-52970248D01*
X143026191Y-52970248D02*
X143002001Y-52994439D01*
X143002001Y-52994439D02*
X142953620Y-53018629D01*
X142953620Y-53018629D02*
X142856858Y-53018629D01*
X142856858Y-53018629D02*
X142808477Y-52994439D01*
X119984761Y-75092439D02*
X120057333Y-75116629D01*
X120057333Y-75116629D02*
X120178285Y-75116629D01*
X120178285Y-75116629D02*
X120226666Y-75092439D01*
X120226666Y-75092439D02*
X120250857Y-75068248D01*
X120250857Y-75068248D02*
X120275047Y-75019867D01*
X120275047Y-75019867D02*
X120275047Y-74971486D01*
X120275047Y-74971486D02*
X120250857Y-74923105D01*
X120250857Y-74923105D02*
X120226666Y-74898915D01*
X120226666Y-74898915D02*
X120178285Y-74874724D01*
X120178285Y-74874724D02*
X120081523Y-74850534D01*
X120081523Y-74850534D02*
X120033142Y-74826343D01*
X120033142Y-74826343D02*
X120008952Y-74802153D01*
X120008952Y-74802153D02*
X119984761Y-74753772D01*
X119984761Y-74753772D02*
X119984761Y-74705391D01*
X119984761Y-74705391D02*
X120008952Y-74657010D01*
X120008952Y-74657010D02*
X120033142Y-74632820D01*
X120033142Y-74632820D02*
X120081523Y-74608629D01*
X120081523Y-74608629D02*
X120202476Y-74608629D01*
X120202476Y-74608629D02*
X120275047Y-74632820D01*
X120444381Y-74608629D02*
X120758857Y-74608629D01*
X120758857Y-74608629D02*
X120589524Y-74802153D01*
X120589524Y-74802153D02*
X120662095Y-74802153D01*
X120662095Y-74802153D02*
X120710476Y-74826343D01*
X120710476Y-74826343D02*
X120734667Y-74850534D01*
X120734667Y-74850534D02*
X120758857Y-74898915D01*
X120758857Y-74898915D02*
X120758857Y-75019867D01*
X120758857Y-75019867D02*
X120734667Y-75068248D01*
X120734667Y-75068248D02*
X120710476Y-75092439D01*
X120710476Y-75092439D02*
X120662095Y-75116629D01*
X120662095Y-75116629D02*
X120516952Y-75116629D01*
X120516952Y-75116629D02*
X120468571Y-75092439D01*
X120468571Y-75092439D02*
X120444381Y-75068248D01*
D12*
X113090476Y-75285962D02*
X113284000Y-75285962D01*
X113187238Y-75382724D02*
X113187238Y-75189200D01*
D11*
X122016761Y-83099486D02*
X122258666Y-83099486D01*
X121968380Y-83244629D02*
X122137714Y-82736629D01*
X122137714Y-82736629D02*
X122307047Y-83244629D01*
X122452190Y-82785010D02*
X122476381Y-82760820D01*
X122476381Y-82760820D02*
X122524762Y-82736629D01*
X122524762Y-82736629D02*
X122645714Y-82736629D01*
X122645714Y-82736629D02*
X122694095Y-82760820D01*
X122694095Y-82760820D02*
X122718286Y-82785010D01*
X122718286Y-82785010D02*
X122742476Y-82833391D01*
X122742476Y-82833391D02*
X122742476Y-82881772D01*
X122742476Y-82881772D02*
X122718286Y-82954343D01*
X122718286Y-82954343D02*
X122428000Y-83244629D01*
X122428000Y-83244629D02*
X122742476Y-83244629D01*
X93859047Y-87586820D02*
X93810666Y-87562629D01*
X93810666Y-87562629D02*
X93738095Y-87562629D01*
X93738095Y-87562629D02*
X93665523Y-87586820D01*
X93665523Y-87586820D02*
X93617142Y-87635200D01*
X93617142Y-87635200D02*
X93592952Y-87683581D01*
X93592952Y-87683581D02*
X93568761Y-87780343D01*
X93568761Y-87780343D02*
X93568761Y-87852915D01*
X93568761Y-87852915D02*
X93592952Y-87949677D01*
X93592952Y-87949677D02*
X93617142Y-87998058D01*
X93617142Y-87998058D02*
X93665523Y-88046439D01*
X93665523Y-88046439D02*
X93738095Y-88070629D01*
X93738095Y-88070629D02*
X93786476Y-88070629D01*
X93786476Y-88070629D02*
X93859047Y-88046439D01*
X93859047Y-88046439D02*
X93883238Y-88022248D01*
X93883238Y-88022248D02*
X93883238Y-87852915D01*
X93883238Y-87852915D02*
X93786476Y-87852915D01*
X94100952Y-88070629D02*
X94100952Y-87562629D01*
X94100952Y-87562629D02*
X94391238Y-88070629D01*
X94391238Y-88070629D02*
X94391238Y-87562629D01*
X94633142Y-88070629D02*
X94633142Y-87562629D01*
X94633142Y-87562629D02*
X94754094Y-87562629D01*
X94754094Y-87562629D02*
X94826666Y-87586820D01*
X94826666Y-87586820D02*
X94875047Y-87635200D01*
X94875047Y-87635200D02*
X94899237Y-87683581D01*
X94899237Y-87683581D02*
X94923428Y-87780343D01*
X94923428Y-87780343D02*
X94923428Y-87852915D01*
X94923428Y-87852915D02*
X94899237Y-87949677D01*
X94899237Y-87949677D02*
X94875047Y-87998058D01*
X94875047Y-87998058D02*
X94826666Y-88046439D01*
X94826666Y-88046439D02*
X94754094Y-88070629D01*
X94754094Y-88070629D02*
X94633142Y-88070629D01*
X98418952Y-89865925D02*
X98806000Y-89865925D01*
X98612476Y-90059449D02*
X98612476Y-89672401D01*
X120178285Y-95170534D02*
X120250857Y-95194724D01*
X120250857Y-95194724D02*
X120275047Y-95218915D01*
X120275047Y-95218915D02*
X120299238Y-95267296D01*
X120299238Y-95267296D02*
X120299238Y-95339867D01*
X120299238Y-95339867D02*
X120275047Y-95388248D01*
X120275047Y-95388248D02*
X120250857Y-95412439D01*
X120250857Y-95412439D02*
X120202476Y-95436629D01*
X120202476Y-95436629D02*
X120008952Y-95436629D01*
X120008952Y-95436629D02*
X120008952Y-94928629D01*
X120008952Y-94928629D02*
X120178285Y-94928629D01*
X120178285Y-94928629D02*
X120226666Y-94952820D01*
X120226666Y-94952820D02*
X120250857Y-94977010D01*
X120250857Y-94977010D02*
X120275047Y-95025391D01*
X120275047Y-95025391D02*
X120275047Y-95073772D01*
X120275047Y-95073772D02*
X120250857Y-95122153D01*
X120250857Y-95122153D02*
X120226666Y-95146343D01*
X120226666Y-95146343D02*
X120178285Y-95170534D01*
X120178285Y-95170534D02*
X120008952Y-95170534D01*
X120783047Y-95436629D02*
X120492761Y-95436629D01*
X120637904Y-95436629D02*
X120637904Y-94928629D01*
X120637904Y-94928629D02*
X120589523Y-95001200D01*
X120589523Y-95001200D02*
X120541142Y-95049581D01*
X120541142Y-95049581D02*
X120492761Y-95073772D01*
D12*
X119186476Y-83413962D02*
X119380000Y-83413962D01*
X119283238Y-83510724D02*
X119283238Y-83317200D01*
D11*
X122040952Y-75116629D02*
X122040952Y-74608629D01*
X122040952Y-74608629D02*
X122161904Y-74608629D01*
X122161904Y-74608629D02*
X122234476Y-74632820D01*
X122234476Y-74632820D02*
X122282857Y-74681200D01*
X122282857Y-74681200D02*
X122307047Y-74729581D01*
X122307047Y-74729581D02*
X122331238Y-74826343D01*
X122331238Y-74826343D02*
X122331238Y-74898915D01*
X122331238Y-74898915D02*
X122307047Y-74995677D01*
X122307047Y-74995677D02*
X122282857Y-75044058D01*
X122282857Y-75044058D02*
X122234476Y-75092439D01*
X122234476Y-75092439D02*
X122161904Y-75116629D01*
X122161904Y-75116629D02*
X122040952Y-75116629D01*
X122548952Y-75116629D02*
X122548952Y-74777962D01*
X122548952Y-74608629D02*
X122524761Y-74632820D01*
X122524761Y-74632820D02*
X122548952Y-74657010D01*
X122548952Y-74657010D02*
X122573142Y-74632820D01*
X122573142Y-74632820D02*
X122548952Y-74608629D01*
X122548952Y-74608629D02*
X122548952Y-74657010D01*
X122766666Y-75092439D02*
X122815047Y-75116629D01*
X122815047Y-75116629D02*
X122911809Y-75116629D01*
X122911809Y-75116629D02*
X122960190Y-75092439D01*
X122960190Y-75092439D02*
X122984381Y-75044058D01*
X122984381Y-75044058D02*
X122984381Y-75019867D01*
X122984381Y-75019867D02*
X122960190Y-74971486D01*
X122960190Y-74971486D02*
X122911809Y-74947296D01*
X122911809Y-74947296D02*
X122839238Y-74947296D01*
X122839238Y-74947296D02*
X122790857Y-74923105D01*
X122790857Y-74923105D02*
X122766666Y-74874724D01*
X122766666Y-74874724D02*
X122766666Y-74850534D01*
X122766666Y-74850534D02*
X122790857Y-74802153D01*
X122790857Y-74802153D02*
X122839238Y-74777962D01*
X122839238Y-74777962D02*
X122911809Y-74777962D01*
X122911809Y-74777962D02*
X122960190Y-74802153D01*
X123129523Y-74777962D02*
X123323047Y-74777962D01*
X123202095Y-74608629D02*
X123202095Y-75044058D01*
X123202095Y-75044058D02*
X123226285Y-75092439D01*
X123226285Y-75092439D02*
X123274666Y-75116629D01*
X123274666Y-75116629D02*
X123323047Y-75116629D01*
X134208761Y-52994439D02*
X134281333Y-53018629D01*
X134281333Y-53018629D02*
X134402285Y-53018629D01*
X134402285Y-53018629D02*
X134450666Y-52994439D01*
X134450666Y-52994439D02*
X134474857Y-52970248D01*
X134474857Y-52970248D02*
X134499047Y-52921867D01*
X134499047Y-52921867D02*
X134499047Y-52873486D01*
X134499047Y-52873486D02*
X134474857Y-52825105D01*
X134474857Y-52825105D02*
X134450666Y-52800915D01*
X134450666Y-52800915D02*
X134402285Y-52776724D01*
X134402285Y-52776724D02*
X134305523Y-52752534D01*
X134305523Y-52752534D02*
X134257142Y-52728343D01*
X134257142Y-52728343D02*
X134232952Y-52704153D01*
X134232952Y-52704153D02*
X134208761Y-52655772D01*
X134208761Y-52655772D02*
X134208761Y-52607391D01*
X134208761Y-52607391D02*
X134232952Y-52559010D01*
X134232952Y-52559010D02*
X134257142Y-52534820D01*
X134257142Y-52534820D02*
X134305523Y-52510629D01*
X134305523Y-52510629D02*
X134426476Y-52510629D01*
X134426476Y-52510629D02*
X134499047Y-52534820D01*
X134668381Y-52510629D02*
X134982857Y-52510629D01*
X134982857Y-52510629D02*
X134813524Y-52704153D01*
X134813524Y-52704153D02*
X134886095Y-52704153D01*
X134886095Y-52704153D02*
X134934476Y-52728343D01*
X134934476Y-52728343D02*
X134958667Y-52752534D01*
X134958667Y-52752534D02*
X134982857Y-52800915D01*
X134982857Y-52800915D02*
X134982857Y-52921867D01*
X134982857Y-52921867D02*
X134958667Y-52970248D01*
X134958667Y-52970248D02*
X134934476Y-52994439D01*
X134934476Y-52994439D02*
X134886095Y-53018629D01*
X134886095Y-53018629D02*
X134740952Y-53018629D01*
X134740952Y-53018629D02*
X134692571Y-52994439D01*
X134692571Y-52994439D02*
X134668381Y-52970248D01*
D12*
X125282476Y-83413962D02*
X125476000Y-83413962D01*
X125379238Y-83510724D02*
X125379238Y-83317200D01*
D10*
X147466761Y-90995523D02*
X147514380Y-90852666D01*
X147514380Y-90852666D02*
X147514380Y-90614571D01*
X147514380Y-90614571D02*
X147466761Y-90519333D01*
X147466761Y-90519333D02*
X147419142Y-90471714D01*
X147419142Y-90471714D02*
X147323904Y-90424095D01*
X147323904Y-90424095D02*
X147228666Y-90424095D01*
X147228666Y-90424095D02*
X147133428Y-90471714D01*
X147133428Y-90471714D02*
X147085809Y-90519333D01*
X147085809Y-90519333D02*
X147038190Y-90614571D01*
X147038190Y-90614571D02*
X146990571Y-90805047D01*
X146990571Y-90805047D02*
X146942952Y-90900285D01*
X146942952Y-90900285D02*
X146895333Y-90947904D01*
X146895333Y-90947904D02*
X146800095Y-90995523D01*
X146800095Y-90995523D02*
X146704857Y-90995523D01*
X146704857Y-90995523D02*
X146609619Y-90947904D01*
X146609619Y-90947904D02*
X146562000Y-90900285D01*
X146562000Y-90900285D02*
X146514380Y-90805047D01*
X146514380Y-90805047D02*
X146514380Y-90566952D01*
X146514380Y-90566952D02*
X146562000Y-90424095D01*
X146847714Y-90138380D02*
X146847714Y-89757428D01*
X146514380Y-89995523D02*
X147371523Y-89995523D01*
X147371523Y-89995523D02*
X147466761Y-89947904D01*
X147466761Y-89947904D02*
X147514380Y-89852666D01*
X147514380Y-89852666D02*
X147514380Y-89757428D01*
X147466761Y-89043142D02*
X147514380Y-89138380D01*
X147514380Y-89138380D02*
X147514380Y-89328856D01*
X147514380Y-89328856D02*
X147466761Y-89424094D01*
X147466761Y-89424094D02*
X147371523Y-89471713D01*
X147371523Y-89471713D02*
X146990571Y-89471713D01*
X146990571Y-89471713D02*
X146895333Y-89424094D01*
X146895333Y-89424094D02*
X146847714Y-89328856D01*
X146847714Y-89328856D02*
X146847714Y-89138380D01*
X146847714Y-89138380D02*
X146895333Y-89043142D01*
X146895333Y-89043142D02*
X146990571Y-88995523D01*
X146990571Y-88995523D02*
X147085809Y-88995523D01*
X147085809Y-88995523D02*
X147181047Y-89471713D01*
X146847714Y-88566951D02*
X147847714Y-88566951D01*
X146895333Y-88566951D02*
X146847714Y-88471713D01*
X146847714Y-88471713D02*
X146847714Y-88281237D01*
X146847714Y-88281237D02*
X146895333Y-88185999D01*
X146895333Y-88185999D02*
X146942952Y-88138380D01*
X146942952Y-88138380D02*
X147038190Y-88090761D01*
X147038190Y-88090761D02*
X147323904Y-88090761D01*
X147323904Y-88090761D02*
X147419142Y-88138380D01*
X147419142Y-88138380D02*
X147466761Y-88185999D01*
X147466761Y-88185999D02*
X147514380Y-88281237D01*
X147514380Y-88281237D02*
X147514380Y-88471713D01*
X147514380Y-88471713D02*
X147466761Y-88566951D01*
X146847714Y-87662189D02*
X147847714Y-87662189D01*
X146895333Y-87662189D02*
X146847714Y-87566951D01*
X146847714Y-87566951D02*
X146847714Y-87376475D01*
X146847714Y-87376475D02*
X146895333Y-87281237D01*
X146895333Y-87281237D02*
X146942952Y-87233618D01*
X146942952Y-87233618D02*
X147038190Y-87185999D01*
X147038190Y-87185999D02*
X147323904Y-87185999D01*
X147323904Y-87185999D02*
X147419142Y-87233618D01*
X147419142Y-87233618D02*
X147466761Y-87281237D01*
X147466761Y-87281237D02*
X147514380Y-87376475D01*
X147514380Y-87376475D02*
X147514380Y-87566951D01*
X147514380Y-87566951D02*
X147466761Y-87662189D01*
X147466761Y-86376475D02*
X147514380Y-86471713D01*
X147514380Y-86471713D02*
X147514380Y-86662189D01*
X147514380Y-86662189D02*
X147466761Y-86757427D01*
X147466761Y-86757427D02*
X147371523Y-86805046D01*
X147371523Y-86805046D02*
X146990571Y-86805046D01*
X146990571Y-86805046D02*
X146895333Y-86757427D01*
X146895333Y-86757427D02*
X146847714Y-86662189D01*
X146847714Y-86662189D02*
X146847714Y-86471713D01*
X146847714Y-86471713D02*
X146895333Y-86376475D01*
X146895333Y-86376475D02*
X146990571Y-86328856D01*
X146990571Y-86328856D02*
X147085809Y-86328856D01*
X147085809Y-86328856D02*
X147181047Y-86805046D01*
X147514380Y-85900284D02*
X146847714Y-85900284D01*
X147038190Y-85900284D02*
X146942952Y-85852665D01*
X146942952Y-85852665D02*
X146895333Y-85805046D01*
X146895333Y-85805046D02*
X146847714Y-85709808D01*
X146847714Y-85709808D02*
X146847714Y-85614570D01*
X147419142Y-84109808D02*
X147466761Y-84157427D01*
X147466761Y-84157427D02*
X147514380Y-84300284D01*
X147514380Y-84300284D02*
X147514380Y-84395522D01*
X147514380Y-84395522D02*
X147466761Y-84538379D01*
X147466761Y-84538379D02*
X147371523Y-84633617D01*
X147371523Y-84633617D02*
X147276285Y-84681236D01*
X147276285Y-84681236D02*
X147085809Y-84728855D01*
X147085809Y-84728855D02*
X146942952Y-84728855D01*
X146942952Y-84728855D02*
X146752476Y-84681236D01*
X146752476Y-84681236D02*
X146657238Y-84633617D01*
X146657238Y-84633617D02*
X146562000Y-84538379D01*
X146562000Y-84538379D02*
X146514380Y-84395522D01*
X146514380Y-84395522D02*
X146514380Y-84300284D01*
X146514380Y-84300284D02*
X146562000Y-84157427D01*
X146562000Y-84157427D02*
X146609619Y-84109808D01*
X147514380Y-83538379D02*
X147466761Y-83633617D01*
X147466761Y-83633617D02*
X147419142Y-83681236D01*
X147419142Y-83681236D02*
X147323904Y-83728855D01*
X147323904Y-83728855D02*
X147038190Y-83728855D01*
X147038190Y-83728855D02*
X146942952Y-83681236D01*
X146942952Y-83681236D02*
X146895333Y-83633617D01*
X146895333Y-83633617D02*
X146847714Y-83538379D01*
X146847714Y-83538379D02*
X146847714Y-83395522D01*
X146847714Y-83395522D02*
X146895333Y-83300284D01*
X146895333Y-83300284D02*
X146942952Y-83252665D01*
X146942952Y-83252665D02*
X147038190Y-83205046D01*
X147038190Y-83205046D02*
X147323904Y-83205046D01*
X147323904Y-83205046D02*
X147419142Y-83252665D01*
X147419142Y-83252665D02*
X147466761Y-83300284D01*
X147466761Y-83300284D02*
X147514380Y-83395522D01*
X147514380Y-83395522D02*
X147514380Y-83538379D01*
X146847714Y-82776474D02*
X147514380Y-82776474D01*
X146942952Y-82776474D02*
X146895333Y-82728855D01*
X146895333Y-82728855D02*
X146847714Y-82633617D01*
X146847714Y-82633617D02*
X146847714Y-82490760D01*
X146847714Y-82490760D02*
X146895333Y-82395522D01*
X146895333Y-82395522D02*
X146990571Y-82347903D01*
X146990571Y-82347903D02*
X147514380Y-82347903D01*
X146847714Y-82014569D02*
X146847714Y-81633617D01*
X146514380Y-81871712D02*
X147371523Y-81871712D01*
X147371523Y-81871712D02*
X147466761Y-81824093D01*
X147466761Y-81824093D02*
X147514380Y-81728855D01*
X147514380Y-81728855D02*
X147514380Y-81633617D01*
X147514380Y-81300283D02*
X146847714Y-81300283D01*
X147038190Y-81300283D02*
X146942952Y-81252664D01*
X146942952Y-81252664D02*
X146895333Y-81205045D01*
X146895333Y-81205045D02*
X146847714Y-81109807D01*
X146847714Y-81109807D02*
X146847714Y-81014569D01*
X147514380Y-80538378D02*
X147466761Y-80633616D01*
X147466761Y-80633616D02*
X147419142Y-80681235D01*
X147419142Y-80681235D02*
X147323904Y-80728854D01*
X147323904Y-80728854D02*
X147038190Y-80728854D01*
X147038190Y-80728854D02*
X146942952Y-80681235D01*
X146942952Y-80681235D02*
X146895333Y-80633616D01*
X146895333Y-80633616D02*
X146847714Y-80538378D01*
X146847714Y-80538378D02*
X146847714Y-80395521D01*
X146847714Y-80395521D02*
X146895333Y-80300283D01*
X146895333Y-80300283D02*
X146942952Y-80252664D01*
X146942952Y-80252664D02*
X147038190Y-80205045D01*
X147038190Y-80205045D02*
X147323904Y-80205045D01*
X147323904Y-80205045D02*
X147419142Y-80252664D01*
X147419142Y-80252664D02*
X147466761Y-80300283D01*
X147466761Y-80300283D02*
X147514380Y-80395521D01*
X147514380Y-80395521D02*
X147514380Y-80538378D01*
X147514380Y-79633616D02*
X147466761Y-79728854D01*
X147466761Y-79728854D02*
X147371523Y-79776473D01*
X147371523Y-79776473D02*
X146514380Y-79776473D01*
X146990571Y-78319330D02*
X147038190Y-78176473D01*
X147038190Y-78176473D02*
X147085809Y-78128854D01*
X147085809Y-78128854D02*
X147181047Y-78081235D01*
X147181047Y-78081235D02*
X147323904Y-78081235D01*
X147323904Y-78081235D02*
X147419142Y-78128854D01*
X147419142Y-78128854D02*
X147466761Y-78176473D01*
X147466761Y-78176473D02*
X147514380Y-78271711D01*
X147514380Y-78271711D02*
X147514380Y-78652663D01*
X147514380Y-78652663D02*
X146514380Y-78652663D01*
X146514380Y-78652663D02*
X146514380Y-78319330D01*
X146514380Y-78319330D02*
X146562000Y-78224092D01*
X146562000Y-78224092D02*
X146609619Y-78176473D01*
X146609619Y-78176473D02*
X146704857Y-78128854D01*
X146704857Y-78128854D02*
X146800095Y-78128854D01*
X146800095Y-78128854D02*
X146895333Y-78176473D01*
X146895333Y-78176473D02*
X146942952Y-78224092D01*
X146942952Y-78224092D02*
X146990571Y-78319330D01*
X146990571Y-78319330D02*
X146990571Y-78652663D01*
X147514380Y-77509806D02*
X147466761Y-77605044D01*
X147466761Y-77605044D02*
X147419142Y-77652663D01*
X147419142Y-77652663D02*
X147323904Y-77700282D01*
X147323904Y-77700282D02*
X147038190Y-77700282D01*
X147038190Y-77700282D02*
X146942952Y-77652663D01*
X146942952Y-77652663D02*
X146895333Y-77605044D01*
X146895333Y-77605044D02*
X146847714Y-77509806D01*
X146847714Y-77509806D02*
X146847714Y-77366949D01*
X146847714Y-77366949D02*
X146895333Y-77271711D01*
X146895333Y-77271711D02*
X146942952Y-77224092D01*
X146942952Y-77224092D02*
X147038190Y-77176473D01*
X147038190Y-77176473D02*
X147323904Y-77176473D01*
X147323904Y-77176473D02*
X147419142Y-77224092D01*
X147419142Y-77224092D02*
X147466761Y-77271711D01*
X147466761Y-77271711D02*
X147514380Y-77366949D01*
X147514380Y-77366949D02*
X147514380Y-77509806D01*
X147514380Y-76319330D02*
X146990571Y-76319330D01*
X146990571Y-76319330D02*
X146895333Y-76366949D01*
X146895333Y-76366949D02*
X146847714Y-76462187D01*
X146847714Y-76462187D02*
X146847714Y-76652663D01*
X146847714Y-76652663D02*
X146895333Y-76747901D01*
X147466761Y-76319330D02*
X147514380Y-76414568D01*
X147514380Y-76414568D02*
X147514380Y-76652663D01*
X147514380Y-76652663D02*
X147466761Y-76747901D01*
X147466761Y-76747901D02*
X147371523Y-76795520D01*
X147371523Y-76795520D02*
X147276285Y-76795520D01*
X147276285Y-76795520D02*
X147181047Y-76747901D01*
X147181047Y-76747901D02*
X147133428Y-76652663D01*
X147133428Y-76652663D02*
X147133428Y-76414568D01*
X147133428Y-76414568D02*
X147085809Y-76319330D01*
X147514380Y-75843139D02*
X146847714Y-75843139D01*
X147038190Y-75843139D02*
X146942952Y-75795520D01*
X146942952Y-75795520D02*
X146895333Y-75747901D01*
X146895333Y-75747901D02*
X146847714Y-75652663D01*
X146847714Y-75652663D02*
X146847714Y-75557425D01*
X147514380Y-74795520D02*
X146514380Y-74795520D01*
X147466761Y-74795520D02*
X147514380Y-74890758D01*
X147514380Y-74890758D02*
X147514380Y-75081234D01*
X147514380Y-75081234D02*
X147466761Y-75176472D01*
X147466761Y-75176472D02*
X147419142Y-75224091D01*
X147419142Y-75224091D02*
X147323904Y-75271710D01*
X147323904Y-75271710D02*
X147038190Y-75271710D01*
X147038190Y-75271710D02*
X146942952Y-75224091D01*
X146942952Y-75224091D02*
X146895333Y-75176472D01*
X146895333Y-75176472D02*
X146847714Y-75081234D01*
X146847714Y-75081234D02*
X146847714Y-74890758D01*
X146847714Y-74890758D02*
X146895333Y-74795520D01*
X146514380Y-73862186D02*
X147514380Y-73528853D01*
X147514380Y-73528853D02*
X146514380Y-73195520D01*
X146514380Y-72957424D02*
X146514380Y-72338377D01*
X146514380Y-72338377D02*
X146895333Y-72671710D01*
X146895333Y-72671710D02*
X146895333Y-72528853D01*
X146895333Y-72528853D02*
X146942952Y-72433615D01*
X146942952Y-72433615D02*
X146990571Y-72385996D01*
X146990571Y-72385996D02*
X147085809Y-72338377D01*
X147085809Y-72338377D02*
X147323904Y-72338377D01*
X147323904Y-72338377D02*
X147419142Y-72385996D01*
X147419142Y-72385996D02*
X147466761Y-72433615D01*
X147466761Y-72433615D02*
X147514380Y-72528853D01*
X147514380Y-72528853D02*
X147514380Y-72814567D01*
X147514380Y-72814567D02*
X147466761Y-72909805D01*
X147466761Y-72909805D02*
X147419142Y-72957424D01*
X148134380Y-90662190D02*
X148848666Y-90662190D01*
X148848666Y-90662190D02*
X148991523Y-90709809D01*
X148991523Y-90709809D02*
X149086761Y-90805047D01*
X149086761Y-90805047D02*
X149134380Y-90947904D01*
X149134380Y-90947904D02*
X149134380Y-91043142D01*
X149134380Y-89709809D02*
X149134380Y-90185999D01*
X149134380Y-90185999D02*
X148134380Y-90185999D01*
X149039142Y-88805047D02*
X149086761Y-88852666D01*
X149086761Y-88852666D02*
X149134380Y-88995523D01*
X149134380Y-88995523D02*
X149134380Y-89090761D01*
X149134380Y-89090761D02*
X149086761Y-89233618D01*
X149086761Y-89233618D02*
X148991523Y-89328856D01*
X148991523Y-89328856D02*
X148896285Y-89376475D01*
X148896285Y-89376475D02*
X148705809Y-89424094D01*
X148705809Y-89424094D02*
X148562952Y-89424094D01*
X148562952Y-89424094D02*
X148372476Y-89376475D01*
X148372476Y-89376475D02*
X148277238Y-89328856D01*
X148277238Y-89328856D02*
X148182000Y-89233618D01*
X148182000Y-89233618D02*
X148134380Y-89090761D01*
X148134380Y-89090761D02*
X148134380Y-88995523D01*
X148134380Y-88995523D02*
X148182000Y-88852666D01*
X148182000Y-88852666D02*
X148229619Y-88805047D01*
X148134380Y-88090761D02*
X148848666Y-88090761D01*
X148848666Y-88090761D02*
X148991523Y-88138380D01*
X148991523Y-88138380D02*
X149086761Y-88233618D01*
X149086761Y-88233618D02*
X149134380Y-88376475D01*
X149134380Y-88376475D02*
X149134380Y-88471713D01*
X149134380Y-87138380D02*
X149134380Y-87614570D01*
X149134380Y-87614570D02*
X148134380Y-87614570D01*
X149039142Y-86233618D02*
X149086761Y-86281237D01*
X149086761Y-86281237D02*
X149134380Y-86424094D01*
X149134380Y-86424094D02*
X149134380Y-86519332D01*
X149134380Y-86519332D02*
X149086761Y-86662189D01*
X149086761Y-86662189D02*
X148991523Y-86757427D01*
X148991523Y-86757427D02*
X148896285Y-86805046D01*
X148896285Y-86805046D02*
X148705809Y-86852665D01*
X148705809Y-86852665D02*
X148562952Y-86852665D01*
X148562952Y-86852665D02*
X148372476Y-86805046D01*
X148372476Y-86805046D02*
X148277238Y-86757427D01*
X148277238Y-86757427D02*
X148182000Y-86662189D01*
X148182000Y-86662189D02*
X148134380Y-86519332D01*
X148134380Y-86519332D02*
X148134380Y-86424094D01*
X148134380Y-86424094D02*
X148182000Y-86281237D01*
X148182000Y-86281237D02*
X148229619Y-86233618D01*
X148134380Y-85519332D02*
X148848666Y-85519332D01*
X148848666Y-85519332D02*
X148991523Y-85566951D01*
X148991523Y-85566951D02*
X149086761Y-85662189D01*
X149086761Y-85662189D02*
X149134380Y-85805046D01*
X149134380Y-85805046D02*
X149134380Y-85900284D01*
X149134380Y-84566951D02*
X149134380Y-85043141D01*
X149134380Y-85043141D02*
X148134380Y-85043141D01*
X149039142Y-83662189D02*
X149086761Y-83709808D01*
X149086761Y-83709808D02*
X149134380Y-83852665D01*
X149134380Y-83852665D02*
X149134380Y-83947903D01*
X149134380Y-83947903D02*
X149086761Y-84090760D01*
X149086761Y-84090760D02*
X148991523Y-84185998D01*
X148991523Y-84185998D02*
X148896285Y-84233617D01*
X148896285Y-84233617D02*
X148705809Y-84281236D01*
X148705809Y-84281236D02*
X148562952Y-84281236D01*
X148562952Y-84281236D02*
X148372476Y-84233617D01*
X148372476Y-84233617D02*
X148277238Y-84185998D01*
X148277238Y-84185998D02*
X148182000Y-84090760D01*
X148182000Y-84090760D02*
X148134380Y-83947903D01*
X148134380Y-83947903D02*
X148134380Y-83852665D01*
X148134380Y-83852665D02*
X148182000Y-83709808D01*
X148182000Y-83709808D02*
X148229619Y-83662189D01*
X148134380Y-82947903D02*
X148848666Y-82947903D01*
X148848666Y-82947903D02*
X148991523Y-82995522D01*
X148991523Y-82995522D02*
X149086761Y-83090760D01*
X149086761Y-83090760D02*
X149134380Y-83233617D01*
X149134380Y-83233617D02*
X149134380Y-83328855D01*
X149134380Y-81995522D02*
X149134380Y-82471712D01*
X149134380Y-82471712D02*
X148134380Y-82471712D01*
X149039142Y-81090760D02*
X149086761Y-81138379D01*
X149086761Y-81138379D02*
X149134380Y-81281236D01*
X149134380Y-81281236D02*
X149134380Y-81376474D01*
X149134380Y-81376474D02*
X149086761Y-81519331D01*
X149086761Y-81519331D02*
X148991523Y-81614569D01*
X148991523Y-81614569D02*
X148896285Y-81662188D01*
X148896285Y-81662188D02*
X148705809Y-81709807D01*
X148705809Y-81709807D02*
X148562952Y-81709807D01*
X148562952Y-81709807D02*
X148372476Y-81662188D01*
X148372476Y-81662188D02*
X148277238Y-81614569D01*
X148277238Y-81614569D02*
X148182000Y-81519331D01*
X148182000Y-81519331D02*
X148134380Y-81376474D01*
X148134380Y-81376474D02*
X148134380Y-81281236D01*
X148134380Y-81281236D02*
X148182000Y-81138379D01*
X148182000Y-81138379D02*
X148229619Y-81090760D01*
D12*
X117154476Y-75285962D02*
X117348000Y-75285962D01*
X117251238Y-75382724D02*
X117251238Y-75189200D01*
D11*
X113888761Y-95412439D02*
X113961333Y-95436629D01*
X113961333Y-95436629D02*
X114082285Y-95436629D01*
X114082285Y-95436629D02*
X114130666Y-95412439D01*
X114130666Y-95412439D02*
X114154857Y-95388248D01*
X114154857Y-95388248D02*
X114179047Y-95339867D01*
X114179047Y-95339867D02*
X114179047Y-95291486D01*
X114179047Y-95291486D02*
X114154857Y-95243105D01*
X114154857Y-95243105D02*
X114130666Y-95218915D01*
X114130666Y-95218915D02*
X114082285Y-95194724D01*
X114082285Y-95194724D02*
X113985523Y-95170534D01*
X113985523Y-95170534D02*
X113937142Y-95146343D01*
X113937142Y-95146343D02*
X113912952Y-95122153D01*
X113912952Y-95122153D02*
X113888761Y-95073772D01*
X113888761Y-95073772D02*
X113888761Y-95025391D01*
X113888761Y-95025391D02*
X113912952Y-94977010D01*
X113912952Y-94977010D02*
X113937142Y-94952820D01*
X113937142Y-94952820D02*
X113985523Y-94928629D01*
X113985523Y-94928629D02*
X114106476Y-94928629D01*
X114106476Y-94928629D02*
X114179047Y-94952820D01*
X114469333Y-95436629D02*
X114420952Y-95412439D01*
X114420952Y-95412439D02*
X114396762Y-95364058D01*
X114396762Y-95364058D02*
X114396762Y-94928629D01*
X114662857Y-95097962D02*
X114662857Y-95605962D01*
X114662857Y-95122153D02*
X114711238Y-95097962D01*
X114711238Y-95097962D02*
X114808000Y-95097962D01*
X114808000Y-95097962D02*
X114856381Y-95122153D01*
X114856381Y-95122153D02*
X114880571Y-95146343D01*
X114880571Y-95146343D02*
X114904762Y-95194724D01*
X114904762Y-95194724D02*
X114904762Y-95339867D01*
X114904762Y-95339867D02*
X114880571Y-95388248D01*
X114880571Y-95388248D02*
X114856381Y-95412439D01*
X114856381Y-95412439D02*
X114808000Y-95436629D01*
X114808000Y-95436629D02*
X114711238Y-95436629D01*
X114711238Y-95436629D02*
X114662857Y-95412439D01*
X115920761Y-75143439D02*
X115993333Y-75167629D01*
X115993333Y-75167629D02*
X116114285Y-75167629D01*
X116114285Y-75167629D02*
X116162666Y-75143439D01*
X116162666Y-75143439D02*
X116186857Y-75119248D01*
X116186857Y-75119248D02*
X116211047Y-75070867D01*
X116211047Y-75070867D02*
X116211047Y-75022486D01*
X116211047Y-75022486D02*
X116186857Y-74974105D01*
X116186857Y-74974105D02*
X116162666Y-74949915D01*
X116162666Y-74949915D02*
X116114285Y-74925724D01*
X116114285Y-74925724D02*
X116017523Y-74901534D01*
X116017523Y-74901534D02*
X115969142Y-74877343D01*
X115969142Y-74877343D02*
X115944952Y-74853153D01*
X115944952Y-74853153D02*
X115920761Y-74804772D01*
X115920761Y-74804772D02*
X115920761Y-74756391D01*
X115920761Y-74756391D02*
X115944952Y-74708010D01*
X115944952Y-74708010D02*
X115969142Y-74683820D01*
X115969142Y-74683820D02*
X116017523Y-74659629D01*
X116017523Y-74659629D02*
X116138476Y-74659629D01*
X116138476Y-74659629D02*
X116211047Y-74683820D01*
X116694857Y-75167629D02*
X116404571Y-75167629D01*
X116549714Y-75167629D02*
X116549714Y-74659629D01*
X116549714Y-74659629D02*
X116501333Y-74732200D01*
X116501333Y-74732200D02*
X116452952Y-74780581D01*
X116452952Y-74780581D02*
X116404571Y-74804772D01*
X111880952Y-74151629D02*
X111880952Y-73643629D01*
X111880952Y-73643629D02*
X112074476Y-73643629D01*
X112074476Y-73643629D02*
X112122857Y-73667820D01*
X112122857Y-73667820D02*
X112147047Y-73692010D01*
X112147047Y-73692010D02*
X112171238Y-73740391D01*
X112171238Y-73740391D02*
X112171238Y-73812962D01*
X112171238Y-73812962D02*
X112147047Y-73861343D01*
X112147047Y-73861343D02*
X112122857Y-73885534D01*
X112122857Y-73885534D02*
X112074476Y-73909724D01*
X112074476Y-73909724D02*
X111880952Y-73909724D01*
X112461523Y-74151629D02*
X112413142Y-74127439D01*
X112413142Y-74127439D02*
X112388952Y-74103248D01*
X112388952Y-74103248D02*
X112364761Y-74054867D01*
X112364761Y-74054867D02*
X112364761Y-73909724D01*
X112364761Y-73909724D02*
X112388952Y-73861343D01*
X112388952Y-73861343D02*
X112413142Y-73837153D01*
X112413142Y-73837153D02*
X112461523Y-73812962D01*
X112461523Y-73812962D02*
X112534095Y-73812962D01*
X112534095Y-73812962D02*
X112582476Y-73837153D01*
X112582476Y-73837153D02*
X112606666Y-73861343D01*
X112606666Y-73861343D02*
X112630857Y-73909724D01*
X112630857Y-73909724D02*
X112630857Y-74054867D01*
X112630857Y-74054867D02*
X112606666Y-74103248D01*
X112606666Y-74103248D02*
X112582476Y-74127439D01*
X112582476Y-74127439D02*
X112534095Y-74151629D01*
X112534095Y-74151629D02*
X112461523Y-74151629D01*
X112800190Y-73812962D02*
X112896952Y-74151629D01*
X112896952Y-74151629D02*
X112993714Y-73909724D01*
X112993714Y-73909724D02*
X113090476Y-74151629D01*
X113090476Y-74151629D02*
X113187238Y-73812962D01*
X113574285Y-74127439D02*
X113525904Y-74151629D01*
X113525904Y-74151629D02*
X113429142Y-74151629D01*
X113429142Y-74151629D02*
X113380761Y-74127439D01*
X113380761Y-74127439D02*
X113356570Y-74079058D01*
X113356570Y-74079058D02*
X113356570Y-73885534D01*
X113356570Y-73885534D02*
X113380761Y-73837153D01*
X113380761Y-73837153D02*
X113429142Y-73812962D01*
X113429142Y-73812962D02*
X113525904Y-73812962D01*
X113525904Y-73812962D02*
X113574285Y-73837153D01*
X113574285Y-73837153D02*
X113598475Y-73885534D01*
X113598475Y-73885534D02*
X113598475Y-73933915D01*
X113598475Y-73933915D02*
X113356570Y-73982296D01*
X113816190Y-74151629D02*
X113816190Y-73812962D01*
X113816190Y-73909724D02*
X113840380Y-73861343D01*
X113840380Y-73861343D02*
X113864571Y-73837153D01*
X113864571Y-73837153D02*
X113912952Y-73812962D01*
X113912952Y-73812962D02*
X113961333Y-73812962D01*
X114435466Y-73958105D02*
X114822514Y-73958105D01*
X115064418Y-73958105D02*
X115451466Y-73958105D01*
X115920761Y-95412439D02*
X115993333Y-95436629D01*
X115993333Y-95436629D02*
X116114285Y-95436629D01*
X116114285Y-95436629D02*
X116162666Y-95412439D01*
X116162666Y-95412439D02*
X116186857Y-95388248D01*
X116186857Y-95388248D02*
X116211047Y-95339867D01*
X116211047Y-95339867D02*
X116211047Y-95291486D01*
X116211047Y-95291486D02*
X116186857Y-95243105D01*
X116186857Y-95243105D02*
X116162666Y-95218915D01*
X116162666Y-95218915D02*
X116114285Y-95194724D01*
X116114285Y-95194724D02*
X116017523Y-95170534D01*
X116017523Y-95170534D02*
X115969142Y-95146343D01*
X115969142Y-95146343D02*
X115944952Y-95122153D01*
X115944952Y-95122153D02*
X115920761Y-95073772D01*
X115920761Y-95073772D02*
X115920761Y-95025391D01*
X115920761Y-95025391D02*
X115944952Y-94977010D01*
X115944952Y-94977010D02*
X115969142Y-94952820D01*
X115969142Y-94952820D02*
X116017523Y-94928629D01*
X116017523Y-94928629D02*
X116138476Y-94928629D01*
X116138476Y-94928629D02*
X116211047Y-94952820D01*
X116356190Y-95097962D02*
X116549714Y-95097962D01*
X116428762Y-94928629D02*
X116428762Y-95364058D01*
X116428762Y-95364058D02*
X116452952Y-95412439D01*
X116452952Y-95412439D02*
X116501333Y-95436629D01*
X116501333Y-95436629D02*
X116549714Y-95436629D01*
X116912572Y-95412439D02*
X116864191Y-95436629D01*
X116864191Y-95436629D02*
X116767429Y-95436629D01*
X116767429Y-95436629D02*
X116719048Y-95412439D01*
X116719048Y-95412439D02*
X116694857Y-95364058D01*
X116694857Y-95364058D02*
X116694857Y-95170534D01*
X116694857Y-95170534D02*
X116719048Y-95122153D01*
X116719048Y-95122153D02*
X116767429Y-95097962D01*
X116767429Y-95097962D02*
X116864191Y-95097962D01*
X116864191Y-95097962D02*
X116912572Y-95122153D01*
X116912572Y-95122153D02*
X116936762Y-95170534D01*
X116936762Y-95170534D02*
X116936762Y-95218915D01*
X116936762Y-95218915D02*
X116694857Y-95267296D01*
X117154477Y-95097962D02*
X117154477Y-95605962D01*
X117154477Y-95122153D02*
X117202858Y-95097962D01*
X117202858Y-95097962D02*
X117299620Y-95097962D01*
X117299620Y-95097962D02*
X117348001Y-95122153D01*
X117348001Y-95122153D02*
X117372191Y-95146343D01*
X117372191Y-95146343D02*
X117396382Y-95194724D01*
X117396382Y-95194724D02*
X117396382Y-95339867D01*
X117396382Y-95339867D02*
X117372191Y-95388248D01*
X117372191Y-95388248D02*
X117348001Y-95412439D01*
X117348001Y-95412439D02*
X117299620Y-95436629D01*
X117299620Y-95436629D02*
X117202858Y-95436629D01*
X117202858Y-95436629D02*
X117154477Y-95412439D01*
D12*
X123250476Y-94843962D02*
X123444000Y-94843962D01*
X123347238Y-94940724D02*
X123347238Y-94747200D01*
D11*
X113888761Y-83220439D02*
X113961333Y-83244629D01*
X113961333Y-83244629D02*
X114082285Y-83244629D01*
X114082285Y-83244629D02*
X114130666Y-83220439D01*
X114130666Y-83220439D02*
X114154857Y-83196248D01*
X114154857Y-83196248D02*
X114179047Y-83147867D01*
X114179047Y-83147867D02*
X114179047Y-83099486D01*
X114179047Y-83099486D02*
X114154857Y-83051105D01*
X114154857Y-83051105D02*
X114130666Y-83026915D01*
X114130666Y-83026915D02*
X114082285Y-83002724D01*
X114082285Y-83002724D02*
X113985523Y-82978534D01*
X113985523Y-82978534D02*
X113937142Y-82954343D01*
X113937142Y-82954343D02*
X113912952Y-82930153D01*
X113912952Y-82930153D02*
X113888761Y-82881772D01*
X113888761Y-82881772D02*
X113888761Y-82833391D01*
X113888761Y-82833391D02*
X113912952Y-82785010D01*
X113912952Y-82785010D02*
X113937142Y-82760820D01*
X113937142Y-82760820D02*
X113985523Y-82736629D01*
X113985523Y-82736629D02*
X114106476Y-82736629D01*
X114106476Y-82736629D02*
X114179047Y-82760820D01*
X114469333Y-83244629D02*
X114420952Y-83220439D01*
X114420952Y-83220439D02*
X114396762Y-83172058D01*
X114396762Y-83172058D02*
X114396762Y-82736629D01*
X114662857Y-82905962D02*
X114662857Y-83413962D01*
X114662857Y-82930153D02*
X114711238Y-82905962D01*
X114711238Y-82905962D02*
X114808000Y-82905962D01*
X114808000Y-82905962D02*
X114856381Y-82930153D01*
X114856381Y-82930153D02*
X114880571Y-82954343D01*
X114880571Y-82954343D02*
X114904762Y-83002724D01*
X114904762Y-83002724D02*
X114904762Y-83147867D01*
X114904762Y-83147867D02*
X114880571Y-83196248D01*
X114880571Y-83196248D02*
X114856381Y-83220439D01*
X114856381Y-83220439D02*
X114808000Y-83244629D01*
X114808000Y-83244629D02*
X114711238Y-83244629D01*
X114711238Y-83244629D02*
X114662857Y-83220439D01*
D12*
X117154476Y-94843962D02*
X117348000Y-94843962D01*
X117251238Y-94940724D02*
X117251238Y-94747200D01*
D11*
X124048761Y-95291486D02*
X124290666Y-95291486D01*
X124000380Y-95436629D02*
X124169714Y-94928629D01*
X124169714Y-94928629D02*
X124339047Y-95436629D01*
X124484190Y-94977010D02*
X124508381Y-94952820D01*
X124508381Y-94952820D02*
X124556762Y-94928629D01*
X124556762Y-94928629D02*
X124677714Y-94928629D01*
X124677714Y-94928629D02*
X124726095Y-94952820D01*
X124726095Y-94952820D02*
X124750286Y-94977010D01*
X124750286Y-94977010D02*
X124774476Y-95025391D01*
X124774476Y-95025391D02*
X124774476Y-95073772D01*
X124774476Y-95073772D02*
X124750286Y-95146343D01*
X124750286Y-95146343D02*
X124460000Y-95436629D01*
X124460000Y-95436629D02*
X124774476Y-95436629D01*
D12*
X115122476Y-94843962D02*
X115316000Y-94843962D01*
X115219238Y-94940724D02*
X115219238Y-94747200D01*
D11*
X115920761Y-74127439D02*
X115993333Y-74151629D01*
X115993333Y-74151629D02*
X116114285Y-74151629D01*
X116114285Y-74151629D02*
X116162666Y-74127439D01*
X116162666Y-74127439D02*
X116186857Y-74103248D01*
X116186857Y-74103248D02*
X116211047Y-74054867D01*
X116211047Y-74054867D02*
X116211047Y-74006486D01*
X116211047Y-74006486D02*
X116186857Y-73958105D01*
X116186857Y-73958105D02*
X116162666Y-73933915D01*
X116162666Y-73933915D02*
X116114285Y-73909724D01*
X116114285Y-73909724D02*
X116017523Y-73885534D01*
X116017523Y-73885534D02*
X115969142Y-73861343D01*
X115969142Y-73861343D02*
X115944952Y-73837153D01*
X115944952Y-73837153D02*
X115920761Y-73788772D01*
X115920761Y-73788772D02*
X115920761Y-73740391D01*
X115920761Y-73740391D02*
X115944952Y-73692010D01*
X115944952Y-73692010D02*
X115969142Y-73667820D01*
X115969142Y-73667820D02*
X116017523Y-73643629D01*
X116017523Y-73643629D02*
X116138476Y-73643629D01*
X116138476Y-73643629D02*
X116211047Y-73667820D01*
X116622286Y-74127439D02*
X116573905Y-74151629D01*
X116573905Y-74151629D02*
X116477143Y-74151629D01*
X116477143Y-74151629D02*
X116428762Y-74127439D01*
X116428762Y-74127439D02*
X116404571Y-74079058D01*
X116404571Y-74079058D02*
X116404571Y-73885534D01*
X116404571Y-73885534D02*
X116428762Y-73837153D01*
X116428762Y-73837153D02*
X116477143Y-73812962D01*
X116477143Y-73812962D02*
X116573905Y-73812962D01*
X116573905Y-73812962D02*
X116622286Y-73837153D01*
X116622286Y-73837153D02*
X116646476Y-73885534D01*
X116646476Y-73885534D02*
X116646476Y-73933915D01*
X116646476Y-73933915D02*
X116404571Y-73982296D01*
X116864191Y-73812962D02*
X116864191Y-74151629D01*
X116864191Y-73861343D02*
X116888381Y-73837153D01*
X116888381Y-73837153D02*
X116936762Y-73812962D01*
X116936762Y-73812962D02*
X117009334Y-73812962D01*
X117009334Y-73812962D02*
X117057715Y-73837153D01*
X117057715Y-73837153D02*
X117081905Y-73885534D01*
X117081905Y-73885534D02*
X117081905Y-74151629D01*
X117299619Y-74127439D02*
X117348000Y-74151629D01*
X117348000Y-74151629D02*
X117444762Y-74151629D01*
X117444762Y-74151629D02*
X117493143Y-74127439D01*
X117493143Y-74127439D02*
X117517334Y-74079058D01*
X117517334Y-74079058D02*
X117517334Y-74054867D01*
X117517334Y-74054867D02*
X117493143Y-74006486D01*
X117493143Y-74006486D02*
X117444762Y-73982296D01*
X117444762Y-73982296D02*
X117372191Y-73982296D01*
X117372191Y-73982296D02*
X117323810Y-73958105D01*
X117323810Y-73958105D02*
X117299619Y-73909724D01*
X117299619Y-73909724D02*
X117299619Y-73885534D01*
X117299619Y-73885534D02*
X117323810Y-73837153D01*
X117323810Y-73837153D02*
X117372191Y-73812962D01*
X117372191Y-73812962D02*
X117444762Y-73812962D01*
X117444762Y-73812962D02*
X117493143Y-73837153D01*
X117807619Y-74151629D02*
X117759238Y-74127439D01*
X117759238Y-74127439D02*
X117735048Y-74103248D01*
X117735048Y-74103248D02*
X117710857Y-74054867D01*
X117710857Y-74054867D02*
X117710857Y-73909724D01*
X117710857Y-73909724D02*
X117735048Y-73861343D01*
X117735048Y-73861343D02*
X117759238Y-73837153D01*
X117759238Y-73837153D02*
X117807619Y-73812962D01*
X117807619Y-73812962D02*
X117880191Y-73812962D01*
X117880191Y-73812962D02*
X117928572Y-73837153D01*
X117928572Y-73837153D02*
X117952762Y-73861343D01*
X117952762Y-73861343D02*
X117976953Y-73909724D01*
X117976953Y-73909724D02*
X117976953Y-74054867D01*
X117976953Y-74054867D02*
X117952762Y-74103248D01*
X117952762Y-74103248D02*
X117928572Y-74127439D01*
X117928572Y-74127439D02*
X117880191Y-74151629D01*
X117880191Y-74151629D02*
X117807619Y-74151629D01*
X118194667Y-74151629D02*
X118194667Y-73812962D01*
X118194667Y-73909724D02*
X118218857Y-73861343D01*
X118218857Y-73861343D02*
X118243048Y-73837153D01*
X118243048Y-73837153D02*
X118291429Y-73812962D01*
X118291429Y-73812962D02*
X118339810Y-73812962D01*
X118484952Y-74127439D02*
X118533333Y-74151629D01*
X118533333Y-74151629D02*
X118630095Y-74151629D01*
X118630095Y-74151629D02*
X118678476Y-74127439D01*
X118678476Y-74127439D02*
X118702667Y-74079058D01*
X118702667Y-74079058D02*
X118702667Y-74054867D01*
X118702667Y-74054867D02*
X118678476Y-74006486D01*
X118678476Y-74006486D02*
X118630095Y-73982296D01*
X118630095Y-73982296D02*
X118557524Y-73982296D01*
X118557524Y-73982296D02*
X118509143Y-73958105D01*
X118509143Y-73958105D02*
X118484952Y-73909724D01*
X118484952Y-73909724D02*
X118484952Y-73885534D01*
X118484952Y-73885534D02*
X118509143Y-73837153D01*
X118509143Y-73837153D02*
X118557524Y-73812962D01*
X118557524Y-73812962D02*
X118630095Y-73812962D01*
X118630095Y-73812962D02*
X118678476Y-73837153D01*
X119225181Y-73958105D02*
X119612229Y-73958105D01*
X119854133Y-73958105D02*
X120241181Y-73958105D01*
X120483085Y-73958105D02*
X120870133Y-73958105D01*
X121112037Y-73958105D02*
X121499085Y-73958105D01*
D12*
X121218476Y-75285962D02*
X121412000Y-75285962D01*
X121315238Y-75382724D02*
X121315238Y-75189200D01*
D10*
%TO.C,XA1*%
X148844000Y-69868142D02*
X148891619Y-69915761D01*
X148891619Y-69915761D02*
X148844000Y-69963380D01*
X148844000Y-69963380D02*
X148796381Y-69915761D01*
X148796381Y-69915761D02*
X148844000Y-69868142D01*
X148844000Y-69868142D02*
X148844000Y-69963380D01*
D13*
X149490952Y-52888690D02*
X149490952Y-52388690D01*
X149490952Y-52388690D02*
X149610000Y-52388690D01*
X149610000Y-52388690D02*
X149681428Y-52412500D01*
X149681428Y-52412500D02*
X149729047Y-52460119D01*
X149729047Y-52460119D02*
X149752857Y-52507738D01*
X149752857Y-52507738D02*
X149776666Y-52602976D01*
X149776666Y-52602976D02*
X149776666Y-52674404D01*
X149776666Y-52674404D02*
X149752857Y-52769642D01*
X149752857Y-52769642D02*
X149729047Y-52817261D01*
X149729047Y-52817261D02*
X149681428Y-52864880D01*
X149681428Y-52864880D02*
X149610000Y-52888690D01*
X149610000Y-52888690D02*
X149490952Y-52888690D01*
X150086190Y-52388690D02*
X150133809Y-52388690D01*
X150133809Y-52388690D02*
X150181428Y-52412500D01*
X150181428Y-52412500D02*
X150205238Y-52436309D01*
X150205238Y-52436309D02*
X150229047Y-52483928D01*
X150229047Y-52483928D02*
X150252857Y-52579166D01*
X150252857Y-52579166D02*
X150252857Y-52698214D01*
X150252857Y-52698214D02*
X150229047Y-52793452D01*
X150229047Y-52793452D02*
X150205238Y-52841071D01*
X150205238Y-52841071D02*
X150181428Y-52864880D01*
X150181428Y-52864880D02*
X150133809Y-52888690D01*
X150133809Y-52888690D02*
X150086190Y-52888690D01*
X150086190Y-52888690D02*
X150038571Y-52864880D01*
X150038571Y-52864880D02*
X150014762Y-52841071D01*
X150014762Y-52841071D02*
X149990952Y-52793452D01*
X149990952Y-52793452D02*
X149967143Y-52698214D01*
X149967143Y-52698214D02*
X149967143Y-52579166D01*
X149967143Y-52579166D02*
X149990952Y-52483928D01*
X149990952Y-52483928D02*
X150014762Y-52436309D01*
X150014762Y-52436309D02*
X150038571Y-52412500D01*
X150038571Y-52412500D02*
X150086190Y-52388690D01*
D14*
%TO.C,C10*%
X139044000Y-69008164D02*
X139044000Y-69223836D01*
X138324000Y-69008164D02*
X138324000Y-69223836D01*
%TO.C,D8*%
X127481000Y-91762500D02*
X126011000Y-91762500D01*
X126011000Y-91762500D02*
X126011000Y-94047500D01*
X127481000Y-94047500D02*
X127481000Y-91762500D01*
%TO.C,C15*%
X97310000Y-78740000D02*
G75*
G03*
X97310000Y-78740000I-4120000J0D01*
G01*
%TO.C,R21*%
X112902000Y-87732359D02*
X112902000Y-88039641D01*
X112142000Y-87732359D02*
X112142000Y-88039641D01*
%TO.C,D3*%
X126011000Y-86549500D02*
X127481000Y-86549500D01*
X127481000Y-86549500D02*
X127481000Y-84264500D01*
X126011000Y-84264500D02*
X126011000Y-86549500D01*
%TO.C,R6*%
X120270000Y-90575641D02*
X120270000Y-90268359D01*
X121030000Y-90575641D02*
X121030000Y-90268359D01*
%TO.C,R3*%
X140842000Y-56994359D02*
X140842000Y-57301641D01*
X140082000Y-56994359D02*
X140082000Y-57301641D01*
%TO.C,R24*%
X118998000Y-87732359D02*
X118998000Y-88039641D01*
X118238000Y-87732359D02*
X118238000Y-88039641D01*
%TO.C,R12*%
X126366000Y-90579641D02*
X126366000Y-90272359D01*
X127126000Y-90579641D02*
X127126000Y-90272359D01*
%TO.C,D1*%
X113819000Y-78472500D02*
X115289000Y-78472500D01*
X115289000Y-78472500D02*
X115289000Y-76187500D01*
X113819000Y-76187500D02*
X113819000Y-78472500D01*
%TO.C,R8*%
X122302000Y-90575641D02*
X122302000Y-90268359D01*
X123062000Y-90575641D02*
X123062000Y-90268359D01*
%TO.C,R26*%
X118238000Y-90575641D02*
X118238000Y-90268359D01*
X118998000Y-90575641D02*
X118998000Y-90268359D01*
%TO.C,R11*%
X123062000Y-87732359D02*
X123062000Y-88039641D01*
X122302000Y-87732359D02*
X122302000Y-88039641D01*
%TO.C,C7*%
X109220000Y-89789000D02*
G75*
G03*
X109220000Y-89789000I-5120000J0D01*
G01*
%TO.C,D18*%
X117883000Y-78421500D02*
X119353000Y-78421500D01*
X119353000Y-78421500D02*
X119353000Y-76136500D01*
X117883000Y-76136500D02*
X117883000Y-78421500D01*
%TO.C,D16*%
X113257000Y-91758500D02*
X111787000Y-91758500D01*
X111787000Y-91758500D02*
X111787000Y-94043500D01*
X113257000Y-94043500D02*
X113257000Y-91758500D01*
%TO.C,U2*%
X117760000Y-63500000D02*
X117760000Y-67150000D01*
X117760000Y-63500000D02*
X117760000Y-61300000D01*
X126080000Y-63500000D02*
X126080000Y-65700000D01*
X126080000Y-63500000D02*
X126080000Y-61300000D01*
%TO.C,C9*%
X125624000Y-58047836D02*
X125624000Y-57832164D01*
X126344000Y-58047836D02*
X126344000Y-57832164D01*
%TO.C,J1*%
X88490000Y-53670000D02*
X90490000Y-53670000D01*
X88490000Y-54920000D02*
X88490000Y-53670000D01*
X88880000Y-54060000D02*
X88880000Y-61530000D01*
X88880000Y-61530000D02*
X111500000Y-61530000D01*
X89940000Y-55020000D02*
X92940000Y-55020000D01*
X89940000Y-56370000D02*
X90690000Y-56370000D01*
X89940000Y-60670000D02*
X89940000Y-56370000D01*
X90190000Y-56020000D02*
X89940000Y-55020000D01*
X90690000Y-56020000D02*
X90190000Y-56020000D01*
X90690000Y-56370000D02*
X90690000Y-56020000D01*
X90690000Y-60670000D02*
X89940000Y-60670000D01*
X92190000Y-56020000D02*
X92190000Y-56370000D01*
X92190000Y-56370000D02*
X92940000Y-56370000D01*
X92690000Y-56020000D02*
X92190000Y-56020000D01*
X92940000Y-55020000D02*
X92690000Y-56020000D01*
X92940000Y-56370000D02*
X92940000Y-60670000D01*
X92940000Y-60670000D02*
X92190000Y-60670000D01*
X93440000Y-55020000D02*
X96440000Y-55020000D01*
X93440000Y-56370000D02*
X94190000Y-56370000D01*
X93440000Y-60670000D02*
X93440000Y-56370000D01*
X93690000Y-56020000D02*
X93440000Y-55020000D01*
X94190000Y-56020000D02*
X93690000Y-56020000D01*
X94190000Y-56370000D02*
X94190000Y-56020000D01*
X94190000Y-60670000D02*
X93440000Y-60670000D01*
X95690000Y-56020000D02*
X95690000Y-56370000D01*
X95690000Y-56370000D02*
X96440000Y-56370000D01*
X96190000Y-56020000D02*
X95690000Y-56020000D01*
X96440000Y-55020000D02*
X96190000Y-56020000D01*
X96440000Y-56370000D02*
X96440000Y-60670000D01*
X96440000Y-60670000D02*
X95690000Y-60670000D01*
X96940000Y-55020000D02*
X99940000Y-55020000D01*
X96940000Y-56370000D02*
X97690000Y-56370000D01*
X96940000Y-60670000D02*
X96940000Y-56370000D01*
X97190000Y-56020000D02*
X96940000Y-55020000D01*
X97690000Y-56020000D02*
X97190000Y-56020000D01*
X97690000Y-56370000D02*
X97690000Y-56020000D01*
X97690000Y-60670000D02*
X96940000Y-60670000D01*
X99190000Y-56020000D02*
X99190000Y-56370000D01*
X99190000Y-56370000D02*
X99940000Y-56370000D01*
X99690000Y-56020000D02*
X99190000Y-56020000D01*
X99940000Y-55020000D02*
X99690000Y-56020000D01*
X99940000Y-56370000D02*
X99940000Y-60670000D01*
X99940000Y-60670000D02*
X99190000Y-60670000D01*
X100440000Y-55020000D02*
X103440000Y-55020000D01*
X100440000Y-56370000D02*
X101190000Y-56370000D01*
X100440000Y-60670000D02*
X100440000Y-56370000D01*
X100690000Y-56020000D02*
X100440000Y-55020000D01*
X101190000Y-56020000D02*
X100690000Y-56020000D01*
X101190000Y-56370000D02*
X101190000Y-56020000D01*
X101190000Y-60670000D02*
X100440000Y-60670000D01*
X102690000Y-56020000D02*
X102690000Y-56370000D01*
X102690000Y-56370000D02*
X103440000Y-56370000D01*
X103190000Y-56020000D02*
X102690000Y-56020000D01*
X103440000Y-55020000D02*
X103190000Y-56020000D01*
X103440000Y-56370000D02*
X103440000Y-60670000D01*
X103440000Y-60670000D02*
X102690000Y-60670000D01*
X103940000Y-55020000D02*
X106940000Y-55020000D01*
X103940000Y-56370000D02*
X104690000Y-56370000D01*
X103940000Y-60670000D02*
X103940000Y-56370000D01*
X104190000Y-56020000D02*
X103940000Y-55020000D01*
X104690000Y-56020000D02*
X104190000Y-56020000D01*
X104690000Y-56370000D02*
X104690000Y-56020000D01*
X104690000Y-60670000D02*
X103940000Y-60670000D01*
X106190000Y-56020000D02*
X106190000Y-56370000D01*
X106190000Y-56370000D02*
X106940000Y-56370000D01*
X106690000Y-56020000D02*
X106190000Y-56020000D01*
X106940000Y-55020000D02*
X106690000Y-56020000D01*
X106940000Y-56370000D02*
X106940000Y-60670000D01*
X106940000Y-60670000D02*
X106190000Y-60670000D01*
X107440000Y-55020000D02*
X110440000Y-55020000D01*
X107440000Y-56370000D02*
X108190000Y-56370000D01*
X107440000Y-60670000D02*
X107440000Y-56370000D01*
X107690000Y-56020000D02*
X107440000Y-55020000D01*
X108190000Y-56020000D02*
X107690000Y-56020000D01*
X108190000Y-56370000D02*
X108190000Y-56020000D01*
X108190000Y-60670000D02*
X107440000Y-60670000D01*
X109690000Y-56020000D02*
X109690000Y-56370000D01*
X109690000Y-56370000D02*
X110440000Y-56370000D01*
X110190000Y-56020000D02*
X109690000Y-56020000D01*
X110440000Y-55020000D02*
X110190000Y-56020000D01*
X110440000Y-56370000D02*
X110440000Y-60670000D01*
X110440000Y-60670000D02*
X109690000Y-60670000D01*
X111500000Y-54060000D02*
X88880000Y-54060000D01*
X111500000Y-61530000D02*
X111500000Y-54060000D01*
X92189647Y-60669845D02*
G75*
G03*
X90690000Y-60670000I-749647J-1700155D01*
G01*
X95689647Y-60669845D02*
G75*
G03*
X94190000Y-60670000I-749647J-1700155D01*
G01*
X99189647Y-60669845D02*
G75*
G03*
X97690000Y-60670000I-749647J-1700155D01*
G01*
X102689647Y-60669845D02*
G75*
G03*
X101190000Y-60670000I-749647J-1700155D01*
G01*
X106189647Y-60669845D02*
G75*
G03*
X104690000Y-60670000I-749647J-1700155D01*
G01*
X109689647Y-60669845D02*
G75*
G03*
X108190000Y-60670000I-749647J-1700155D01*
G01*
%TO.C,J5*%
X88490000Y-63830000D02*
X90490000Y-63830000D01*
X88490000Y-65080000D02*
X88490000Y-63830000D01*
X88880000Y-64220000D02*
X88880000Y-71690000D01*
X88880000Y-71690000D02*
X111500000Y-71690000D01*
X89940000Y-65180000D02*
X92940000Y-65180000D01*
X89940000Y-66530000D02*
X90690000Y-66530000D01*
X89940000Y-70830000D02*
X89940000Y-66530000D01*
X90190000Y-66180000D02*
X89940000Y-65180000D01*
X90690000Y-66180000D02*
X90190000Y-66180000D01*
X90690000Y-66530000D02*
X90690000Y-66180000D01*
X90690000Y-70830000D02*
X89940000Y-70830000D01*
X92190000Y-66180000D02*
X92190000Y-66530000D01*
X92190000Y-66530000D02*
X92940000Y-66530000D01*
X92690000Y-66180000D02*
X92190000Y-66180000D01*
X92940000Y-65180000D02*
X92690000Y-66180000D01*
X92940000Y-66530000D02*
X92940000Y-70830000D01*
X92940000Y-70830000D02*
X92190000Y-70830000D01*
X93440000Y-65180000D02*
X96440000Y-65180000D01*
X93440000Y-66530000D02*
X94190000Y-66530000D01*
X93440000Y-70830000D02*
X93440000Y-66530000D01*
X93690000Y-66180000D02*
X93440000Y-65180000D01*
X94190000Y-66180000D02*
X93690000Y-66180000D01*
X94190000Y-66530000D02*
X94190000Y-66180000D01*
X94190000Y-70830000D02*
X93440000Y-70830000D01*
X95690000Y-66180000D02*
X95690000Y-66530000D01*
X95690000Y-66530000D02*
X96440000Y-66530000D01*
X96190000Y-66180000D02*
X95690000Y-66180000D01*
X96440000Y-65180000D02*
X96190000Y-66180000D01*
X96440000Y-66530000D02*
X96440000Y-70830000D01*
X96440000Y-70830000D02*
X95690000Y-70830000D01*
X96940000Y-65180000D02*
X99940000Y-65180000D01*
X96940000Y-66530000D02*
X97690000Y-66530000D01*
X96940000Y-70830000D02*
X96940000Y-66530000D01*
X97190000Y-66180000D02*
X96940000Y-65180000D01*
X97690000Y-66180000D02*
X97190000Y-66180000D01*
X97690000Y-66530000D02*
X97690000Y-66180000D01*
X97690000Y-70830000D02*
X96940000Y-70830000D01*
X99190000Y-66180000D02*
X99190000Y-66530000D01*
X99190000Y-66530000D02*
X99940000Y-66530000D01*
X99690000Y-66180000D02*
X99190000Y-66180000D01*
X99940000Y-65180000D02*
X99690000Y-66180000D01*
X99940000Y-66530000D02*
X99940000Y-70830000D01*
X99940000Y-70830000D02*
X99190000Y-70830000D01*
X100440000Y-65180000D02*
X103440000Y-65180000D01*
X100440000Y-66530000D02*
X101190000Y-66530000D01*
X100440000Y-70830000D02*
X100440000Y-66530000D01*
X100690000Y-66180000D02*
X100440000Y-65180000D01*
X101190000Y-66180000D02*
X100690000Y-66180000D01*
X101190000Y-66530000D02*
X101190000Y-66180000D01*
X101190000Y-70830000D02*
X100440000Y-70830000D01*
X102690000Y-66180000D02*
X102690000Y-66530000D01*
X102690000Y-66530000D02*
X103440000Y-66530000D01*
X103190000Y-66180000D02*
X102690000Y-66180000D01*
X103440000Y-65180000D02*
X103190000Y-66180000D01*
X103440000Y-66530000D02*
X103440000Y-70830000D01*
X103440000Y-70830000D02*
X102690000Y-70830000D01*
X103940000Y-65180000D02*
X106940000Y-65180000D01*
X103940000Y-66530000D02*
X104690000Y-66530000D01*
X103940000Y-70830000D02*
X103940000Y-66530000D01*
X104190000Y-66180000D02*
X103940000Y-65180000D01*
X104690000Y-66180000D02*
X104190000Y-66180000D01*
X104690000Y-66530000D02*
X104690000Y-66180000D01*
X104690000Y-70830000D02*
X103940000Y-70830000D01*
X106190000Y-66180000D02*
X106190000Y-66530000D01*
X106190000Y-66530000D02*
X106940000Y-66530000D01*
X106690000Y-66180000D02*
X106190000Y-66180000D01*
X106940000Y-65180000D02*
X106690000Y-66180000D01*
X106940000Y-66530000D02*
X106940000Y-70830000D01*
X106940000Y-70830000D02*
X106190000Y-70830000D01*
X107440000Y-65180000D02*
X110440000Y-65180000D01*
X107440000Y-66530000D02*
X108190000Y-66530000D01*
X107440000Y-70830000D02*
X107440000Y-66530000D01*
X107690000Y-66180000D02*
X107440000Y-65180000D01*
X108190000Y-66180000D02*
X107690000Y-66180000D01*
X108190000Y-66530000D02*
X108190000Y-66180000D01*
X108190000Y-70830000D02*
X107440000Y-70830000D01*
X109690000Y-66180000D02*
X109690000Y-66530000D01*
X109690000Y-66530000D02*
X110440000Y-66530000D01*
X110190000Y-66180000D02*
X109690000Y-66180000D01*
X110440000Y-65180000D02*
X110190000Y-66180000D01*
X110440000Y-66530000D02*
X110440000Y-70830000D01*
X110440000Y-70830000D02*
X109690000Y-70830000D01*
X111500000Y-64220000D02*
X88880000Y-64220000D01*
X111500000Y-71690000D02*
X111500000Y-64220000D01*
X92189647Y-70829845D02*
G75*
G03*
X90690000Y-70830000I-749647J-1700155D01*
G01*
X95689647Y-70829845D02*
G75*
G03*
X94190000Y-70830000I-749647J-1700155D01*
G01*
X99189647Y-70829845D02*
G75*
G03*
X97690000Y-70830000I-749647J-1700155D01*
G01*
X102689647Y-70829845D02*
G75*
G03*
X101190000Y-70830000I-749647J-1700155D01*
G01*
X106189647Y-70829845D02*
G75*
G03*
X104690000Y-70830000I-749647J-1700155D01*
G01*
X109689647Y-70829845D02*
G75*
G03*
X108190000Y-70830000I-749647J-1700155D01*
G01*
%TO.C,D11*%
X115851000Y-86549500D02*
X117321000Y-86549500D01*
X117321000Y-86549500D02*
X117321000Y-84264500D01*
X115851000Y-84264500D02*
X115851000Y-86549500D01*
%TO.C,D7*%
X121947000Y-86549500D02*
X123417000Y-86549500D01*
X123417000Y-86549500D02*
X123417000Y-84264500D01*
X121947000Y-84264500D02*
X121947000Y-86549500D01*
%TO.C,R20*%
X112142000Y-90575641D02*
X112142000Y-90268359D01*
X112902000Y-90575641D02*
X112902000Y-90268359D01*
%TO.C,C8*%
X124354000Y-58047836D02*
X124354000Y-57832164D01*
X125074000Y-58047836D02*
X125074000Y-57832164D01*
%TO.C,U1*%
X135540000Y-63500000D02*
X135540000Y-67150000D01*
X135540000Y-63500000D02*
X135540000Y-61300000D01*
X143860000Y-63500000D02*
X143860000Y-65700000D01*
X143860000Y-63500000D02*
X143860000Y-61300000D01*
%TO.C,D17*%
X111787000Y-86549500D02*
X113257000Y-86549500D01*
X113257000Y-86549500D02*
X113257000Y-84264500D01*
X111787000Y-84264500D02*
X111787000Y-86549500D01*
%TO.C,R14*%
X123062000Y-79604359D02*
X123062000Y-79911641D01*
X122302000Y-79604359D02*
X122302000Y-79911641D01*
%TO.C,C12*%
X109220000Y-78740000D02*
G75*
G03*
X109220000Y-78740000I-5120000J0D01*
G01*
%TO.C,R23*%
X116966000Y-79604359D02*
X116966000Y-79911641D01*
X116206000Y-79604359D02*
X116206000Y-79911641D01*
%TO.C,C13*%
X142134000Y-58047836D02*
X142134000Y-57832164D01*
X142854000Y-58047836D02*
X142854000Y-57832164D01*
%TO.C,C3*%
X118004000Y-69147636D02*
X118004000Y-68931964D01*
X118724000Y-69147636D02*
X118724000Y-68931964D01*
%TO.C,D12*%
X115289000Y-91758500D02*
X113819000Y-91758500D01*
X113819000Y-91758500D02*
X113819000Y-94043500D01*
X115289000Y-94043500D02*
X115289000Y-91758500D01*
%TO.C,R22*%
X118998000Y-79604359D02*
X118998000Y-79911641D01*
X118238000Y-79604359D02*
X118238000Y-79911641D01*
%TO.C,C1*%
X135784000Y-69167836D02*
X135784000Y-68952164D01*
X136504000Y-69167836D02*
X136504000Y-68952164D01*
%TO.C,D20*%
X117883000Y-86549500D02*
X119353000Y-86549500D01*
X119353000Y-86549500D02*
X119353000Y-84264500D01*
X117883000Y-84264500D02*
X117883000Y-86549500D01*
%TO.C,D19*%
X115851000Y-78472500D02*
X117321000Y-78472500D01*
X117321000Y-78472500D02*
X117321000Y-76187500D01*
X115851000Y-76187500D02*
X115851000Y-78472500D01*
%TO.C,C11*%
X142896000Y-69223836D02*
X142896000Y-69008164D01*
X143616000Y-69223836D02*
X143616000Y-69008164D01*
%TO.C,D6*%
X125449000Y-91762500D02*
X123979000Y-91762500D01*
X123979000Y-91762500D02*
X123979000Y-94047500D01*
X125449000Y-94047500D02*
X125449000Y-91762500D01*
%TO.C,R18*%
X112902000Y-79604359D02*
X112902000Y-79911641D01*
X112142000Y-79604359D02*
X112142000Y-79911641D01*
%TO.C,D14*%
X111787000Y-78472500D02*
X113257000Y-78472500D01*
X113257000Y-78472500D02*
X113257000Y-76187500D01*
X111787000Y-76187500D02*
X111787000Y-78472500D01*
%TO.C,J2*%
X129130000Y-84150000D02*
X131130000Y-84150000D01*
X129130000Y-85400000D02*
X129130000Y-84150000D01*
X129520000Y-84540000D02*
X129520000Y-92010000D01*
X129520000Y-92010000D02*
X145140000Y-92010000D01*
X130580000Y-85500000D02*
X133580000Y-85500000D01*
X130580000Y-86850000D02*
X131330000Y-86850000D01*
X130580000Y-91150000D02*
X130580000Y-86850000D01*
X130830000Y-86500000D02*
X130580000Y-85500000D01*
X131330000Y-86500000D02*
X130830000Y-86500000D01*
X131330000Y-86850000D02*
X131330000Y-86500000D01*
X131330000Y-91150000D02*
X130580000Y-91150000D01*
X132830000Y-86500000D02*
X132830000Y-86850000D01*
X132830000Y-86850000D02*
X133580000Y-86850000D01*
X133330000Y-86500000D02*
X132830000Y-86500000D01*
X133580000Y-85500000D02*
X133330000Y-86500000D01*
X133580000Y-86850000D02*
X133580000Y-91150000D01*
X133580000Y-91150000D02*
X132830000Y-91150000D01*
X134080000Y-85500000D02*
X137080000Y-85500000D01*
X134080000Y-86850000D02*
X134830000Y-86850000D01*
X134080000Y-91150000D02*
X134080000Y-86850000D01*
X134330000Y-86500000D02*
X134080000Y-85500000D01*
X134830000Y-86500000D02*
X134330000Y-86500000D01*
X134830000Y-86850000D02*
X134830000Y-86500000D01*
X134830000Y-91150000D02*
X134080000Y-91150000D01*
X136330000Y-86500000D02*
X136330000Y-86850000D01*
X136330000Y-86850000D02*
X137080000Y-86850000D01*
X136830000Y-86500000D02*
X136330000Y-86500000D01*
X137080000Y-85500000D02*
X136830000Y-86500000D01*
X137080000Y-86850000D02*
X137080000Y-91150000D01*
X137080000Y-91150000D02*
X136330000Y-91150000D01*
X137580000Y-85500000D02*
X140580000Y-85500000D01*
X137580000Y-86850000D02*
X138330000Y-86850000D01*
X137580000Y-91150000D02*
X137580000Y-86850000D01*
X137830000Y-86500000D02*
X137580000Y-85500000D01*
X138330000Y-86500000D02*
X137830000Y-86500000D01*
X138330000Y-86850000D02*
X138330000Y-86500000D01*
X138330000Y-91150000D02*
X137580000Y-91150000D01*
X139830000Y-86500000D02*
X139830000Y-86850000D01*
X139830000Y-86850000D02*
X140580000Y-86850000D01*
X140330000Y-86500000D02*
X139830000Y-86500000D01*
X140580000Y-85500000D02*
X140330000Y-86500000D01*
X140580000Y-86850000D02*
X140580000Y-91150000D01*
X140580000Y-91150000D02*
X139830000Y-91150000D01*
X141080000Y-85500000D02*
X144080000Y-85500000D01*
X141080000Y-86850000D02*
X141830000Y-86850000D01*
X141080000Y-91150000D02*
X141080000Y-86850000D01*
X141330000Y-86500000D02*
X141080000Y-85500000D01*
X141830000Y-86500000D02*
X141330000Y-86500000D01*
X141830000Y-86850000D02*
X141830000Y-86500000D01*
X141830000Y-91150000D02*
X141080000Y-91150000D01*
X143330000Y-86500000D02*
X143330000Y-86850000D01*
X143330000Y-86850000D02*
X144080000Y-86850000D01*
X143830000Y-86500000D02*
X143330000Y-86500000D01*
X144080000Y-85500000D02*
X143830000Y-86500000D01*
X144080000Y-86850000D02*
X144080000Y-91150000D01*
X144080000Y-91150000D02*
X143330000Y-91150000D01*
X145140000Y-84540000D02*
X129520000Y-84540000D01*
X145140000Y-92010000D02*
X145140000Y-84540000D01*
X132829647Y-91149845D02*
G75*
G03*
X131330000Y-91150000I-749647J-1700155D01*
G01*
X136329647Y-91149845D02*
G75*
G03*
X134830000Y-91150000I-749647J-1700155D01*
G01*
X139829647Y-91149845D02*
G75*
G03*
X138330000Y-91150000I-749647J-1700155D01*
G01*
X143329647Y-91149845D02*
G75*
G03*
X141830000Y-91150000I-749647J-1700155D01*
G01*
%TO.C,J3*%
X129130000Y-73990000D02*
X131130000Y-73990000D01*
X129130000Y-75240000D02*
X129130000Y-73990000D01*
X129520000Y-74380000D02*
X129520000Y-81850000D01*
X129520000Y-81850000D02*
X145140000Y-81850000D01*
X130580000Y-75340000D02*
X133580000Y-75340000D01*
X130580000Y-76690000D02*
X131330000Y-76690000D01*
X130580000Y-80990000D02*
X130580000Y-76690000D01*
X130830000Y-76340000D02*
X130580000Y-75340000D01*
X131330000Y-76340000D02*
X130830000Y-76340000D01*
X131330000Y-76690000D02*
X131330000Y-76340000D01*
X131330000Y-80990000D02*
X130580000Y-80990000D01*
X132830000Y-76340000D02*
X132830000Y-76690000D01*
X132830000Y-76690000D02*
X133580000Y-76690000D01*
X133330000Y-76340000D02*
X132830000Y-76340000D01*
X133580000Y-75340000D02*
X133330000Y-76340000D01*
X133580000Y-76690000D02*
X133580000Y-80990000D01*
X133580000Y-80990000D02*
X132830000Y-80990000D01*
X134080000Y-75340000D02*
X137080000Y-75340000D01*
X134080000Y-76690000D02*
X134830000Y-76690000D01*
X134080000Y-80990000D02*
X134080000Y-76690000D01*
X134330000Y-76340000D02*
X134080000Y-75340000D01*
X134830000Y-76340000D02*
X134330000Y-76340000D01*
X134830000Y-76690000D02*
X134830000Y-76340000D01*
X134830000Y-80990000D02*
X134080000Y-80990000D01*
X136330000Y-76340000D02*
X136330000Y-76690000D01*
X136330000Y-76690000D02*
X137080000Y-76690000D01*
X136830000Y-76340000D02*
X136330000Y-76340000D01*
X137080000Y-75340000D02*
X136830000Y-76340000D01*
X137080000Y-76690000D02*
X137080000Y-80990000D01*
X137080000Y-80990000D02*
X136330000Y-80990000D01*
X137580000Y-75340000D02*
X140580000Y-75340000D01*
X137580000Y-76690000D02*
X138330000Y-76690000D01*
X137580000Y-80990000D02*
X137580000Y-76690000D01*
X137830000Y-76340000D02*
X137580000Y-75340000D01*
X138330000Y-76340000D02*
X137830000Y-76340000D01*
X138330000Y-76690000D02*
X138330000Y-76340000D01*
X138330000Y-80990000D02*
X137580000Y-80990000D01*
X139830000Y-76340000D02*
X139830000Y-76690000D01*
X139830000Y-76690000D02*
X140580000Y-76690000D01*
X140330000Y-76340000D02*
X139830000Y-76340000D01*
X140580000Y-75340000D02*
X140330000Y-76340000D01*
X140580000Y-76690000D02*
X140580000Y-80990000D01*
X140580000Y-80990000D02*
X139830000Y-80990000D01*
X141080000Y-75340000D02*
X144080000Y-75340000D01*
X141080000Y-76690000D02*
X141830000Y-76690000D01*
X141080000Y-80990000D02*
X141080000Y-76690000D01*
X141330000Y-76340000D02*
X141080000Y-75340000D01*
X141830000Y-76340000D02*
X141330000Y-76340000D01*
X141830000Y-76690000D02*
X141830000Y-76340000D01*
X141830000Y-80990000D02*
X141080000Y-80990000D01*
X143330000Y-76340000D02*
X143330000Y-76690000D01*
X143330000Y-76690000D02*
X144080000Y-76690000D01*
X143830000Y-76340000D02*
X143330000Y-76340000D01*
X144080000Y-75340000D02*
X143830000Y-76340000D01*
X144080000Y-76690000D02*
X144080000Y-80990000D01*
X144080000Y-80990000D02*
X143330000Y-80990000D01*
X145140000Y-74380000D02*
X129520000Y-74380000D01*
X145140000Y-81850000D02*
X145140000Y-74380000D01*
X132829647Y-80989845D02*
G75*
G03*
X131330000Y-80990000I-749647J-1700155D01*
G01*
X136329647Y-80989845D02*
G75*
G03*
X134830000Y-80990000I-749647J-1700155D01*
G01*
X139829647Y-80989845D02*
G75*
G03*
X138330000Y-80990000I-749647J-1700155D01*
G01*
X143329647Y-80989845D02*
G75*
G03*
X141830000Y-80990000I-749647J-1700155D01*
G01*
%TO.C,J4*%
X95290000Y-88880000D02*
X85870000Y-88880000D01*
X95290000Y-88880000D02*
X95290000Y-90390000D01*
X89180000Y-88880000D02*
X89180000Y-97500000D01*
X85870000Y-88880000D02*
X85870000Y-97500000D01*
X96580000Y-91140000D02*
X96580000Y-91740000D01*
X95980000Y-91440000D02*
X96580000Y-91140000D01*
X96580000Y-91740000D02*
X95980000Y-91440000D01*
X95290000Y-92490000D02*
X95290000Y-93890000D01*
X95290000Y-97500000D02*
X95290000Y-95990000D01*
X85870000Y-97500000D02*
X95290000Y-97500000D01*
%TO.C,R7*%
X127126000Y-87732359D02*
X127126000Y-88039641D01*
X126366000Y-87732359D02*
X126366000Y-88039641D01*
%TO.C,C2*%
X137054000Y-71001836D02*
X137054000Y-70786164D01*
X137774000Y-71001836D02*
X137774000Y-70786164D01*
%TO.C,R13*%
X121030000Y-87732359D02*
X121030000Y-88039641D01*
X120270000Y-87732359D02*
X120270000Y-88039641D01*
%TO.C,D9*%
X119915000Y-86549500D02*
X121385000Y-86549500D01*
X121385000Y-86549500D02*
X121385000Y-84264500D01*
X119915000Y-84264500D02*
X119915000Y-86549500D01*
%TO.C,C6*%
X125116000Y-69223836D02*
X125116000Y-69008164D01*
X125836000Y-69223836D02*
X125836000Y-69008164D01*
%TO.C,R19*%
X121030000Y-79604359D02*
X121030000Y-79911641D01*
X120270000Y-79604359D02*
X120270000Y-79911641D01*
%TO.C,R17*%
X114934000Y-87732359D02*
X114934000Y-88039641D01*
X114174000Y-87732359D02*
X114174000Y-88039641D01*
%TO.C,R25*%
X116206000Y-90575641D02*
X116206000Y-90268359D01*
X116966000Y-90575641D02*
X116966000Y-90268359D01*
%TO.C,D5*%
X123979000Y-86549500D02*
X125449000Y-86549500D01*
X125449000Y-86549500D02*
X125449000Y-84264500D01*
X123979000Y-84264500D02*
X123979000Y-86549500D01*
%TO.C,C5*%
X121264000Y-68952164D02*
X121264000Y-69167836D01*
X120544000Y-68952164D02*
X120544000Y-69167836D01*
%TO.C,C14*%
X143404000Y-58047836D02*
X143404000Y-57832164D01*
X144124000Y-58047836D02*
X144124000Y-57832164D01*
%TO.C,R4*%
X138558000Y-57301641D02*
X138558000Y-56994359D01*
X139318000Y-57301641D02*
X139318000Y-56994359D01*
%TO.C,R5*%
X114934000Y-79604359D02*
X114934000Y-79911641D01*
X114174000Y-79604359D02*
X114174000Y-79911641D01*
%TO.C,R10*%
X124334000Y-90579641D02*
X124334000Y-90272359D01*
X125094000Y-90579641D02*
X125094000Y-90272359D01*
%TO.C,D13*%
X113819000Y-86549500D02*
X115289000Y-86549500D01*
X115289000Y-86549500D02*
X115289000Y-84264500D01*
X113819000Y-84264500D02*
X113819000Y-86549500D01*
%TO.C,D2*%
X121385000Y-91707500D02*
X119915000Y-91707500D01*
X119915000Y-91707500D02*
X119915000Y-93992500D01*
X121385000Y-93992500D02*
X121385000Y-91707500D01*
%TO.C,R9*%
X125094000Y-87732359D02*
X125094000Y-88039641D01*
X124334000Y-87732359D02*
X124334000Y-88039641D01*
%TO.C,R2*%
X123062000Y-56998359D02*
X123062000Y-57305641D01*
X122302000Y-56998359D02*
X122302000Y-57305641D01*
%TO.C,D22*%
X119353000Y-91758500D02*
X117883000Y-91758500D01*
X117883000Y-91758500D02*
X117883000Y-94043500D01*
X119353000Y-94043500D02*
X119353000Y-91758500D01*
%TO.C,R15*%
X116966000Y-87732359D02*
X116966000Y-88039641D01*
X116206000Y-87732359D02*
X116206000Y-88039641D01*
%TO.C,D21*%
X117321000Y-91758500D02*
X115851000Y-91758500D01*
X115851000Y-91758500D02*
X115851000Y-94043500D01*
X117321000Y-94043500D02*
X117321000Y-91758500D01*
%TO.C,C4*%
X119274000Y-70945836D02*
X119274000Y-70730164D01*
X119994000Y-70945836D02*
X119994000Y-70730164D01*
%TO.C,R1*%
X120778000Y-57301641D02*
X120778000Y-56994359D01*
X121538000Y-57301641D02*
X121538000Y-56994359D01*
%TO.C,R16*%
X114174000Y-90575641D02*
X114174000Y-90268359D01*
X114934000Y-90575641D02*
X114934000Y-90268359D01*
%TO.C,D4*%
X123417000Y-91758500D02*
X121947000Y-91758500D01*
X121947000Y-91758500D02*
X121947000Y-94043500D01*
X123417000Y-94043500D02*
X123417000Y-91758500D01*
%TO.C,D10*%
X121947000Y-78421500D02*
X123417000Y-78421500D01*
X123417000Y-78421500D02*
X123417000Y-76136500D01*
X121947000Y-76136500D02*
X121947000Y-78421500D01*
%TO.C,D15*%
X119915000Y-78421500D02*
X121385000Y-78421500D01*
X121385000Y-78421500D02*
X121385000Y-76136500D01*
X119915000Y-76136500D02*
X119915000Y-78421500D01*
%TD*%
M02*
