%TF.GenerationSoftware,KiCad,Pcbnew,(7.0.0)*%
%TF.CreationDate,2023-04-12T12:24:06-05:00*%
%TF.ProjectId,TurretCtl,54757272-6574-4437-946c-2e6b69636164,rev?*%
%TF.SameCoordinates,Original*%
%TF.FileFunction,Copper,L4,Bot*%
%TF.FilePolarity,Positive*%
%FSLAX46Y46*%
G04 Gerber Fmt 4.6, Leading zero omitted, Abs format (unit mm)*
G04 Created by KiCad (PCBNEW (7.0.0)) date 2023-04-12 12:24:06*
%MOMM*%
%LPD*%
G01*
G04 APERTURE LIST*
G04 Aperture macros list*
%AMRoundRect*
0 Rectangle with rounded corners*
0 $1 Rounding radius*
0 $2 $3 $4 $5 $6 $7 $8 $9 X,Y pos of 4 corners*
0 Add a 4 corners polygon primitive as box body*
4,1,4,$2,$3,$4,$5,$6,$7,$8,$9,$2,$3,0*
0 Add four circle primitives for the rounded corners*
1,1,$1+$1,$2,$3*
1,1,$1+$1,$4,$5*
1,1,$1+$1,$6,$7*
1,1,$1+$1,$8,$9*
0 Add four rect primitives between the rounded corners*
20,1,$1+$1,$2,$3,$4,$5,0*
20,1,$1+$1,$4,$5,$6,$7,0*
20,1,$1+$1,$6,$7,$8,$9,0*
20,1,$1+$1,$8,$9,$2,$3,0*%
G04 Aperture macros list end*
%TA.AperFunction,ComponentPad*%
%ADD10C,1.600000*%
%TD*%
%TA.AperFunction,ComponentPad*%
%ADD11O,1.727200X1.727200*%
%TD*%
%TA.AperFunction,ComponentPad*%
%ADD12R,1.727200X1.727200*%
%TD*%
%TA.AperFunction,ComponentPad*%
%ADD13RoundRect,0.250000X-0.650000X-1.550000X0.650000X-1.550000X0.650000X1.550000X-0.650000X1.550000X0*%
%TD*%
%TA.AperFunction,ComponentPad*%
%ADD14O,1.800000X3.600000*%
%TD*%
%TA.AperFunction,ComponentPad*%
%ADD15RoundRect,0.250000X-1.550000X0.650000X-1.550000X-0.650000X1.550000X-0.650000X1.550000X0.650000X0*%
%TD*%
%TA.AperFunction,ComponentPad*%
%ADD16O,3.600000X1.800000*%
%TD*%
%TA.AperFunction,ViaPad*%
%ADD17C,0.530000*%
%TD*%
%TA.AperFunction,ViaPad*%
%ADD18C,0.800000*%
%TD*%
%TA.AperFunction,Conductor*%
%ADD19C,0.254000*%
%TD*%
%TA.AperFunction,Conductor*%
%ADD20C,0.762000*%
%TD*%
%TA.AperFunction,Conductor*%
%ADD21C,0.508000*%
%TD*%
G04 APERTURE END LIST*
D10*
%TO.P,C15,1*%
%TO.N,+5V*%
X91440000Y-78740000D03*
%TO.P,C15,2*%
%TO.N,GND*%
X94940000Y-78740000D03*
%TD*%
D11*
%TO.P,XA1,*%
%TO.N,*%
X114299999Y-99059999D03*
%TO.P,XA1,3V3,3.3V*%
%TO.N,unconnected-(XA1-3.3V-Pad3V3)*%
X121919999Y-99059999D03*
%TO.P,XA1,5V1,5V*%
%TO.N,+5V*%
X124459999Y-99059999D03*
%TO.P,XA1,5V2,SPI_5V*%
%TO.N,unconnected-(XA1-SPI_5V-Pad5V2)*%
X152526999Y-71119999D03*
%TO.P,XA1,A0,A0*%
%TO.N,unconnected-(XA1-PadA0)*%
X137159999Y-99059999D03*
%TO.P,XA1,A1,A1*%
%TO.N,unconnected-(XA1-PadA1)*%
X139699999Y-99059999D03*
%TO.P,XA1,A2,A2*%
%TO.N,unconnected-(XA1-PadA2)*%
X142239999Y-99059999D03*
%TO.P,XA1,A3,A3*%
%TO.N,unconnected-(XA1-PadA3)*%
X144779999Y-99059999D03*
%TO.P,XA1,A4,A4*%
%TO.N,unconnected-(XA1-PadA4)*%
X147319999Y-99059999D03*
%TO.P,XA1,A5,A5*%
%TO.N,unconnected-(XA1-PadA5)*%
X149859999Y-99059999D03*
%TO.P,XA1,AREF,AREF*%
%TO.N,unconnected-(XA1-PadAREF)*%
X110235999Y-50799999D03*
%TO.P,XA1,D0,D0_RX0*%
%TO.N,unconnected-(XA1-D0_RX0-PadD0)*%
X149859999Y-50799999D03*
%TO.P,XA1,D1,D1_TX0*%
%TO.N,unconnected-(XA1-D1_TX0-PadD1)*%
X147319999Y-50799999D03*
%TO.P,XA1,D2,D2_INT0*%
%TO.N,S2_DIR*%
X144779999Y-50799999D03*
%TO.P,XA1,D3,D3_INT1*%
%TO.N,S2_STEP*%
X142239999Y-50799999D03*
%TO.P,XA1,D4,D4*%
%TO.N,S1_DIR*%
X139699999Y-50799999D03*
%TO.P,XA1,D5,D5*%
%TO.N,S1_STEP*%
X137159999Y-50799999D03*
%TO.P,XA1,D6,D6*%
%TO.N,D6*%
X134619999Y-50799999D03*
%TO.P,XA1,D7,D7*%
%TO.N,D7*%
X132079999Y-50799999D03*
%TO.P,XA1,D8,D8*%
%TO.N,D8*%
X128015999Y-50799999D03*
%TO.P,XA1,D9,D9*%
%TO.N,Net-(D10-A)*%
X125475999Y-50799999D03*
%TO.P,XA1,D10,D10_CS*%
%TO.N,unconnected-(XA1-D10_CS-PadD10)*%
X122935999Y-50799999D03*
%TO.P,XA1,D11,D11*%
%TO.N,unconnected-(XA1-PadD11)*%
X120395999Y-50799999D03*
%TO.P,XA1,D12,D12*%
%TO.N,unconnected-(XA1-PadD12)*%
X117855999Y-50799999D03*
%TO.P,XA1,D13,D13*%
%TO.N,unconnected-(XA1-PadD13)*%
X115315999Y-50799999D03*
D12*
%TO.P,XA1,GND1,GND*%
%TO.N,GND*%
X112775999Y-50799999D03*
%TO.P,XA1,GND2,GND*%
X126999999Y-99059999D03*
%TO.P,XA1,GND3,GND*%
X129539999Y-99059999D03*
%TO.P,XA1,GND4,SPI_GND*%
%TO.N,unconnected-(XA1-SPI_GND-PadGND4)*%
X152526999Y-76199999D03*
D11*
%TO.P,XA1,IORF,IOREF*%
%TO.N,unconnected-(XA1-IOREF-PadIORF)*%
X116839999Y-99059999D03*
%TO.P,XA1,MISO,SPI_MISO*%
%TO.N,unconnected-(XA1-SPI_MISO-PadMISO)*%
X149986999Y-71119999D03*
%TO.P,XA1,MOSI,SPI_MOSI*%
%TO.N,unconnected-(XA1-SPI_MOSI-PadMOSI)*%
X152526999Y-73659999D03*
%TO.P,XA1,RST1,RESET*%
%TO.N,unconnected-(XA1-RESET-PadRST1)*%
X119379999Y-99059999D03*
%TO.P,XA1,RST2,SPI_RESET*%
%TO.N,unconnected-(XA1-SPI_RESET-PadRST2)*%
X149986999Y-76199999D03*
%TO.P,XA1,SCK,SPI_SCK*%
%TO.N,unconnected-(XA1-SPI_SCK-PadSCK)*%
X149986999Y-73659999D03*
%TO.P,XA1,SCL,SCL*%
%TO.N,SCL*%
X105155999Y-50799999D03*
%TO.P,XA1,SDA,SDA*%
%TO.N,SDA*%
X107695999Y-50799999D03*
%TO.P,XA1,VIN,VIN*%
%TO.N,+12V*%
X132079999Y-99059999D03*
%TD*%
D10*
%TO.P,C7,1*%
%TO.N,+12V*%
X101600000Y-89789000D03*
%TO.P,C7,2*%
%TO.N,GND*%
X106600000Y-89789000D03*
%TD*%
D13*
%TO.P,J1,1,Pin_1*%
%TO.N,+5V*%
X91440000Y-58420000D03*
D14*
%TO.P,J1,2,Pin_2*%
%TO.N,unconnected-(J1-Pin_2-Pad2)*%
X94939999Y-58419999D03*
%TO.P,J1,3,Pin_3*%
%TO.N,unconnected-(J1-Pin_3-Pad3)*%
X98439999Y-58419999D03*
%TO.P,J1,4,Pin_4*%
%TO.N,SCL*%
X101939999Y-58419999D03*
%TO.P,J1,5,Pin_5*%
%TO.N,SDA*%
X105439999Y-58419999D03*
%TO.P,J1,6,Pin_6*%
%TO.N,GND*%
X108939999Y-58419999D03*
%TD*%
D13*
%TO.P,J5,1,Pin_1*%
%TO.N,+5V*%
X91440000Y-68580000D03*
D14*
%TO.P,J5,2,Pin_2*%
%TO.N,D8*%
X94939999Y-68579999D03*
%TO.P,J5,3,Pin_3*%
%TO.N,+5V*%
X98439999Y-68579999D03*
%TO.P,J5,4,Pin_4*%
%TO.N,D7*%
X101939999Y-68579999D03*
%TO.P,J5,5,Pin_5*%
%TO.N,+5V*%
X105439999Y-68579999D03*
%TO.P,J5,6,Pin_6*%
%TO.N,D6*%
X108939999Y-68579999D03*
%TD*%
D10*
%TO.P,C12,1*%
%TO.N,+12V*%
X101600000Y-78740000D03*
%TO.P,C12,2*%
%TO.N,GND*%
X106600000Y-78740000D03*
%TD*%
D13*
%TO.P,J2,1,Pin_1*%
%TO.N,S1_AOUT1*%
X132080000Y-88900000D03*
D14*
%TO.P,J2,2,Pin_2*%
%TO.N,S1_AOUT2*%
X135579999Y-88899999D03*
%TO.P,J2,3,Pin_3*%
%TO.N,S1_BOUT2*%
X139079999Y-88899999D03*
%TO.P,J2,4,Pin_4*%
%TO.N,S1_BOUT1*%
X142579999Y-88899999D03*
%TD*%
D13*
%TO.P,J3,1,Pin_1*%
%TO.N,S2_AOUT1*%
X132080000Y-78740000D03*
D14*
%TO.P,J3,2,Pin_2*%
%TO.N,S2_AOUT2*%
X135579999Y-78739999D03*
%TO.P,J3,3,Pin_3*%
%TO.N,S2_BOUT2*%
X139079999Y-78739999D03*
%TO.P,J3,4,Pin_4*%
%TO.N,S2_BOUT1*%
X142579999Y-78739999D03*
%TD*%
D15*
%TO.P,J4,1,Pin_1*%
%TO.N,GND*%
X93980000Y-91440000D03*
D16*
%TO.P,J4,2,Pin_2*%
%TO.N,+12V*%
X93979999Y-94939999D03*
%TD*%
D17*
%TO.N,+12V*%
X120147200Y-68587700D03*
X144018000Y-69596000D03*
X113538000Y-74981000D03*
X126243200Y-69603700D03*
X137922000Y-68580000D03*
%TO.N,GND*%
X114554000Y-81077000D03*
X124460000Y-63500000D03*
X143764000Y-56896000D03*
X112522000Y-81077000D03*
X118618000Y-89154000D03*
X120650000Y-89154000D03*
X125989200Y-56903700D03*
X141478000Y-68580000D03*
X123703200Y-68580000D03*
X126243200Y-68587700D03*
X116586000Y-81026000D03*
X114554000Y-89154000D03*
X120650000Y-81026000D03*
X138153500Y-56642000D03*
X120378700Y-56649700D03*
X124714000Y-89154000D03*
X112522000Y-89154000D03*
X144018000Y-68580000D03*
X119380000Y-63500000D03*
X119385200Y-59189700D03*
X142240000Y-63500000D03*
X137160000Y-63500000D03*
X122682000Y-89154000D03*
X137160000Y-59182000D03*
X126746000Y-89154000D03*
X122682000Y-81026000D03*
X118618000Y-81026000D03*
X116586000Y-89154000D03*
%TO.N,/Stepper1/DVDD*%
X120147200Y-59189700D03*
X124719200Y-59189700D03*
X123449200Y-56649700D03*
X118369200Y-59189700D03*
%TO.N,/Stepper2/DVDD*%
X141224000Y-56642000D03*
X137922000Y-59182000D03*
X142494000Y-59182000D03*
X136144000Y-59182000D03*
%TO.N,+5V*%
X122433200Y-59189700D03*
X111506000Y-75032000D03*
X111252000Y-93980000D03*
X111252000Y-84328000D03*
X140208000Y-59182000D03*
%TO.N,S1_BOUT1*%
X124211200Y-67825700D03*
%TO.N,S2_BOUT1*%
X141986000Y-67818000D03*
%TO.N,S1_BOUT2*%
X122941200Y-67825700D03*
%TO.N,S2_BOUT2*%
X140716000Y-67818000D03*
%TO.N,S1_AOUT2*%
X122179200Y-67825700D03*
%TO.N,S2_AOUT2*%
X139954000Y-67818000D03*
%TO.N,S1_AOUT1*%
X120909200Y-67825700D03*
%TO.N,S2_AOUT1*%
X138684000Y-67818000D03*
D18*
%TO.N,D6*%
X114819428Y-60209428D03*
%TO.N,D7*%
X113797714Y-60203714D03*
%TO.N,D8*%
X112776000Y-60198000D03*
D17*
%TO.N,S2_STEP*%
X117602000Y-82550000D03*
X136144000Y-57658000D03*
%TO.N,S2_DIR*%
X136144000Y-58420000D03*
X119380000Y-82550000D03*
%TO.N,S1_STEP*%
X117602000Y-95758000D03*
X118364000Y-57658000D03*
%TO.N,S1_DIR*%
X119380000Y-95758000D03*
X118364000Y-58420000D03*
D18*
%TO.N,Net-(D10-A)*%
X125476000Y-54864000D03*
%TD*%
D19*
%TO.N,/Stepper1/DVDD*%
X122632185Y-56667400D02*
X120167400Y-59132185D01*
X118413815Y-59207400D02*
X118956000Y-58665215D01*
X123469400Y-56667400D02*
X122632185Y-56667400D01*
X120337400Y-57259400D02*
X122040185Y-57259400D01*
X118956000Y-58640800D02*
X120337400Y-57259400D01*
X122040185Y-57259400D02*
X122632185Y-56667400D01*
X120167400Y-59132185D02*
X120167400Y-59207400D01*
X124739400Y-59207400D02*
X123469400Y-57937400D01*
X123469400Y-57937400D02*
X123469400Y-56667400D01*
X118389400Y-59207400D02*
X118413815Y-59207400D01*
X118956000Y-58665215D02*
X118956000Y-58640800D01*
%TO.N,/Stepper2/DVDD*%
X141224000Y-56642000D02*
X140386785Y-56642000D01*
X136219215Y-59182000D02*
X136736000Y-58665215D01*
X139794785Y-57234000D02*
X140386785Y-56642000D01*
X141224000Y-57912000D02*
X141224000Y-56642000D01*
X136736000Y-58665215D02*
X136736000Y-58590000D01*
X136144000Y-59182000D02*
X136219215Y-59182000D01*
X137922000Y-59106785D02*
X137922000Y-59182000D01*
X142494000Y-59182000D02*
X141224000Y-57912000D01*
X140386785Y-56642000D02*
X137922000Y-59106785D01*
X136736000Y-58590000D02*
X138092000Y-57234000D01*
X138092000Y-57234000D02*
X139794785Y-57234000D01*
%TO.N,+5V*%
X98440000Y-68580000D02*
X98440000Y-65898000D01*
X95758000Y-62738000D02*
X91440000Y-58420000D01*
D20*
X91440000Y-68580000D02*
X91440000Y-78740000D01*
X97028000Y-84328000D02*
X91440000Y-78740000D01*
D19*
X101600000Y-62738000D02*
X97282000Y-62738000D01*
D20*
X112776000Y-97028000D02*
X111252000Y-95504000D01*
D19*
X111506000Y-75032000D02*
X111354000Y-75032000D01*
X98440000Y-65898000D02*
X101600000Y-62738000D01*
X97282000Y-62738000D02*
X91440000Y-68580000D01*
X122433200Y-59189700D02*
X118884900Y-62738000D01*
X105440000Y-68580000D02*
X105440000Y-66518000D01*
X140208000Y-59182000D02*
X136652000Y-62738000D01*
D20*
X111252000Y-85344000D02*
X111252000Y-93980000D01*
D19*
X118618000Y-62738000D02*
X109220000Y-62738000D01*
X118884900Y-62738000D02*
X118618000Y-62738000D01*
X97282000Y-62738000D02*
X95758000Y-62738000D01*
D20*
X111252000Y-95504000D02*
X111252000Y-93980000D01*
D19*
X136652000Y-62738000D02*
X118618000Y-62738000D01*
D20*
X111252000Y-85344000D02*
X110236000Y-84328000D01*
X111252000Y-84328000D02*
X110236000Y-84328000D01*
X122428000Y-97028000D02*
X112776000Y-97028000D01*
D19*
X109220000Y-62738000D02*
X101600000Y-62738000D01*
X111354000Y-75032000D02*
X105440000Y-69118000D01*
D20*
X110236000Y-84328000D02*
X97028000Y-84328000D01*
X124460000Y-99060000D02*
X122428000Y-97028000D01*
X111252000Y-84328000D02*
X111252000Y-85344000D01*
D19*
X105440000Y-66518000D02*
X109220000Y-62738000D01*
X105440000Y-69118000D02*
X105440000Y-68580000D01*
D21*
%TO.N,S1_BOUT1*%
X124968000Y-69342000D02*
X124968000Y-76200000D01*
D19*
X124968000Y-68582500D02*
X124968000Y-69342000D01*
D21*
X130810000Y-82042000D02*
X136398000Y-82042000D01*
X136398000Y-82042000D02*
X142580000Y-88224000D01*
X124968000Y-76200000D02*
X130810000Y-82042000D01*
X142580000Y-88224000D02*
X142580000Y-88900000D01*
D19*
X124211200Y-67825700D02*
X124968000Y-68582500D01*
%TO.N,S2_BOUT1*%
X142240000Y-68072000D02*
X142240000Y-71120000D01*
X141986000Y-67818000D02*
X142240000Y-68072000D01*
D21*
X142580000Y-71460000D02*
X142580000Y-78740000D01*
X142240000Y-71120000D02*
X142580000Y-71460000D01*
%TO.N,S1_BOUT2*%
X123444000Y-69337620D02*
X123444000Y-76708000D01*
X123444000Y-76708000D02*
X130302000Y-83566000D01*
X130302000Y-83566000D02*
X133746000Y-83566000D01*
X122941200Y-68834820D02*
X123444000Y-69337620D01*
X133746000Y-83566000D02*
X139080000Y-88900000D01*
X122941200Y-67825700D02*
X122941200Y-68834820D01*
%TO.N,S2_BOUT2*%
X139080000Y-74280000D02*
X139080000Y-78740000D01*
X140716000Y-72644000D02*
X139080000Y-74280000D01*
X140716000Y-67818000D02*
X140716000Y-72644000D01*
%TO.N,S1_AOUT2*%
X130302000Y-85344000D02*
X132024000Y-85344000D01*
X132024000Y-85344000D02*
X135580000Y-88900000D01*
X122179200Y-67825700D02*
X122179200Y-77221200D01*
X122179200Y-77221200D02*
X130302000Y-85344000D01*
%TO.N,S2_AOUT2*%
X139954000Y-67818000D02*
X135580000Y-72192000D01*
X135580000Y-72192000D02*
X135580000Y-78740000D01*
%TO.N,S1_AOUT1*%
X120909200Y-77983200D02*
X131826000Y-88900000D01*
X120909200Y-67825700D02*
X120909200Y-77983200D01*
X131826000Y-88900000D02*
X132080000Y-88900000D01*
%TO.N,S2_AOUT1*%
X137667180Y-67818000D02*
X132080000Y-73405180D01*
X138684000Y-67818000D02*
X137667180Y-67818000D01*
X132080000Y-73405180D02*
X132080000Y-78740000D01*
D19*
%TO.N,D6*%
X134620000Y-50800000D02*
X132280000Y-53140000D01*
X132280000Y-53140000D02*
X121888856Y-53140000D01*
X121888856Y-53140000D02*
X114819428Y-60209428D01*
%TO.N,D7*%
X121556828Y-52444600D02*
X113797714Y-60203714D01*
X130435400Y-52444600D02*
X121556828Y-52444600D01*
X132080000Y-50800000D02*
X130435400Y-52444600D01*
%TO.N,D8*%
X126825400Y-51990600D02*
X120983400Y-51990600D01*
X128016000Y-50800000D02*
X126825400Y-51990600D01*
X120983400Y-51990600D02*
X112776000Y-60198000D01*
%TO.N,S2_DIR*%
X136838974Y-57800241D02*
X136219215Y-58420000D01*
X141634285Y-52324000D02*
X136838974Y-57119311D01*
X144780000Y-50800000D02*
X144018000Y-50800000D01*
X136219215Y-58420000D02*
X136144000Y-58420000D01*
X136838974Y-57119311D02*
X136838974Y-57800241D01*
X144018000Y-50800000D02*
X142494000Y-52324000D01*
X142494000Y-52324000D02*
X141634285Y-52324000D01*
%TO.N,S1_DIR*%
X120565185Y-55626000D02*
X118957374Y-57233811D01*
X122936000Y-53594000D02*
X120904000Y-55626000D01*
X136906000Y-53594000D02*
X122936000Y-53594000D01*
X118957374Y-57901841D02*
X118439215Y-58420000D01*
X120904000Y-55626000D02*
X120565185Y-55626000D01*
X139700000Y-50800000D02*
X136906000Y-53594000D01*
X118439215Y-58420000D02*
X118364000Y-58420000D01*
X118957374Y-57233811D02*
X118957374Y-57901841D01*
%TD*%
M02*
