%TF.GenerationSoftware,KiCad,Pcbnew,(7.0.0)*%
%TF.CreationDate,2023-03-01T19:42:45-06:00*%
%TF.ProjectId,TurretCtl,54757272-6574-4437-946c-2e6b69636164,rev?*%
%TF.SameCoordinates,Original*%
%TF.FileFunction,Copper,L2,Inr*%
%TF.FilePolarity,Positive*%
%FSLAX46Y46*%
G04 Gerber Fmt 4.6, Leading zero omitted, Abs format (unit mm)*
G04 Created by KiCad (PCBNEW (7.0.0)) date 2023-03-01 19:42:45*
%MOMM*%
%LPD*%
G01*
G04 APERTURE LIST*
G04 Aperture macros list*
%AMRoundRect*
0 Rectangle with rounded corners*
0 $1 Rounding radius*
0 $2 $3 $4 $5 $6 $7 $8 $9 X,Y pos of 4 corners*
0 Add a 4 corners polygon primitive as box body*
4,1,4,$2,$3,$4,$5,$6,$7,$8,$9,$2,$3,0*
0 Add four circle primitives for the rounded corners*
1,1,$1+$1,$2,$3*
1,1,$1+$1,$4,$5*
1,1,$1+$1,$6,$7*
1,1,$1+$1,$8,$9*
0 Add four rect primitives between the rounded corners*
20,1,$1+$1,$2,$3,$4,$5,0*
20,1,$1+$1,$4,$5,$6,$7,0*
20,1,$1+$1,$6,$7,$8,$9,0*
20,1,$1+$1,$8,$9,$2,$3,0*%
G04 Aperture macros list end*
%TA.AperFunction,ComponentPad*%
%ADD10RoundRect,0.250000X0.650000X1.550000X-0.650000X1.550000X-0.650000X-1.550000X0.650000X-1.550000X0*%
%TD*%
%TA.AperFunction,ComponentPad*%
%ADD11O,1.800000X3.600000*%
%TD*%
%TA.AperFunction,ComponentPad*%
%ADD12C,1.600000*%
%TD*%
%TA.AperFunction,ComponentPad*%
%ADD13RoundRect,0.250000X-1.550000X0.650000X-1.550000X-0.650000X1.550000X-0.650000X1.550000X0.650000X0*%
%TD*%
%TA.AperFunction,ComponentPad*%
%ADD14O,3.600000X1.800000*%
%TD*%
%TA.AperFunction,ComponentPad*%
%ADD15O,1.727200X1.727200*%
%TD*%
%TA.AperFunction,ComponentPad*%
%ADD16R,1.727200X1.727200*%
%TD*%
%TA.AperFunction,ViaPad*%
%ADD17C,1.000000*%
%TD*%
%TA.AperFunction,ViaPad*%
%ADD18C,0.530000*%
%TD*%
G04 APERTURE END LIST*
D10*
%TO.N,S2_AOUT1*%
%TO.C,J3*%
X130810000Y-73152000D03*
D11*
%TO.N,S2_AOUT2*%
X127309999Y-73151999D03*
%TO.N,S2_BOUT2*%
X123809999Y-73151999D03*
%TO.N,S2_BOUT1*%
X120309999Y-73151999D03*
%TD*%
D12*
%TO.N,+12V*%
%TO.C,C7*%
X113872000Y-99060000D03*
%TO.N,GND*%
X118872000Y-99060000D03*
%TD*%
%TO.N,+12V*%
%TO.C,C12*%
X93020000Y-99060000D03*
%TO.N,GND*%
X98020000Y-99060000D03*
%TD*%
D13*
%TO.N,GND*%
%TO.C,J4*%
X84212500Y-94825000D03*
D14*
%TO.N,+12V*%
X84212499Y-98324999D03*
%TD*%
D12*
%TO.N,+5V*%
%TO.C,C15*%
X132080000Y-98980000D03*
%TO.N,GND*%
X132080000Y-95480000D03*
%TD*%
D10*
%TO.N,S1_AOUT1*%
%TO.C,J2*%
X109220000Y-73152000D03*
D11*
%TO.N,S1_AOUT2*%
X105719999Y-73151999D03*
%TO.N,S1_BOUT2*%
X102219999Y-73151999D03*
%TO.N,S1_BOUT1*%
X98719999Y-73151999D03*
%TD*%
D15*
%TO.N,*%
%TO.C,XA1*%
X104139999Y-111759999D03*
%TO.N,unconnected-(XA1-3.3V-Pad3V3)*%
X111759999Y-111759999D03*
%TO.N,+5V*%
X114299999Y-111759999D03*
%TO.N,unconnected-(XA1-SPI_5V-Pad5V2)*%
X142366999Y-83819999D03*
%TO.N,unconnected-(XA1-PadA0)*%
X126999999Y-111759999D03*
%TO.N,unconnected-(XA1-PadA1)*%
X129539999Y-111759999D03*
%TO.N,unconnected-(XA1-PadA2)*%
X132079999Y-111759999D03*
%TO.N,unconnected-(XA1-PadA3)*%
X134619999Y-111759999D03*
%TO.N,unconnected-(XA1-PadA4)*%
X137159999Y-111759999D03*
%TO.N,unconnected-(XA1-PadA5)*%
X139699999Y-111759999D03*
%TO.N,unconnected-(XA1-PadAREF)*%
X100075999Y-63499999D03*
%TO.N,unconnected-(XA1-D0_RX0-PadD0)*%
X139699999Y-63499999D03*
%TO.N,unconnected-(XA1-D1_TX0-PadD1)*%
X137159999Y-63499999D03*
%TO.N,S2_DIR*%
X134619999Y-63499999D03*
%TO.N,S2_STEP*%
X132079999Y-63499999D03*
%TO.N,S1_DIR*%
X129539999Y-63499999D03*
%TO.N,S1_STEP*%
X126999999Y-63499999D03*
%TO.N,unconnected-(XA1-PadD6)*%
X124459999Y-63499999D03*
%TO.N,unconnected-(XA1-PadD7)*%
X121919999Y-63499999D03*
%TO.N,unconnected-(XA1-PadD8)*%
X117855999Y-63499999D03*
%TO.N,unconnected-(XA1-PadD9)*%
X115315999Y-63499999D03*
%TO.N,unconnected-(XA1-D10_CS-PadD10)*%
X112775999Y-63499999D03*
%TO.N,unconnected-(XA1-PadD11)*%
X110235999Y-63499999D03*
%TO.N,unconnected-(XA1-PadD12)*%
X107695999Y-63499999D03*
%TO.N,unconnected-(XA1-PadD13)*%
X105155999Y-63499999D03*
D16*
%TO.N,GND*%
X102615999Y-63499999D03*
X116839999Y-111759999D03*
X119379999Y-111759999D03*
%TO.N,unconnected-(XA1-SPI_GND-PadGND4)*%
X142366999Y-88899999D03*
D15*
%TO.N,unconnected-(XA1-IOREF-PadIORF)*%
X106679999Y-111759999D03*
%TO.N,unconnected-(XA1-SPI_MISO-PadMISO)*%
X139826999Y-83819999D03*
%TO.N,unconnected-(XA1-SPI_MOSI-PadMOSI)*%
X142366999Y-86359999D03*
%TO.N,unconnected-(XA1-RESET-PadRST1)*%
X109219999Y-111759999D03*
%TO.N,unconnected-(XA1-SPI_RESET-PadRST2)*%
X139826999Y-88899999D03*
%TO.N,unconnected-(XA1-SPI_SCK-PadSCK)*%
X139826999Y-86359999D03*
%TO.N,SCL*%
X94995999Y-63499999D03*
%TO.N,SDA*%
X97535999Y-63499999D03*
%TO.N,+12V*%
X121919999Y-111759999D03*
%TD*%
D17*
%TO.N,+12V*%
X112776000Y-97790000D03*
X112776000Y-100330000D03*
X114808000Y-100330000D03*
X91948000Y-100330000D03*
X101854000Y-78740000D03*
X91948000Y-97790000D03*
X93980000Y-100330000D03*
X123444000Y-78702000D03*
X94742000Y-80264000D03*
X114808000Y-97790000D03*
X86360000Y-87630000D03*
X93980000Y-97790000D03*
X116332000Y-80226000D03*
D18*
%TO.N,GND*%
X119888000Y-82258000D03*
D17*
X124460000Y-87376000D03*
X119888000Y-100330000D03*
X102870000Y-87376000D03*
X125476000Y-80480000D03*
X117856000Y-93434000D03*
X133096000Y-96520000D03*
X96266000Y-93472000D03*
X121666000Y-94450000D03*
X94742000Y-81788000D03*
X117856000Y-100330000D03*
X124460000Y-85852000D03*
X97282000Y-87376000D03*
X102616000Y-90932000D03*
X116332000Y-81750000D03*
X137922000Y-93218000D03*
D18*
X100330000Y-82296000D03*
D17*
X103886000Y-80518000D03*
X93980000Y-87630000D03*
X100076000Y-94488000D03*
X131064000Y-93980000D03*
X97028000Y-100330000D03*
X133096000Y-93980000D03*
X119888000Y-97790000D03*
X118872000Y-85852000D03*
X117856000Y-97790000D03*
X99060000Y-100330000D03*
X124206000Y-90894000D03*
X131064000Y-96520000D03*
X102870000Y-85852000D03*
X99060000Y-97790000D03*
D18*
X98298000Y-82296000D03*
D17*
X118872000Y-87376000D03*
X97282000Y-85852000D03*
X97028000Y-97790000D03*
D18*
X121920000Y-82258000D03*
%TO.N,/Stepper1/DVDD*%
X99822000Y-90932000D03*
X103632000Y-91440000D03*
X98298000Y-93218000D03*
%TO.N,/Stepper2/DVDD*%
X125222000Y-91402000D03*
X121412000Y-90894000D03*
X119888000Y-93180000D03*
D17*
%TO.N,SCL*%
X136652000Y-97028000D03*
%TO.N,SDA*%
X136652000Y-94996000D03*
D18*
%TO.N,S1_AOUT1*%
X100838000Y-81534000D03*
%TO.N,S1_AOUT2*%
X99822000Y-81534000D03*
%TO.N,S1_BOUT2*%
X98806000Y-81534000D03*
%TO.N,S1_BOUT1*%
X97790000Y-81534000D03*
%TO.N,S2_AOUT1*%
X122428000Y-81496000D03*
%TO.N,S2_AOUT2*%
X121412000Y-81496000D03*
%TO.N,S2_BOUT2*%
X120396000Y-81496000D03*
%TO.N,S2_BOUT1*%
X119380000Y-81496000D03*
%TD*%
%TA.AperFunction,Conductor*%
%TO.N,GND*%
G36*
X141137042Y-60661939D02*
G01*
X141177270Y-60688819D01*
X142511181Y-62022731D01*
X142538061Y-62062959D01*
X142547500Y-62110412D01*
X142547500Y-73115495D01*
X142547336Y-73118404D01*
X142543638Y-73128974D01*
X142545201Y-73142851D01*
X142545201Y-73142854D01*
X142546721Y-73156341D01*
X142547209Y-73165042D01*
X142547500Y-73167625D01*
X142547500Y-73174590D01*
X142549049Y-73181381D01*
X142549340Y-73183957D01*
X142550800Y-73192554D01*
X142553884Y-73219924D01*
X142560107Y-73229828D01*
X142562710Y-73241231D01*
X142571417Y-73252150D01*
X142571419Y-73252153D01*
X142579888Y-73262772D01*
X142584932Y-73269880D01*
X142586546Y-73271904D01*
X142590252Y-73277801D01*
X142595171Y-73282720D01*
X142596794Y-73284755D01*
X142602601Y-73291252D01*
X142619776Y-73312788D01*
X142629867Y-73317647D01*
X142632042Y-73319591D01*
X145051181Y-75738731D01*
X145078061Y-75778959D01*
X145087500Y-75826412D01*
X145087500Y-110609588D01*
X145078061Y-110657041D01*
X145051181Y-110697269D01*
X142632043Y-113116406D01*
X142629864Y-113118353D01*
X142619776Y-113123212D01*
X142611068Y-113134129D01*
X142611066Y-113134132D01*
X142602599Y-113144749D01*
X142596788Y-113151251D01*
X142595167Y-113153282D01*
X142590252Y-113158199D01*
X142586552Y-113164085D01*
X142584941Y-113166106D01*
X142579890Y-113173224D01*
X142571418Y-113183847D01*
X142571415Y-113183852D01*
X142562710Y-113194769D01*
X142560107Y-113206171D01*
X142553884Y-113216076D01*
X142552320Y-113229954D01*
X142552319Y-113229958D01*
X142550801Y-113243439D01*
X142549338Y-113252049D01*
X142549047Y-113254628D01*
X142547500Y-113261410D01*
X142547500Y-113268364D01*
X142547209Y-113270947D01*
X142546721Y-113279659D01*
X142545201Y-113293145D01*
X142545201Y-113293148D01*
X142543638Y-113307026D01*
X142547336Y-113317595D01*
X142547500Y-113320505D01*
X142547500Y-114483500D01*
X142530887Y-114545500D01*
X142485500Y-114590887D01*
X142423500Y-114607500D01*
X76016500Y-114607500D01*
X75954500Y-114590887D01*
X75909113Y-114545500D01*
X75892500Y-114483500D01*
X75892500Y-111760000D01*
X88234569Y-111760000D01*
X88234885Y-111764418D01*
X88253952Y-112031018D01*
X88253953Y-112031027D01*
X88254269Y-112035441D01*
X88255209Y-112039765D01*
X88255211Y-112039774D01*
X88303238Y-112260548D01*
X88312968Y-112305274D01*
X88314517Y-112309427D01*
X88407922Y-112559858D01*
X88407924Y-112559864D01*
X88409470Y-112564007D01*
X88411592Y-112567893D01*
X88520334Y-112767040D01*
X88541812Y-112806373D01*
X88707299Y-113027438D01*
X88902562Y-113222701D01*
X89123627Y-113388188D01*
X89365993Y-113520530D01*
X89624726Y-113617032D01*
X89894559Y-113675731D01*
X90101056Y-113690500D01*
X90236729Y-113690500D01*
X90238944Y-113690500D01*
X90445441Y-113675731D01*
X90715274Y-113617032D01*
X90974007Y-113520530D01*
X91216373Y-113388188D01*
X91437438Y-113222701D01*
X91632701Y-113027438D01*
X91798188Y-112806373D01*
X91930530Y-112564007D01*
X92027032Y-112305274D01*
X92085731Y-112035441D01*
X92105431Y-111760000D01*
X102771225Y-111760000D01*
X102771649Y-111765117D01*
X102789468Y-111980174D01*
X102789469Y-111980183D01*
X102789893Y-111985293D01*
X102791150Y-111990260D01*
X102791152Y-111990267D01*
X102844130Y-112199470D01*
X102845389Y-112204441D01*
X102847449Y-112209137D01*
X102934138Y-112406770D01*
X102934141Y-112406775D01*
X102936198Y-112411465D01*
X102946870Y-112427799D01*
X103057042Y-112596431D01*
X103057045Y-112596435D01*
X103059844Y-112600719D01*
X103063309Y-112604483D01*
X103063313Y-112604488D01*
X103209484Y-112763271D01*
X103212954Y-112767040D01*
X103391351Y-112905893D01*
X103590169Y-113013488D01*
X103803986Y-113086891D01*
X104026967Y-113124100D01*
X104247900Y-113124100D01*
X104253033Y-113124100D01*
X104476014Y-113086891D01*
X104689831Y-113013488D01*
X104888649Y-112905893D01*
X105067046Y-112767040D01*
X105220156Y-112600719D01*
X105241603Y-112567893D01*
X105306191Y-112469033D01*
X105350982Y-112427799D01*
X105410000Y-112412854D01*
X105469018Y-112427799D01*
X105513809Y-112469033D01*
X105597038Y-112596426D01*
X105597045Y-112596435D01*
X105599844Y-112600719D01*
X105603309Y-112604483D01*
X105603313Y-112604488D01*
X105749484Y-112763271D01*
X105752954Y-112767040D01*
X105931351Y-112905893D01*
X106130169Y-113013488D01*
X106343986Y-113086891D01*
X106566967Y-113124100D01*
X106787900Y-113124100D01*
X106793033Y-113124100D01*
X107016014Y-113086891D01*
X107229831Y-113013488D01*
X107428649Y-112905893D01*
X107607046Y-112767040D01*
X107760156Y-112600719D01*
X107781603Y-112567893D01*
X107846191Y-112469033D01*
X107890982Y-112427799D01*
X107950000Y-112412854D01*
X108009018Y-112427799D01*
X108053809Y-112469033D01*
X108137038Y-112596426D01*
X108137045Y-112596435D01*
X108139844Y-112600719D01*
X108143309Y-112604483D01*
X108143313Y-112604488D01*
X108289484Y-112763271D01*
X108292954Y-112767040D01*
X108471351Y-112905893D01*
X108670169Y-113013488D01*
X108883986Y-113086891D01*
X109106967Y-113124100D01*
X109327900Y-113124100D01*
X109333033Y-113124100D01*
X109556014Y-113086891D01*
X109769831Y-113013488D01*
X109968649Y-112905893D01*
X110147046Y-112767040D01*
X110300156Y-112600719D01*
X110321603Y-112567893D01*
X110386191Y-112469033D01*
X110430982Y-112427799D01*
X110490000Y-112412854D01*
X110549018Y-112427799D01*
X110593809Y-112469033D01*
X110677038Y-112596426D01*
X110677045Y-112596435D01*
X110679844Y-112600719D01*
X110683309Y-112604483D01*
X110683313Y-112604488D01*
X110829484Y-112763271D01*
X110832954Y-112767040D01*
X111011351Y-112905893D01*
X111210169Y-113013488D01*
X111423986Y-113086891D01*
X111646967Y-113124100D01*
X111867900Y-113124100D01*
X111873033Y-113124100D01*
X112096014Y-113086891D01*
X112309831Y-113013488D01*
X112508649Y-112905893D01*
X112687046Y-112767040D01*
X112840156Y-112600719D01*
X112861603Y-112567893D01*
X112926191Y-112469033D01*
X112970982Y-112427799D01*
X113030000Y-112412854D01*
X113089018Y-112427799D01*
X113133809Y-112469033D01*
X113217038Y-112596426D01*
X113217045Y-112596435D01*
X113219844Y-112600719D01*
X113223309Y-112604483D01*
X113223313Y-112604488D01*
X113369484Y-112763271D01*
X113372954Y-112767040D01*
X113551351Y-112905893D01*
X113750169Y-113013488D01*
X113963986Y-113086891D01*
X114186967Y-113124100D01*
X114407900Y-113124100D01*
X114413033Y-113124100D01*
X114636014Y-113086891D01*
X114849831Y-113013488D01*
X115048649Y-112905893D01*
X115227046Y-112767040D01*
X115281814Y-112707546D01*
X115334437Y-112673693D01*
X115396891Y-112669845D01*
X115453273Y-112696983D01*
X115489225Y-112748197D01*
X115529947Y-112857377D01*
X115538362Y-112872789D01*
X115613898Y-112973692D01*
X115626307Y-112986101D01*
X115727210Y-113061637D01*
X115742622Y-113070052D01*
X115861758Y-113114488D01*
X115876732Y-113118026D01*
X115925285Y-113123246D01*
X115931882Y-113123600D01*
X116573674Y-113123600D01*
X116586549Y-113120149D01*
X116590000Y-113107274D01*
X117090000Y-113107274D01*
X117093450Y-113120149D01*
X117106326Y-113123600D01*
X117748118Y-113123600D01*
X117754714Y-113123246D01*
X117803267Y-113118026D01*
X117818241Y-113114488D01*
X117937377Y-113070052D01*
X117952790Y-113061637D01*
X118035688Y-112999579D01*
X118083641Y-112977679D01*
X118136359Y-112977679D01*
X118184312Y-112999579D01*
X118267209Y-113061637D01*
X118282622Y-113070052D01*
X118401758Y-113114488D01*
X118416732Y-113118026D01*
X118465285Y-113123246D01*
X118471882Y-113123600D01*
X119113674Y-113123600D01*
X119126549Y-113120149D01*
X119130000Y-113107274D01*
X119630000Y-113107274D01*
X119633450Y-113120149D01*
X119646326Y-113123600D01*
X120288118Y-113123600D01*
X120294714Y-113123246D01*
X120343267Y-113118026D01*
X120358241Y-113114488D01*
X120477377Y-113070052D01*
X120492789Y-113061637D01*
X120593692Y-112986101D01*
X120606101Y-112973692D01*
X120681637Y-112872789D01*
X120690053Y-112857375D01*
X120730774Y-112748198D01*
X120766725Y-112696984D01*
X120823107Y-112669845D01*
X120885561Y-112673693D01*
X120938185Y-112707546D01*
X120989484Y-112763271D01*
X120992954Y-112767040D01*
X121171351Y-112905893D01*
X121370169Y-113013488D01*
X121583986Y-113086891D01*
X121806967Y-113124100D01*
X122027900Y-113124100D01*
X122033033Y-113124100D01*
X122256014Y-113086891D01*
X122469831Y-113013488D01*
X122668649Y-112905893D01*
X122847046Y-112767040D01*
X123000156Y-112600719D01*
X123123802Y-112411465D01*
X123214611Y-112204441D01*
X123270107Y-111985293D01*
X123288775Y-111760000D01*
X125631225Y-111760000D01*
X125631649Y-111765117D01*
X125649468Y-111980174D01*
X125649469Y-111980183D01*
X125649893Y-111985293D01*
X125651150Y-111990260D01*
X125651152Y-111990267D01*
X125704130Y-112199470D01*
X125705389Y-112204441D01*
X125707449Y-112209137D01*
X125794138Y-112406770D01*
X125794141Y-112406775D01*
X125796198Y-112411465D01*
X125806870Y-112427799D01*
X125917042Y-112596431D01*
X125917045Y-112596435D01*
X125919844Y-112600719D01*
X125923309Y-112604483D01*
X125923313Y-112604488D01*
X126069484Y-112763271D01*
X126072954Y-112767040D01*
X126251351Y-112905893D01*
X126450169Y-113013488D01*
X126663986Y-113086891D01*
X126886967Y-113124100D01*
X127107900Y-113124100D01*
X127113033Y-113124100D01*
X127336014Y-113086891D01*
X127549831Y-113013488D01*
X127748649Y-112905893D01*
X127927046Y-112767040D01*
X128080156Y-112600719D01*
X128101603Y-112567893D01*
X128166191Y-112469033D01*
X128210982Y-112427799D01*
X128270000Y-112412854D01*
X128329018Y-112427799D01*
X128373809Y-112469033D01*
X128457038Y-112596426D01*
X128457045Y-112596435D01*
X128459844Y-112600719D01*
X128463309Y-112604483D01*
X128463313Y-112604488D01*
X128609484Y-112763271D01*
X128612954Y-112767040D01*
X128791351Y-112905893D01*
X128990169Y-113013488D01*
X129203986Y-113086891D01*
X129426967Y-113124100D01*
X129647900Y-113124100D01*
X129653033Y-113124100D01*
X129876014Y-113086891D01*
X130089831Y-113013488D01*
X130288649Y-112905893D01*
X130467046Y-112767040D01*
X130620156Y-112600719D01*
X130641603Y-112567893D01*
X130706191Y-112469033D01*
X130750982Y-112427799D01*
X130810000Y-112412854D01*
X130869018Y-112427799D01*
X130913809Y-112469033D01*
X130997038Y-112596426D01*
X130997045Y-112596435D01*
X130999844Y-112600719D01*
X131003309Y-112604483D01*
X131003313Y-112604488D01*
X131149484Y-112763271D01*
X131152954Y-112767040D01*
X131331351Y-112905893D01*
X131530169Y-113013488D01*
X131743986Y-113086891D01*
X131966967Y-113124100D01*
X132187900Y-113124100D01*
X132193033Y-113124100D01*
X132416014Y-113086891D01*
X132629831Y-113013488D01*
X132828649Y-112905893D01*
X133007046Y-112767040D01*
X133160156Y-112600719D01*
X133181603Y-112567893D01*
X133246191Y-112469033D01*
X133290982Y-112427799D01*
X133350000Y-112412854D01*
X133409018Y-112427799D01*
X133453809Y-112469033D01*
X133537038Y-112596426D01*
X133537045Y-112596435D01*
X133539844Y-112600719D01*
X133543309Y-112604483D01*
X133543313Y-112604488D01*
X133689484Y-112763271D01*
X133692954Y-112767040D01*
X133871351Y-112905893D01*
X134070169Y-113013488D01*
X134283986Y-113086891D01*
X134506967Y-113124100D01*
X134727900Y-113124100D01*
X134733033Y-113124100D01*
X134956014Y-113086891D01*
X135169831Y-113013488D01*
X135368649Y-112905893D01*
X135547046Y-112767040D01*
X135700156Y-112600719D01*
X135721603Y-112567893D01*
X135786191Y-112469033D01*
X135830982Y-112427799D01*
X135890000Y-112412854D01*
X135949018Y-112427799D01*
X135993809Y-112469033D01*
X136077038Y-112596426D01*
X136077045Y-112596435D01*
X136079844Y-112600719D01*
X136083309Y-112604483D01*
X136083313Y-112604488D01*
X136229484Y-112763271D01*
X136232954Y-112767040D01*
X136411351Y-112905893D01*
X136610169Y-113013488D01*
X136823986Y-113086891D01*
X137046967Y-113124100D01*
X137267900Y-113124100D01*
X137273033Y-113124100D01*
X137496014Y-113086891D01*
X137709831Y-113013488D01*
X137908649Y-112905893D01*
X138087046Y-112767040D01*
X138240156Y-112600719D01*
X138261603Y-112567893D01*
X138326191Y-112469033D01*
X138370982Y-112427799D01*
X138430000Y-112412854D01*
X138489018Y-112427799D01*
X138533809Y-112469033D01*
X138617038Y-112596426D01*
X138617045Y-112596435D01*
X138619844Y-112600719D01*
X138623309Y-112604483D01*
X138623313Y-112604488D01*
X138769484Y-112763271D01*
X138772954Y-112767040D01*
X138951351Y-112905893D01*
X139150169Y-113013488D01*
X139363986Y-113086891D01*
X139586967Y-113124100D01*
X139807900Y-113124100D01*
X139813033Y-113124100D01*
X140036014Y-113086891D01*
X140249831Y-113013488D01*
X140448649Y-112905893D01*
X140627046Y-112767040D01*
X140780156Y-112600719D01*
X140903802Y-112411465D01*
X140994611Y-112204441D01*
X141050107Y-111985293D01*
X141068775Y-111760000D01*
X141050107Y-111534707D01*
X140994611Y-111315559D01*
X140903802Y-111108535D01*
X140780156Y-110919281D01*
X140776688Y-110915514D01*
X140776686Y-110915511D01*
X140630514Y-110756727D01*
X140630512Y-110756725D01*
X140627046Y-110752960D01*
X140571945Y-110710073D01*
X140452694Y-110617255D01*
X140452691Y-110617253D01*
X140448649Y-110614107D01*
X140323366Y-110546307D01*
X140254335Y-110508949D01*
X140254330Y-110508947D01*
X140249831Y-110506512D01*
X140244990Y-110504850D01*
X140244983Y-110504847D01*
X140040867Y-110434775D01*
X140040866Y-110434774D01*
X140036014Y-110433109D01*
X140030964Y-110432266D01*
X140030955Y-110432264D01*
X139818095Y-110396744D01*
X139818086Y-110396743D01*
X139813033Y-110395900D01*
X139586967Y-110395900D01*
X139581914Y-110396743D01*
X139581904Y-110396744D01*
X139369044Y-110432264D01*
X139369032Y-110432266D01*
X139363986Y-110433109D01*
X139359136Y-110434773D01*
X139359132Y-110434775D01*
X139155016Y-110504847D01*
X139155005Y-110504851D01*
X139150169Y-110506512D01*
X139145673Y-110508944D01*
X139145664Y-110508949D01*
X138955857Y-110611668D01*
X138955852Y-110611670D01*
X138951351Y-110614107D01*
X138947314Y-110617248D01*
X138947305Y-110617255D01*
X138776995Y-110749814D01*
X138776989Y-110749818D01*
X138772954Y-110752960D01*
X138769492Y-110756719D01*
X138769485Y-110756727D01*
X138623313Y-110915511D01*
X138623304Y-110915521D01*
X138619844Y-110919281D01*
X138617049Y-110923558D01*
X138617042Y-110923568D01*
X138533809Y-111050967D01*
X138489017Y-111092200D01*
X138430000Y-111107145D01*
X138370983Y-111092200D01*
X138326191Y-111050967D01*
X138242957Y-110923568D01*
X138242956Y-110923566D01*
X138240156Y-110919281D01*
X138236688Y-110915514D01*
X138236686Y-110915511D01*
X138090514Y-110756727D01*
X138090512Y-110756725D01*
X138087046Y-110752960D01*
X138031945Y-110710073D01*
X137912694Y-110617255D01*
X137912691Y-110617253D01*
X137908649Y-110614107D01*
X137783366Y-110546307D01*
X137714335Y-110508949D01*
X137714330Y-110508947D01*
X137709831Y-110506512D01*
X137704990Y-110504850D01*
X137704983Y-110504847D01*
X137500867Y-110434775D01*
X137500866Y-110434774D01*
X137496014Y-110433109D01*
X137490964Y-110432266D01*
X137490955Y-110432264D01*
X137278095Y-110396744D01*
X137278086Y-110396743D01*
X137273033Y-110395900D01*
X137046967Y-110395900D01*
X137041914Y-110396743D01*
X137041904Y-110396744D01*
X136829044Y-110432264D01*
X136829032Y-110432266D01*
X136823986Y-110433109D01*
X136819136Y-110434773D01*
X136819132Y-110434775D01*
X136615016Y-110504847D01*
X136615005Y-110504851D01*
X136610169Y-110506512D01*
X136605673Y-110508944D01*
X136605664Y-110508949D01*
X136415857Y-110611668D01*
X136415852Y-110611670D01*
X136411351Y-110614107D01*
X136407314Y-110617248D01*
X136407305Y-110617255D01*
X136236995Y-110749814D01*
X136236989Y-110749818D01*
X136232954Y-110752960D01*
X136229492Y-110756719D01*
X136229485Y-110756727D01*
X136083313Y-110915511D01*
X136083304Y-110915521D01*
X136079844Y-110919281D01*
X136077049Y-110923558D01*
X136077042Y-110923568D01*
X135993809Y-111050967D01*
X135949017Y-111092200D01*
X135890000Y-111107145D01*
X135830983Y-111092200D01*
X135786191Y-111050967D01*
X135702957Y-110923568D01*
X135702956Y-110923566D01*
X135700156Y-110919281D01*
X135696688Y-110915514D01*
X135696686Y-110915511D01*
X135550514Y-110756727D01*
X135550512Y-110756725D01*
X135547046Y-110752960D01*
X135491945Y-110710073D01*
X135372694Y-110617255D01*
X135372691Y-110617253D01*
X135368649Y-110614107D01*
X135243366Y-110546307D01*
X135174335Y-110508949D01*
X135174330Y-110508947D01*
X135169831Y-110506512D01*
X135164990Y-110504850D01*
X135164983Y-110504847D01*
X134960867Y-110434775D01*
X134960866Y-110434774D01*
X134956014Y-110433109D01*
X134950964Y-110432266D01*
X134950955Y-110432264D01*
X134738095Y-110396744D01*
X134738086Y-110396743D01*
X134733033Y-110395900D01*
X134506967Y-110395900D01*
X134501914Y-110396743D01*
X134501904Y-110396744D01*
X134289044Y-110432264D01*
X134289032Y-110432266D01*
X134283986Y-110433109D01*
X134279136Y-110434773D01*
X134279132Y-110434775D01*
X134075016Y-110504847D01*
X134075005Y-110504851D01*
X134070169Y-110506512D01*
X134065673Y-110508944D01*
X134065664Y-110508949D01*
X133875857Y-110611668D01*
X133875852Y-110611670D01*
X133871351Y-110614107D01*
X133867314Y-110617248D01*
X133867305Y-110617255D01*
X133696995Y-110749814D01*
X133696989Y-110749818D01*
X133692954Y-110752960D01*
X133689492Y-110756719D01*
X133689485Y-110756727D01*
X133543313Y-110915511D01*
X133543304Y-110915521D01*
X133539844Y-110919281D01*
X133537048Y-110923560D01*
X133537036Y-110923576D01*
X133453807Y-111050967D01*
X133409016Y-111092200D01*
X133349998Y-111107145D01*
X133290981Y-111092199D01*
X133246190Y-111050966D01*
X133162961Y-110923573D01*
X133162955Y-110923565D01*
X133160156Y-110919281D01*
X133156688Y-110915514D01*
X133156686Y-110915511D01*
X133010514Y-110756727D01*
X133010512Y-110756725D01*
X133007046Y-110752960D01*
X132951945Y-110710073D01*
X132832694Y-110617255D01*
X132832691Y-110617253D01*
X132828649Y-110614107D01*
X132703366Y-110546307D01*
X132634335Y-110508949D01*
X132634330Y-110508947D01*
X132629831Y-110506512D01*
X132624990Y-110504850D01*
X132624983Y-110504847D01*
X132420867Y-110434775D01*
X132420866Y-110434774D01*
X132416014Y-110433109D01*
X132410964Y-110432266D01*
X132410955Y-110432264D01*
X132198095Y-110396744D01*
X132198086Y-110396743D01*
X132193033Y-110395900D01*
X131966967Y-110395900D01*
X131961914Y-110396743D01*
X131961904Y-110396744D01*
X131749044Y-110432264D01*
X131749032Y-110432266D01*
X131743986Y-110433109D01*
X131739136Y-110434773D01*
X131739132Y-110434775D01*
X131535016Y-110504847D01*
X131535005Y-110504851D01*
X131530169Y-110506512D01*
X131525673Y-110508944D01*
X131525664Y-110508949D01*
X131335857Y-110611668D01*
X131335852Y-110611670D01*
X131331351Y-110614107D01*
X131327314Y-110617248D01*
X131327305Y-110617255D01*
X131156995Y-110749814D01*
X131156989Y-110749818D01*
X131152954Y-110752960D01*
X131149492Y-110756719D01*
X131149485Y-110756727D01*
X131003313Y-110915511D01*
X131003304Y-110915521D01*
X130999844Y-110919281D01*
X130997048Y-110923560D01*
X130997036Y-110923576D01*
X130913807Y-111050967D01*
X130869016Y-111092200D01*
X130809998Y-111107145D01*
X130750981Y-111092199D01*
X130706190Y-111050966D01*
X130622961Y-110923573D01*
X130622955Y-110923565D01*
X130620156Y-110919281D01*
X130616688Y-110915514D01*
X130616686Y-110915511D01*
X130470514Y-110756727D01*
X130470512Y-110756725D01*
X130467046Y-110752960D01*
X130411945Y-110710073D01*
X130292694Y-110617255D01*
X130292691Y-110617253D01*
X130288649Y-110614107D01*
X130163366Y-110546307D01*
X130094335Y-110508949D01*
X130094330Y-110508947D01*
X130089831Y-110506512D01*
X130084990Y-110504850D01*
X130084983Y-110504847D01*
X129880867Y-110434775D01*
X129880866Y-110434774D01*
X129876014Y-110433109D01*
X129870964Y-110432266D01*
X129870955Y-110432264D01*
X129658095Y-110396744D01*
X129658086Y-110396743D01*
X129653033Y-110395900D01*
X129426967Y-110395900D01*
X129421914Y-110396743D01*
X129421904Y-110396744D01*
X129209044Y-110432264D01*
X129209032Y-110432266D01*
X129203986Y-110433109D01*
X129199136Y-110434773D01*
X129199132Y-110434775D01*
X128995016Y-110504847D01*
X128995005Y-110504851D01*
X128990169Y-110506512D01*
X128985673Y-110508944D01*
X128985664Y-110508949D01*
X128795857Y-110611668D01*
X128795852Y-110611670D01*
X128791351Y-110614107D01*
X128787314Y-110617248D01*
X128787305Y-110617255D01*
X128616995Y-110749814D01*
X128616989Y-110749818D01*
X128612954Y-110752960D01*
X128609492Y-110756719D01*
X128609485Y-110756727D01*
X128463313Y-110915511D01*
X128463304Y-110915521D01*
X128459844Y-110919281D01*
X128457048Y-110923560D01*
X128457036Y-110923576D01*
X128373807Y-111050967D01*
X128329016Y-111092200D01*
X128269998Y-111107145D01*
X128210981Y-111092199D01*
X128166190Y-111050966D01*
X128082961Y-110923573D01*
X128082955Y-110923565D01*
X128080156Y-110919281D01*
X128076688Y-110915514D01*
X128076686Y-110915511D01*
X127930514Y-110756727D01*
X127930512Y-110756725D01*
X127927046Y-110752960D01*
X127871945Y-110710073D01*
X127752694Y-110617255D01*
X127752691Y-110617253D01*
X127748649Y-110614107D01*
X127623366Y-110546307D01*
X127554335Y-110508949D01*
X127554330Y-110508947D01*
X127549831Y-110506512D01*
X127544990Y-110504850D01*
X127544983Y-110504847D01*
X127340867Y-110434775D01*
X127340866Y-110434774D01*
X127336014Y-110433109D01*
X127330964Y-110432266D01*
X127330955Y-110432264D01*
X127118095Y-110396744D01*
X127118086Y-110396743D01*
X127113033Y-110395900D01*
X126886967Y-110395900D01*
X126881914Y-110396743D01*
X126881904Y-110396744D01*
X126669044Y-110432264D01*
X126669032Y-110432266D01*
X126663986Y-110433109D01*
X126659136Y-110434773D01*
X126659132Y-110434775D01*
X126455016Y-110504847D01*
X126455005Y-110504851D01*
X126450169Y-110506512D01*
X126445673Y-110508944D01*
X126445664Y-110508949D01*
X126255857Y-110611668D01*
X126255852Y-110611670D01*
X126251351Y-110614107D01*
X126247314Y-110617248D01*
X126247305Y-110617255D01*
X126076995Y-110749814D01*
X126076989Y-110749818D01*
X126072954Y-110752960D01*
X126069492Y-110756719D01*
X126069485Y-110756727D01*
X125923313Y-110915511D01*
X125923304Y-110915521D01*
X125919844Y-110919281D01*
X125917049Y-110923558D01*
X125917042Y-110923568D01*
X125833809Y-111050967D01*
X125796198Y-111108535D01*
X125794143Y-111113219D01*
X125794138Y-111113229D01*
X125751440Y-111210572D01*
X125705389Y-111315559D01*
X125704131Y-111320524D01*
X125704130Y-111320529D01*
X125651152Y-111529732D01*
X125651150Y-111529741D01*
X125649893Y-111534707D01*
X125649469Y-111539814D01*
X125649468Y-111539825D01*
X125633097Y-111737410D01*
X125631225Y-111760000D01*
X123288775Y-111760000D01*
X123270107Y-111534707D01*
X123214611Y-111315559D01*
X123123802Y-111108535D01*
X123000156Y-110919281D01*
X122996688Y-110915514D01*
X122996686Y-110915511D01*
X122850514Y-110756727D01*
X122850512Y-110756725D01*
X122847046Y-110752960D01*
X122791945Y-110710073D01*
X122672694Y-110617255D01*
X122672691Y-110617253D01*
X122668649Y-110614107D01*
X122543366Y-110546307D01*
X122474335Y-110508949D01*
X122474330Y-110508947D01*
X122469831Y-110506512D01*
X122464990Y-110504850D01*
X122464983Y-110504847D01*
X122260867Y-110434775D01*
X122260866Y-110434774D01*
X122256014Y-110433109D01*
X122250964Y-110432266D01*
X122250955Y-110432264D01*
X122038095Y-110396744D01*
X122038086Y-110396743D01*
X122033033Y-110395900D01*
X121806967Y-110395900D01*
X121801914Y-110396743D01*
X121801904Y-110396744D01*
X121589044Y-110432264D01*
X121589032Y-110432266D01*
X121583986Y-110433109D01*
X121579136Y-110434773D01*
X121579132Y-110434775D01*
X121375016Y-110504847D01*
X121375005Y-110504851D01*
X121370169Y-110506512D01*
X121365673Y-110508944D01*
X121365664Y-110508949D01*
X121175857Y-110611668D01*
X121175852Y-110611670D01*
X121171351Y-110614107D01*
X121167314Y-110617248D01*
X121167305Y-110617255D01*
X120996995Y-110749814D01*
X120996989Y-110749818D01*
X120992954Y-110752960D01*
X120989495Y-110756717D01*
X120989477Y-110756734D01*
X120938184Y-110812453D01*
X120885560Y-110846307D01*
X120823106Y-110850154D01*
X120766725Y-110823015D01*
X120730774Y-110771802D01*
X120690052Y-110662622D01*
X120681637Y-110647210D01*
X120606101Y-110546307D01*
X120593692Y-110533898D01*
X120492789Y-110458362D01*
X120477377Y-110449947D01*
X120358241Y-110405511D01*
X120343267Y-110401973D01*
X120294714Y-110396753D01*
X120288118Y-110396400D01*
X119646326Y-110396400D01*
X119633450Y-110399850D01*
X119630000Y-110412726D01*
X119630000Y-113107274D01*
X119130000Y-113107274D01*
X119130000Y-112026326D01*
X119126549Y-112013450D01*
X119113674Y-112010000D01*
X117106326Y-112010000D01*
X117093450Y-112013450D01*
X117090000Y-112026326D01*
X117090000Y-113107274D01*
X116590000Y-113107274D01*
X116590000Y-111493674D01*
X117090000Y-111493674D01*
X117093450Y-111506549D01*
X117106326Y-111510000D01*
X119113674Y-111510000D01*
X119126549Y-111506549D01*
X119130000Y-111493674D01*
X119130000Y-110412726D01*
X119126549Y-110399850D01*
X119113674Y-110396400D01*
X118471882Y-110396400D01*
X118465285Y-110396753D01*
X118416732Y-110401973D01*
X118401758Y-110405511D01*
X118282622Y-110449947D01*
X118267210Y-110458362D01*
X118184311Y-110520421D01*
X118136358Y-110542320D01*
X118083642Y-110542320D01*
X118035689Y-110520421D01*
X117952789Y-110458362D01*
X117937377Y-110449947D01*
X117818241Y-110405511D01*
X117803267Y-110401973D01*
X117754714Y-110396753D01*
X117748118Y-110396400D01*
X117106326Y-110396400D01*
X117093450Y-110399850D01*
X117090000Y-110412726D01*
X117090000Y-111493674D01*
X116590000Y-111493674D01*
X116590000Y-110412726D01*
X116586549Y-110399850D01*
X116573674Y-110396400D01*
X115931882Y-110396400D01*
X115925285Y-110396753D01*
X115876732Y-110401973D01*
X115861758Y-110405511D01*
X115742622Y-110449947D01*
X115727210Y-110458362D01*
X115626307Y-110533898D01*
X115613898Y-110546307D01*
X115538362Y-110647210D01*
X115529948Y-110662620D01*
X115489225Y-110771803D01*
X115453273Y-110823016D01*
X115396892Y-110850154D01*
X115334438Y-110846306D01*
X115281814Y-110812453D01*
X115230515Y-110756728D01*
X115230513Y-110756726D01*
X115227046Y-110752960D01*
X115171945Y-110710073D01*
X115052694Y-110617255D01*
X115052691Y-110617253D01*
X115048649Y-110614107D01*
X114923366Y-110546307D01*
X114854335Y-110508949D01*
X114854330Y-110508947D01*
X114849831Y-110506512D01*
X114844990Y-110504850D01*
X114844983Y-110504847D01*
X114640867Y-110434775D01*
X114640866Y-110434774D01*
X114636014Y-110433109D01*
X114630964Y-110432266D01*
X114630955Y-110432264D01*
X114418095Y-110396744D01*
X114418086Y-110396743D01*
X114413033Y-110395900D01*
X114186967Y-110395900D01*
X114181914Y-110396743D01*
X114181904Y-110396744D01*
X113969044Y-110432264D01*
X113969032Y-110432266D01*
X113963986Y-110433109D01*
X113959136Y-110434773D01*
X113959132Y-110434775D01*
X113755016Y-110504847D01*
X113755005Y-110504851D01*
X113750169Y-110506512D01*
X113745673Y-110508944D01*
X113745664Y-110508949D01*
X113555857Y-110611668D01*
X113555852Y-110611670D01*
X113551351Y-110614107D01*
X113547314Y-110617248D01*
X113547305Y-110617255D01*
X113376995Y-110749814D01*
X113376989Y-110749818D01*
X113372954Y-110752960D01*
X113369492Y-110756719D01*
X113369485Y-110756727D01*
X113223313Y-110915511D01*
X113223304Y-110915521D01*
X113219844Y-110919281D01*
X113217048Y-110923560D01*
X113217036Y-110923576D01*
X113133807Y-111050967D01*
X113089016Y-111092200D01*
X113029998Y-111107145D01*
X112970981Y-111092199D01*
X112926190Y-111050966D01*
X112842961Y-110923573D01*
X112842955Y-110923565D01*
X112840156Y-110919281D01*
X112836688Y-110915514D01*
X112836686Y-110915511D01*
X112690514Y-110756727D01*
X112690512Y-110756725D01*
X112687046Y-110752960D01*
X112631945Y-110710073D01*
X112512694Y-110617255D01*
X112512691Y-110617253D01*
X112508649Y-110614107D01*
X112383366Y-110546307D01*
X112314335Y-110508949D01*
X112314330Y-110508947D01*
X112309831Y-110506512D01*
X112304990Y-110504850D01*
X112304983Y-110504847D01*
X112100867Y-110434775D01*
X112100866Y-110434774D01*
X112096014Y-110433109D01*
X112090964Y-110432266D01*
X112090955Y-110432264D01*
X111878095Y-110396744D01*
X111878086Y-110396743D01*
X111873033Y-110395900D01*
X111646967Y-110395900D01*
X111641914Y-110396743D01*
X111641904Y-110396744D01*
X111429044Y-110432264D01*
X111429032Y-110432266D01*
X111423986Y-110433109D01*
X111419136Y-110434773D01*
X111419132Y-110434775D01*
X111215016Y-110504847D01*
X111215005Y-110504851D01*
X111210169Y-110506512D01*
X111205673Y-110508944D01*
X111205664Y-110508949D01*
X111015857Y-110611668D01*
X111015852Y-110611670D01*
X111011351Y-110614107D01*
X111007314Y-110617248D01*
X111007305Y-110617255D01*
X110836995Y-110749814D01*
X110836989Y-110749818D01*
X110832954Y-110752960D01*
X110829492Y-110756719D01*
X110829485Y-110756727D01*
X110683313Y-110915511D01*
X110683304Y-110915521D01*
X110679844Y-110919281D01*
X110677048Y-110923560D01*
X110677036Y-110923576D01*
X110593807Y-111050967D01*
X110549016Y-111092200D01*
X110489998Y-111107145D01*
X110430981Y-111092199D01*
X110386190Y-111050966D01*
X110302961Y-110923573D01*
X110302955Y-110923565D01*
X110300156Y-110919281D01*
X110296688Y-110915514D01*
X110296686Y-110915511D01*
X110150514Y-110756727D01*
X110150512Y-110756725D01*
X110147046Y-110752960D01*
X110091945Y-110710073D01*
X109972694Y-110617255D01*
X109972691Y-110617253D01*
X109968649Y-110614107D01*
X109843366Y-110546307D01*
X109774335Y-110508949D01*
X109774330Y-110508947D01*
X109769831Y-110506512D01*
X109764990Y-110504850D01*
X109764983Y-110504847D01*
X109560867Y-110434775D01*
X109560866Y-110434774D01*
X109556014Y-110433109D01*
X109550964Y-110432266D01*
X109550955Y-110432264D01*
X109338095Y-110396744D01*
X109338086Y-110396743D01*
X109333033Y-110395900D01*
X109106967Y-110395900D01*
X109101914Y-110396743D01*
X109101904Y-110396744D01*
X108889044Y-110432264D01*
X108889032Y-110432266D01*
X108883986Y-110433109D01*
X108879136Y-110434773D01*
X108879132Y-110434775D01*
X108675016Y-110504847D01*
X108675005Y-110504851D01*
X108670169Y-110506512D01*
X108665673Y-110508944D01*
X108665664Y-110508949D01*
X108475857Y-110611668D01*
X108475852Y-110611670D01*
X108471351Y-110614107D01*
X108467314Y-110617248D01*
X108467305Y-110617255D01*
X108296995Y-110749814D01*
X108296989Y-110749818D01*
X108292954Y-110752960D01*
X108289492Y-110756719D01*
X108289485Y-110756727D01*
X108143313Y-110915511D01*
X108143304Y-110915521D01*
X108139844Y-110919281D01*
X108137048Y-110923560D01*
X108137036Y-110923576D01*
X108053807Y-111050967D01*
X108009016Y-111092200D01*
X107949998Y-111107145D01*
X107890981Y-111092199D01*
X107846190Y-111050966D01*
X107762961Y-110923573D01*
X107762955Y-110923565D01*
X107760156Y-110919281D01*
X107756688Y-110915514D01*
X107756686Y-110915511D01*
X107610514Y-110756727D01*
X107610512Y-110756725D01*
X107607046Y-110752960D01*
X107551945Y-110710073D01*
X107432694Y-110617255D01*
X107432691Y-110617253D01*
X107428649Y-110614107D01*
X107303366Y-110546307D01*
X107234335Y-110508949D01*
X107234330Y-110508947D01*
X107229831Y-110506512D01*
X107224990Y-110504850D01*
X107224983Y-110504847D01*
X107020867Y-110434775D01*
X107020866Y-110434774D01*
X107016014Y-110433109D01*
X107010964Y-110432266D01*
X107010955Y-110432264D01*
X106798095Y-110396744D01*
X106798086Y-110396743D01*
X106793033Y-110395900D01*
X106566967Y-110395900D01*
X106561914Y-110396743D01*
X106561904Y-110396744D01*
X106349044Y-110432264D01*
X106349032Y-110432266D01*
X106343986Y-110433109D01*
X106339136Y-110434773D01*
X106339132Y-110434775D01*
X106135016Y-110504847D01*
X106135005Y-110504851D01*
X106130169Y-110506512D01*
X106125673Y-110508944D01*
X106125664Y-110508949D01*
X105935857Y-110611668D01*
X105935852Y-110611670D01*
X105931351Y-110614107D01*
X105927314Y-110617248D01*
X105927305Y-110617255D01*
X105756995Y-110749814D01*
X105756989Y-110749818D01*
X105752954Y-110752960D01*
X105749492Y-110756719D01*
X105749485Y-110756727D01*
X105603313Y-110915511D01*
X105603304Y-110915521D01*
X105599844Y-110919281D01*
X105597048Y-110923560D01*
X105597036Y-110923576D01*
X105513807Y-111050967D01*
X105469016Y-111092200D01*
X105409998Y-111107145D01*
X105350981Y-111092199D01*
X105306190Y-111050966D01*
X105222961Y-110923573D01*
X105222955Y-110923565D01*
X105220156Y-110919281D01*
X105216688Y-110915514D01*
X105216686Y-110915511D01*
X105070514Y-110756727D01*
X105070512Y-110756725D01*
X105067046Y-110752960D01*
X105011945Y-110710073D01*
X104892694Y-110617255D01*
X104892691Y-110617253D01*
X104888649Y-110614107D01*
X104763366Y-110546307D01*
X104694335Y-110508949D01*
X104694330Y-110508947D01*
X104689831Y-110506512D01*
X104684990Y-110504850D01*
X104684983Y-110504847D01*
X104480867Y-110434775D01*
X104480866Y-110434774D01*
X104476014Y-110433109D01*
X104470964Y-110432266D01*
X104470955Y-110432264D01*
X104258095Y-110396744D01*
X104258086Y-110396743D01*
X104253033Y-110395900D01*
X104026967Y-110395900D01*
X104021914Y-110396743D01*
X104021904Y-110396744D01*
X103809044Y-110432264D01*
X103809032Y-110432266D01*
X103803986Y-110433109D01*
X103799136Y-110434773D01*
X103799132Y-110434775D01*
X103595016Y-110504847D01*
X103595005Y-110504851D01*
X103590169Y-110506512D01*
X103585673Y-110508944D01*
X103585664Y-110508949D01*
X103395857Y-110611668D01*
X103395852Y-110611670D01*
X103391351Y-110614107D01*
X103387314Y-110617248D01*
X103387305Y-110617255D01*
X103216995Y-110749814D01*
X103216989Y-110749818D01*
X103212954Y-110752960D01*
X103209492Y-110756719D01*
X103209485Y-110756727D01*
X103063313Y-110915511D01*
X103063304Y-110915521D01*
X103059844Y-110919281D01*
X103057049Y-110923558D01*
X103057042Y-110923568D01*
X102973809Y-111050967D01*
X102936198Y-111108535D01*
X102934143Y-111113219D01*
X102934138Y-111113229D01*
X102891440Y-111210572D01*
X102845389Y-111315559D01*
X102844131Y-111320524D01*
X102844130Y-111320529D01*
X102791152Y-111529732D01*
X102791150Y-111529741D01*
X102789893Y-111534707D01*
X102789469Y-111539814D01*
X102789468Y-111539825D01*
X102773097Y-111737410D01*
X102771225Y-111760000D01*
X92105431Y-111760000D01*
X92085731Y-111484559D01*
X92027032Y-111214726D01*
X91930530Y-110955993D01*
X91798188Y-110713627D01*
X91632701Y-110492562D01*
X91437438Y-110297299D01*
X91216373Y-110131812D01*
X90974007Y-109999470D01*
X90969864Y-109997924D01*
X90969858Y-109997922D01*
X90719427Y-109904517D01*
X90715274Y-109902968D01*
X90699033Y-109899435D01*
X90449774Y-109845211D01*
X90449765Y-109845209D01*
X90445441Y-109844269D01*
X90441027Y-109843953D01*
X90441018Y-109843952D01*
X90241154Y-109829658D01*
X90241152Y-109829657D01*
X90238944Y-109829500D01*
X90101056Y-109829500D01*
X90098848Y-109829657D01*
X90098845Y-109829658D01*
X89898981Y-109843952D01*
X89898970Y-109843953D01*
X89894559Y-109844269D01*
X89890235Y-109845209D01*
X89890225Y-109845211D01*
X89629060Y-109902025D01*
X89629057Y-109902025D01*
X89624726Y-109902968D01*
X89620576Y-109904515D01*
X89620572Y-109904517D01*
X89370141Y-109997922D01*
X89370130Y-109997926D01*
X89365993Y-109999470D01*
X89362111Y-110001589D01*
X89362106Y-110001592D01*
X89127521Y-110129685D01*
X89127513Y-110129689D01*
X89123627Y-110131812D01*
X89120077Y-110134469D01*
X89120073Y-110134472D01*
X88906113Y-110294640D01*
X88906106Y-110294645D01*
X88902562Y-110297299D01*
X88899431Y-110300429D01*
X88899424Y-110300436D01*
X88710436Y-110489424D01*
X88710429Y-110489431D01*
X88707299Y-110492562D01*
X88704645Y-110496106D01*
X88704640Y-110496113D01*
X88554057Y-110697269D01*
X88541812Y-110713627D01*
X88539689Y-110717513D01*
X88539685Y-110717521D01*
X88427171Y-110923576D01*
X88409470Y-110955993D01*
X88407926Y-110960130D01*
X88407922Y-110960141D01*
X88350824Y-111113229D01*
X88312968Y-111214726D01*
X88312025Y-111219057D01*
X88312025Y-111219060D01*
X88255211Y-111480225D01*
X88255209Y-111480235D01*
X88254269Y-111484559D01*
X88253953Y-111488970D01*
X88253952Y-111488981D01*
X88252696Y-111506549D01*
X88234569Y-111760000D01*
X75892500Y-111760000D01*
X75892500Y-106680000D01*
X140304569Y-106680000D01*
X140304885Y-106684418D01*
X140323952Y-106951018D01*
X140323953Y-106951027D01*
X140324269Y-106955441D01*
X140325209Y-106959765D01*
X140325211Y-106959774D01*
X140379435Y-107209033D01*
X140382968Y-107225274D01*
X140384517Y-107229427D01*
X140477922Y-107479858D01*
X140477924Y-107479864D01*
X140479470Y-107484007D01*
X140611812Y-107726373D01*
X140777299Y-107947438D01*
X140972562Y-108142701D01*
X141193627Y-108308188D01*
X141435993Y-108440530D01*
X141694726Y-108537032D01*
X141964559Y-108595731D01*
X142171056Y-108610500D01*
X142306729Y-108610500D01*
X142308944Y-108610500D01*
X142515441Y-108595731D01*
X142785274Y-108537032D01*
X143044007Y-108440530D01*
X143286373Y-108308188D01*
X143507438Y-108142701D01*
X143702701Y-107947438D01*
X143868188Y-107726373D01*
X144000530Y-107484007D01*
X144097032Y-107225274D01*
X144155731Y-106955441D01*
X144175431Y-106680000D01*
X144155731Y-106404559D01*
X144097032Y-106134726D01*
X144000530Y-105875993D01*
X143868188Y-105633627D01*
X143702701Y-105412562D01*
X143507438Y-105217299D01*
X143286373Y-105051812D01*
X143044007Y-104919470D01*
X143039864Y-104917924D01*
X143039858Y-104917922D01*
X142789427Y-104824517D01*
X142785274Y-104822968D01*
X142769033Y-104819435D01*
X142519774Y-104765211D01*
X142519765Y-104765209D01*
X142515441Y-104764269D01*
X142511027Y-104763953D01*
X142511018Y-104763952D01*
X142311154Y-104749658D01*
X142311152Y-104749657D01*
X142308944Y-104749500D01*
X142171056Y-104749500D01*
X142168848Y-104749657D01*
X142168845Y-104749658D01*
X141968981Y-104763952D01*
X141968970Y-104763953D01*
X141964559Y-104764269D01*
X141960235Y-104765209D01*
X141960225Y-104765211D01*
X141699060Y-104822025D01*
X141699057Y-104822025D01*
X141694726Y-104822968D01*
X141690576Y-104824515D01*
X141690572Y-104824517D01*
X141440141Y-104917922D01*
X141440130Y-104917926D01*
X141435993Y-104919470D01*
X141432111Y-104921589D01*
X141432106Y-104921592D01*
X141197521Y-105049685D01*
X141197513Y-105049689D01*
X141193627Y-105051812D01*
X141190077Y-105054469D01*
X141190073Y-105054472D01*
X140976113Y-105214640D01*
X140976106Y-105214645D01*
X140972562Y-105217299D01*
X140969431Y-105220429D01*
X140969424Y-105220436D01*
X140780436Y-105409424D01*
X140780429Y-105409431D01*
X140777299Y-105412562D01*
X140774645Y-105416106D01*
X140774640Y-105416113D01*
X140675938Y-105547964D01*
X140611812Y-105633627D01*
X140609689Y-105637513D01*
X140609685Y-105637521D01*
X140496691Y-105844455D01*
X140479470Y-105875993D01*
X140477926Y-105880130D01*
X140477922Y-105880141D01*
X140418485Y-106039500D01*
X140382968Y-106134726D01*
X140382025Y-106139057D01*
X140382025Y-106139060D01*
X140325211Y-106400225D01*
X140325209Y-106400235D01*
X140324269Y-106404559D01*
X140323953Y-106408970D01*
X140323952Y-106408981D01*
X140305324Y-106669431D01*
X140304569Y-106680000D01*
X75892500Y-106680000D01*
X75892500Y-105664000D01*
X129266587Y-105664000D01*
X129267367Y-105670923D01*
X129285398Y-105830957D01*
X129285399Y-105830964D01*
X129286179Y-105837881D01*
X129288478Y-105844452D01*
X129288479Y-105844455D01*
X129298154Y-105872106D01*
X129343971Y-106003042D01*
X129347672Y-106008932D01*
X129347673Y-106008934D01*
X129426714Y-106134726D01*
X129437067Y-106151203D01*
X129560797Y-106274933D01*
X129708958Y-106368029D01*
X129874119Y-106425821D01*
X130048000Y-106445413D01*
X130221881Y-106425821D01*
X130387042Y-106368029D01*
X130535203Y-106274933D01*
X130658933Y-106151203D01*
X130752029Y-106003042D01*
X130809821Y-105837881D01*
X130829413Y-105664000D01*
X130826429Y-105637521D01*
X130810601Y-105497042D01*
X130809821Y-105490119D01*
X130752029Y-105324958D01*
X130658933Y-105176797D01*
X130535203Y-105053067D01*
X130387042Y-104959971D01*
X130380476Y-104957673D01*
X130380473Y-104957672D01*
X130228455Y-104904479D01*
X130228452Y-104904478D01*
X130221881Y-104902179D01*
X130214964Y-104901399D01*
X130214957Y-104901398D01*
X130054923Y-104883367D01*
X130048000Y-104882587D01*
X130041077Y-104883367D01*
X129881042Y-104901398D01*
X129881033Y-104901399D01*
X129874119Y-104902179D01*
X129867549Y-104904477D01*
X129867544Y-104904479D01*
X129715526Y-104957672D01*
X129715520Y-104957674D01*
X129708958Y-104959971D01*
X129703070Y-104963670D01*
X129703065Y-104963673D01*
X129566697Y-105049359D01*
X129566692Y-105049362D01*
X129560797Y-105053067D01*
X129555872Y-105057991D01*
X129555868Y-105057995D01*
X129441995Y-105171868D01*
X129441991Y-105171872D01*
X129437067Y-105176797D01*
X129433362Y-105182692D01*
X129433359Y-105182697D01*
X129347673Y-105319065D01*
X129347670Y-105319070D01*
X129343971Y-105324958D01*
X129341674Y-105331520D01*
X129341672Y-105331526D01*
X129288479Y-105483544D01*
X129288477Y-105483549D01*
X129286179Y-105490119D01*
X129285399Y-105497033D01*
X129285398Y-105497042D01*
X129267367Y-105657077D01*
X129266587Y-105664000D01*
X75892500Y-105664000D01*
X75892500Y-102108000D01*
X103358587Y-102108000D01*
X103359367Y-102114923D01*
X103377398Y-102274957D01*
X103377399Y-102274964D01*
X103378179Y-102281881D01*
X103435971Y-102447042D01*
X103529067Y-102595203D01*
X103652797Y-102718933D01*
X103800958Y-102812029D01*
X103966119Y-102869821D01*
X104140000Y-102889413D01*
X104313881Y-102869821D01*
X104479042Y-102812029D01*
X104627203Y-102718933D01*
X104750933Y-102595203D01*
X104844029Y-102447042D01*
X104901821Y-102281881D01*
X104921413Y-102108000D01*
X104901821Y-101934119D01*
X104844029Y-101768958D01*
X104750933Y-101620797D01*
X104627203Y-101497067D01*
X104479042Y-101403971D01*
X104472476Y-101401673D01*
X104472473Y-101401672D01*
X104320455Y-101348479D01*
X104320452Y-101348478D01*
X104313881Y-101346179D01*
X104306964Y-101345399D01*
X104306957Y-101345398D01*
X104146923Y-101327367D01*
X104140000Y-101326587D01*
X104133077Y-101327367D01*
X103973042Y-101345398D01*
X103973033Y-101345399D01*
X103966119Y-101346179D01*
X103959549Y-101348477D01*
X103959544Y-101348479D01*
X103807526Y-101401672D01*
X103807520Y-101401674D01*
X103800958Y-101403971D01*
X103795070Y-101407670D01*
X103795065Y-101407673D01*
X103658697Y-101493359D01*
X103658692Y-101493362D01*
X103652797Y-101497067D01*
X103647872Y-101501991D01*
X103647868Y-101501995D01*
X103533995Y-101615868D01*
X103533991Y-101615872D01*
X103529067Y-101620797D01*
X103525362Y-101626692D01*
X103525359Y-101626697D01*
X103439673Y-101763065D01*
X103439670Y-101763070D01*
X103435971Y-101768958D01*
X103433674Y-101775520D01*
X103433672Y-101775526D01*
X103380479Y-101927544D01*
X103380477Y-101927549D01*
X103378179Y-101934119D01*
X103377399Y-101941033D01*
X103377398Y-101941042D01*
X103371661Y-101991964D01*
X103358587Y-102108000D01*
X75892500Y-102108000D01*
X75892500Y-100330000D01*
X90942659Y-100330000D01*
X90943256Y-100336062D01*
X90961378Y-100520067D01*
X90961379Y-100520073D01*
X90961976Y-100526132D01*
X90963743Y-100531957D01*
X90963744Y-100531962D01*
X91011885Y-100690660D01*
X91019186Y-100714727D01*
X91022055Y-100720095D01*
X91022057Y-100720099D01*
X91109215Y-100883161D01*
X91109219Y-100883167D01*
X91112090Y-100888538D01*
X91237117Y-101040883D01*
X91389462Y-101165910D01*
X91394834Y-101168781D01*
X91394838Y-101168784D01*
X91536839Y-101244684D01*
X91563273Y-101258814D01*
X91751868Y-101316024D01*
X91948000Y-101335341D01*
X92144132Y-101316024D01*
X92332727Y-101258814D01*
X92506538Y-101165910D01*
X92658883Y-101040883D01*
X92783910Y-100888538D01*
X92854643Y-100756205D01*
X92900251Y-100708302D01*
X92964000Y-100690660D01*
X93027749Y-100708302D01*
X93073356Y-100756205D01*
X93144090Y-100888538D01*
X93269117Y-101040883D01*
X93421462Y-101165910D01*
X93426834Y-101168781D01*
X93426838Y-101168784D01*
X93568839Y-101244684D01*
X93595273Y-101258814D01*
X93783868Y-101316024D01*
X93980000Y-101335341D01*
X94176132Y-101316024D01*
X94364727Y-101258814D01*
X94538538Y-101165910D01*
X94690883Y-101040883D01*
X94815910Y-100888538D01*
X94908814Y-100714727D01*
X94966024Y-100526132D01*
X94985341Y-100330000D01*
X94966500Y-100138703D01*
X97298217Y-100138703D01*
X97305650Y-100146814D01*
X97363077Y-100187025D01*
X97372427Y-100192423D01*
X97568768Y-100283979D01*
X97578902Y-100287667D01*
X97788162Y-100343739D01*
X97798793Y-100345613D01*
X98014605Y-100364494D01*
X98025395Y-100364494D01*
X98241206Y-100345613D01*
X98251837Y-100343739D01*
X98303111Y-100330000D01*
X111770659Y-100330000D01*
X111771256Y-100336062D01*
X111789378Y-100520067D01*
X111789379Y-100520073D01*
X111789976Y-100526132D01*
X111791743Y-100531957D01*
X111791744Y-100531962D01*
X111839885Y-100690660D01*
X111847186Y-100714727D01*
X111850055Y-100720095D01*
X111850057Y-100720099D01*
X111937215Y-100883161D01*
X111937219Y-100883167D01*
X111940090Y-100888538D01*
X112065117Y-101040883D01*
X112217462Y-101165910D01*
X112222834Y-101168781D01*
X112222838Y-101168784D01*
X112364839Y-101244684D01*
X112391273Y-101258814D01*
X112579868Y-101316024D01*
X112776000Y-101335341D01*
X112972132Y-101316024D01*
X113160727Y-101258814D01*
X113334538Y-101165910D01*
X113486883Y-101040883D01*
X113611910Y-100888538D01*
X113682643Y-100756205D01*
X113728251Y-100708302D01*
X113792000Y-100690660D01*
X113855749Y-100708302D01*
X113901356Y-100756205D01*
X113972090Y-100888538D01*
X114097117Y-101040883D01*
X114249462Y-101165910D01*
X114254834Y-101168781D01*
X114254838Y-101168784D01*
X114396839Y-101244684D01*
X114423273Y-101258814D01*
X114611868Y-101316024D01*
X114808000Y-101335341D01*
X115004132Y-101316024D01*
X115192727Y-101258814D01*
X115366538Y-101165910D01*
X115518883Y-101040883D01*
X115643910Y-100888538D01*
X115736814Y-100714727D01*
X115794024Y-100526132D01*
X115813341Y-100330000D01*
X115794500Y-100138703D01*
X118150217Y-100138703D01*
X118157650Y-100146814D01*
X118215077Y-100187025D01*
X118224427Y-100192423D01*
X118420768Y-100283979D01*
X118430902Y-100287667D01*
X118640162Y-100343739D01*
X118650793Y-100345613D01*
X118866605Y-100364494D01*
X118877395Y-100364494D01*
X119093206Y-100345613D01*
X119103837Y-100343739D01*
X119313097Y-100287667D01*
X119323231Y-100283979D01*
X119519575Y-100192422D01*
X119528920Y-100187026D01*
X119586348Y-100146814D01*
X119593780Y-100138703D01*
X119587867Y-100129421D01*
X118883542Y-99425095D01*
X118872000Y-99418431D01*
X118860457Y-99425095D01*
X118156128Y-100129424D01*
X118150217Y-100138703D01*
X115794500Y-100138703D01*
X115794024Y-100133868D01*
X115736814Y-99945273D01*
X115649426Y-99781781D01*
X115646784Y-99776838D01*
X115646781Y-99776834D01*
X115643910Y-99771462D01*
X115518883Y-99619117D01*
X115366538Y-99494090D01*
X115361162Y-99491216D01*
X115361160Y-99491215D01*
X115221041Y-99416320D01*
X115181669Y-99383160D01*
X115159155Y-99336869D01*
X115157446Y-99287393D01*
X115157635Y-99286692D01*
X115176996Y-99065395D01*
X117567506Y-99065395D01*
X117586386Y-99281206D01*
X117588259Y-99291828D01*
X117644332Y-99501097D01*
X117648020Y-99511231D01*
X117739576Y-99707572D01*
X117744974Y-99716922D01*
X117785184Y-99774348D01*
X117793295Y-99781781D01*
X117802574Y-99775870D01*
X118506903Y-99071542D01*
X118513567Y-99060000D01*
X118513566Y-99059999D01*
X119230431Y-99059999D01*
X119237095Y-99071541D01*
X119941421Y-99775867D01*
X119950703Y-99781780D01*
X119958814Y-99774348D01*
X119999026Y-99716920D01*
X120004422Y-99707575D01*
X120095979Y-99511231D01*
X120099667Y-99501097D01*
X120155741Y-99291828D01*
X120157613Y-99281206D01*
X120176494Y-99065395D01*
X120176494Y-99054605D01*
X120169967Y-98980000D01*
X130774532Y-98980000D01*
X130775004Y-98985395D01*
X130790349Y-99160795D01*
X130794365Y-99206692D01*
X130795762Y-99211907D01*
X130795764Y-99211916D01*
X130851858Y-99421263D01*
X130851861Y-99421271D01*
X130853261Y-99426496D01*
X130949432Y-99632734D01*
X130952539Y-99637171D01*
X130952540Y-99637173D01*
X131013763Y-99724609D01*
X131079953Y-99819139D01*
X131240861Y-99980047D01*
X131427266Y-100110568D01*
X131633504Y-100206739D01*
X131853308Y-100265635D01*
X132080000Y-100285468D01*
X132306692Y-100265635D01*
X132526496Y-100206739D01*
X132732734Y-100110568D01*
X132919139Y-99980047D01*
X133080047Y-99819139D01*
X133210568Y-99632734D01*
X133306739Y-99426496D01*
X133365635Y-99206692D01*
X133385468Y-98980000D01*
X133365635Y-98753308D01*
X133306739Y-98533504D01*
X133210568Y-98327266D01*
X133080047Y-98140861D01*
X132919139Y-97979953D01*
X132817133Y-97908528D01*
X132737173Y-97852540D01*
X132737171Y-97852539D01*
X132732734Y-97849432D01*
X132618628Y-97796223D01*
X132531405Y-97755550D01*
X132531403Y-97755549D01*
X132526496Y-97753261D01*
X132521271Y-97751861D01*
X132521263Y-97751858D01*
X132311916Y-97695764D01*
X132311907Y-97695762D01*
X132306692Y-97694365D01*
X132301304Y-97693893D01*
X132301301Y-97693893D01*
X132085395Y-97675004D01*
X132080000Y-97674532D01*
X132074605Y-97675004D01*
X131858698Y-97693893D01*
X131858693Y-97693893D01*
X131853308Y-97694365D01*
X131848094Y-97695762D01*
X131848083Y-97695764D01*
X131638736Y-97751858D01*
X131638724Y-97751862D01*
X131633504Y-97753261D01*
X131628599Y-97755547D01*
X131628594Y-97755550D01*
X131432176Y-97847142D01*
X131432172Y-97847144D01*
X131427266Y-97849432D01*
X131422833Y-97852535D01*
X131422826Y-97852540D01*
X131245296Y-97976847D01*
X131245291Y-97976850D01*
X131240861Y-97979953D01*
X131237037Y-97983776D01*
X131237031Y-97983782D01*
X131083782Y-98137031D01*
X131083776Y-98137037D01*
X131079953Y-98140861D01*
X131076850Y-98145291D01*
X131076847Y-98145296D01*
X130952540Y-98322826D01*
X130952535Y-98322833D01*
X130949432Y-98327266D01*
X130947144Y-98332172D01*
X130947142Y-98332176D01*
X130855550Y-98528594D01*
X130855547Y-98528599D01*
X130853261Y-98533504D01*
X130851862Y-98538724D01*
X130851858Y-98538736D01*
X130795764Y-98748083D01*
X130795762Y-98748094D01*
X130794365Y-98753308D01*
X130793893Y-98758693D01*
X130793893Y-98758698D01*
X130783309Y-98879679D01*
X130774532Y-98980000D01*
X120169967Y-98980000D01*
X120157613Y-98838793D01*
X120155739Y-98828162D01*
X120099667Y-98618902D01*
X120095979Y-98608768D01*
X120004423Y-98412427D01*
X119999025Y-98403077D01*
X119958814Y-98345650D01*
X119950703Y-98338217D01*
X119941424Y-98344128D01*
X119237095Y-99048456D01*
X119230431Y-99059999D01*
X118513566Y-99059999D01*
X118506903Y-99048457D01*
X117802574Y-98344128D01*
X117793296Y-98338217D01*
X117785183Y-98345651D01*
X117744971Y-98403081D01*
X117739577Y-98412425D01*
X117648020Y-98608768D01*
X117644332Y-98618902D01*
X117588260Y-98828162D01*
X117586386Y-98838793D01*
X117567506Y-99054605D01*
X117567506Y-99065395D01*
X115176996Y-99065395D01*
X115177468Y-99060000D01*
X115157635Y-98833308D01*
X115157446Y-98832602D01*
X115159155Y-98783128D01*
X115181669Y-98736838D01*
X115221038Y-98703681D01*
X115366538Y-98625910D01*
X115518883Y-98500883D01*
X115643910Y-98348538D01*
X115736814Y-98174727D01*
X115794024Y-97986132D01*
X115794500Y-97981296D01*
X118150217Y-97981296D01*
X118156128Y-97990574D01*
X118860456Y-98694903D01*
X118871998Y-98701567D01*
X118883541Y-98694903D01*
X119587870Y-97990574D01*
X119593781Y-97981295D01*
X119586348Y-97973184D01*
X119528922Y-97932974D01*
X119519572Y-97927576D01*
X119323231Y-97836020D01*
X119313097Y-97832332D01*
X119103837Y-97776260D01*
X119093206Y-97774386D01*
X118877395Y-97755506D01*
X118866605Y-97755506D01*
X118650793Y-97774386D01*
X118640162Y-97776260D01*
X118430902Y-97832332D01*
X118420768Y-97836020D01*
X118224425Y-97927577D01*
X118215081Y-97932971D01*
X118157651Y-97973183D01*
X118150217Y-97981296D01*
X115794500Y-97981296D01*
X115813341Y-97790000D01*
X115794024Y-97593868D01*
X115736814Y-97405273D01*
X115688135Y-97314201D01*
X115646784Y-97236838D01*
X115646781Y-97236834D01*
X115643910Y-97231462D01*
X115518883Y-97079117D01*
X115456597Y-97028000D01*
X135646659Y-97028000D01*
X135647256Y-97034062D01*
X135665378Y-97218067D01*
X135665379Y-97218073D01*
X135665976Y-97224132D01*
X135667743Y-97229957D01*
X135667744Y-97229962D01*
X135720925Y-97405273D01*
X135723186Y-97412727D01*
X135726055Y-97418095D01*
X135726057Y-97418099D01*
X135813215Y-97581161D01*
X135813219Y-97581167D01*
X135816090Y-97586538D01*
X135941117Y-97738883D01*
X136093462Y-97863910D01*
X136098834Y-97866781D01*
X136098838Y-97866784D01*
X136240839Y-97942684D01*
X136267273Y-97956814D01*
X136455868Y-98014024D01*
X136652000Y-98033341D01*
X136848132Y-98014024D01*
X137036727Y-97956814D01*
X137210538Y-97863910D01*
X137362883Y-97738883D01*
X137487910Y-97586538D01*
X137580814Y-97412727D01*
X137638024Y-97224132D01*
X137655492Y-97046778D01*
X137656744Y-97034062D01*
X137657341Y-97028000D01*
X137638024Y-96831868D01*
X137580814Y-96643273D01*
X137539946Y-96566814D01*
X137490784Y-96474838D01*
X137490781Y-96474834D01*
X137487910Y-96469462D01*
X137362883Y-96317117D01*
X137246434Y-96221549D01*
X137215250Y-96195957D01*
X137215249Y-96195956D01*
X137210538Y-96192090D01*
X137078206Y-96121357D01*
X137030301Y-96075747D01*
X137012660Y-96011998D01*
X137030302Y-95948250D01*
X137078203Y-95902644D01*
X137210538Y-95831910D01*
X137362883Y-95706883D01*
X137487910Y-95554538D01*
X137580814Y-95380727D01*
X137638024Y-95192132D01*
X137657341Y-94996000D01*
X137638024Y-94799868D01*
X137580814Y-94611273D01*
X137487910Y-94437462D01*
X137362883Y-94285117D01*
X137210538Y-94160090D01*
X137205167Y-94157219D01*
X137205161Y-94157215D01*
X137042099Y-94070057D01*
X137042095Y-94070055D01*
X137036727Y-94067186D01*
X137030899Y-94065418D01*
X136853962Y-94011744D01*
X136853957Y-94011743D01*
X136848132Y-94009976D01*
X136842073Y-94009379D01*
X136842067Y-94009378D01*
X136658062Y-93991256D01*
X136652000Y-93990659D01*
X136645938Y-93991256D01*
X136461932Y-94009378D01*
X136461924Y-94009379D01*
X136455868Y-94009976D01*
X136450044Y-94011742D01*
X136450037Y-94011744D01*
X136273100Y-94065418D01*
X136273096Y-94065419D01*
X136267273Y-94067186D01*
X136261907Y-94070053D01*
X136261900Y-94070057D01*
X136098838Y-94157215D01*
X136098827Y-94157222D01*
X136093462Y-94160090D01*
X136088754Y-94163953D01*
X136088749Y-94163957D01*
X135945823Y-94281254D01*
X135945818Y-94281258D01*
X135941117Y-94285117D01*
X135937258Y-94289818D01*
X135937254Y-94289823D01*
X135819957Y-94432749D01*
X135819953Y-94432754D01*
X135816090Y-94437462D01*
X135813222Y-94442827D01*
X135813215Y-94442838D01*
X135726057Y-94605900D01*
X135726053Y-94605907D01*
X135723186Y-94611273D01*
X135721419Y-94617096D01*
X135721418Y-94617100D01*
X135667744Y-94794037D01*
X135667742Y-94794044D01*
X135665976Y-94799868D01*
X135665379Y-94805924D01*
X135665378Y-94805932D01*
X135662769Y-94832425D01*
X135646659Y-94996000D01*
X135647256Y-95002062D01*
X135665378Y-95186067D01*
X135665379Y-95186073D01*
X135665976Y-95192132D01*
X135667743Y-95197957D01*
X135667744Y-95197962D01*
X135721418Y-95374899D01*
X135723186Y-95380727D01*
X135726055Y-95386095D01*
X135726057Y-95386099D01*
X135813215Y-95549161D01*
X135813219Y-95549167D01*
X135816090Y-95554538D01*
X135941117Y-95706883D01*
X136093462Y-95831910D01*
X136098834Y-95834781D01*
X136098838Y-95834784D01*
X136225792Y-95902642D01*
X136273697Y-95948251D01*
X136291339Y-96012000D01*
X136273697Y-96075749D01*
X136225792Y-96121358D01*
X136098838Y-96189215D01*
X136098827Y-96189222D01*
X136093462Y-96192090D01*
X136088754Y-96195953D01*
X136088749Y-96195957D01*
X135945823Y-96313254D01*
X135945818Y-96313258D01*
X135941117Y-96317117D01*
X135937258Y-96321818D01*
X135937254Y-96321823D01*
X135819957Y-96464749D01*
X135819953Y-96464754D01*
X135816090Y-96469462D01*
X135813222Y-96474827D01*
X135813215Y-96474838D01*
X135726057Y-96637900D01*
X135726053Y-96637907D01*
X135723186Y-96643273D01*
X135721419Y-96649096D01*
X135721418Y-96649100D01*
X135667744Y-96826037D01*
X135667742Y-96826044D01*
X135665976Y-96831868D01*
X135665379Y-96837924D01*
X135665378Y-96837932D01*
X135652712Y-96966544D01*
X135646659Y-97028000D01*
X115456597Y-97028000D01*
X115366538Y-96954090D01*
X115361167Y-96951219D01*
X115361161Y-96951215D01*
X115198099Y-96864057D01*
X115198095Y-96864055D01*
X115192727Y-96861186D01*
X115186899Y-96859418D01*
X115009962Y-96805744D01*
X115009957Y-96805743D01*
X115004132Y-96803976D01*
X114998073Y-96803379D01*
X114998067Y-96803378D01*
X114814062Y-96785256D01*
X114808000Y-96784659D01*
X114801938Y-96785256D01*
X114617932Y-96803378D01*
X114617924Y-96803379D01*
X114611868Y-96803976D01*
X114606044Y-96805742D01*
X114606037Y-96805744D01*
X114429100Y-96859418D01*
X114429096Y-96859419D01*
X114423273Y-96861186D01*
X114417907Y-96864053D01*
X114417900Y-96864057D01*
X114254838Y-96951215D01*
X114254827Y-96951222D01*
X114249462Y-96954090D01*
X114244754Y-96957953D01*
X114244749Y-96957957D01*
X114101823Y-97075254D01*
X114101818Y-97075258D01*
X114097117Y-97079117D01*
X114093258Y-97083818D01*
X114093254Y-97083823D01*
X113975957Y-97226749D01*
X113975953Y-97226754D01*
X113972090Y-97231462D01*
X113969222Y-97236827D01*
X113969215Y-97236838D01*
X113901358Y-97363792D01*
X113855749Y-97411697D01*
X113792000Y-97429339D01*
X113728251Y-97411697D01*
X113682642Y-97363792D01*
X113614784Y-97236838D01*
X113614781Y-97236834D01*
X113611910Y-97231462D01*
X113486883Y-97079117D01*
X113334538Y-96954090D01*
X113329167Y-96951219D01*
X113329161Y-96951215D01*
X113166099Y-96864057D01*
X113166095Y-96864055D01*
X113160727Y-96861186D01*
X113154899Y-96859418D01*
X112977962Y-96805744D01*
X112977957Y-96805743D01*
X112972132Y-96803976D01*
X112966073Y-96803379D01*
X112966067Y-96803378D01*
X112782062Y-96785256D01*
X112776000Y-96784659D01*
X112769938Y-96785256D01*
X112585932Y-96803378D01*
X112585924Y-96803379D01*
X112579868Y-96803976D01*
X112574044Y-96805742D01*
X112574037Y-96805744D01*
X112397100Y-96859418D01*
X112397096Y-96859419D01*
X112391273Y-96861186D01*
X112385907Y-96864053D01*
X112385900Y-96864057D01*
X112222838Y-96951215D01*
X112222827Y-96951222D01*
X112217462Y-96954090D01*
X112212754Y-96957953D01*
X112212749Y-96957957D01*
X112069823Y-97075254D01*
X112069818Y-97075258D01*
X112065117Y-97079117D01*
X112061258Y-97083818D01*
X112061254Y-97083823D01*
X111943957Y-97226749D01*
X111943953Y-97226754D01*
X111940090Y-97231462D01*
X111937222Y-97236827D01*
X111937215Y-97236838D01*
X111850057Y-97399900D01*
X111850053Y-97399907D01*
X111847186Y-97405273D01*
X111845419Y-97411096D01*
X111845418Y-97411100D01*
X111791744Y-97588037D01*
X111791742Y-97588044D01*
X111789976Y-97593868D01*
X111789379Y-97599924D01*
X111789378Y-97599932D01*
X111773580Y-97760343D01*
X111770659Y-97790000D01*
X111771256Y-97796062D01*
X111789378Y-97980067D01*
X111789379Y-97980073D01*
X111789976Y-97986132D01*
X111791743Y-97991957D01*
X111791744Y-97991962D01*
X111804527Y-98034100D01*
X111847186Y-98174727D01*
X111850055Y-98180095D01*
X111850057Y-98180099D01*
X111937215Y-98343161D01*
X111937219Y-98343167D01*
X111940090Y-98348538D01*
X111943956Y-98353249D01*
X111943957Y-98353250D01*
X111992521Y-98412425D01*
X112065117Y-98500883D01*
X112217462Y-98625910D01*
X112222834Y-98628781D01*
X112222838Y-98628784D01*
X112346539Y-98694903D01*
X112391273Y-98718814D01*
X112494775Y-98750211D01*
X112543216Y-98778061D01*
X112574512Y-98824350D01*
X112582308Y-98879679D01*
X112566532Y-99060000D01*
X112567004Y-99065394D01*
X112567004Y-99065395D01*
X112582308Y-99240320D01*
X112574512Y-99295648D01*
X112543216Y-99341937D01*
X112494776Y-99369787D01*
X112397106Y-99399415D01*
X112397091Y-99399420D01*
X112391273Y-99401186D01*
X112385907Y-99404053D01*
X112385900Y-99404057D01*
X112222838Y-99491215D01*
X112222827Y-99491222D01*
X112217462Y-99494090D01*
X112212754Y-99497953D01*
X112212749Y-99497957D01*
X112069823Y-99615254D01*
X112069818Y-99615258D01*
X112065117Y-99619117D01*
X112061258Y-99623818D01*
X112061254Y-99623823D01*
X111943957Y-99766749D01*
X111943953Y-99766754D01*
X111940090Y-99771462D01*
X111937222Y-99776827D01*
X111937215Y-99776838D01*
X111850057Y-99939900D01*
X111850053Y-99939907D01*
X111847186Y-99945273D01*
X111845419Y-99951096D01*
X111845418Y-99951100D01*
X111791744Y-100128037D01*
X111791742Y-100128044D01*
X111789976Y-100133868D01*
X111789379Y-100139924D01*
X111789378Y-100139932D01*
X111775091Y-100284996D01*
X111770659Y-100330000D01*
X98303111Y-100330000D01*
X98461097Y-100287667D01*
X98471231Y-100283979D01*
X98667575Y-100192422D01*
X98676920Y-100187026D01*
X98734348Y-100146814D01*
X98741780Y-100138703D01*
X98735867Y-100129421D01*
X98031542Y-99425095D01*
X98020000Y-99418431D01*
X98008457Y-99425095D01*
X97304128Y-100129424D01*
X97298217Y-100138703D01*
X94966500Y-100138703D01*
X94966024Y-100133868D01*
X94908814Y-99945273D01*
X94821426Y-99781781D01*
X94818784Y-99776838D01*
X94818781Y-99776834D01*
X94815910Y-99771462D01*
X94690883Y-99619117D01*
X94538538Y-99494090D01*
X94533167Y-99491219D01*
X94533161Y-99491215D01*
X94370916Y-99404494D01*
X94333802Y-99374149D01*
X94310973Y-99331993D01*
X94305841Y-99284332D01*
X94324996Y-99065395D01*
X96715506Y-99065395D01*
X96734386Y-99281206D01*
X96736259Y-99291828D01*
X96792332Y-99501097D01*
X96796020Y-99511231D01*
X96887576Y-99707572D01*
X96892974Y-99716922D01*
X96933184Y-99774348D01*
X96941295Y-99781781D01*
X96950574Y-99775870D01*
X97654903Y-99071542D01*
X97661567Y-99060000D01*
X97661566Y-99059999D01*
X98378431Y-99059999D01*
X98385095Y-99071541D01*
X99089421Y-99775867D01*
X99098703Y-99781780D01*
X99106814Y-99774348D01*
X99147026Y-99716920D01*
X99152422Y-99707575D01*
X99243979Y-99511231D01*
X99247667Y-99501097D01*
X99303741Y-99291828D01*
X99305613Y-99281206D01*
X99324494Y-99065395D01*
X99324494Y-99054605D01*
X99305613Y-98838793D01*
X99303739Y-98828162D01*
X99247667Y-98618902D01*
X99243979Y-98608768D01*
X99152423Y-98412427D01*
X99147025Y-98403077D01*
X99106814Y-98345650D01*
X99098703Y-98338217D01*
X99089424Y-98344128D01*
X98385095Y-99048456D01*
X98378431Y-99059999D01*
X97661566Y-99059999D01*
X97654903Y-99048457D01*
X96950574Y-98344128D01*
X96941296Y-98338217D01*
X96933183Y-98345651D01*
X96892971Y-98403081D01*
X96887577Y-98412425D01*
X96796020Y-98608768D01*
X96792332Y-98618902D01*
X96736260Y-98828162D01*
X96734386Y-98838793D01*
X96715506Y-99054605D01*
X96715506Y-99065395D01*
X94324996Y-99065395D01*
X94325468Y-99060000D01*
X94305841Y-98835667D01*
X94310973Y-98788006D01*
X94333802Y-98745850D01*
X94370912Y-98715507D01*
X94538538Y-98625910D01*
X94690883Y-98500883D01*
X94815910Y-98348538D01*
X94908814Y-98174727D01*
X94966024Y-97986132D01*
X94966500Y-97981296D01*
X97298217Y-97981296D01*
X97304128Y-97990574D01*
X98008456Y-98694903D01*
X98019998Y-98701567D01*
X98031541Y-98694903D01*
X98735870Y-97990574D01*
X98741781Y-97981295D01*
X98734348Y-97973184D01*
X98676922Y-97932974D01*
X98667572Y-97927576D01*
X98471231Y-97836020D01*
X98461097Y-97832332D01*
X98251837Y-97776260D01*
X98241206Y-97774386D01*
X98025395Y-97755506D01*
X98014605Y-97755506D01*
X97798793Y-97774386D01*
X97788162Y-97776260D01*
X97578902Y-97832332D01*
X97568768Y-97836020D01*
X97372425Y-97927577D01*
X97363081Y-97932971D01*
X97305651Y-97973183D01*
X97298217Y-97981296D01*
X94966500Y-97981296D01*
X94985341Y-97790000D01*
X94966024Y-97593868D01*
X94908814Y-97405273D01*
X94860135Y-97314201D01*
X94818784Y-97236838D01*
X94818781Y-97236834D01*
X94815910Y-97231462D01*
X94690883Y-97079117D01*
X94538538Y-96954090D01*
X94533167Y-96951219D01*
X94533161Y-96951215D01*
X94370099Y-96864057D01*
X94370095Y-96864055D01*
X94364727Y-96861186D01*
X94358899Y-96859418D01*
X94181962Y-96805744D01*
X94181957Y-96805743D01*
X94176132Y-96803976D01*
X94170073Y-96803379D01*
X94170067Y-96803378D01*
X93986062Y-96785256D01*
X93980000Y-96784659D01*
X93973938Y-96785256D01*
X93789932Y-96803378D01*
X93789924Y-96803379D01*
X93783868Y-96803976D01*
X93778044Y-96805742D01*
X93778037Y-96805744D01*
X93601100Y-96859418D01*
X93601096Y-96859419D01*
X93595273Y-96861186D01*
X93589907Y-96864053D01*
X93589900Y-96864057D01*
X93426838Y-96951215D01*
X93426827Y-96951222D01*
X93421462Y-96954090D01*
X93416754Y-96957953D01*
X93416749Y-96957957D01*
X93273823Y-97075254D01*
X93273818Y-97075258D01*
X93269117Y-97079117D01*
X93265258Y-97083818D01*
X93265254Y-97083823D01*
X93147957Y-97226749D01*
X93147953Y-97226754D01*
X93144090Y-97231462D01*
X93141222Y-97236827D01*
X93141215Y-97236838D01*
X93073358Y-97363792D01*
X93027749Y-97411697D01*
X92964000Y-97429339D01*
X92900251Y-97411697D01*
X92854642Y-97363792D01*
X92786784Y-97236838D01*
X92786781Y-97236834D01*
X92783910Y-97231462D01*
X92658883Y-97079117D01*
X92506538Y-96954090D01*
X92501167Y-96951219D01*
X92501161Y-96951215D01*
X92338099Y-96864057D01*
X92338095Y-96864055D01*
X92332727Y-96861186D01*
X92326899Y-96859418D01*
X92149962Y-96805744D01*
X92149957Y-96805743D01*
X92144132Y-96803976D01*
X92138073Y-96803379D01*
X92138067Y-96803378D01*
X91954062Y-96785256D01*
X91948000Y-96784659D01*
X91941938Y-96785256D01*
X91757932Y-96803378D01*
X91757924Y-96803379D01*
X91751868Y-96803976D01*
X91746044Y-96805742D01*
X91746037Y-96805744D01*
X91569100Y-96859418D01*
X91569096Y-96859419D01*
X91563273Y-96861186D01*
X91557907Y-96864053D01*
X91557900Y-96864057D01*
X91394838Y-96951215D01*
X91394827Y-96951222D01*
X91389462Y-96954090D01*
X91384754Y-96957953D01*
X91384749Y-96957957D01*
X91241823Y-97075254D01*
X91241818Y-97075258D01*
X91237117Y-97079117D01*
X91233258Y-97083818D01*
X91233254Y-97083823D01*
X91115957Y-97226749D01*
X91115953Y-97226754D01*
X91112090Y-97231462D01*
X91109222Y-97236827D01*
X91109215Y-97236838D01*
X91022057Y-97399900D01*
X91022053Y-97399907D01*
X91019186Y-97405273D01*
X91017419Y-97411096D01*
X91017418Y-97411100D01*
X90963744Y-97588037D01*
X90963742Y-97588044D01*
X90961976Y-97593868D01*
X90961379Y-97599924D01*
X90961378Y-97599932D01*
X90945580Y-97760343D01*
X90942659Y-97790000D01*
X90943256Y-97796062D01*
X90961378Y-97980067D01*
X90961379Y-97980073D01*
X90961976Y-97986132D01*
X90963743Y-97991957D01*
X90963744Y-97991962D01*
X90976527Y-98034100D01*
X91019186Y-98174727D01*
X91022055Y-98180095D01*
X91022057Y-98180099D01*
X91109215Y-98343161D01*
X91109219Y-98343167D01*
X91112090Y-98348538D01*
X91115956Y-98353249D01*
X91115957Y-98353250D01*
X91164521Y-98412425D01*
X91237117Y-98500883D01*
X91389462Y-98625910D01*
X91394834Y-98628781D01*
X91394838Y-98628784D01*
X91518539Y-98694903D01*
X91563273Y-98718814D01*
X91643394Y-98743118D01*
X91691835Y-98770968D01*
X91723131Y-98817257D01*
X91730928Y-98872586D01*
X91723901Y-98952908D01*
X91714532Y-99060000D01*
X91715004Y-99065394D01*
X91715004Y-99065395D01*
X91730928Y-99247413D01*
X91723132Y-99302742D01*
X91691836Y-99349030D01*
X91643397Y-99376880D01*
X91569103Y-99399417D01*
X91569098Y-99399418D01*
X91563273Y-99401186D01*
X91557901Y-99404057D01*
X91557897Y-99404059D01*
X91394838Y-99491215D01*
X91394827Y-99491222D01*
X91389462Y-99494090D01*
X91384754Y-99497953D01*
X91384749Y-99497957D01*
X91241823Y-99615254D01*
X91241818Y-99615258D01*
X91237117Y-99619117D01*
X91233258Y-99623818D01*
X91233254Y-99623823D01*
X91115957Y-99766749D01*
X91115953Y-99766754D01*
X91112090Y-99771462D01*
X91109222Y-99776827D01*
X91109215Y-99776838D01*
X91022057Y-99939900D01*
X91022053Y-99939907D01*
X91019186Y-99945273D01*
X91017419Y-99951096D01*
X91017418Y-99951100D01*
X90963744Y-100128037D01*
X90963742Y-100128044D01*
X90961976Y-100133868D01*
X90961379Y-100139924D01*
X90961378Y-100139932D01*
X90947091Y-100284996D01*
X90942659Y-100330000D01*
X75892500Y-100330000D01*
X75892500Y-98265346D01*
X81908202Y-98265346D01*
X81908425Y-98270600D01*
X81908425Y-98270605D01*
X81918096Y-98498266D01*
X81918320Y-98503532D01*
X81919427Y-98508673D01*
X81919429Y-98508681D01*
X81967435Y-98731428D01*
X81968546Y-98736581D01*
X81970511Y-98741471D01*
X82009618Y-98838793D01*
X82057436Y-98957790D01*
X82060192Y-98962266D01*
X82060193Y-98962268D01*
X82179672Y-99156315D01*
X82179675Y-99156319D01*
X82182431Y-99160795D01*
X82185904Y-99164741D01*
X82185907Y-99164745D01*
X82227423Y-99211916D01*
X82339936Y-99339755D01*
X82525420Y-99489523D01*
X82733546Y-99605790D01*
X82958329Y-99685211D01*
X83193300Y-99725500D01*
X85169366Y-99725500D01*
X85171997Y-99725500D01*
X85350041Y-99710346D01*
X85580749Y-99650275D01*
X85797986Y-99552077D01*
X85995503Y-99418579D01*
X86167618Y-99253621D01*
X86309379Y-99061947D01*
X86416707Y-98849074D01*
X86486516Y-98621123D01*
X86516798Y-98384654D01*
X86506680Y-98146468D01*
X86456454Y-97913419D01*
X86367564Y-97692210D01*
X86300823Y-97583815D01*
X86245327Y-97493684D01*
X86245325Y-97493682D01*
X86242569Y-97489205D01*
X86085064Y-97310245D01*
X85899580Y-97160477D01*
X85792886Y-97100874D01*
X85696051Y-97046778D01*
X85696050Y-97046777D01*
X85691454Y-97044210D01*
X85686488Y-97042455D01*
X85686485Y-97042454D01*
X85471640Y-96966544D01*
X85471632Y-96966542D01*
X85466671Y-96964789D01*
X85461481Y-96963899D01*
X85461473Y-96963897D01*
X85236893Y-96925390D01*
X85236888Y-96925389D01*
X85231700Y-96924500D01*
X83253003Y-96924500D01*
X83250387Y-96924722D01*
X83250378Y-96924723D01*
X83080212Y-96939206D01*
X83080201Y-96939207D01*
X83074959Y-96939654D01*
X83069860Y-96940981D01*
X83069858Y-96940982D01*
X82849346Y-96998398D01*
X82849341Y-96998399D01*
X82844251Y-96999725D01*
X82839458Y-97001891D01*
X82839451Y-97001894D01*
X82631817Y-97095751D01*
X82631808Y-97095755D01*
X82627014Y-97097923D01*
X82622651Y-97100871D01*
X82622647Y-97100874D01*
X82433864Y-97228469D01*
X82433860Y-97228471D01*
X82429497Y-97231421D01*
X82425697Y-97235062D01*
X82425692Y-97235067D01*
X82261185Y-97392733D01*
X82261178Y-97392740D01*
X82257382Y-97396379D01*
X82254254Y-97400608D01*
X82254249Y-97400614D01*
X82118754Y-97583815D01*
X82118747Y-97583826D01*
X82115621Y-97588053D01*
X82113252Y-97592750D01*
X82113248Y-97592758D01*
X82039574Y-97738883D01*
X82008293Y-97800926D01*
X82006752Y-97805956D01*
X82006751Y-97805960D01*
X81940026Y-98023840D01*
X81940024Y-98023846D01*
X81938484Y-98028877D01*
X81937815Y-98034098D01*
X81937815Y-98034100D01*
X81919119Y-98180099D01*
X81908202Y-98265346D01*
X75892500Y-98265346D01*
X75892500Y-96558703D01*
X131358217Y-96558703D01*
X131365650Y-96566814D01*
X131423077Y-96607025D01*
X131432427Y-96612423D01*
X131628768Y-96703979D01*
X131638902Y-96707667D01*
X131848162Y-96763739D01*
X131858793Y-96765613D01*
X132074605Y-96784494D01*
X132085395Y-96784494D01*
X132301206Y-96765613D01*
X132311837Y-96763739D01*
X132521097Y-96707667D01*
X132531231Y-96703979D01*
X132727575Y-96612422D01*
X132736920Y-96607026D01*
X132794348Y-96566814D01*
X132801780Y-96558703D01*
X132795867Y-96549421D01*
X132091542Y-95845095D01*
X132080000Y-95838431D01*
X132068457Y-95845095D01*
X131364128Y-96549424D01*
X131358217Y-96558703D01*
X75892500Y-96558703D01*
X75892500Y-95521829D01*
X81912501Y-95521829D01*
X81912821Y-95528111D01*
X81922305Y-95620959D01*
X81925123Y-95634122D01*
X81975870Y-95787267D01*
X81981932Y-95800266D01*
X82066390Y-95937194D01*
X82075294Y-95948455D01*
X82189044Y-96062205D01*
X82200305Y-96071109D01*
X82337233Y-96155567D01*
X82350232Y-96161629D01*
X82503374Y-96212375D01*
X82516541Y-96215194D01*
X82609390Y-96224680D01*
X82615668Y-96225000D01*
X83946174Y-96225000D01*
X83959049Y-96221549D01*
X83962500Y-96208674D01*
X83962500Y-96208673D01*
X84462500Y-96208673D01*
X84465950Y-96221548D01*
X84478826Y-96224999D01*
X85809329Y-96224999D01*
X85815611Y-96224678D01*
X85908459Y-96215194D01*
X85921622Y-96212376D01*
X86074767Y-96161629D01*
X86087766Y-96155567D01*
X86224694Y-96071109D01*
X86235955Y-96062205D01*
X86349705Y-95948455D01*
X86358609Y-95937194D01*
X86443067Y-95800266D01*
X86449129Y-95787267D01*
X86499875Y-95634125D01*
X86502694Y-95620958D01*
X86512180Y-95528109D01*
X86512500Y-95521832D01*
X86512500Y-95485395D01*
X130775506Y-95485395D01*
X130794386Y-95701206D01*
X130796260Y-95711837D01*
X130852332Y-95921097D01*
X130856020Y-95931231D01*
X130947576Y-96127572D01*
X130952974Y-96136922D01*
X130993184Y-96194348D01*
X131001295Y-96201781D01*
X131010574Y-96195870D01*
X131714903Y-95491542D01*
X131721567Y-95480000D01*
X132438431Y-95480000D01*
X132445095Y-95491542D01*
X133149421Y-96195867D01*
X133158703Y-96201780D01*
X133166814Y-96194348D01*
X133207026Y-96136920D01*
X133212422Y-96127575D01*
X133303979Y-95931231D01*
X133307667Y-95921097D01*
X133363739Y-95711837D01*
X133365613Y-95701206D01*
X133384494Y-95485395D01*
X133384494Y-95474605D01*
X133365613Y-95258793D01*
X133363739Y-95248162D01*
X133307667Y-95038902D01*
X133303979Y-95028768D01*
X133212423Y-94832427D01*
X133207025Y-94823077D01*
X133166814Y-94765650D01*
X133158703Y-94758217D01*
X133149424Y-94764128D01*
X132445095Y-95468457D01*
X132438431Y-95480000D01*
X131721567Y-95480000D01*
X131714903Y-95468457D01*
X131010574Y-94764128D01*
X131001296Y-94758217D01*
X130993183Y-94765651D01*
X130952971Y-94823081D01*
X130947577Y-94832425D01*
X130856020Y-95028768D01*
X130852332Y-95038902D01*
X130796260Y-95248162D01*
X130794386Y-95258793D01*
X130775506Y-95474605D01*
X130775506Y-95485395D01*
X86512500Y-95485395D01*
X86512500Y-95091326D01*
X86509049Y-95078450D01*
X86496174Y-95075000D01*
X84478826Y-95075000D01*
X84465950Y-95078450D01*
X84462500Y-95091326D01*
X84462500Y-96208673D01*
X83962500Y-96208673D01*
X83962500Y-95091326D01*
X83959049Y-95078450D01*
X83946174Y-95075000D01*
X81928827Y-95075000D01*
X81915951Y-95078450D01*
X81912501Y-95091326D01*
X81912501Y-95521829D01*
X75892500Y-95521829D01*
X75892500Y-94558674D01*
X81912500Y-94558674D01*
X81915950Y-94571549D01*
X81928826Y-94575000D01*
X83946174Y-94575000D01*
X83959049Y-94571549D01*
X83962500Y-94558674D01*
X84462500Y-94558674D01*
X84465950Y-94571549D01*
X84478826Y-94575000D01*
X86496173Y-94575000D01*
X86509048Y-94571549D01*
X86512499Y-94558674D01*
X86512499Y-94401296D01*
X131358217Y-94401296D01*
X131364128Y-94410574D01*
X132068456Y-95114903D01*
X132079999Y-95121567D01*
X132091541Y-95114903D01*
X132795870Y-94410574D01*
X132801781Y-94401295D01*
X132794348Y-94393184D01*
X132736922Y-94352974D01*
X132727572Y-94347576D01*
X132531231Y-94256020D01*
X132521097Y-94252332D01*
X132311837Y-94196260D01*
X132301206Y-94194386D01*
X132085395Y-94175506D01*
X132074605Y-94175506D01*
X131858793Y-94194386D01*
X131848162Y-94196260D01*
X131638902Y-94252332D01*
X131628768Y-94256020D01*
X131432425Y-94347577D01*
X131423081Y-94352971D01*
X131365651Y-94393183D01*
X131358217Y-94401296D01*
X86512499Y-94401296D01*
X86512499Y-94128171D01*
X86512178Y-94121888D01*
X86502694Y-94029040D01*
X86499876Y-94015877D01*
X86449129Y-93862732D01*
X86443067Y-93849733D01*
X86358609Y-93712805D01*
X86349705Y-93701544D01*
X86235955Y-93587794D01*
X86224694Y-93578890D01*
X86087766Y-93494432D01*
X86074767Y-93488370D01*
X85921625Y-93437624D01*
X85908458Y-93434805D01*
X85815609Y-93425319D01*
X85809332Y-93425000D01*
X84478826Y-93425000D01*
X84465950Y-93428450D01*
X84462500Y-93441326D01*
X84462500Y-94558674D01*
X83962500Y-94558674D01*
X83962500Y-93441327D01*
X83959049Y-93428451D01*
X83946174Y-93425001D01*
X82615671Y-93425001D01*
X82609388Y-93425321D01*
X82516540Y-93434805D01*
X82503377Y-93437623D01*
X82350232Y-93488370D01*
X82337233Y-93494432D01*
X82200305Y-93578890D01*
X82189044Y-93587794D01*
X82075294Y-93701544D01*
X82066390Y-93712805D01*
X81981932Y-93849733D01*
X81975870Y-93862732D01*
X81925124Y-94015874D01*
X81922305Y-94029041D01*
X81912819Y-94121890D01*
X81912500Y-94128168D01*
X81912500Y-94558674D01*
X75892500Y-94558674D01*
X75892500Y-93218000D01*
X97527656Y-93218000D01*
X97528436Y-93224923D01*
X97543428Y-93357987D01*
X97546970Y-93389418D01*
X97549266Y-93395982D01*
X97549268Y-93395987D01*
X97590647Y-93514240D01*
X97603944Y-93552240D01*
X97695721Y-93698302D01*
X97817698Y-93820279D01*
X97963760Y-93912056D01*
X98126582Y-93969030D01*
X98298000Y-93988344D01*
X98469418Y-93969030D01*
X98632240Y-93912056D01*
X98778302Y-93820279D01*
X98900279Y-93698302D01*
X98992056Y-93552240D01*
X99049030Y-93389418D01*
X99068344Y-93218000D01*
X99064062Y-93180000D01*
X119117656Y-93180000D01*
X119118436Y-93186923D01*
X119122717Y-93224923D01*
X119136970Y-93351418D01*
X119139266Y-93357982D01*
X119139268Y-93357987D01*
X119191646Y-93507674D01*
X119193944Y-93514240D01*
X119285721Y-93660302D01*
X119407698Y-93782279D01*
X119553760Y-93874056D01*
X119716582Y-93931030D01*
X119888000Y-93950344D01*
X120059418Y-93931030D01*
X120222240Y-93874056D01*
X120368302Y-93782279D01*
X120490279Y-93660302D01*
X120582056Y-93514240D01*
X120639030Y-93351418D01*
X120658344Y-93180000D01*
X120639030Y-93008582D01*
X120582056Y-92845760D01*
X120490279Y-92699698D01*
X120368302Y-92577721D01*
X120222240Y-92485944D01*
X120215677Y-92483647D01*
X120215674Y-92483646D01*
X120065987Y-92431268D01*
X120065982Y-92431266D01*
X120059418Y-92428970D01*
X120052498Y-92428190D01*
X120052497Y-92428190D01*
X119894923Y-92410436D01*
X119888000Y-92409656D01*
X119881077Y-92410436D01*
X119723502Y-92428190D01*
X119723499Y-92428190D01*
X119716582Y-92428970D01*
X119710019Y-92431266D01*
X119710012Y-92431268D01*
X119560325Y-92483646D01*
X119560318Y-92483648D01*
X119553760Y-92485944D01*
X119547872Y-92489643D01*
X119547869Y-92489645D01*
X119413598Y-92574013D01*
X119413593Y-92574016D01*
X119407698Y-92577721D01*
X119402773Y-92582645D01*
X119402769Y-92582649D01*
X119290649Y-92694769D01*
X119290645Y-92694773D01*
X119285721Y-92699698D01*
X119282016Y-92705593D01*
X119282013Y-92705598D01*
X119197645Y-92839869D01*
X119197643Y-92839872D01*
X119193944Y-92845760D01*
X119191648Y-92852318D01*
X119191646Y-92852325D01*
X119139268Y-93002012D01*
X119139266Y-93002019D01*
X119136970Y-93008582D01*
X119136190Y-93015499D01*
X119136190Y-93015502D01*
X119132688Y-93046582D01*
X119117656Y-93180000D01*
X99064062Y-93180000D01*
X99049030Y-93046582D01*
X98992056Y-92883760D01*
X98900279Y-92737698D01*
X98778302Y-92615721D01*
X98717825Y-92577721D01*
X98638130Y-92527645D01*
X98632240Y-92523944D01*
X98625677Y-92521647D01*
X98625674Y-92521646D01*
X98475987Y-92469268D01*
X98475982Y-92469266D01*
X98469418Y-92466970D01*
X98462498Y-92466190D01*
X98462497Y-92466190D01*
X98304923Y-92448436D01*
X98298000Y-92447656D01*
X98291077Y-92448436D01*
X98133502Y-92466190D01*
X98133499Y-92466190D01*
X98126582Y-92466970D01*
X98120019Y-92469266D01*
X98120012Y-92469268D01*
X97970325Y-92521646D01*
X97970318Y-92521648D01*
X97963760Y-92523944D01*
X97957872Y-92527643D01*
X97957869Y-92527645D01*
X97823598Y-92612013D01*
X97823593Y-92612016D01*
X97817698Y-92615721D01*
X97812773Y-92620645D01*
X97812769Y-92620649D01*
X97700649Y-92732769D01*
X97700645Y-92732773D01*
X97695721Y-92737698D01*
X97692016Y-92743593D01*
X97692013Y-92743598D01*
X97607645Y-92877869D01*
X97607643Y-92877872D01*
X97603944Y-92883760D01*
X97601648Y-92890318D01*
X97601646Y-92890325D01*
X97549268Y-93040012D01*
X97549266Y-93040019D01*
X97546970Y-93046582D01*
X97546190Y-93053499D01*
X97546190Y-93053502D01*
X97528436Y-93211077D01*
X97527656Y-93218000D01*
X75892500Y-93218000D01*
X75892500Y-90932000D01*
X99051656Y-90932000D01*
X99052436Y-90938923D01*
X99067428Y-91071987D01*
X99070970Y-91103418D01*
X99073266Y-91109982D01*
X99073268Y-91109987D01*
X99116708Y-91234130D01*
X99127944Y-91266240D01*
X99219721Y-91412302D01*
X99341698Y-91534279D01*
X99487760Y-91626056D01*
X99650582Y-91683030D01*
X99822000Y-91702344D01*
X99993418Y-91683030D01*
X100156240Y-91626056D01*
X100302302Y-91534279D01*
X100396581Y-91440000D01*
X102861656Y-91440000D01*
X102862436Y-91446923D01*
X102878596Y-91590353D01*
X102880970Y-91611418D01*
X102883266Y-91617982D01*
X102883268Y-91617987D01*
X102924647Y-91736240D01*
X102937944Y-91774240D01*
X103029721Y-91920302D01*
X103151698Y-92042279D01*
X103297760Y-92134056D01*
X103460582Y-92191030D01*
X103632000Y-92210344D01*
X103803418Y-92191030D01*
X103966240Y-92134056D01*
X104112302Y-92042279D01*
X104234279Y-91920302D01*
X104326056Y-91774240D01*
X104383030Y-91611418D01*
X104402344Y-91440000D01*
X104383030Y-91268582D01*
X104326056Y-91105760D01*
X104234279Y-90959698D01*
X104168581Y-90894000D01*
X120641656Y-90894000D01*
X120642436Y-90900923D01*
X120646717Y-90938923D01*
X120660970Y-91065418D01*
X120663266Y-91071982D01*
X120663268Y-91071987D01*
X120715646Y-91221674D01*
X120717944Y-91228240D01*
X120809721Y-91374302D01*
X120931698Y-91496279D01*
X121077760Y-91588056D01*
X121240582Y-91645030D01*
X121412000Y-91664344D01*
X121583418Y-91645030D01*
X121746240Y-91588056D01*
X121892302Y-91496279D01*
X121986581Y-91402000D01*
X124451656Y-91402000D01*
X124452436Y-91408923D01*
X124462278Y-91496279D01*
X124470970Y-91573418D01*
X124473266Y-91579982D01*
X124473268Y-91579987D01*
X124515810Y-91701564D01*
X124527944Y-91736240D01*
X124619721Y-91882302D01*
X124741698Y-92004279D01*
X124887760Y-92096056D01*
X125050582Y-92153030D01*
X125222000Y-92172344D01*
X125393418Y-92153030D01*
X125556240Y-92096056D01*
X125702302Y-92004279D01*
X125824279Y-91882302D01*
X125916056Y-91736240D01*
X125973030Y-91573418D01*
X125992344Y-91402000D01*
X125973030Y-91230582D01*
X125916056Y-91067760D01*
X125824279Y-90921698D01*
X125702302Y-90799721D01*
X125556240Y-90707944D01*
X125549677Y-90705647D01*
X125549674Y-90705646D01*
X125399987Y-90653268D01*
X125399982Y-90653266D01*
X125393418Y-90650970D01*
X125386498Y-90650190D01*
X125386497Y-90650190D01*
X125228923Y-90632436D01*
X125222000Y-90631656D01*
X125215077Y-90632436D01*
X125057502Y-90650190D01*
X125057499Y-90650190D01*
X125050582Y-90650970D01*
X125044019Y-90653266D01*
X125044012Y-90653268D01*
X124894325Y-90705646D01*
X124894318Y-90705648D01*
X124887760Y-90707944D01*
X124881872Y-90711643D01*
X124881869Y-90711645D01*
X124747598Y-90796013D01*
X124747593Y-90796016D01*
X124741698Y-90799721D01*
X124736773Y-90804645D01*
X124736769Y-90804649D01*
X124624649Y-90916769D01*
X124624645Y-90916773D01*
X124619721Y-90921698D01*
X124616016Y-90927593D01*
X124616013Y-90927598D01*
X124531645Y-91061869D01*
X124531643Y-91061872D01*
X124527944Y-91067760D01*
X124525648Y-91074318D01*
X124525646Y-91074325D01*
X124473268Y-91224012D01*
X124473266Y-91224019D01*
X124470970Y-91230582D01*
X124470190Y-91237499D01*
X124470190Y-91237502D01*
X124452436Y-91395077D01*
X124451656Y-91402000D01*
X121986581Y-91402000D01*
X122014279Y-91374302D01*
X122106056Y-91228240D01*
X122163030Y-91065418D01*
X122182344Y-90894000D01*
X122163030Y-90722582D01*
X122106056Y-90559760D01*
X122014279Y-90413698D01*
X121892302Y-90291721D01*
X121746240Y-90199944D01*
X121739677Y-90197647D01*
X121739674Y-90197646D01*
X121589987Y-90145268D01*
X121589982Y-90145266D01*
X121583418Y-90142970D01*
X121576498Y-90142190D01*
X121576497Y-90142190D01*
X121418923Y-90124436D01*
X121412000Y-90123656D01*
X121405077Y-90124436D01*
X121247502Y-90142190D01*
X121247499Y-90142190D01*
X121240582Y-90142970D01*
X121234019Y-90145266D01*
X121234012Y-90145268D01*
X121084325Y-90197646D01*
X121084318Y-90197648D01*
X121077760Y-90199944D01*
X121071872Y-90203643D01*
X121071869Y-90203645D01*
X120937598Y-90288013D01*
X120937593Y-90288016D01*
X120931698Y-90291721D01*
X120926773Y-90296645D01*
X120926769Y-90296649D01*
X120814649Y-90408769D01*
X120814645Y-90408773D01*
X120809721Y-90413698D01*
X120806016Y-90419593D01*
X120806013Y-90419598D01*
X120721645Y-90553869D01*
X120721643Y-90553872D01*
X120717944Y-90559760D01*
X120715648Y-90566318D01*
X120715646Y-90566325D01*
X120663268Y-90716012D01*
X120663266Y-90716019D01*
X120660970Y-90722582D01*
X120660190Y-90729499D01*
X120660190Y-90729502D01*
X120651723Y-90804649D01*
X120641656Y-90894000D01*
X104168581Y-90894000D01*
X104112302Y-90837721D01*
X104051825Y-90799721D01*
X103972130Y-90749645D01*
X103966240Y-90745944D01*
X103959677Y-90743647D01*
X103959674Y-90743646D01*
X103809987Y-90691268D01*
X103809982Y-90691266D01*
X103803418Y-90688970D01*
X103796498Y-90688190D01*
X103796497Y-90688190D01*
X103638923Y-90670436D01*
X103632000Y-90669656D01*
X103625077Y-90670436D01*
X103467502Y-90688190D01*
X103467499Y-90688190D01*
X103460582Y-90688970D01*
X103454019Y-90691266D01*
X103454012Y-90691268D01*
X103304325Y-90743646D01*
X103304318Y-90743648D01*
X103297760Y-90745944D01*
X103291872Y-90749643D01*
X103291869Y-90749645D01*
X103157598Y-90834013D01*
X103157593Y-90834016D01*
X103151698Y-90837721D01*
X103146773Y-90842645D01*
X103146769Y-90842649D01*
X103034649Y-90954769D01*
X103034645Y-90954773D01*
X103029721Y-90959698D01*
X103026016Y-90965593D01*
X103026013Y-90965598D01*
X102941645Y-91099869D01*
X102941643Y-91099872D01*
X102937944Y-91105760D01*
X102935648Y-91112318D01*
X102935646Y-91112325D01*
X102883268Y-91262012D01*
X102883266Y-91262019D01*
X102880970Y-91268582D01*
X102880190Y-91275499D01*
X102880190Y-91275502D01*
X102862436Y-91433077D01*
X102861656Y-91440000D01*
X100396581Y-91440000D01*
X100424279Y-91412302D01*
X100516056Y-91266240D01*
X100573030Y-91103418D01*
X100592344Y-90932000D01*
X100573030Y-90760582D01*
X100516056Y-90597760D01*
X100424279Y-90451698D01*
X100302302Y-90329721D01*
X100241825Y-90291721D01*
X100162130Y-90241645D01*
X100156240Y-90237944D01*
X100149677Y-90235647D01*
X100149674Y-90235646D01*
X99999987Y-90183268D01*
X99999982Y-90183266D01*
X99993418Y-90180970D01*
X99986498Y-90180190D01*
X99986497Y-90180190D01*
X99828923Y-90162436D01*
X99822000Y-90161656D01*
X99815077Y-90162436D01*
X99657502Y-90180190D01*
X99657499Y-90180190D01*
X99650582Y-90180970D01*
X99644019Y-90183266D01*
X99644012Y-90183268D01*
X99494325Y-90235646D01*
X99494318Y-90235648D01*
X99487760Y-90237944D01*
X99481872Y-90241643D01*
X99481869Y-90241645D01*
X99347598Y-90326013D01*
X99347593Y-90326016D01*
X99341698Y-90329721D01*
X99336773Y-90334645D01*
X99336769Y-90334649D01*
X99224649Y-90446769D01*
X99224645Y-90446773D01*
X99219721Y-90451698D01*
X99216016Y-90457593D01*
X99216013Y-90457598D01*
X99131645Y-90591869D01*
X99131643Y-90591872D01*
X99127944Y-90597760D01*
X99125648Y-90604318D01*
X99125646Y-90604325D01*
X99073268Y-90754012D01*
X99073266Y-90754019D01*
X99070970Y-90760582D01*
X99070190Y-90767499D01*
X99070190Y-90767502D01*
X99053372Y-90916769D01*
X99051656Y-90932000D01*
X75892500Y-90932000D01*
X75892500Y-88900000D01*
X138458225Y-88900000D01*
X138458649Y-88905117D01*
X138476468Y-89120174D01*
X138476469Y-89120183D01*
X138476893Y-89125293D01*
X138478150Y-89130260D01*
X138478152Y-89130267D01*
X138531130Y-89339470D01*
X138532389Y-89344441D01*
X138534449Y-89349137D01*
X138621138Y-89546770D01*
X138621141Y-89546775D01*
X138623198Y-89551465D01*
X138651099Y-89594170D01*
X138744042Y-89736431D01*
X138744045Y-89736435D01*
X138746844Y-89740719D01*
X138750309Y-89744483D01*
X138750313Y-89744488D01*
X138896485Y-89903272D01*
X138899954Y-89907040D01*
X139078351Y-90045893D01*
X139277169Y-90153488D01*
X139490986Y-90226891D01*
X139713967Y-90264100D01*
X139934900Y-90264100D01*
X139940033Y-90264100D01*
X140163014Y-90226891D01*
X140376831Y-90153488D01*
X140575649Y-90045893D01*
X140754046Y-89907040D01*
X140808433Y-89847959D01*
X140861056Y-89814105D01*
X140923511Y-89810257D01*
X140979893Y-89837395D01*
X141015845Y-89888608D01*
X141022720Y-89907040D01*
X141059604Y-90005931D01*
X141064918Y-90013030D01*
X141064919Y-90013031D01*
X141089519Y-90045893D01*
X141145854Y-90121146D01*
X141261069Y-90207396D01*
X141395917Y-90257691D01*
X141455527Y-90264100D01*
X143278472Y-90264099D01*
X143338083Y-90257691D01*
X143472931Y-90207396D01*
X143588146Y-90121146D01*
X143674396Y-90005931D01*
X143724691Y-89871083D01*
X143731100Y-89811473D01*
X143731099Y-87988528D01*
X143724691Y-87928917D01*
X143674396Y-87794069D01*
X143588146Y-87678854D01*
X143500828Y-87613488D01*
X143480031Y-87597919D01*
X143480030Y-87597918D01*
X143472931Y-87592604D01*
X143403004Y-87566523D01*
X143358016Y-87549743D01*
X143308481Y-87515728D01*
X143280754Y-87462417D01*
X143281347Y-87402330D01*
X143310121Y-87349578D01*
X143443680Y-87204495D01*
X143443680Y-87204494D01*
X143447156Y-87200719D01*
X143570802Y-87011465D01*
X143661611Y-86804441D01*
X143717107Y-86585293D01*
X143735775Y-86360000D01*
X143717107Y-86134707D01*
X143661611Y-85915559D01*
X143570802Y-85708535D01*
X143447156Y-85519281D01*
X143443688Y-85515514D01*
X143443686Y-85515511D01*
X143297514Y-85356727D01*
X143297512Y-85356725D01*
X143294046Y-85352960D01*
X143115649Y-85214107D01*
X143111142Y-85211668D01*
X143111133Y-85211662D01*
X143087833Y-85199052D01*
X143040329Y-85153470D01*
X143022853Y-85089996D01*
X143040332Y-85026522D01*
X143087836Y-84980944D01*
X143115649Y-84965893D01*
X143294046Y-84827040D01*
X143447156Y-84660719D01*
X143570802Y-84471465D01*
X143661611Y-84264441D01*
X143717107Y-84045293D01*
X143735775Y-83820000D01*
X143717107Y-83594707D01*
X143661611Y-83375559D01*
X143570802Y-83168535D01*
X143447156Y-82979281D01*
X143443688Y-82975514D01*
X143443686Y-82975511D01*
X143297514Y-82816727D01*
X143297512Y-82816725D01*
X143294046Y-82812960D01*
X143115649Y-82674107D01*
X143085897Y-82658006D01*
X142921335Y-82568949D01*
X142921330Y-82568947D01*
X142916831Y-82566512D01*
X142911990Y-82564850D01*
X142911983Y-82564847D01*
X142707867Y-82494775D01*
X142707866Y-82494774D01*
X142703014Y-82493109D01*
X142697964Y-82492266D01*
X142697955Y-82492264D01*
X142485095Y-82456744D01*
X142485086Y-82456743D01*
X142480033Y-82455900D01*
X142253967Y-82455900D01*
X142248914Y-82456743D01*
X142248904Y-82456744D01*
X142036044Y-82492264D01*
X142036032Y-82492266D01*
X142030986Y-82493109D01*
X142026136Y-82494773D01*
X142026132Y-82494775D01*
X141822016Y-82564847D01*
X141822005Y-82564851D01*
X141817169Y-82566512D01*
X141812673Y-82568944D01*
X141812664Y-82568949D01*
X141622857Y-82671668D01*
X141622852Y-82671670D01*
X141618351Y-82674107D01*
X141614314Y-82677248D01*
X141614305Y-82677255D01*
X141443995Y-82809814D01*
X141443989Y-82809818D01*
X141439954Y-82812960D01*
X141436492Y-82816719D01*
X141436485Y-82816727D01*
X141290313Y-82975511D01*
X141290304Y-82975521D01*
X141286844Y-82979281D01*
X141284049Y-82983558D01*
X141284042Y-82983568D01*
X141200809Y-83110967D01*
X141156017Y-83152200D01*
X141097000Y-83167145D01*
X141037983Y-83152200D01*
X140993191Y-83110967D01*
X140909957Y-82983568D01*
X140909956Y-82983566D01*
X140907156Y-82979281D01*
X140903688Y-82975514D01*
X140903686Y-82975511D01*
X140757514Y-82816727D01*
X140757512Y-82816725D01*
X140754046Y-82812960D01*
X140575649Y-82674107D01*
X140545897Y-82658006D01*
X140381335Y-82568949D01*
X140381330Y-82568947D01*
X140376831Y-82566512D01*
X140371990Y-82564850D01*
X140371983Y-82564847D01*
X140167867Y-82494775D01*
X140167866Y-82494774D01*
X140163014Y-82493109D01*
X140157964Y-82492266D01*
X140157955Y-82492264D01*
X139945095Y-82456744D01*
X139945086Y-82456743D01*
X139940033Y-82455900D01*
X139713967Y-82455900D01*
X139708914Y-82456743D01*
X139708904Y-82456744D01*
X139496044Y-82492264D01*
X139496032Y-82492266D01*
X139490986Y-82493109D01*
X139486136Y-82494773D01*
X139486132Y-82494775D01*
X139282016Y-82564847D01*
X139282005Y-82564851D01*
X139277169Y-82566512D01*
X139272673Y-82568944D01*
X139272664Y-82568949D01*
X139082857Y-82671668D01*
X139082852Y-82671670D01*
X139078351Y-82674107D01*
X139074314Y-82677248D01*
X139074305Y-82677255D01*
X138903995Y-82809814D01*
X138903989Y-82809818D01*
X138899954Y-82812960D01*
X138896492Y-82816719D01*
X138896485Y-82816727D01*
X138750313Y-82975511D01*
X138750304Y-82975521D01*
X138746844Y-82979281D01*
X138744049Y-82983558D01*
X138744042Y-82983568D01*
X138660809Y-83110967D01*
X138623198Y-83168535D01*
X138621143Y-83173219D01*
X138621138Y-83173229D01*
X138557000Y-83319451D01*
X138532389Y-83375559D01*
X138531131Y-83380524D01*
X138531130Y-83380529D01*
X138478152Y-83589732D01*
X138478150Y-83589741D01*
X138476893Y-83594707D01*
X138476469Y-83599814D01*
X138476468Y-83599825D01*
X138458655Y-83814803D01*
X138458225Y-83820000D01*
X138458649Y-83825117D01*
X138476468Y-84040174D01*
X138476469Y-84040183D01*
X138476893Y-84045293D01*
X138478150Y-84050260D01*
X138478152Y-84050267D01*
X138531130Y-84259470D01*
X138532389Y-84264441D01*
X138534449Y-84269137D01*
X138621138Y-84466770D01*
X138621141Y-84466775D01*
X138623198Y-84471465D01*
X138633870Y-84487799D01*
X138744042Y-84656431D01*
X138744045Y-84656435D01*
X138746844Y-84660719D01*
X138750309Y-84664483D01*
X138750313Y-84664488D01*
X138896485Y-84823272D01*
X138899954Y-84827040D01*
X139078351Y-84965893D01*
X139106163Y-84980944D01*
X139153667Y-85026523D01*
X139171146Y-85089996D01*
X139153671Y-85153469D01*
X139106168Y-85199052D01*
X139082857Y-85211668D01*
X139082852Y-85211670D01*
X139078351Y-85214107D01*
X139074314Y-85217248D01*
X139074305Y-85217255D01*
X138903995Y-85349814D01*
X138903989Y-85349818D01*
X138899954Y-85352960D01*
X138896492Y-85356719D01*
X138896485Y-85356727D01*
X138750313Y-85515511D01*
X138750304Y-85515521D01*
X138746844Y-85519281D01*
X138744049Y-85523558D01*
X138744042Y-85523568D01*
X138660809Y-85650967D01*
X138623198Y-85708535D01*
X138621143Y-85713219D01*
X138621138Y-85713229D01*
X138557000Y-85859451D01*
X138532389Y-85915559D01*
X138531131Y-85920524D01*
X138531130Y-85920529D01*
X138478152Y-86129732D01*
X138478150Y-86129741D01*
X138476893Y-86134707D01*
X138476469Y-86139814D01*
X138476468Y-86139825D01*
X138458655Y-86354803D01*
X138458225Y-86360000D01*
X138458649Y-86365117D01*
X138476468Y-86580174D01*
X138476469Y-86580183D01*
X138476893Y-86585293D01*
X138478150Y-86590260D01*
X138478152Y-86590267D01*
X138492201Y-86645744D01*
X138532389Y-86804441D01*
X138534449Y-86809137D01*
X138621138Y-87006770D01*
X138621141Y-87006775D01*
X138623198Y-87011465D01*
X138685021Y-87106092D01*
X138744042Y-87196431D01*
X138744045Y-87196435D01*
X138746844Y-87200719D01*
X138750309Y-87204483D01*
X138750313Y-87204488D01*
X138787859Y-87245273D01*
X138899954Y-87367040D01*
X139078351Y-87505893D01*
X139106163Y-87520944D01*
X139153667Y-87566523D01*
X139171146Y-87629996D01*
X139153671Y-87693469D01*
X139106168Y-87739052D01*
X139082857Y-87751668D01*
X139082852Y-87751670D01*
X139078351Y-87754107D01*
X139074314Y-87757248D01*
X139074305Y-87757255D01*
X138903995Y-87889814D01*
X138903989Y-87889818D01*
X138899954Y-87892960D01*
X138896492Y-87896719D01*
X138896485Y-87896727D01*
X138750313Y-88055511D01*
X138750304Y-88055521D01*
X138746844Y-88059281D01*
X138744049Y-88063558D01*
X138744042Y-88063568D01*
X138651100Y-88205828D01*
X138623198Y-88248535D01*
X138621143Y-88253219D01*
X138621138Y-88253229D01*
X138582690Y-88340883D01*
X138532389Y-88455559D01*
X138531131Y-88460524D01*
X138531130Y-88460529D01*
X138478152Y-88669732D01*
X138478150Y-88669741D01*
X138476893Y-88674707D01*
X138476469Y-88679814D01*
X138476468Y-88679825D01*
X138458655Y-88894803D01*
X138458225Y-88900000D01*
X75892500Y-88900000D01*
X75892500Y-87630000D01*
X85354659Y-87630000D01*
X85355256Y-87636062D01*
X85373378Y-87820067D01*
X85373379Y-87820073D01*
X85373976Y-87826132D01*
X85375743Y-87831957D01*
X85375744Y-87831962D01*
X85423607Y-87989742D01*
X85431186Y-88014727D01*
X85434055Y-88020095D01*
X85434057Y-88020099D01*
X85521215Y-88183161D01*
X85521219Y-88183167D01*
X85524090Y-88188538D01*
X85527956Y-88193249D01*
X85527957Y-88193250D01*
X85577181Y-88253229D01*
X85649117Y-88340883D01*
X85801462Y-88465910D01*
X85806834Y-88468781D01*
X85806838Y-88468784D01*
X85948839Y-88544684D01*
X85975273Y-88558814D01*
X86163868Y-88616024D01*
X86360000Y-88635341D01*
X86556132Y-88616024D01*
X86744727Y-88558814D01*
X86918538Y-88465910D01*
X87070883Y-88340883D01*
X87195910Y-88188538D01*
X87288814Y-88014727D01*
X87346024Y-87826132D01*
X87365341Y-87630000D01*
X87346024Y-87433868D01*
X87288814Y-87245273D01*
X87195910Y-87071462D01*
X87070883Y-86919117D01*
X86918538Y-86794090D01*
X86913167Y-86791219D01*
X86913161Y-86791215D01*
X86750099Y-86704057D01*
X86750095Y-86704055D01*
X86744727Y-86701186D01*
X86738899Y-86699418D01*
X86561962Y-86645744D01*
X86561957Y-86645743D01*
X86556132Y-86643976D01*
X86550073Y-86643379D01*
X86550067Y-86643378D01*
X86366062Y-86625256D01*
X86360000Y-86624659D01*
X86353938Y-86625256D01*
X86169932Y-86643378D01*
X86169924Y-86643379D01*
X86163868Y-86643976D01*
X86158044Y-86645742D01*
X86158037Y-86645744D01*
X85981100Y-86699418D01*
X85981096Y-86699419D01*
X85975273Y-86701186D01*
X85969907Y-86704053D01*
X85969900Y-86704057D01*
X85806838Y-86791215D01*
X85806827Y-86791222D01*
X85801462Y-86794090D01*
X85796754Y-86797953D01*
X85796749Y-86797957D01*
X85653823Y-86915254D01*
X85653818Y-86915258D01*
X85649117Y-86919117D01*
X85645258Y-86923818D01*
X85645254Y-86923823D01*
X85527957Y-87066749D01*
X85527953Y-87066754D01*
X85524090Y-87071462D01*
X85521222Y-87076827D01*
X85521215Y-87076838D01*
X85434057Y-87239900D01*
X85434053Y-87239907D01*
X85431186Y-87245273D01*
X85429419Y-87251096D01*
X85429418Y-87251100D01*
X85375744Y-87428037D01*
X85375742Y-87428044D01*
X85373976Y-87433868D01*
X85373379Y-87439924D01*
X85373378Y-87439932D01*
X85362563Y-87549743D01*
X85354659Y-87630000D01*
X75892500Y-87630000D01*
X75892500Y-81534000D01*
X97019656Y-81534000D01*
X97020436Y-81540923D01*
X97035428Y-81673987D01*
X97038970Y-81705418D01*
X97041266Y-81711982D01*
X97041268Y-81711987D01*
X97082647Y-81830240D01*
X97095944Y-81868240D01*
X97187721Y-82014302D01*
X97309698Y-82136279D01*
X97455760Y-82228056D01*
X97618582Y-82285030D01*
X97790000Y-82304344D01*
X97961418Y-82285030D01*
X98124240Y-82228056D01*
X98232028Y-82160327D01*
X98298000Y-82141322D01*
X98363971Y-82160327D01*
X98471760Y-82228056D01*
X98634582Y-82285030D01*
X98806000Y-82304344D01*
X98977418Y-82285030D01*
X99140240Y-82228056D01*
X99248028Y-82160327D01*
X99314000Y-82141322D01*
X99379971Y-82160327D01*
X99487760Y-82228056D01*
X99650582Y-82285030D01*
X99822000Y-82304344D01*
X99993418Y-82285030D01*
X100156240Y-82228056D01*
X100264028Y-82160327D01*
X100330000Y-82141322D01*
X100395971Y-82160327D01*
X100503760Y-82228056D01*
X100666582Y-82285030D01*
X100838000Y-82304344D01*
X101009418Y-82285030D01*
X101172240Y-82228056D01*
X101318302Y-82136279D01*
X101440279Y-82014302D01*
X101532056Y-81868240D01*
X101589030Y-81705418D01*
X101608344Y-81534000D01*
X101604062Y-81496000D01*
X118609656Y-81496000D01*
X118610436Y-81502923D01*
X118614717Y-81540923D01*
X118628970Y-81667418D01*
X118631266Y-81673982D01*
X118631268Y-81673987D01*
X118644565Y-81711987D01*
X118685944Y-81830240D01*
X118777721Y-81976302D01*
X118899698Y-82098279D01*
X119045760Y-82190056D01*
X119208582Y-82247030D01*
X119380000Y-82266344D01*
X119551418Y-82247030D01*
X119714240Y-82190056D01*
X119822028Y-82122327D01*
X119888000Y-82103322D01*
X119953971Y-82122327D01*
X120061760Y-82190056D01*
X120224582Y-82247030D01*
X120396000Y-82266344D01*
X120567418Y-82247030D01*
X120730240Y-82190056D01*
X120838028Y-82122327D01*
X120904000Y-82103322D01*
X120969971Y-82122327D01*
X121077760Y-82190056D01*
X121240582Y-82247030D01*
X121412000Y-82266344D01*
X121583418Y-82247030D01*
X121746240Y-82190056D01*
X121854028Y-82122327D01*
X121920000Y-82103322D01*
X121985971Y-82122327D01*
X122093760Y-82190056D01*
X122256582Y-82247030D01*
X122428000Y-82266344D01*
X122599418Y-82247030D01*
X122762240Y-82190056D01*
X122908302Y-82098279D01*
X123030279Y-81976302D01*
X123122056Y-81830240D01*
X123179030Y-81667418D01*
X123198344Y-81496000D01*
X123179030Y-81324582D01*
X123122056Y-81161760D01*
X123030279Y-81015698D01*
X122908302Y-80893721D01*
X122762240Y-80801944D01*
X122755677Y-80799647D01*
X122755674Y-80799646D01*
X122605987Y-80747268D01*
X122605982Y-80747266D01*
X122599418Y-80744970D01*
X122592498Y-80744190D01*
X122592497Y-80744190D01*
X122434923Y-80726436D01*
X122428000Y-80725656D01*
X122421077Y-80726436D01*
X122263502Y-80744190D01*
X122263499Y-80744190D01*
X122256582Y-80744970D01*
X122250019Y-80747266D01*
X122250012Y-80747268D01*
X122100325Y-80799646D01*
X122100318Y-80799648D01*
X122093760Y-80801944D01*
X122087875Y-80805641D01*
X122087864Y-80805647D01*
X121985971Y-80869671D01*
X121920000Y-80888677D01*
X121854029Y-80869671D01*
X121752135Y-80805647D01*
X121752127Y-80805643D01*
X121746240Y-80801944D01*
X121739677Y-80799647D01*
X121739674Y-80799646D01*
X121589987Y-80747268D01*
X121589982Y-80747266D01*
X121583418Y-80744970D01*
X121576498Y-80744190D01*
X121576497Y-80744190D01*
X121418923Y-80726436D01*
X121412000Y-80725656D01*
X121405077Y-80726436D01*
X121247502Y-80744190D01*
X121247499Y-80744190D01*
X121240582Y-80744970D01*
X121234019Y-80747266D01*
X121234012Y-80747268D01*
X121084325Y-80799646D01*
X121084318Y-80799648D01*
X121077760Y-80801944D01*
X121071875Y-80805641D01*
X121071864Y-80805647D01*
X120969971Y-80869671D01*
X120904000Y-80888677D01*
X120838029Y-80869671D01*
X120736135Y-80805647D01*
X120736127Y-80805643D01*
X120730240Y-80801944D01*
X120723677Y-80799647D01*
X120723674Y-80799646D01*
X120573987Y-80747268D01*
X120573982Y-80747266D01*
X120567418Y-80744970D01*
X120560498Y-80744190D01*
X120560497Y-80744190D01*
X120402923Y-80726436D01*
X120396000Y-80725656D01*
X120389077Y-80726436D01*
X120231502Y-80744190D01*
X120231499Y-80744190D01*
X120224582Y-80744970D01*
X120218019Y-80747266D01*
X120218012Y-80747268D01*
X120068325Y-80799646D01*
X120068318Y-80799648D01*
X120061760Y-80801944D01*
X120055875Y-80805641D01*
X120055864Y-80805647D01*
X119953971Y-80869671D01*
X119888000Y-80888677D01*
X119822029Y-80869671D01*
X119720135Y-80805647D01*
X119720127Y-80805643D01*
X119714240Y-80801944D01*
X119707677Y-80799647D01*
X119707674Y-80799646D01*
X119557987Y-80747268D01*
X119557982Y-80747266D01*
X119551418Y-80744970D01*
X119544498Y-80744190D01*
X119544497Y-80744190D01*
X119386923Y-80726436D01*
X119380000Y-80725656D01*
X119373077Y-80726436D01*
X119215502Y-80744190D01*
X119215499Y-80744190D01*
X119208582Y-80744970D01*
X119202019Y-80747266D01*
X119202012Y-80747268D01*
X119052325Y-80799646D01*
X119052318Y-80799648D01*
X119045760Y-80801944D01*
X119039872Y-80805643D01*
X119039869Y-80805645D01*
X118905598Y-80890013D01*
X118905593Y-80890016D01*
X118899698Y-80893721D01*
X118894773Y-80898645D01*
X118894769Y-80898649D01*
X118782649Y-81010769D01*
X118782645Y-81010773D01*
X118777721Y-81015698D01*
X118774016Y-81021593D01*
X118774013Y-81021598D01*
X118689645Y-81155869D01*
X118689643Y-81155872D01*
X118685944Y-81161760D01*
X118683648Y-81168318D01*
X118683646Y-81168325D01*
X118631268Y-81318012D01*
X118631266Y-81318019D01*
X118628970Y-81324582D01*
X118628190Y-81331499D01*
X118628190Y-81331502D01*
X118624688Y-81362582D01*
X118609656Y-81496000D01*
X101604062Y-81496000D01*
X101589030Y-81362582D01*
X101532056Y-81199760D01*
X101440279Y-81053698D01*
X101318302Y-80931721D01*
X101301906Y-80921419D01*
X101178130Y-80843645D01*
X101172240Y-80839944D01*
X101165677Y-80837647D01*
X101165674Y-80837646D01*
X101015987Y-80785268D01*
X101015982Y-80785266D01*
X101009418Y-80782970D01*
X101002498Y-80782190D01*
X101002497Y-80782190D01*
X100844923Y-80764436D01*
X100838000Y-80763656D01*
X100831077Y-80764436D01*
X100673502Y-80782190D01*
X100673499Y-80782190D01*
X100666582Y-80782970D01*
X100660019Y-80785266D01*
X100660012Y-80785268D01*
X100510325Y-80837646D01*
X100510318Y-80837648D01*
X100503760Y-80839944D01*
X100497875Y-80843641D01*
X100497864Y-80843647D01*
X100395971Y-80907671D01*
X100330000Y-80926677D01*
X100264029Y-80907671D01*
X100162135Y-80843647D01*
X100162127Y-80843643D01*
X100156240Y-80839944D01*
X100149677Y-80837647D01*
X100149674Y-80837646D01*
X99999987Y-80785268D01*
X99999982Y-80785266D01*
X99993418Y-80782970D01*
X99986498Y-80782190D01*
X99986497Y-80782190D01*
X99828923Y-80764436D01*
X99822000Y-80763656D01*
X99815077Y-80764436D01*
X99657502Y-80782190D01*
X99657499Y-80782190D01*
X99650582Y-80782970D01*
X99644019Y-80785266D01*
X99644012Y-80785268D01*
X99494325Y-80837646D01*
X99494318Y-80837648D01*
X99487760Y-80839944D01*
X99481875Y-80843641D01*
X99481864Y-80843647D01*
X99379971Y-80907671D01*
X99314000Y-80926677D01*
X99248029Y-80907671D01*
X99146135Y-80843647D01*
X99146127Y-80843643D01*
X99140240Y-80839944D01*
X99133677Y-80837647D01*
X99133674Y-80837646D01*
X98983987Y-80785268D01*
X98983982Y-80785266D01*
X98977418Y-80782970D01*
X98970498Y-80782190D01*
X98970497Y-80782190D01*
X98812923Y-80764436D01*
X98806000Y-80763656D01*
X98799077Y-80764436D01*
X98641502Y-80782190D01*
X98641499Y-80782190D01*
X98634582Y-80782970D01*
X98628019Y-80785266D01*
X98628012Y-80785268D01*
X98478325Y-80837646D01*
X98478318Y-80837648D01*
X98471760Y-80839944D01*
X98465875Y-80843641D01*
X98465864Y-80843647D01*
X98363971Y-80907671D01*
X98298000Y-80926677D01*
X98232029Y-80907671D01*
X98130135Y-80843647D01*
X98130127Y-80843643D01*
X98124240Y-80839944D01*
X98117677Y-80837647D01*
X98117674Y-80837646D01*
X97967987Y-80785268D01*
X97967982Y-80785266D01*
X97961418Y-80782970D01*
X97954498Y-80782190D01*
X97954497Y-80782190D01*
X97796923Y-80764436D01*
X97790000Y-80763656D01*
X97783077Y-80764436D01*
X97625502Y-80782190D01*
X97625499Y-80782190D01*
X97618582Y-80782970D01*
X97612019Y-80785266D01*
X97612012Y-80785268D01*
X97462325Y-80837646D01*
X97462318Y-80837648D01*
X97455760Y-80839944D01*
X97449872Y-80843643D01*
X97449869Y-80843645D01*
X97315598Y-80928013D01*
X97315593Y-80928016D01*
X97309698Y-80931721D01*
X97304773Y-80936645D01*
X97304769Y-80936649D01*
X97192649Y-81048769D01*
X97192645Y-81048773D01*
X97187721Y-81053698D01*
X97184016Y-81059593D01*
X97184013Y-81059598D01*
X97099645Y-81193869D01*
X97099643Y-81193872D01*
X97095944Y-81199760D01*
X97093648Y-81206318D01*
X97093646Y-81206325D01*
X97041268Y-81356012D01*
X97041266Y-81356019D01*
X97038970Y-81362582D01*
X97038190Y-81369499D01*
X97038190Y-81369502D01*
X97020436Y-81527077D01*
X97019656Y-81534000D01*
X75892500Y-81534000D01*
X75892500Y-80264000D01*
X93736659Y-80264000D01*
X93737256Y-80270062D01*
X93755378Y-80454067D01*
X93755379Y-80454073D01*
X93755976Y-80460132D01*
X93757743Y-80465957D01*
X93757744Y-80465962D01*
X93768700Y-80502077D01*
X93813186Y-80648727D01*
X93816055Y-80654095D01*
X93816057Y-80654099D01*
X93903215Y-80817161D01*
X93903219Y-80817167D01*
X93906090Y-80822538D01*
X93909956Y-80827249D01*
X93909957Y-80827250D01*
X94018426Y-80959419D01*
X94031117Y-80974883D01*
X94183462Y-81099910D01*
X94188834Y-81102781D01*
X94188838Y-81102784D01*
X94280807Y-81151942D01*
X94357273Y-81192814D01*
X94545868Y-81250024D01*
X94742000Y-81269341D01*
X94938132Y-81250024D01*
X95126727Y-81192814D01*
X95300538Y-81099910D01*
X95452883Y-80974883D01*
X95577910Y-80822538D01*
X95670814Y-80648727D01*
X95728024Y-80460132D01*
X95747341Y-80264000D01*
X95743598Y-80226000D01*
X115326659Y-80226000D01*
X115327256Y-80232062D01*
X115345378Y-80416067D01*
X115345379Y-80416073D01*
X115345976Y-80422132D01*
X115347743Y-80427957D01*
X115347744Y-80427962D01*
X115369114Y-80498407D01*
X115403186Y-80610727D01*
X115406055Y-80616095D01*
X115406057Y-80616099D01*
X115493215Y-80779161D01*
X115493219Y-80779167D01*
X115496090Y-80784538D01*
X115499956Y-80789249D01*
X115499957Y-80789250D01*
X115616881Y-80931721D01*
X115621117Y-80936883D01*
X115773462Y-81061910D01*
X115778834Y-81064781D01*
X115778838Y-81064784D01*
X115920839Y-81140684D01*
X115947273Y-81154814D01*
X116135868Y-81212024D01*
X116332000Y-81231341D01*
X116528132Y-81212024D01*
X116716727Y-81154814D01*
X116890538Y-81061910D01*
X117042883Y-80936883D01*
X117167910Y-80784538D01*
X117260814Y-80610727D01*
X117318024Y-80422132D01*
X117337341Y-80226000D01*
X117318024Y-80029868D01*
X117260814Y-79841273D01*
X117246684Y-79814839D01*
X117170784Y-79672838D01*
X117170781Y-79672834D01*
X117167910Y-79667462D01*
X117042883Y-79515117D01*
X116890538Y-79390090D01*
X116885167Y-79387219D01*
X116885161Y-79387215D01*
X116722099Y-79300057D01*
X116722095Y-79300055D01*
X116716727Y-79297186D01*
X116710899Y-79295418D01*
X116533962Y-79241744D01*
X116533957Y-79241743D01*
X116528132Y-79239976D01*
X116522073Y-79239379D01*
X116522067Y-79239378D01*
X116338062Y-79221256D01*
X116332000Y-79220659D01*
X116325938Y-79221256D01*
X116141932Y-79239378D01*
X116141924Y-79239379D01*
X116135868Y-79239976D01*
X116130044Y-79241742D01*
X116130037Y-79241744D01*
X115953100Y-79295418D01*
X115953096Y-79295419D01*
X115947273Y-79297186D01*
X115941907Y-79300053D01*
X115941900Y-79300057D01*
X115778838Y-79387215D01*
X115778827Y-79387222D01*
X115773462Y-79390090D01*
X115768754Y-79393953D01*
X115768749Y-79393957D01*
X115625823Y-79511254D01*
X115625818Y-79511258D01*
X115621117Y-79515117D01*
X115617258Y-79519818D01*
X115617254Y-79519823D01*
X115499957Y-79662749D01*
X115499953Y-79662754D01*
X115496090Y-79667462D01*
X115493222Y-79672827D01*
X115493215Y-79672838D01*
X115406057Y-79835900D01*
X115406053Y-79835907D01*
X115403186Y-79841273D01*
X115401419Y-79847096D01*
X115401418Y-79847100D01*
X115347744Y-80024037D01*
X115347742Y-80024044D01*
X115345976Y-80029868D01*
X115345379Y-80035924D01*
X115345378Y-80035932D01*
X115342233Y-80067868D01*
X115326659Y-80226000D01*
X95743598Y-80226000D01*
X95728024Y-80067868D01*
X95670814Y-79879273D01*
X95577910Y-79705462D01*
X95452883Y-79553117D01*
X95446518Y-79547893D01*
X95305250Y-79431957D01*
X95305249Y-79431956D01*
X95300538Y-79428090D01*
X95295167Y-79425219D01*
X95295161Y-79425215D01*
X95132099Y-79338057D01*
X95132095Y-79338055D01*
X95126727Y-79335186D01*
X95120899Y-79333418D01*
X94943962Y-79279744D01*
X94943957Y-79279743D01*
X94938132Y-79277976D01*
X94932073Y-79277379D01*
X94932067Y-79277378D01*
X94748062Y-79259256D01*
X94742000Y-79258659D01*
X94735938Y-79259256D01*
X94551932Y-79277378D01*
X94551924Y-79277379D01*
X94545868Y-79277976D01*
X94540044Y-79279742D01*
X94540037Y-79279744D01*
X94363100Y-79333418D01*
X94363096Y-79333419D01*
X94357273Y-79335186D01*
X94351907Y-79338053D01*
X94351900Y-79338057D01*
X94188838Y-79425215D01*
X94188827Y-79425222D01*
X94183462Y-79428090D01*
X94178754Y-79431953D01*
X94178749Y-79431957D01*
X94035823Y-79549254D01*
X94035818Y-79549258D01*
X94031117Y-79553117D01*
X94027258Y-79557818D01*
X94027254Y-79557823D01*
X93909957Y-79700749D01*
X93909953Y-79700754D01*
X93906090Y-79705462D01*
X93903222Y-79710827D01*
X93903215Y-79710838D01*
X93816057Y-79873900D01*
X93816053Y-79873907D01*
X93813186Y-79879273D01*
X93811419Y-79885096D01*
X93811418Y-79885100D01*
X93757744Y-80062037D01*
X93757742Y-80062044D01*
X93755976Y-80067868D01*
X93755379Y-80073924D01*
X93755378Y-80073932D01*
X93737256Y-80257938D01*
X93736659Y-80264000D01*
X75892500Y-80264000D01*
X75892500Y-78740000D01*
X100848659Y-78740000D01*
X100849256Y-78746062D01*
X100867378Y-78930067D01*
X100867379Y-78930073D01*
X100867976Y-78936132D01*
X100869743Y-78941957D01*
X100869744Y-78941962D01*
X100911891Y-79080899D01*
X100925186Y-79124727D01*
X100928055Y-79130095D01*
X100928057Y-79130099D01*
X101015215Y-79293161D01*
X101015219Y-79293167D01*
X101018090Y-79298538D01*
X101021956Y-79303249D01*
X101021957Y-79303250D01*
X101122052Y-79425215D01*
X101143117Y-79450883D01*
X101295462Y-79575910D01*
X101300834Y-79578781D01*
X101300838Y-79578784D01*
X101392807Y-79627942D01*
X101469273Y-79668814D01*
X101657868Y-79726024D01*
X101854000Y-79745341D01*
X102050132Y-79726024D01*
X102238727Y-79668814D01*
X102412538Y-79575910D01*
X102564883Y-79450883D01*
X102689910Y-79298538D01*
X102782814Y-79124727D01*
X102840024Y-78936132D01*
X102859341Y-78740000D01*
X102855598Y-78702000D01*
X122438659Y-78702000D01*
X122439256Y-78708062D01*
X122457378Y-78892067D01*
X122457379Y-78892073D01*
X122457976Y-78898132D01*
X122459743Y-78903957D01*
X122459744Y-78903962D01*
X122494876Y-79019774D01*
X122515186Y-79086727D01*
X122518055Y-79092095D01*
X122518057Y-79092099D01*
X122605215Y-79255161D01*
X122605219Y-79255167D01*
X122608090Y-79260538D01*
X122611956Y-79265249D01*
X122611957Y-79265250D01*
X122712052Y-79387215D01*
X122733117Y-79412883D01*
X122885462Y-79537910D01*
X122890834Y-79540781D01*
X122890838Y-79540784D01*
X123032839Y-79616684D01*
X123059273Y-79630814D01*
X123247868Y-79688024D01*
X123444000Y-79707341D01*
X123640132Y-79688024D01*
X123828727Y-79630814D01*
X124002538Y-79537910D01*
X124154883Y-79412883D01*
X124279910Y-79260538D01*
X124372814Y-79086727D01*
X124430024Y-78898132D01*
X124445598Y-78740000D01*
X140304569Y-78740000D01*
X140304885Y-78744418D01*
X140323952Y-79011018D01*
X140323953Y-79011027D01*
X140324269Y-79015441D01*
X140325209Y-79019765D01*
X140325211Y-79019774D01*
X140376417Y-79255161D01*
X140382968Y-79285274D01*
X140387411Y-79297186D01*
X140477922Y-79539858D01*
X140477924Y-79539864D01*
X140479470Y-79544007D01*
X140611812Y-79786373D01*
X140777299Y-80007438D01*
X140972562Y-80202701D01*
X141193627Y-80368188D01*
X141435993Y-80500530D01*
X141694726Y-80597032D01*
X141964559Y-80655731D01*
X142171056Y-80670500D01*
X142306729Y-80670500D01*
X142308944Y-80670500D01*
X142515441Y-80655731D01*
X142785274Y-80597032D01*
X143044007Y-80500530D01*
X143286373Y-80368188D01*
X143507438Y-80202701D01*
X143702701Y-80007438D01*
X143868188Y-79786373D01*
X144000530Y-79544007D01*
X144097032Y-79285274D01*
X144155731Y-79015441D01*
X144175431Y-78740000D01*
X144155731Y-78464559D01*
X144097032Y-78194726D01*
X144000530Y-77935993D01*
X143868188Y-77693627D01*
X143702701Y-77472562D01*
X143507438Y-77277299D01*
X143286373Y-77111812D01*
X143044007Y-76979470D01*
X143039864Y-76977924D01*
X143039858Y-76977922D01*
X142789427Y-76884517D01*
X142785274Y-76882968D01*
X142769033Y-76879435D01*
X142519774Y-76825211D01*
X142519765Y-76825209D01*
X142515441Y-76824269D01*
X142511027Y-76823953D01*
X142511018Y-76823952D01*
X142311154Y-76809658D01*
X142311152Y-76809657D01*
X142308944Y-76809500D01*
X142171056Y-76809500D01*
X142168848Y-76809657D01*
X142168845Y-76809658D01*
X141968981Y-76823952D01*
X141968970Y-76823953D01*
X141964559Y-76824269D01*
X141960235Y-76825209D01*
X141960225Y-76825211D01*
X141699060Y-76882025D01*
X141699057Y-76882025D01*
X141694726Y-76882968D01*
X141690576Y-76884515D01*
X141690572Y-76884517D01*
X141440141Y-76977922D01*
X141440130Y-76977926D01*
X141435993Y-76979470D01*
X141432111Y-76981589D01*
X141432106Y-76981592D01*
X141197521Y-77109685D01*
X141197513Y-77109689D01*
X141193627Y-77111812D01*
X141190077Y-77114469D01*
X141190073Y-77114472D01*
X140976113Y-77274640D01*
X140976106Y-77274645D01*
X140972562Y-77277299D01*
X140969431Y-77280429D01*
X140969424Y-77280436D01*
X140780436Y-77469424D01*
X140780429Y-77469431D01*
X140777299Y-77472562D01*
X140774645Y-77476106D01*
X140774640Y-77476113D01*
X140614472Y-77690073D01*
X140611812Y-77693627D01*
X140609689Y-77697513D01*
X140609685Y-77697521D01*
X140481592Y-77932106D01*
X140479470Y-77935993D01*
X140477926Y-77940130D01*
X140477922Y-77940141D01*
X140442981Y-78033823D01*
X140382968Y-78194726D01*
X140382025Y-78199057D01*
X140382025Y-78199060D01*
X140325211Y-78460225D01*
X140325209Y-78460235D01*
X140324269Y-78464559D01*
X140323953Y-78468970D01*
X140323952Y-78468981D01*
X140307720Y-78695938D01*
X140304569Y-78740000D01*
X124445598Y-78740000D01*
X124449341Y-78702000D01*
X124430024Y-78505868D01*
X124372814Y-78317273D01*
X124309628Y-78199060D01*
X124282784Y-78148838D01*
X124282781Y-78148834D01*
X124279910Y-78143462D01*
X124154883Y-77991117D01*
X124002538Y-77866090D01*
X123997167Y-77863219D01*
X123997161Y-77863215D01*
X123834099Y-77776057D01*
X123834095Y-77776055D01*
X123828727Y-77773186D01*
X123771229Y-77755744D01*
X123645962Y-77717744D01*
X123645957Y-77717743D01*
X123640132Y-77715976D01*
X123634073Y-77715379D01*
X123634067Y-77715378D01*
X123450062Y-77697256D01*
X123444000Y-77696659D01*
X123437938Y-77697256D01*
X123253932Y-77715378D01*
X123253924Y-77715379D01*
X123247868Y-77715976D01*
X123242044Y-77717742D01*
X123242037Y-77717744D01*
X123065100Y-77771418D01*
X123065096Y-77771419D01*
X123059273Y-77773186D01*
X123053907Y-77776053D01*
X123053900Y-77776057D01*
X122890838Y-77863215D01*
X122890827Y-77863222D01*
X122885462Y-77866090D01*
X122880754Y-77869953D01*
X122880749Y-77869957D01*
X122737823Y-77987254D01*
X122737818Y-77987258D01*
X122733117Y-77991117D01*
X122729258Y-77995818D01*
X122729254Y-77995823D01*
X122611957Y-78138749D01*
X122611953Y-78138754D01*
X122608090Y-78143462D01*
X122605222Y-78148827D01*
X122605215Y-78148838D01*
X122518057Y-78311900D01*
X122518053Y-78311907D01*
X122515186Y-78317273D01*
X122513419Y-78323096D01*
X122513418Y-78323100D01*
X122459744Y-78500037D01*
X122459742Y-78500044D01*
X122457976Y-78505868D01*
X122457379Y-78511924D01*
X122457378Y-78511932D01*
X122454233Y-78543868D01*
X122438659Y-78702000D01*
X102855598Y-78702000D01*
X102840024Y-78543868D01*
X102782814Y-78355273D01*
X102759631Y-78311900D01*
X102692784Y-78186838D01*
X102692781Y-78186834D01*
X102689910Y-78181462D01*
X102564883Y-78029117D01*
X102412538Y-77904090D01*
X102407167Y-77901219D01*
X102407161Y-77901215D01*
X102244099Y-77814057D01*
X102244095Y-77814055D01*
X102238727Y-77811186D01*
X102232899Y-77809418D01*
X102055962Y-77755744D01*
X102055957Y-77755743D01*
X102050132Y-77753976D01*
X102044073Y-77753379D01*
X102044067Y-77753378D01*
X101860062Y-77735256D01*
X101854000Y-77734659D01*
X101847938Y-77735256D01*
X101663932Y-77753378D01*
X101663924Y-77753379D01*
X101657868Y-77753976D01*
X101652044Y-77755742D01*
X101652037Y-77755744D01*
X101475100Y-77809418D01*
X101475096Y-77809419D01*
X101469273Y-77811186D01*
X101463907Y-77814053D01*
X101463900Y-77814057D01*
X101300838Y-77901215D01*
X101300827Y-77901222D01*
X101295462Y-77904090D01*
X101290754Y-77907953D01*
X101290749Y-77907957D01*
X101147823Y-78025254D01*
X101147818Y-78025258D01*
X101143117Y-78029117D01*
X101139258Y-78033818D01*
X101139254Y-78033823D01*
X101021957Y-78176749D01*
X101021953Y-78176754D01*
X101018090Y-78181462D01*
X101015222Y-78186827D01*
X101015215Y-78186838D01*
X100928057Y-78349900D01*
X100928053Y-78349907D01*
X100925186Y-78355273D01*
X100923419Y-78361096D01*
X100923418Y-78361100D01*
X100869744Y-78538037D01*
X100869742Y-78538044D01*
X100867976Y-78543868D01*
X100867379Y-78549924D01*
X100867378Y-78549932D01*
X100849256Y-78733938D01*
X100848659Y-78740000D01*
X75892500Y-78740000D01*
X75892500Y-74111497D01*
X97319500Y-74111497D01*
X97319722Y-74114113D01*
X97319723Y-74114121D01*
X97334206Y-74284287D01*
X97334207Y-74284296D01*
X97334654Y-74289541D01*
X97394725Y-74520249D01*
X97492923Y-74737486D01*
X97626421Y-74935003D01*
X97791379Y-75107118D01*
X97795614Y-75110250D01*
X97978815Y-75245745D01*
X97978818Y-75245746D01*
X97983053Y-75248879D01*
X98195926Y-75356207D01*
X98423877Y-75426016D01*
X98660346Y-75456298D01*
X98898532Y-75446180D01*
X99131581Y-75395954D01*
X99352790Y-75307064D01*
X99555795Y-75182069D01*
X99734755Y-75024564D01*
X99884523Y-74839080D01*
X100000790Y-74630954D01*
X100080211Y-74406171D01*
X100120500Y-74171200D01*
X100120500Y-74111497D01*
X100819500Y-74111497D01*
X100819722Y-74114113D01*
X100819723Y-74114121D01*
X100834206Y-74284287D01*
X100834207Y-74284296D01*
X100834654Y-74289541D01*
X100894725Y-74520249D01*
X100992923Y-74737486D01*
X101126421Y-74935003D01*
X101291379Y-75107118D01*
X101295614Y-75110250D01*
X101478815Y-75245745D01*
X101478818Y-75245746D01*
X101483053Y-75248879D01*
X101695926Y-75356207D01*
X101923877Y-75426016D01*
X102160346Y-75456298D01*
X102398532Y-75446180D01*
X102631581Y-75395954D01*
X102852790Y-75307064D01*
X103055795Y-75182069D01*
X103234755Y-75024564D01*
X103384523Y-74839080D01*
X103500790Y-74630954D01*
X103580211Y-74406171D01*
X103620500Y-74171200D01*
X103620500Y-74111497D01*
X104319500Y-74111497D01*
X104319722Y-74114113D01*
X104319723Y-74114121D01*
X104334206Y-74284287D01*
X104334207Y-74284296D01*
X104334654Y-74289541D01*
X104394725Y-74520249D01*
X104492923Y-74737486D01*
X104626421Y-74935003D01*
X104791379Y-75107118D01*
X104795614Y-75110250D01*
X104978815Y-75245745D01*
X104978818Y-75245746D01*
X104983053Y-75248879D01*
X105195926Y-75356207D01*
X105423877Y-75426016D01*
X105660346Y-75456298D01*
X105898532Y-75446180D01*
X106131581Y-75395954D01*
X106352790Y-75307064D01*
X106555795Y-75182069D01*
X106734755Y-75024564D01*
X106884523Y-74839080D01*
X106934913Y-74748878D01*
X107819500Y-74748878D01*
X107819501Y-74752008D01*
X107819820Y-74755140D01*
X107819821Y-74755141D01*
X107829312Y-74848061D01*
X107829313Y-74848069D01*
X107830001Y-74854797D01*
X107832129Y-74861219D01*
X107832130Y-74861223D01*
X107857839Y-74938807D01*
X107885186Y-75021334D01*
X107888977Y-75027480D01*
X107973497Y-75164511D01*
X107973500Y-75164515D01*
X107977288Y-75170656D01*
X108101344Y-75294712D01*
X108107485Y-75298500D01*
X108107488Y-75298502D01*
X108124549Y-75309025D01*
X108250666Y-75386814D01*
X108417203Y-75441999D01*
X108519991Y-75452500D01*
X109920008Y-75452499D01*
X110022797Y-75441999D01*
X110189334Y-75386814D01*
X110338656Y-75294712D01*
X110462712Y-75170656D01*
X110554814Y-75021334D01*
X110609999Y-74854797D01*
X110620500Y-74752009D01*
X110620500Y-74111497D01*
X118909500Y-74111497D01*
X118909722Y-74114113D01*
X118909723Y-74114121D01*
X118924206Y-74284287D01*
X118924207Y-74284296D01*
X118924654Y-74289541D01*
X118984725Y-74520249D01*
X119082923Y-74737486D01*
X119216421Y-74935003D01*
X119381379Y-75107118D01*
X119385614Y-75110250D01*
X119568815Y-75245745D01*
X119568818Y-75245746D01*
X119573053Y-75248879D01*
X119785926Y-75356207D01*
X120013877Y-75426016D01*
X120250346Y-75456298D01*
X120488532Y-75446180D01*
X120721581Y-75395954D01*
X120942790Y-75307064D01*
X121145795Y-75182069D01*
X121324755Y-75024564D01*
X121474523Y-74839080D01*
X121590790Y-74630954D01*
X121670211Y-74406171D01*
X121710500Y-74171200D01*
X121710500Y-74111497D01*
X122409500Y-74111497D01*
X122409722Y-74114113D01*
X122409723Y-74114121D01*
X122424206Y-74284287D01*
X122424207Y-74284296D01*
X122424654Y-74289541D01*
X122484725Y-74520249D01*
X122582923Y-74737486D01*
X122716421Y-74935003D01*
X122881379Y-75107118D01*
X122885614Y-75110250D01*
X123068815Y-75245745D01*
X123068818Y-75245746D01*
X123073053Y-75248879D01*
X123285926Y-75356207D01*
X123513877Y-75426016D01*
X123750346Y-75456298D01*
X123988532Y-75446180D01*
X124221581Y-75395954D01*
X124442790Y-75307064D01*
X124645795Y-75182069D01*
X124824755Y-75024564D01*
X124974523Y-74839080D01*
X125090790Y-74630954D01*
X125170211Y-74406171D01*
X125210500Y-74171200D01*
X125210500Y-74111497D01*
X125909500Y-74111497D01*
X125909722Y-74114113D01*
X125909723Y-74114121D01*
X125924206Y-74284287D01*
X125924207Y-74284296D01*
X125924654Y-74289541D01*
X125984725Y-74520249D01*
X126082923Y-74737486D01*
X126216421Y-74935003D01*
X126381379Y-75107118D01*
X126385614Y-75110250D01*
X126568815Y-75245745D01*
X126568818Y-75245746D01*
X126573053Y-75248879D01*
X126785926Y-75356207D01*
X127013877Y-75426016D01*
X127250346Y-75456298D01*
X127488532Y-75446180D01*
X127721581Y-75395954D01*
X127942790Y-75307064D01*
X128145795Y-75182069D01*
X128324755Y-75024564D01*
X128474523Y-74839080D01*
X128524913Y-74748878D01*
X129409500Y-74748878D01*
X129409501Y-74752008D01*
X129409820Y-74755140D01*
X129409821Y-74755141D01*
X129419312Y-74848061D01*
X129419313Y-74848069D01*
X129420001Y-74854797D01*
X129422129Y-74861219D01*
X129422130Y-74861223D01*
X129447839Y-74938807D01*
X129475186Y-75021334D01*
X129478977Y-75027480D01*
X129563497Y-75164511D01*
X129563500Y-75164515D01*
X129567288Y-75170656D01*
X129691344Y-75294712D01*
X129697485Y-75298500D01*
X129697488Y-75298502D01*
X129714549Y-75309025D01*
X129840666Y-75386814D01*
X130007203Y-75441999D01*
X130109991Y-75452500D01*
X131510008Y-75452499D01*
X131612797Y-75441999D01*
X131779334Y-75386814D01*
X131928656Y-75294712D01*
X132052712Y-75170656D01*
X132144814Y-75021334D01*
X132199999Y-74854797D01*
X132210500Y-74752009D01*
X132210499Y-71551992D01*
X132199999Y-71449203D01*
X132144814Y-71282666D01*
X132052712Y-71133344D01*
X131928656Y-71009288D01*
X131922515Y-71005500D01*
X131922511Y-71005497D01*
X131785480Y-70920977D01*
X131779334Y-70917186D01*
X131757681Y-70910011D01*
X131619225Y-70864131D01*
X131619224Y-70864130D01*
X131612797Y-70862001D01*
X131606064Y-70861313D01*
X131606059Y-70861312D01*
X131513140Y-70851819D01*
X131513123Y-70851818D01*
X131510009Y-70851500D01*
X131506860Y-70851500D01*
X130113140Y-70851500D01*
X130113120Y-70851500D01*
X130109992Y-70851501D01*
X130106860Y-70851820D01*
X130106858Y-70851821D01*
X130013938Y-70861312D01*
X130013928Y-70861313D01*
X130007203Y-70862001D01*
X130000781Y-70864128D01*
X130000776Y-70864130D01*
X129847521Y-70914914D01*
X129847517Y-70914915D01*
X129840666Y-70917186D01*
X129834522Y-70920975D01*
X129834519Y-70920977D01*
X129697488Y-71005497D01*
X129697480Y-71005503D01*
X129691344Y-71009288D01*
X129686242Y-71014389D01*
X129686238Y-71014393D01*
X129572393Y-71128238D01*
X129572389Y-71128242D01*
X129567288Y-71133344D01*
X129563503Y-71139480D01*
X129563497Y-71139488D01*
X129478977Y-71276519D01*
X129475186Y-71282666D01*
X129472915Y-71289517D01*
X129472914Y-71289521D01*
X129422131Y-71442774D01*
X129420001Y-71449203D01*
X129419313Y-71455933D01*
X129419312Y-71455940D01*
X129409819Y-71548859D01*
X129409818Y-71548877D01*
X129409500Y-71551991D01*
X129409500Y-71555138D01*
X129409500Y-71555139D01*
X129409500Y-74748859D01*
X129409500Y-74748878D01*
X128524913Y-74748878D01*
X128590790Y-74630954D01*
X128670211Y-74406171D01*
X128710500Y-74171200D01*
X128710500Y-72192503D01*
X128695346Y-72014459D01*
X128635275Y-71783751D01*
X128537077Y-71566514D01*
X128403579Y-71368997D01*
X128238621Y-71196882D01*
X128145808Y-71128238D01*
X128051184Y-71058254D01*
X128051178Y-71058250D01*
X128046947Y-71055121D01*
X128042243Y-71052749D01*
X128042241Y-71052748D01*
X127927652Y-70994974D01*
X127834074Y-70947793D01*
X127829039Y-70946251D01*
X127611159Y-70879526D01*
X127611156Y-70879525D01*
X127606123Y-70877984D01*
X127600899Y-70877315D01*
X127374871Y-70848370D01*
X127374870Y-70848369D01*
X127369654Y-70847702D01*
X127364399Y-70847925D01*
X127364394Y-70847925D01*
X127136733Y-70857596D01*
X127136728Y-70857596D01*
X127131468Y-70857820D01*
X127126328Y-70858927D01*
X127126318Y-70858929D01*
X126903571Y-70906935D01*
X126903563Y-70906937D01*
X126898419Y-70908046D01*
X126893532Y-70910009D01*
X126893528Y-70910011D01*
X126682091Y-70994974D01*
X126682084Y-70994977D01*
X126677210Y-70996936D01*
X126672738Y-70999689D01*
X126672731Y-70999693D01*
X126478684Y-71119172D01*
X126478674Y-71119179D01*
X126474205Y-71121931D01*
X126470263Y-71125400D01*
X126470254Y-71125407D01*
X126299201Y-71275954D01*
X126295245Y-71279436D01*
X126291937Y-71283532D01*
X126291932Y-71283538D01*
X126148787Y-71460820D01*
X126148784Y-71460823D01*
X126145477Y-71464920D01*
X126142913Y-71469508D01*
X126142910Y-71469514D01*
X126031778Y-71668448D01*
X126031775Y-71668453D01*
X126029210Y-71673046D01*
X126027457Y-71678006D01*
X126027454Y-71678014D01*
X125951544Y-71892859D01*
X125951541Y-71892869D01*
X125949789Y-71897829D01*
X125948899Y-71903015D01*
X125948897Y-71903026D01*
X125910390Y-72127606D01*
X125910389Y-72127612D01*
X125909500Y-72132800D01*
X125909500Y-74111497D01*
X125210500Y-74111497D01*
X125210500Y-72192503D01*
X125195346Y-72014459D01*
X125135275Y-71783751D01*
X125037077Y-71566514D01*
X124903579Y-71368997D01*
X124738621Y-71196882D01*
X124645808Y-71128238D01*
X124551184Y-71058254D01*
X124551178Y-71058250D01*
X124546947Y-71055121D01*
X124542243Y-71052749D01*
X124542241Y-71052748D01*
X124427652Y-70994974D01*
X124334074Y-70947793D01*
X124329039Y-70946251D01*
X124111159Y-70879526D01*
X124111156Y-70879525D01*
X124106123Y-70877984D01*
X124100899Y-70877315D01*
X123874871Y-70848370D01*
X123874870Y-70848369D01*
X123869654Y-70847702D01*
X123864399Y-70847925D01*
X123864394Y-70847925D01*
X123636733Y-70857596D01*
X123636728Y-70857596D01*
X123631468Y-70857820D01*
X123626328Y-70858927D01*
X123626318Y-70858929D01*
X123403571Y-70906935D01*
X123403563Y-70906937D01*
X123398419Y-70908046D01*
X123393532Y-70910009D01*
X123393528Y-70910011D01*
X123182091Y-70994974D01*
X123182084Y-70994977D01*
X123177210Y-70996936D01*
X123172738Y-70999689D01*
X123172731Y-70999693D01*
X122978684Y-71119172D01*
X122978674Y-71119179D01*
X122974205Y-71121931D01*
X122970263Y-71125400D01*
X122970254Y-71125407D01*
X122799201Y-71275954D01*
X122795245Y-71279436D01*
X122791937Y-71283532D01*
X122791932Y-71283538D01*
X122648787Y-71460820D01*
X122648784Y-71460823D01*
X122645477Y-71464920D01*
X122642913Y-71469508D01*
X122642910Y-71469514D01*
X122531778Y-71668448D01*
X122531775Y-71668453D01*
X122529210Y-71673046D01*
X122527457Y-71678006D01*
X122527454Y-71678014D01*
X122451544Y-71892859D01*
X122451541Y-71892869D01*
X122449789Y-71897829D01*
X122448899Y-71903015D01*
X122448897Y-71903026D01*
X122410390Y-72127606D01*
X122410389Y-72127612D01*
X122409500Y-72132800D01*
X122409500Y-74111497D01*
X121710500Y-74111497D01*
X121710500Y-72192503D01*
X121695346Y-72014459D01*
X121635275Y-71783751D01*
X121537077Y-71566514D01*
X121403579Y-71368997D01*
X121238621Y-71196882D01*
X121145808Y-71128238D01*
X121051184Y-71058254D01*
X121051178Y-71058250D01*
X121046947Y-71055121D01*
X121042243Y-71052749D01*
X121042241Y-71052748D01*
X120927652Y-70994974D01*
X120834074Y-70947793D01*
X120829039Y-70946251D01*
X120611159Y-70879526D01*
X120611156Y-70879525D01*
X120606123Y-70877984D01*
X120600899Y-70877315D01*
X120374871Y-70848370D01*
X120374870Y-70848369D01*
X120369654Y-70847702D01*
X120364399Y-70847925D01*
X120364394Y-70847925D01*
X120136733Y-70857596D01*
X120136728Y-70857596D01*
X120131468Y-70857820D01*
X120126328Y-70858927D01*
X120126318Y-70858929D01*
X119903571Y-70906935D01*
X119903563Y-70906937D01*
X119898419Y-70908046D01*
X119893532Y-70910009D01*
X119893528Y-70910011D01*
X119682091Y-70994974D01*
X119682084Y-70994977D01*
X119677210Y-70996936D01*
X119672738Y-70999689D01*
X119672731Y-70999693D01*
X119478684Y-71119172D01*
X119478674Y-71119179D01*
X119474205Y-71121931D01*
X119470263Y-71125400D01*
X119470254Y-71125407D01*
X119299201Y-71275954D01*
X119295245Y-71279436D01*
X119291937Y-71283532D01*
X119291932Y-71283538D01*
X119148787Y-71460820D01*
X119148784Y-71460823D01*
X119145477Y-71464920D01*
X119142913Y-71469508D01*
X119142910Y-71469514D01*
X119031778Y-71668448D01*
X119031775Y-71668453D01*
X119029210Y-71673046D01*
X119027457Y-71678006D01*
X119027454Y-71678014D01*
X118951544Y-71892859D01*
X118951541Y-71892869D01*
X118949789Y-71897829D01*
X118948899Y-71903015D01*
X118948897Y-71903026D01*
X118910390Y-72127606D01*
X118910389Y-72127612D01*
X118909500Y-72132800D01*
X118909500Y-74111497D01*
X110620500Y-74111497D01*
X110620499Y-71551992D01*
X110609999Y-71449203D01*
X110554814Y-71282666D01*
X110462712Y-71133344D01*
X110338656Y-71009288D01*
X110332515Y-71005500D01*
X110332511Y-71005497D01*
X110195480Y-70920977D01*
X110189334Y-70917186D01*
X110167681Y-70910011D01*
X110029225Y-70864131D01*
X110029224Y-70864130D01*
X110022797Y-70862001D01*
X110016064Y-70861313D01*
X110016059Y-70861312D01*
X109923140Y-70851819D01*
X109923123Y-70851818D01*
X109920009Y-70851500D01*
X109916860Y-70851500D01*
X108523140Y-70851500D01*
X108523120Y-70851500D01*
X108519992Y-70851501D01*
X108516860Y-70851820D01*
X108516858Y-70851821D01*
X108423938Y-70861312D01*
X108423928Y-70861313D01*
X108417203Y-70862001D01*
X108410781Y-70864128D01*
X108410776Y-70864130D01*
X108257521Y-70914914D01*
X108257517Y-70914915D01*
X108250666Y-70917186D01*
X108244522Y-70920975D01*
X108244519Y-70920977D01*
X108107488Y-71005497D01*
X108107480Y-71005503D01*
X108101344Y-71009288D01*
X108096242Y-71014389D01*
X108096238Y-71014393D01*
X107982393Y-71128238D01*
X107982389Y-71128242D01*
X107977288Y-71133344D01*
X107973503Y-71139480D01*
X107973497Y-71139488D01*
X107888977Y-71276519D01*
X107885186Y-71282666D01*
X107882915Y-71289517D01*
X107882914Y-71289521D01*
X107832131Y-71442774D01*
X107830001Y-71449203D01*
X107829313Y-71455933D01*
X107829312Y-71455940D01*
X107819819Y-71548859D01*
X107819818Y-71548877D01*
X107819500Y-71551991D01*
X107819500Y-71555138D01*
X107819500Y-71555139D01*
X107819500Y-74748859D01*
X107819500Y-74748878D01*
X106934913Y-74748878D01*
X107000790Y-74630954D01*
X107080211Y-74406171D01*
X107120500Y-74171200D01*
X107120500Y-72192503D01*
X107105346Y-72014459D01*
X107045275Y-71783751D01*
X106947077Y-71566514D01*
X106813579Y-71368997D01*
X106648621Y-71196882D01*
X106555808Y-71128238D01*
X106461184Y-71058254D01*
X106461178Y-71058250D01*
X106456947Y-71055121D01*
X106452243Y-71052749D01*
X106452241Y-71052748D01*
X106337652Y-70994974D01*
X106244074Y-70947793D01*
X106239039Y-70946251D01*
X106021159Y-70879526D01*
X106021156Y-70879525D01*
X106016123Y-70877984D01*
X106010899Y-70877315D01*
X105784871Y-70848370D01*
X105784870Y-70848369D01*
X105779654Y-70847702D01*
X105774399Y-70847925D01*
X105774394Y-70847925D01*
X105546733Y-70857596D01*
X105546728Y-70857596D01*
X105541468Y-70857820D01*
X105536328Y-70858927D01*
X105536318Y-70858929D01*
X105313571Y-70906935D01*
X105313563Y-70906937D01*
X105308419Y-70908046D01*
X105303532Y-70910009D01*
X105303528Y-70910011D01*
X105092091Y-70994974D01*
X105092084Y-70994977D01*
X105087210Y-70996936D01*
X105082738Y-70999689D01*
X105082731Y-70999693D01*
X104888684Y-71119172D01*
X104888674Y-71119179D01*
X104884205Y-71121931D01*
X104880263Y-71125400D01*
X104880254Y-71125407D01*
X104709201Y-71275954D01*
X104705245Y-71279436D01*
X104701937Y-71283532D01*
X104701932Y-71283538D01*
X104558787Y-71460820D01*
X104558784Y-71460823D01*
X104555477Y-71464920D01*
X104552913Y-71469508D01*
X104552910Y-71469514D01*
X104441778Y-71668448D01*
X104441775Y-71668453D01*
X104439210Y-71673046D01*
X104437457Y-71678006D01*
X104437454Y-71678014D01*
X104361544Y-71892859D01*
X104361541Y-71892869D01*
X104359789Y-71897829D01*
X104358899Y-71903015D01*
X104358897Y-71903026D01*
X104320390Y-72127606D01*
X104320389Y-72127612D01*
X104319500Y-72132800D01*
X104319500Y-74111497D01*
X103620500Y-74111497D01*
X103620500Y-72192503D01*
X103605346Y-72014459D01*
X103545275Y-71783751D01*
X103447077Y-71566514D01*
X103313579Y-71368997D01*
X103148621Y-71196882D01*
X103055808Y-71128238D01*
X102961184Y-71058254D01*
X102961178Y-71058250D01*
X102956947Y-71055121D01*
X102952243Y-71052749D01*
X102952241Y-71052748D01*
X102837652Y-70994974D01*
X102744074Y-70947793D01*
X102739039Y-70946251D01*
X102521159Y-70879526D01*
X102521156Y-70879525D01*
X102516123Y-70877984D01*
X102510899Y-70877315D01*
X102284871Y-70848370D01*
X102284870Y-70848369D01*
X102279654Y-70847702D01*
X102274399Y-70847925D01*
X102274394Y-70847925D01*
X102046733Y-70857596D01*
X102046728Y-70857596D01*
X102041468Y-70857820D01*
X102036328Y-70858927D01*
X102036318Y-70858929D01*
X101813571Y-70906935D01*
X101813563Y-70906937D01*
X101808419Y-70908046D01*
X101803532Y-70910009D01*
X101803528Y-70910011D01*
X101592091Y-70994974D01*
X101592084Y-70994977D01*
X101587210Y-70996936D01*
X101582738Y-70999689D01*
X101582731Y-70999693D01*
X101388684Y-71119172D01*
X101388674Y-71119179D01*
X101384205Y-71121931D01*
X101380263Y-71125400D01*
X101380254Y-71125407D01*
X101209201Y-71275954D01*
X101205245Y-71279436D01*
X101201937Y-71283532D01*
X101201932Y-71283538D01*
X101058787Y-71460820D01*
X101058784Y-71460823D01*
X101055477Y-71464920D01*
X101052913Y-71469508D01*
X101052910Y-71469514D01*
X100941778Y-71668448D01*
X100941775Y-71668453D01*
X100939210Y-71673046D01*
X100937457Y-71678006D01*
X100937454Y-71678014D01*
X100861544Y-71892859D01*
X100861541Y-71892869D01*
X100859789Y-71897829D01*
X100858899Y-71903015D01*
X100858897Y-71903026D01*
X100820390Y-72127606D01*
X100820389Y-72127612D01*
X100819500Y-72132800D01*
X100819500Y-74111497D01*
X100120500Y-74111497D01*
X100120500Y-72192503D01*
X100105346Y-72014459D01*
X100045275Y-71783751D01*
X99947077Y-71566514D01*
X99813579Y-71368997D01*
X99648621Y-71196882D01*
X99555808Y-71128238D01*
X99461184Y-71058254D01*
X99461178Y-71058250D01*
X99456947Y-71055121D01*
X99452243Y-71052749D01*
X99452241Y-71052748D01*
X99337652Y-70994974D01*
X99244074Y-70947793D01*
X99239039Y-70946251D01*
X99021159Y-70879526D01*
X99021156Y-70879525D01*
X99016123Y-70877984D01*
X99010899Y-70877315D01*
X98784871Y-70848370D01*
X98784870Y-70848369D01*
X98779654Y-70847702D01*
X98774399Y-70847925D01*
X98774394Y-70847925D01*
X98546733Y-70857596D01*
X98546728Y-70857596D01*
X98541468Y-70857820D01*
X98536328Y-70858927D01*
X98536318Y-70858929D01*
X98313571Y-70906935D01*
X98313563Y-70906937D01*
X98308419Y-70908046D01*
X98303532Y-70910009D01*
X98303528Y-70910011D01*
X98092091Y-70994974D01*
X98092084Y-70994977D01*
X98087210Y-70996936D01*
X98082738Y-70999689D01*
X98082731Y-70999693D01*
X97888684Y-71119172D01*
X97888674Y-71119179D01*
X97884205Y-71121931D01*
X97880263Y-71125400D01*
X97880254Y-71125407D01*
X97709201Y-71275954D01*
X97705245Y-71279436D01*
X97701937Y-71283532D01*
X97701932Y-71283538D01*
X97558787Y-71460820D01*
X97558784Y-71460823D01*
X97555477Y-71464920D01*
X97552913Y-71469508D01*
X97552910Y-71469514D01*
X97441778Y-71668448D01*
X97441775Y-71668453D01*
X97439210Y-71673046D01*
X97437457Y-71678006D01*
X97437454Y-71678014D01*
X97361544Y-71892859D01*
X97361541Y-71892869D01*
X97359789Y-71897829D01*
X97358899Y-71903015D01*
X97358897Y-71903026D01*
X97320390Y-72127606D01*
X97320389Y-72127612D01*
X97319500Y-72132800D01*
X97319500Y-74111497D01*
X75892500Y-74111497D01*
X75892500Y-72644000D01*
X89134587Y-72644000D01*
X89135367Y-72650923D01*
X89153398Y-72810957D01*
X89153399Y-72810964D01*
X89154179Y-72817881D01*
X89211971Y-72983042D01*
X89305067Y-73131203D01*
X89428797Y-73254933D01*
X89576958Y-73348029D01*
X89742119Y-73405821D01*
X89916000Y-73425413D01*
X90089881Y-73405821D01*
X90255042Y-73348029D01*
X90403203Y-73254933D01*
X90526933Y-73131203D01*
X90620029Y-72983042D01*
X90677821Y-72817881D01*
X90697413Y-72644000D01*
X90677821Y-72470119D01*
X90620029Y-72304958D01*
X90526933Y-72156797D01*
X90403203Y-72033067D01*
X90373589Y-72014459D01*
X90260934Y-71943673D01*
X90260932Y-71943672D01*
X90255042Y-71939971D01*
X90248476Y-71937673D01*
X90248473Y-71937672D01*
X90096455Y-71884479D01*
X90096452Y-71884478D01*
X90089881Y-71882179D01*
X90082964Y-71881399D01*
X90082957Y-71881398D01*
X89922923Y-71863367D01*
X89916000Y-71862587D01*
X89909077Y-71863367D01*
X89749042Y-71881398D01*
X89749033Y-71881399D01*
X89742119Y-71882179D01*
X89735549Y-71884477D01*
X89735544Y-71884479D01*
X89583526Y-71937672D01*
X89583520Y-71937674D01*
X89576958Y-71939971D01*
X89571070Y-71943670D01*
X89571065Y-71943673D01*
X89434697Y-72029359D01*
X89434692Y-72029362D01*
X89428797Y-72033067D01*
X89423872Y-72037991D01*
X89423868Y-72037995D01*
X89309995Y-72151868D01*
X89309991Y-72151872D01*
X89305067Y-72156797D01*
X89301362Y-72162692D01*
X89301359Y-72162697D01*
X89215673Y-72299065D01*
X89215670Y-72299070D01*
X89211971Y-72304958D01*
X89209674Y-72311520D01*
X89209672Y-72311526D01*
X89156479Y-72463544D01*
X89156477Y-72463549D01*
X89154179Y-72470119D01*
X89153399Y-72477033D01*
X89153398Y-72477042D01*
X89147661Y-72527964D01*
X89134587Y-72644000D01*
X75892500Y-72644000D01*
X75892500Y-69596000D01*
X138410587Y-69596000D01*
X138411367Y-69602923D01*
X138429398Y-69762957D01*
X138429399Y-69762964D01*
X138430179Y-69769881D01*
X138487971Y-69935042D01*
X138581067Y-70083203D01*
X138704797Y-70206933D01*
X138852958Y-70300029D01*
X139018119Y-70357821D01*
X139192000Y-70377413D01*
X139365881Y-70357821D01*
X139531042Y-70300029D01*
X139679203Y-70206933D01*
X139802933Y-70083203D01*
X139896029Y-69935042D01*
X139953821Y-69769881D01*
X139973413Y-69596000D01*
X139953821Y-69422119D01*
X139896029Y-69256958D01*
X139802933Y-69108797D01*
X139679203Y-68985067D01*
X139531042Y-68891971D01*
X139524476Y-68889673D01*
X139524473Y-68889672D01*
X139372455Y-68836479D01*
X139372452Y-68836478D01*
X139365881Y-68834179D01*
X139358964Y-68833399D01*
X139358957Y-68833398D01*
X139198923Y-68815367D01*
X139192000Y-68814587D01*
X139185077Y-68815367D01*
X139025042Y-68833398D01*
X139025033Y-68833399D01*
X139018119Y-68834179D01*
X139011549Y-68836477D01*
X139011544Y-68836479D01*
X138859526Y-68889672D01*
X138859520Y-68889674D01*
X138852958Y-68891971D01*
X138847070Y-68895670D01*
X138847065Y-68895673D01*
X138710697Y-68981359D01*
X138710692Y-68981362D01*
X138704797Y-68985067D01*
X138699872Y-68989991D01*
X138699868Y-68989995D01*
X138585995Y-69103868D01*
X138585991Y-69103872D01*
X138581067Y-69108797D01*
X138577362Y-69114692D01*
X138577359Y-69114697D01*
X138491673Y-69251065D01*
X138491670Y-69251070D01*
X138487971Y-69256958D01*
X138485674Y-69263520D01*
X138485672Y-69263526D01*
X138432479Y-69415544D01*
X138432477Y-69415549D01*
X138430179Y-69422119D01*
X138429399Y-69429033D01*
X138429398Y-69429042D01*
X138423661Y-69479964D01*
X138410587Y-69596000D01*
X75892500Y-69596000D01*
X75892500Y-63500000D01*
X89504569Y-63500000D01*
X89504885Y-63504418D01*
X89523952Y-63771018D01*
X89523953Y-63771027D01*
X89524269Y-63775441D01*
X89525209Y-63779765D01*
X89525211Y-63779774D01*
X89573238Y-64000548D01*
X89582968Y-64045274D01*
X89584517Y-64049427D01*
X89677922Y-64299858D01*
X89677924Y-64299864D01*
X89679470Y-64304007D01*
X89681592Y-64307893D01*
X89790334Y-64507040D01*
X89811812Y-64546373D01*
X89977299Y-64767438D01*
X90172562Y-64962701D01*
X90393627Y-65128188D01*
X90635993Y-65260530D01*
X90894726Y-65357032D01*
X91164559Y-65415731D01*
X91371056Y-65430500D01*
X91506729Y-65430500D01*
X91508944Y-65430500D01*
X91715441Y-65415731D01*
X91985274Y-65357032D01*
X92244007Y-65260530D01*
X92486373Y-65128188D01*
X92707438Y-64962701D01*
X92902701Y-64767438D01*
X93068188Y-64546373D01*
X93200530Y-64304007D01*
X93297032Y-64045274D01*
X93355731Y-63775441D01*
X93375431Y-63500000D01*
X93627225Y-63500000D01*
X93627649Y-63505117D01*
X93645468Y-63720174D01*
X93645469Y-63720183D01*
X93645893Y-63725293D01*
X93647150Y-63730260D01*
X93647152Y-63730267D01*
X93700130Y-63939470D01*
X93701389Y-63944441D01*
X93703449Y-63949137D01*
X93790138Y-64146770D01*
X93790141Y-64146775D01*
X93792198Y-64151465D01*
X93802870Y-64167799D01*
X93913042Y-64336431D01*
X93913045Y-64336435D01*
X93915844Y-64340719D01*
X93919309Y-64344483D01*
X93919313Y-64344488D01*
X94065484Y-64503271D01*
X94068954Y-64507040D01*
X94247351Y-64645893D01*
X94446169Y-64753488D01*
X94659986Y-64826891D01*
X94882967Y-64864100D01*
X95103900Y-64864100D01*
X95109033Y-64864100D01*
X95332014Y-64826891D01*
X95545831Y-64753488D01*
X95744649Y-64645893D01*
X95923046Y-64507040D01*
X96076156Y-64340719D01*
X96097603Y-64307893D01*
X96162191Y-64209033D01*
X96206982Y-64167799D01*
X96266000Y-64152854D01*
X96325018Y-64167799D01*
X96369809Y-64209033D01*
X96453038Y-64336426D01*
X96453045Y-64336435D01*
X96455844Y-64340719D01*
X96459309Y-64344483D01*
X96459313Y-64344488D01*
X96605484Y-64503271D01*
X96608954Y-64507040D01*
X96787351Y-64645893D01*
X96986169Y-64753488D01*
X97199986Y-64826891D01*
X97422967Y-64864100D01*
X97643900Y-64864100D01*
X97649033Y-64864100D01*
X97872014Y-64826891D01*
X98085831Y-64753488D01*
X98284649Y-64645893D01*
X98463046Y-64507040D01*
X98616156Y-64340719D01*
X98637603Y-64307893D01*
X98702191Y-64209033D01*
X98746982Y-64167799D01*
X98806000Y-64152854D01*
X98865018Y-64167799D01*
X98909809Y-64209033D01*
X98993038Y-64336426D01*
X98993045Y-64336435D01*
X98995844Y-64340719D01*
X98999309Y-64344483D01*
X98999313Y-64344488D01*
X99145484Y-64503271D01*
X99148954Y-64507040D01*
X99327351Y-64645893D01*
X99526169Y-64753488D01*
X99739986Y-64826891D01*
X99962967Y-64864100D01*
X100183900Y-64864100D01*
X100189033Y-64864100D01*
X100412014Y-64826891D01*
X100625831Y-64753488D01*
X100824649Y-64645893D01*
X101003046Y-64507040D01*
X101057814Y-64447546D01*
X101110437Y-64413693D01*
X101172891Y-64409845D01*
X101229273Y-64436983D01*
X101265225Y-64488197D01*
X101305947Y-64597377D01*
X101314362Y-64612789D01*
X101389898Y-64713692D01*
X101402307Y-64726101D01*
X101503210Y-64801637D01*
X101518622Y-64810052D01*
X101637758Y-64854488D01*
X101652732Y-64858026D01*
X101701285Y-64863246D01*
X101707882Y-64863600D01*
X102349674Y-64863600D01*
X102362549Y-64860149D01*
X102366000Y-64847274D01*
X102866000Y-64847274D01*
X102869450Y-64860149D01*
X102882326Y-64863600D01*
X103524118Y-64863600D01*
X103530714Y-64863246D01*
X103579267Y-64858026D01*
X103594241Y-64854488D01*
X103713377Y-64810052D01*
X103728789Y-64801637D01*
X103829692Y-64726101D01*
X103842101Y-64713692D01*
X103917637Y-64612789D01*
X103926053Y-64597375D01*
X103966774Y-64488198D01*
X104002725Y-64436984D01*
X104059107Y-64409845D01*
X104121561Y-64413693D01*
X104174185Y-64447546D01*
X104225484Y-64503271D01*
X104228954Y-64507040D01*
X104407351Y-64645893D01*
X104606169Y-64753488D01*
X104819986Y-64826891D01*
X105042967Y-64864100D01*
X105263900Y-64864100D01*
X105269033Y-64864100D01*
X105492014Y-64826891D01*
X105705831Y-64753488D01*
X105904649Y-64645893D01*
X106083046Y-64507040D01*
X106236156Y-64340719D01*
X106257603Y-64307893D01*
X106322191Y-64209033D01*
X106366982Y-64167799D01*
X106426000Y-64152854D01*
X106485018Y-64167799D01*
X106529809Y-64209033D01*
X106613038Y-64336426D01*
X106613045Y-64336435D01*
X106615844Y-64340719D01*
X106619309Y-64344483D01*
X106619313Y-64344488D01*
X106765484Y-64503271D01*
X106768954Y-64507040D01*
X106947351Y-64645893D01*
X107146169Y-64753488D01*
X107359986Y-64826891D01*
X107582967Y-64864100D01*
X107803900Y-64864100D01*
X107809033Y-64864100D01*
X108032014Y-64826891D01*
X108245831Y-64753488D01*
X108444649Y-64645893D01*
X108623046Y-64507040D01*
X108776156Y-64340719D01*
X108797603Y-64307893D01*
X108862191Y-64209033D01*
X108906982Y-64167799D01*
X108966000Y-64152854D01*
X109025018Y-64167799D01*
X109069809Y-64209033D01*
X109153038Y-64336426D01*
X109153045Y-64336435D01*
X109155844Y-64340719D01*
X109159309Y-64344483D01*
X109159313Y-64344488D01*
X109305484Y-64503271D01*
X109308954Y-64507040D01*
X109487351Y-64645893D01*
X109686169Y-64753488D01*
X109899986Y-64826891D01*
X110122967Y-64864100D01*
X110343900Y-64864100D01*
X110349033Y-64864100D01*
X110572014Y-64826891D01*
X110785831Y-64753488D01*
X110984649Y-64645893D01*
X111163046Y-64507040D01*
X111316156Y-64340719D01*
X111337603Y-64307893D01*
X111402191Y-64209033D01*
X111446982Y-64167799D01*
X111506000Y-64152854D01*
X111565018Y-64167799D01*
X111609809Y-64209033D01*
X111693038Y-64336426D01*
X111693045Y-64336435D01*
X111695844Y-64340719D01*
X111699309Y-64344483D01*
X111699313Y-64344488D01*
X111845484Y-64503271D01*
X111848954Y-64507040D01*
X112027351Y-64645893D01*
X112226169Y-64753488D01*
X112439986Y-64826891D01*
X112662967Y-64864100D01*
X112883900Y-64864100D01*
X112889033Y-64864100D01*
X113112014Y-64826891D01*
X113325831Y-64753488D01*
X113524649Y-64645893D01*
X113703046Y-64507040D01*
X113856156Y-64340719D01*
X113877603Y-64307893D01*
X113942191Y-64209033D01*
X113986982Y-64167799D01*
X114046000Y-64152854D01*
X114105018Y-64167799D01*
X114149809Y-64209033D01*
X114233038Y-64336426D01*
X114233045Y-64336435D01*
X114235844Y-64340719D01*
X114239309Y-64344483D01*
X114239313Y-64344488D01*
X114385484Y-64503271D01*
X114388954Y-64507040D01*
X114567351Y-64645893D01*
X114766169Y-64753488D01*
X114979986Y-64826891D01*
X115202967Y-64864100D01*
X115423900Y-64864100D01*
X115429033Y-64864100D01*
X115652014Y-64826891D01*
X115865831Y-64753488D01*
X116064649Y-64645893D01*
X116243046Y-64507040D01*
X116396156Y-64340719D01*
X116417603Y-64307893D01*
X116482191Y-64209033D01*
X116526982Y-64167799D01*
X116586000Y-64152854D01*
X116645018Y-64167799D01*
X116689809Y-64209033D01*
X116773038Y-64336426D01*
X116773045Y-64336435D01*
X116775844Y-64340719D01*
X116779309Y-64344483D01*
X116779313Y-64344488D01*
X116925484Y-64503271D01*
X116928954Y-64507040D01*
X117107351Y-64645893D01*
X117306169Y-64753488D01*
X117519986Y-64826891D01*
X117742967Y-64864100D01*
X117963900Y-64864100D01*
X117969033Y-64864100D01*
X118192014Y-64826891D01*
X118405831Y-64753488D01*
X118604649Y-64645893D01*
X118783046Y-64507040D01*
X118936156Y-64340719D01*
X119059802Y-64151465D01*
X119150611Y-63944441D01*
X119206107Y-63725293D01*
X119224775Y-63500000D01*
X120551225Y-63500000D01*
X120551649Y-63505117D01*
X120569468Y-63720174D01*
X120569469Y-63720183D01*
X120569893Y-63725293D01*
X120571150Y-63730260D01*
X120571152Y-63730267D01*
X120624130Y-63939470D01*
X120625389Y-63944441D01*
X120627449Y-63949137D01*
X120714138Y-64146770D01*
X120714141Y-64146775D01*
X120716198Y-64151465D01*
X120726870Y-64167799D01*
X120837042Y-64336431D01*
X120837045Y-64336435D01*
X120839844Y-64340719D01*
X120843309Y-64344483D01*
X120843313Y-64344488D01*
X120989484Y-64503271D01*
X120992954Y-64507040D01*
X121171351Y-64645893D01*
X121370169Y-64753488D01*
X121583986Y-64826891D01*
X121806967Y-64864100D01*
X122027900Y-64864100D01*
X122033033Y-64864100D01*
X122256014Y-64826891D01*
X122469831Y-64753488D01*
X122668649Y-64645893D01*
X122847046Y-64507040D01*
X123000156Y-64340719D01*
X123021603Y-64307893D01*
X123086191Y-64209033D01*
X123130982Y-64167799D01*
X123190000Y-64152854D01*
X123249018Y-64167799D01*
X123293809Y-64209033D01*
X123377038Y-64336426D01*
X123377045Y-64336435D01*
X123379844Y-64340719D01*
X123383309Y-64344483D01*
X123383313Y-64344488D01*
X123529484Y-64503271D01*
X123532954Y-64507040D01*
X123711351Y-64645893D01*
X123910169Y-64753488D01*
X124123986Y-64826891D01*
X124346967Y-64864100D01*
X124567900Y-64864100D01*
X124573033Y-64864100D01*
X124796014Y-64826891D01*
X125009831Y-64753488D01*
X125208649Y-64645893D01*
X125387046Y-64507040D01*
X125540156Y-64340719D01*
X125561603Y-64307893D01*
X125626191Y-64209033D01*
X125670982Y-64167799D01*
X125730000Y-64152854D01*
X125789018Y-64167799D01*
X125833809Y-64209033D01*
X125917038Y-64336426D01*
X125917045Y-64336435D01*
X125919844Y-64340719D01*
X125923309Y-64344483D01*
X125923313Y-64344488D01*
X126069484Y-64503271D01*
X126072954Y-64507040D01*
X126251351Y-64645893D01*
X126450169Y-64753488D01*
X126663986Y-64826891D01*
X126886967Y-64864100D01*
X127107900Y-64864100D01*
X127113033Y-64864100D01*
X127336014Y-64826891D01*
X127549831Y-64753488D01*
X127748649Y-64645893D01*
X127927046Y-64507040D01*
X128080156Y-64340719D01*
X128101603Y-64307893D01*
X128166191Y-64209033D01*
X128210982Y-64167799D01*
X128270000Y-64152854D01*
X128329018Y-64167799D01*
X128373809Y-64209033D01*
X128457038Y-64336426D01*
X128457045Y-64336435D01*
X128459844Y-64340719D01*
X128463309Y-64344483D01*
X128463313Y-64344488D01*
X128609484Y-64503271D01*
X128612954Y-64507040D01*
X128791351Y-64645893D01*
X128990169Y-64753488D01*
X129203986Y-64826891D01*
X129426967Y-64864100D01*
X129647900Y-64864100D01*
X129653033Y-64864100D01*
X129876014Y-64826891D01*
X130089831Y-64753488D01*
X130288649Y-64645893D01*
X130467046Y-64507040D01*
X130620156Y-64340719D01*
X130641603Y-64307893D01*
X130706191Y-64209033D01*
X130750982Y-64167799D01*
X130810000Y-64152854D01*
X130869018Y-64167799D01*
X130913809Y-64209033D01*
X130997038Y-64336426D01*
X130997045Y-64336435D01*
X130999844Y-64340719D01*
X131003309Y-64344483D01*
X131003313Y-64344488D01*
X131149484Y-64503271D01*
X131152954Y-64507040D01*
X131331351Y-64645893D01*
X131530169Y-64753488D01*
X131743986Y-64826891D01*
X131966967Y-64864100D01*
X132187900Y-64864100D01*
X132193033Y-64864100D01*
X132416014Y-64826891D01*
X132629831Y-64753488D01*
X132828649Y-64645893D01*
X133007046Y-64507040D01*
X133160156Y-64340719D01*
X133181603Y-64307893D01*
X133246191Y-64209033D01*
X133290982Y-64167799D01*
X133350000Y-64152854D01*
X133409018Y-64167799D01*
X133453809Y-64209033D01*
X133537038Y-64336426D01*
X133537045Y-64336435D01*
X133539844Y-64340719D01*
X133543309Y-64344483D01*
X133543313Y-64344488D01*
X133689484Y-64503271D01*
X133692954Y-64507040D01*
X133871351Y-64645893D01*
X134070169Y-64753488D01*
X134283986Y-64826891D01*
X134506967Y-64864100D01*
X134727900Y-64864100D01*
X134733033Y-64864100D01*
X134956014Y-64826891D01*
X135169831Y-64753488D01*
X135368649Y-64645893D01*
X135547046Y-64507040D01*
X135700156Y-64340719D01*
X135721603Y-64307893D01*
X135786191Y-64209033D01*
X135830982Y-64167799D01*
X135890000Y-64152854D01*
X135949018Y-64167799D01*
X135993809Y-64209033D01*
X136077038Y-64336426D01*
X136077045Y-64336435D01*
X136079844Y-64340719D01*
X136083309Y-64344483D01*
X136083313Y-64344488D01*
X136229484Y-64503271D01*
X136232954Y-64507040D01*
X136411351Y-64645893D01*
X136610169Y-64753488D01*
X136823986Y-64826891D01*
X137046967Y-64864100D01*
X137267900Y-64864100D01*
X137273033Y-64864100D01*
X137496014Y-64826891D01*
X137709831Y-64753488D01*
X137908649Y-64645893D01*
X138087046Y-64507040D01*
X138240156Y-64340719D01*
X138261603Y-64307893D01*
X138326191Y-64209033D01*
X138370982Y-64167799D01*
X138430000Y-64152854D01*
X138489018Y-64167799D01*
X138533809Y-64209033D01*
X138617038Y-64336426D01*
X138617045Y-64336435D01*
X138619844Y-64340719D01*
X138623309Y-64344483D01*
X138623313Y-64344488D01*
X138769484Y-64503271D01*
X138772954Y-64507040D01*
X138951351Y-64645893D01*
X139150169Y-64753488D01*
X139363986Y-64826891D01*
X139586967Y-64864100D01*
X139807900Y-64864100D01*
X139813033Y-64864100D01*
X140036014Y-64826891D01*
X140249831Y-64753488D01*
X140448649Y-64645893D01*
X140627046Y-64507040D01*
X140780156Y-64340719D01*
X140903802Y-64151465D01*
X140994611Y-63944441D01*
X141050107Y-63725293D01*
X141068775Y-63500000D01*
X141050107Y-63274707D01*
X140994611Y-63055559D01*
X140903802Y-62848535D01*
X140780156Y-62659281D01*
X140776688Y-62655514D01*
X140776686Y-62655511D01*
X140630514Y-62496727D01*
X140630512Y-62496725D01*
X140627046Y-62492960D01*
X140510978Y-62402620D01*
X140452694Y-62357255D01*
X140452691Y-62357253D01*
X140448649Y-62354107D01*
X140300436Y-62273898D01*
X140254335Y-62248949D01*
X140254330Y-62248947D01*
X140249831Y-62246512D01*
X140244990Y-62244850D01*
X140244983Y-62244847D01*
X140040867Y-62174775D01*
X140040866Y-62174774D01*
X140036014Y-62173109D01*
X140030964Y-62172266D01*
X140030955Y-62172264D01*
X139818095Y-62136744D01*
X139818086Y-62136743D01*
X139813033Y-62135900D01*
X139586967Y-62135900D01*
X139581914Y-62136743D01*
X139581904Y-62136744D01*
X139369044Y-62172264D01*
X139369032Y-62172266D01*
X139363986Y-62173109D01*
X139359136Y-62174773D01*
X139359132Y-62174775D01*
X139155016Y-62244847D01*
X139155005Y-62244851D01*
X139150169Y-62246512D01*
X139145673Y-62248944D01*
X139145664Y-62248949D01*
X138955857Y-62351668D01*
X138955852Y-62351670D01*
X138951351Y-62354107D01*
X138947314Y-62357248D01*
X138947305Y-62357255D01*
X138776995Y-62489814D01*
X138776989Y-62489818D01*
X138772954Y-62492960D01*
X138769492Y-62496719D01*
X138769485Y-62496727D01*
X138623313Y-62655511D01*
X138623304Y-62655521D01*
X138619844Y-62659281D01*
X138617049Y-62663558D01*
X138617042Y-62663568D01*
X138533809Y-62790967D01*
X138489017Y-62832200D01*
X138430000Y-62847145D01*
X138370983Y-62832200D01*
X138326191Y-62790967D01*
X138242957Y-62663568D01*
X138242956Y-62663566D01*
X138240156Y-62659281D01*
X138236688Y-62655514D01*
X138236686Y-62655511D01*
X138090514Y-62496727D01*
X138090512Y-62496725D01*
X138087046Y-62492960D01*
X137970978Y-62402620D01*
X137912694Y-62357255D01*
X137912691Y-62357253D01*
X137908649Y-62354107D01*
X137760436Y-62273898D01*
X137714335Y-62248949D01*
X137714330Y-62248947D01*
X137709831Y-62246512D01*
X137704990Y-62244850D01*
X137704983Y-62244847D01*
X137500867Y-62174775D01*
X137500866Y-62174774D01*
X137496014Y-62173109D01*
X137490964Y-62172266D01*
X137490955Y-62172264D01*
X137278095Y-62136744D01*
X137278086Y-62136743D01*
X137273033Y-62135900D01*
X137046967Y-62135900D01*
X137041914Y-62136743D01*
X137041904Y-62136744D01*
X136829044Y-62172264D01*
X136829032Y-62172266D01*
X136823986Y-62173109D01*
X136819136Y-62174773D01*
X136819132Y-62174775D01*
X136615016Y-62244847D01*
X136615005Y-62244851D01*
X136610169Y-62246512D01*
X136605673Y-62248944D01*
X136605664Y-62248949D01*
X136415857Y-62351668D01*
X136415852Y-62351670D01*
X136411351Y-62354107D01*
X136407314Y-62357248D01*
X136407305Y-62357255D01*
X136236995Y-62489814D01*
X136236989Y-62489818D01*
X136232954Y-62492960D01*
X136229492Y-62496719D01*
X136229485Y-62496727D01*
X136083313Y-62655511D01*
X136083304Y-62655521D01*
X136079844Y-62659281D01*
X136077049Y-62663558D01*
X136077042Y-62663568D01*
X135993809Y-62790967D01*
X135949017Y-62832200D01*
X135890000Y-62847145D01*
X135830983Y-62832200D01*
X135786191Y-62790967D01*
X135702957Y-62663568D01*
X135702956Y-62663566D01*
X135700156Y-62659281D01*
X135696688Y-62655514D01*
X135696686Y-62655511D01*
X135550514Y-62496727D01*
X135550512Y-62496725D01*
X135547046Y-62492960D01*
X135430978Y-62402620D01*
X135372694Y-62357255D01*
X135372691Y-62357253D01*
X135368649Y-62354107D01*
X135220436Y-62273898D01*
X135174335Y-62248949D01*
X135174330Y-62248947D01*
X135169831Y-62246512D01*
X135164990Y-62244850D01*
X135164983Y-62244847D01*
X134960867Y-62174775D01*
X134960866Y-62174774D01*
X134956014Y-62173109D01*
X134950964Y-62172266D01*
X134950955Y-62172264D01*
X134738095Y-62136744D01*
X134738086Y-62136743D01*
X134733033Y-62135900D01*
X134506967Y-62135900D01*
X134501914Y-62136743D01*
X134501904Y-62136744D01*
X134289044Y-62172264D01*
X134289032Y-62172266D01*
X134283986Y-62173109D01*
X134279136Y-62174773D01*
X134279132Y-62174775D01*
X134075016Y-62244847D01*
X134075005Y-62244851D01*
X134070169Y-62246512D01*
X134065673Y-62248944D01*
X134065664Y-62248949D01*
X133875857Y-62351668D01*
X133875852Y-62351670D01*
X133871351Y-62354107D01*
X133867314Y-62357248D01*
X133867305Y-62357255D01*
X133696995Y-62489814D01*
X133696989Y-62489818D01*
X133692954Y-62492960D01*
X133689492Y-62496719D01*
X133689485Y-62496727D01*
X133543313Y-62655511D01*
X133543304Y-62655521D01*
X133539844Y-62659281D01*
X133537049Y-62663558D01*
X133537042Y-62663568D01*
X133453809Y-62790967D01*
X133409017Y-62832200D01*
X133350000Y-62847145D01*
X133290983Y-62832200D01*
X133246191Y-62790967D01*
X133162957Y-62663568D01*
X133162956Y-62663566D01*
X133160156Y-62659281D01*
X133156688Y-62655514D01*
X133156686Y-62655511D01*
X133010514Y-62496727D01*
X133010512Y-62496725D01*
X133007046Y-62492960D01*
X132890978Y-62402620D01*
X132832694Y-62357255D01*
X132832691Y-62357253D01*
X132828649Y-62354107D01*
X132680436Y-62273898D01*
X132634335Y-62248949D01*
X132634330Y-62248947D01*
X132629831Y-62246512D01*
X132624990Y-62244850D01*
X132624983Y-62244847D01*
X132420867Y-62174775D01*
X132420866Y-62174774D01*
X132416014Y-62173109D01*
X132410964Y-62172266D01*
X132410955Y-62172264D01*
X132198095Y-62136744D01*
X132198086Y-62136743D01*
X132193033Y-62135900D01*
X131966967Y-62135900D01*
X131961914Y-62136743D01*
X131961904Y-62136744D01*
X131749044Y-62172264D01*
X131749032Y-62172266D01*
X131743986Y-62173109D01*
X131739136Y-62174773D01*
X131739132Y-62174775D01*
X131535016Y-62244847D01*
X131535005Y-62244851D01*
X131530169Y-62246512D01*
X131525673Y-62248944D01*
X131525664Y-62248949D01*
X131335857Y-62351668D01*
X131335852Y-62351670D01*
X131331351Y-62354107D01*
X131327314Y-62357248D01*
X131327305Y-62357255D01*
X131156995Y-62489814D01*
X131156989Y-62489818D01*
X131152954Y-62492960D01*
X131149492Y-62496719D01*
X131149485Y-62496727D01*
X131003313Y-62655511D01*
X131003304Y-62655521D01*
X130999844Y-62659281D01*
X130997049Y-62663558D01*
X130997042Y-62663568D01*
X130913809Y-62790967D01*
X130869017Y-62832200D01*
X130810000Y-62847145D01*
X130750983Y-62832200D01*
X130706191Y-62790967D01*
X130622957Y-62663568D01*
X130622956Y-62663566D01*
X130620156Y-62659281D01*
X130616688Y-62655514D01*
X130616686Y-62655511D01*
X130470514Y-62496727D01*
X130470512Y-62496725D01*
X130467046Y-62492960D01*
X130350978Y-62402620D01*
X130292694Y-62357255D01*
X130292691Y-62357253D01*
X130288649Y-62354107D01*
X130140436Y-62273898D01*
X130094335Y-62248949D01*
X130094330Y-62248947D01*
X130089831Y-62246512D01*
X130084990Y-62244850D01*
X130084983Y-62244847D01*
X129880867Y-62174775D01*
X129880866Y-62174774D01*
X129876014Y-62173109D01*
X129870964Y-62172266D01*
X129870955Y-62172264D01*
X129658095Y-62136744D01*
X129658086Y-62136743D01*
X129653033Y-62135900D01*
X129426967Y-62135900D01*
X129421914Y-62136743D01*
X129421904Y-62136744D01*
X129209044Y-62172264D01*
X129209032Y-62172266D01*
X129203986Y-62173109D01*
X129199136Y-62174773D01*
X129199132Y-62174775D01*
X128995016Y-62244847D01*
X128995005Y-62244851D01*
X128990169Y-62246512D01*
X128985673Y-62248944D01*
X128985664Y-62248949D01*
X128795857Y-62351668D01*
X128795852Y-62351670D01*
X128791351Y-62354107D01*
X128787314Y-62357248D01*
X128787305Y-62357255D01*
X128616995Y-62489814D01*
X128616989Y-62489818D01*
X128612954Y-62492960D01*
X128609492Y-62496719D01*
X128609485Y-62496727D01*
X128463313Y-62655511D01*
X128463304Y-62655521D01*
X128459844Y-62659281D01*
X128457049Y-62663558D01*
X128457042Y-62663568D01*
X128373809Y-62790967D01*
X128329017Y-62832200D01*
X128270000Y-62847145D01*
X128210983Y-62832200D01*
X128166191Y-62790967D01*
X128082957Y-62663568D01*
X128082956Y-62663566D01*
X128080156Y-62659281D01*
X128076688Y-62655514D01*
X128076686Y-62655511D01*
X127930514Y-62496727D01*
X127930512Y-62496725D01*
X127927046Y-62492960D01*
X127810978Y-62402620D01*
X127752694Y-62357255D01*
X127752691Y-62357253D01*
X127748649Y-62354107D01*
X127600436Y-62273898D01*
X127554335Y-62248949D01*
X127554330Y-62248947D01*
X127549831Y-62246512D01*
X127544990Y-62244850D01*
X127544983Y-62244847D01*
X127340867Y-62174775D01*
X127340866Y-62174774D01*
X127336014Y-62173109D01*
X127330964Y-62172266D01*
X127330955Y-62172264D01*
X127118095Y-62136744D01*
X127118086Y-62136743D01*
X127113033Y-62135900D01*
X126886967Y-62135900D01*
X126881914Y-62136743D01*
X126881904Y-62136744D01*
X126669044Y-62172264D01*
X126669032Y-62172266D01*
X126663986Y-62173109D01*
X126659136Y-62174773D01*
X126659132Y-62174775D01*
X126455016Y-62244847D01*
X126455005Y-62244851D01*
X126450169Y-62246512D01*
X126445673Y-62248944D01*
X126445664Y-62248949D01*
X126255857Y-62351668D01*
X126255852Y-62351670D01*
X126251351Y-62354107D01*
X126247314Y-62357248D01*
X126247305Y-62357255D01*
X126076995Y-62489814D01*
X126076989Y-62489818D01*
X126072954Y-62492960D01*
X126069492Y-62496719D01*
X126069485Y-62496727D01*
X125923313Y-62655511D01*
X125923304Y-62655521D01*
X125919844Y-62659281D01*
X125917049Y-62663558D01*
X125917042Y-62663568D01*
X125833809Y-62790967D01*
X125789017Y-62832200D01*
X125730000Y-62847145D01*
X125670983Y-62832200D01*
X125626191Y-62790967D01*
X125542957Y-62663568D01*
X125542956Y-62663566D01*
X125540156Y-62659281D01*
X125536688Y-62655514D01*
X125536686Y-62655511D01*
X125390514Y-62496727D01*
X125390512Y-62496725D01*
X125387046Y-62492960D01*
X125270978Y-62402620D01*
X125212694Y-62357255D01*
X125212691Y-62357253D01*
X125208649Y-62354107D01*
X125060436Y-62273898D01*
X125014335Y-62248949D01*
X125014330Y-62248947D01*
X125009831Y-62246512D01*
X125004990Y-62244850D01*
X125004983Y-62244847D01*
X124800867Y-62174775D01*
X124800866Y-62174774D01*
X124796014Y-62173109D01*
X124790964Y-62172266D01*
X124790955Y-62172264D01*
X124578095Y-62136744D01*
X124578086Y-62136743D01*
X124573033Y-62135900D01*
X124346967Y-62135900D01*
X124341914Y-62136743D01*
X124341904Y-62136744D01*
X124129044Y-62172264D01*
X124129032Y-62172266D01*
X124123986Y-62173109D01*
X124119136Y-62174773D01*
X124119132Y-62174775D01*
X123915016Y-62244847D01*
X123915005Y-62244851D01*
X123910169Y-62246512D01*
X123905673Y-62248944D01*
X123905664Y-62248949D01*
X123715857Y-62351668D01*
X123715852Y-62351670D01*
X123711351Y-62354107D01*
X123707314Y-62357248D01*
X123707305Y-62357255D01*
X123536995Y-62489814D01*
X123536989Y-62489818D01*
X123532954Y-62492960D01*
X123529492Y-62496719D01*
X123529485Y-62496727D01*
X123383313Y-62655511D01*
X123383304Y-62655521D01*
X123379844Y-62659281D01*
X123377049Y-62663558D01*
X123377042Y-62663568D01*
X123293809Y-62790967D01*
X123249017Y-62832200D01*
X123190000Y-62847145D01*
X123130983Y-62832200D01*
X123086191Y-62790967D01*
X123002957Y-62663568D01*
X123002956Y-62663566D01*
X123000156Y-62659281D01*
X122996688Y-62655514D01*
X122996686Y-62655511D01*
X122850514Y-62496727D01*
X122850512Y-62496725D01*
X122847046Y-62492960D01*
X122730978Y-62402620D01*
X122672694Y-62357255D01*
X122672691Y-62357253D01*
X122668649Y-62354107D01*
X122520436Y-62273898D01*
X122474335Y-62248949D01*
X122474330Y-62248947D01*
X122469831Y-62246512D01*
X122464990Y-62244850D01*
X122464983Y-62244847D01*
X122260867Y-62174775D01*
X122260866Y-62174774D01*
X122256014Y-62173109D01*
X122250964Y-62172266D01*
X122250955Y-62172264D01*
X122038095Y-62136744D01*
X122038086Y-62136743D01*
X122033033Y-62135900D01*
X121806967Y-62135900D01*
X121801914Y-62136743D01*
X121801904Y-62136744D01*
X121589044Y-62172264D01*
X121589032Y-62172266D01*
X121583986Y-62173109D01*
X121579136Y-62174773D01*
X121579132Y-62174775D01*
X121375016Y-62244847D01*
X121375005Y-62244851D01*
X121370169Y-62246512D01*
X121365673Y-62248944D01*
X121365664Y-62248949D01*
X121175857Y-62351668D01*
X121175852Y-62351670D01*
X121171351Y-62354107D01*
X121167314Y-62357248D01*
X121167305Y-62357255D01*
X120996995Y-62489814D01*
X120996989Y-62489818D01*
X120992954Y-62492960D01*
X120989492Y-62496719D01*
X120989485Y-62496727D01*
X120843313Y-62655511D01*
X120843304Y-62655521D01*
X120839844Y-62659281D01*
X120837049Y-62663558D01*
X120837042Y-62663568D01*
X120753809Y-62790967D01*
X120716198Y-62848535D01*
X120714143Y-62853219D01*
X120714138Y-62853229D01*
X120671440Y-62950572D01*
X120625389Y-63055559D01*
X120624131Y-63060524D01*
X120624130Y-63060529D01*
X120571152Y-63269732D01*
X120571150Y-63269741D01*
X120569893Y-63274707D01*
X120569469Y-63279814D01*
X120569468Y-63279825D01*
X120551655Y-63494803D01*
X120551225Y-63500000D01*
X119224775Y-63500000D01*
X119206107Y-63274707D01*
X119150611Y-63055559D01*
X119059802Y-62848535D01*
X118936156Y-62659281D01*
X118932688Y-62655514D01*
X118932686Y-62655511D01*
X118786514Y-62496727D01*
X118786512Y-62496725D01*
X118783046Y-62492960D01*
X118666978Y-62402620D01*
X118608694Y-62357255D01*
X118608691Y-62357253D01*
X118604649Y-62354107D01*
X118456436Y-62273898D01*
X118410335Y-62248949D01*
X118410330Y-62248947D01*
X118405831Y-62246512D01*
X118400990Y-62244850D01*
X118400983Y-62244847D01*
X118196867Y-62174775D01*
X118196866Y-62174774D01*
X118192014Y-62173109D01*
X118186964Y-62172266D01*
X118186955Y-62172264D01*
X117974095Y-62136744D01*
X117974086Y-62136743D01*
X117969033Y-62135900D01*
X117742967Y-62135900D01*
X117737914Y-62136743D01*
X117737904Y-62136744D01*
X117525044Y-62172264D01*
X117525032Y-62172266D01*
X117519986Y-62173109D01*
X117515136Y-62174773D01*
X117515132Y-62174775D01*
X117311016Y-62244847D01*
X117311005Y-62244851D01*
X117306169Y-62246512D01*
X117301673Y-62248944D01*
X117301664Y-62248949D01*
X117111857Y-62351668D01*
X117111852Y-62351670D01*
X117107351Y-62354107D01*
X117103314Y-62357248D01*
X117103305Y-62357255D01*
X116932995Y-62489814D01*
X116932989Y-62489818D01*
X116928954Y-62492960D01*
X116925492Y-62496719D01*
X116925485Y-62496727D01*
X116779313Y-62655511D01*
X116779304Y-62655521D01*
X116775844Y-62659281D01*
X116773049Y-62663558D01*
X116773042Y-62663568D01*
X116689809Y-62790967D01*
X116645017Y-62832200D01*
X116586000Y-62847145D01*
X116526983Y-62832200D01*
X116482191Y-62790967D01*
X116398957Y-62663568D01*
X116398956Y-62663566D01*
X116396156Y-62659281D01*
X116392688Y-62655514D01*
X116392686Y-62655511D01*
X116246514Y-62496727D01*
X116246512Y-62496725D01*
X116243046Y-62492960D01*
X116126978Y-62402620D01*
X116068694Y-62357255D01*
X116068691Y-62357253D01*
X116064649Y-62354107D01*
X115916436Y-62273898D01*
X115870335Y-62248949D01*
X115870330Y-62248947D01*
X115865831Y-62246512D01*
X115860990Y-62244850D01*
X115860983Y-62244847D01*
X115656867Y-62174775D01*
X115656866Y-62174774D01*
X115652014Y-62173109D01*
X115646964Y-62172266D01*
X115646955Y-62172264D01*
X115434095Y-62136744D01*
X115434086Y-62136743D01*
X115429033Y-62135900D01*
X115202967Y-62135900D01*
X115197914Y-62136743D01*
X115197904Y-62136744D01*
X114985044Y-62172264D01*
X114985032Y-62172266D01*
X114979986Y-62173109D01*
X114975136Y-62174773D01*
X114975132Y-62174775D01*
X114771016Y-62244847D01*
X114771005Y-62244851D01*
X114766169Y-62246512D01*
X114761673Y-62248944D01*
X114761664Y-62248949D01*
X114571857Y-62351668D01*
X114571852Y-62351670D01*
X114567351Y-62354107D01*
X114563314Y-62357248D01*
X114563305Y-62357255D01*
X114392995Y-62489814D01*
X114392989Y-62489818D01*
X114388954Y-62492960D01*
X114385492Y-62496719D01*
X114385485Y-62496727D01*
X114239313Y-62655511D01*
X114239304Y-62655521D01*
X114235844Y-62659281D01*
X114233049Y-62663558D01*
X114233042Y-62663568D01*
X114149809Y-62790967D01*
X114105017Y-62832200D01*
X114046000Y-62847145D01*
X113986983Y-62832200D01*
X113942191Y-62790967D01*
X113858957Y-62663568D01*
X113858956Y-62663566D01*
X113856156Y-62659281D01*
X113852688Y-62655514D01*
X113852686Y-62655511D01*
X113706514Y-62496727D01*
X113706512Y-62496725D01*
X113703046Y-62492960D01*
X113586978Y-62402620D01*
X113528694Y-62357255D01*
X113528691Y-62357253D01*
X113524649Y-62354107D01*
X113376436Y-62273898D01*
X113330335Y-62248949D01*
X113330330Y-62248947D01*
X113325831Y-62246512D01*
X113320990Y-62244850D01*
X113320983Y-62244847D01*
X113116867Y-62174775D01*
X113116866Y-62174774D01*
X113112014Y-62173109D01*
X113106964Y-62172266D01*
X113106955Y-62172264D01*
X112894095Y-62136744D01*
X112894086Y-62136743D01*
X112889033Y-62135900D01*
X112662967Y-62135900D01*
X112657914Y-62136743D01*
X112657904Y-62136744D01*
X112445044Y-62172264D01*
X112445032Y-62172266D01*
X112439986Y-62173109D01*
X112435136Y-62174773D01*
X112435132Y-62174775D01*
X112231016Y-62244847D01*
X112231005Y-62244851D01*
X112226169Y-62246512D01*
X112221673Y-62248944D01*
X112221664Y-62248949D01*
X112031857Y-62351668D01*
X112031852Y-62351670D01*
X112027351Y-62354107D01*
X112023314Y-62357248D01*
X112023305Y-62357255D01*
X111852995Y-62489814D01*
X111852989Y-62489818D01*
X111848954Y-62492960D01*
X111845492Y-62496719D01*
X111845485Y-62496727D01*
X111699313Y-62655511D01*
X111699304Y-62655521D01*
X111695844Y-62659281D01*
X111693049Y-62663558D01*
X111693042Y-62663568D01*
X111609809Y-62790967D01*
X111565017Y-62832200D01*
X111506000Y-62847145D01*
X111446983Y-62832200D01*
X111402191Y-62790967D01*
X111318957Y-62663568D01*
X111318956Y-62663566D01*
X111316156Y-62659281D01*
X111312688Y-62655514D01*
X111312686Y-62655511D01*
X111166514Y-62496727D01*
X111166512Y-62496725D01*
X111163046Y-62492960D01*
X111046978Y-62402620D01*
X110988694Y-62357255D01*
X110988691Y-62357253D01*
X110984649Y-62354107D01*
X110836436Y-62273898D01*
X110790335Y-62248949D01*
X110790330Y-62248947D01*
X110785831Y-62246512D01*
X110780990Y-62244850D01*
X110780983Y-62244847D01*
X110576867Y-62174775D01*
X110576866Y-62174774D01*
X110572014Y-62173109D01*
X110566964Y-62172266D01*
X110566955Y-62172264D01*
X110354095Y-62136744D01*
X110354086Y-62136743D01*
X110349033Y-62135900D01*
X110122967Y-62135900D01*
X110117914Y-62136743D01*
X110117904Y-62136744D01*
X109905044Y-62172264D01*
X109905032Y-62172266D01*
X109899986Y-62173109D01*
X109895136Y-62174773D01*
X109895132Y-62174775D01*
X109691016Y-62244847D01*
X109691005Y-62244851D01*
X109686169Y-62246512D01*
X109681673Y-62248944D01*
X109681664Y-62248949D01*
X109491857Y-62351668D01*
X109491852Y-62351670D01*
X109487351Y-62354107D01*
X109483314Y-62357248D01*
X109483305Y-62357255D01*
X109312995Y-62489814D01*
X109312989Y-62489818D01*
X109308954Y-62492960D01*
X109305492Y-62496719D01*
X109305485Y-62496727D01*
X109159313Y-62655511D01*
X109159304Y-62655521D01*
X109155844Y-62659281D01*
X109153049Y-62663558D01*
X109153042Y-62663568D01*
X109069809Y-62790967D01*
X109025017Y-62832200D01*
X108966000Y-62847145D01*
X108906983Y-62832200D01*
X108862191Y-62790967D01*
X108778957Y-62663568D01*
X108778956Y-62663566D01*
X108776156Y-62659281D01*
X108772688Y-62655514D01*
X108772686Y-62655511D01*
X108626514Y-62496727D01*
X108626512Y-62496725D01*
X108623046Y-62492960D01*
X108506978Y-62402620D01*
X108448694Y-62357255D01*
X108448691Y-62357253D01*
X108444649Y-62354107D01*
X108296436Y-62273898D01*
X108250335Y-62248949D01*
X108250330Y-62248947D01*
X108245831Y-62246512D01*
X108240990Y-62244850D01*
X108240983Y-62244847D01*
X108036867Y-62174775D01*
X108036866Y-62174774D01*
X108032014Y-62173109D01*
X108026964Y-62172266D01*
X108026955Y-62172264D01*
X107814095Y-62136744D01*
X107814086Y-62136743D01*
X107809033Y-62135900D01*
X107582967Y-62135900D01*
X107577914Y-62136743D01*
X107577904Y-62136744D01*
X107365044Y-62172264D01*
X107365032Y-62172266D01*
X107359986Y-62173109D01*
X107355136Y-62174773D01*
X107355132Y-62174775D01*
X107151016Y-62244847D01*
X107151005Y-62244851D01*
X107146169Y-62246512D01*
X107141673Y-62248944D01*
X107141664Y-62248949D01*
X106951857Y-62351668D01*
X106951852Y-62351670D01*
X106947351Y-62354107D01*
X106943314Y-62357248D01*
X106943305Y-62357255D01*
X106772995Y-62489814D01*
X106772989Y-62489818D01*
X106768954Y-62492960D01*
X106765492Y-62496719D01*
X106765485Y-62496727D01*
X106619313Y-62655511D01*
X106619304Y-62655521D01*
X106615844Y-62659281D01*
X106613049Y-62663558D01*
X106613042Y-62663568D01*
X106529809Y-62790967D01*
X106485017Y-62832200D01*
X106426000Y-62847145D01*
X106366983Y-62832200D01*
X106322191Y-62790967D01*
X106238957Y-62663568D01*
X106238956Y-62663566D01*
X106236156Y-62659281D01*
X106232688Y-62655514D01*
X106232686Y-62655511D01*
X106086514Y-62496727D01*
X106086512Y-62496725D01*
X106083046Y-62492960D01*
X105966978Y-62402620D01*
X105908694Y-62357255D01*
X105908691Y-62357253D01*
X105904649Y-62354107D01*
X105756436Y-62273898D01*
X105710335Y-62248949D01*
X105710330Y-62248947D01*
X105705831Y-62246512D01*
X105700990Y-62244850D01*
X105700983Y-62244847D01*
X105496867Y-62174775D01*
X105496866Y-62174774D01*
X105492014Y-62173109D01*
X105486964Y-62172266D01*
X105486955Y-62172264D01*
X105274095Y-62136744D01*
X105274086Y-62136743D01*
X105269033Y-62135900D01*
X105042967Y-62135900D01*
X105037914Y-62136743D01*
X105037904Y-62136744D01*
X104825044Y-62172264D01*
X104825032Y-62172266D01*
X104819986Y-62173109D01*
X104815136Y-62174773D01*
X104815132Y-62174775D01*
X104611016Y-62244847D01*
X104611005Y-62244851D01*
X104606169Y-62246512D01*
X104601673Y-62248944D01*
X104601664Y-62248949D01*
X104411857Y-62351668D01*
X104411852Y-62351670D01*
X104407351Y-62354107D01*
X104403314Y-62357248D01*
X104403305Y-62357255D01*
X104232995Y-62489814D01*
X104232989Y-62489818D01*
X104228954Y-62492960D01*
X104225495Y-62496717D01*
X104225477Y-62496734D01*
X104174184Y-62552453D01*
X104121560Y-62586307D01*
X104059106Y-62590154D01*
X104002725Y-62563015D01*
X103966774Y-62511802D01*
X103926052Y-62402622D01*
X103917637Y-62387210D01*
X103842101Y-62286307D01*
X103829692Y-62273898D01*
X103728789Y-62198362D01*
X103713377Y-62189947D01*
X103594241Y-62145511D01*
X103579267Y-62141973D01*
X103530714Y-62136753D01*
X103524118Y-62136400D01*
X102882326Y-62136400D01*
X102869450Y-62139850D01*
X102866000Y-62152726D01*
X102866000Y-64847274D01*
X102366000Y-64847274D01*
X102366000Y-62152726D01*
X102362549Y-62139850D01*
X102349674Y-62136400D01*
X101707882Y-62136400D01*
X101701285Y-62136753D01*
X101652732Y-62141973D01*
X101637758Y-62145511D01*
X101518622Y-62189947D01*
X101503210Y-62198362D01*
X101402307Y-62273898D01*
X101389898Y-62286307D01*
X101314362Y-62387210D01*
X101305948Y-62402620D01*
X101265225Y-62511803D01*
X101229273Y-62563016D01*
X101172892Y-62590154D01*
X101110438Y-62586306D01*
X101057814Y-62552453D01*
X101006515Y-62496728D01*
X101006513Y-62496726D01*
X101003046Y-62492960D01*
X100886978Y-62402620D01*
X100828694Y-62357255D01*
X100828691Y-62357253D01*
X100824649Y-62354107D01*
X100676436Y-62273898D01*
X100630335Y-62248949D01*
X100630330Y-62248947D01*
X100625831Y-62246512D01*
X100620990Y-62244850D01*
X100620983Y-62244847D01*
X100416867Y-62174775D01*
X100416866Y-62174774D01*
X100412014Y-62173109D01*
X100406964Y-62172266D01*
X100406955Y-62172264D01*
X100194095Y-62136744D01*
X100194086Y-62136743D01*
X100189033Y-62135900D01*
X99962967Y-62135900D01*
X99957914Y-62136743D01*
X99957904Y-62136744D01*
X99745044Y-62172264D01*
X99745032Y-62172266D01*
X99739986Y-62173109D01*
X99735136Y-62174773D01*
X99735132Y-62174775D01*
X99531016Y-62244847D01*
X99531005Y-62244851D01*
X99526169Y-62246512D01*
X99521673Y-62248944D01*
X99521664Y-62248949D01*
X99331857Y-62351668D01*
X99331852Y-62351670D01*
X99327351Y-62354107D01*
X99323314Y-62357248D01*
X99323305Y-62357255D01*
X99152995Y-62489814D01*
X99152989Y-62489818D01*
X99148954Y-62492960D01*
X99145492Y-62496719D01*
X99145485Y-62496727D01*
X98999313Y-62655511D01*
X98999304Y-62655521D01*
X98995844Y-62659281D01*
X98993049Y-62663558D01*
X98993042Y-62663568D01*
X98909809Y-62790967D01*
X98865017Y-62832200D01*
X98806000Y-62847145D01*
X98746983Y-62832200D01*
X98702191Y-62790967D01*
X98618957Y-62663568D01*
X98618956Y-62663566D01*
X98616156Y-62659281D01*
X98612688Y-62655514D01*
X98612686Y-62655511D01*
X98466514Y-62496727D01*
X98466512Y-62496725D01*
X98463046Y-62492960D01*
X98346978Y-62402620D01*
X98288694Y-62357255D01*
X98288691Y-62357253D01*
X98284649Y-62354107D01*
X98136436Y-62273898D01*
X98090335Y-62248949D01*
X98090330Y-62248947D01*
X98085831Y-62246512D01*
X98080990Y-62244850D01*
X98080983Y-62244847D01*
X97876867Y-62174775D01*
X97876866Y-62174774D01*
X97872014Y-62173109D01*
X97866964Y-62172266D01*
X97866955Y-62172264D01*
X97654095Y-62136744D01*
X97654086Y-62136743D01*
X97649033Y-62135900D01*
X97422967Y-62135900D01*
X97417914Y-62136743D01*
X97417904Y-62136744D01*
X97205044Y-62172264D01*
X97205032Y-62172266D01*
X97199986Y-62173109D01*
X97195136Y-62174773D01*
X97195132Y-62174775D01*
X96991016Y-62244847D01*
X96991005Y-62244851D01*
X96986169Y-62246512D01*
X96981673Y-62248944D01*
X96981664Y-62248949D01*
X96791857Y-62351668D01*
X96791852Y-62351670D01*
X96787351Y-62354107D01*
X96783314Y-62357248D01*
X96783305Y-62357255D01*
X96612995Y-62489814D01*
X96612989Y-62489818D01*
X96608954Y-62492960D01*
X96605492Y-62496719D01*
X96605485Y-62496727D01*
X96459313Y-62655511D01*
X96459304Y-62655521D01*
X96455844Y-62659281D01*
X96453049Y-62663558D01*
X96453042Y-62663568D01*
X96369809Y-62790967D01*
X96325017Y-62832200D01*
X96266000Y-62847145D01*
X96206983Y-62832200D01*
X96162191Y-62790967D01*
X96078957Y-62663568D01*
X96078956Y-62663566D01*
X96076156Y-62659281D01*
X96072688Y-62655514D01*
X96072686Y-62655511D01*
X95926514Y-62496727D01*
X95926512Y-62496725D01*
X95923046Y-62492960D01*
X95806978Y-62402620D01*
X95748694Y-62357255D01*
X95748691Y-62357253D01*
X95744649Y-62354107D01*
X95596436Y-62273898D01*
X95550335Y-62248949D01*
X95550330Y-62248947D01*
X95545831Y-62246512D01*
X95540990Y-62244850D01*
X95540983Y-62244847D01*
X95336867Y-62174775D01*
X95336866Y-62174774D01*
X95332014Y-62173109D01*
X95326964Y-62172266D01*
X95326955Y-62172264D01*
X95114095Y-62136744D01*
X95114086Y-62136743D01*
X95109033Y-62135900D01*
X94882967Y-62135900D01*
X94877914Y-62136743D01*
X94877904Y-62136744D01*
X94665044Y-62172264D01*
X94665032Y-62172266D01*
X94659986Y-62173109D01*
X94655136Y-62174773D01*
X94655132Y-62174775D01*
X94451016Y-62244847D01*
X94451005Y-62244851D01*
X94446169Y-62246512D01*
X94441673Y-62248944D01*
X94441664Y-62248949D01*
X94251857Y-62351668D01*
X94251852Y-62351670D01*
X94247351Y-62354107D01*
X94243314Y-62357248D01*
X94243305Y-62357255D01*
X94072995Y-62489814D01*
X94072989Y-62489818D01*
X94068954Y-62492960D01*
X94065492Y-62496719D01*
X94065485Y-62496727D01*
X93919313Y-62655511D01*
X93919304Y-62655521D01*
X93915844Y-62659281D01*
X93913049Y-62663558D01*
X93913042Y-62663568D01*
X93829809Y-62790967D01*
X93792198Y-62848535D01*
X93790143Y-62853219D01*
X93790138Y-62853229D01*
X93747440Y-62950572D01*
X93701389Y-63055559D01*
X93700131Y-63060524D01*
X93700130Y-63060529D01*
X93647152Y-63269732D01*
X93647150Y-63269741D01*
X93645893Y-63274707D01*
X93645469Y-63279814D01*
X93645468Y-63279825D01*
X93627655Y-63494803D01*
X93627225Y-63500000D01*
X93375431Y-63500000D01*
X93355731Y-63224559D01*
X93297032Y-62954726D01*
X93200530Y-62695993D01*
X93068188Y-62453627D01*
X92902701Y-62232562D01*
X92707438Y-62037299D01*
X92486373Y-61871812D01*
X92244007Y-61739470D01*
X92239864Y-61737924D01*
X92239858Y-61737922D01*
X91989427Y-61644517D01*
X91985274Y-61642968D01*
X91969033Y-61639435D01*
X91719774Y-61585211D01*
X91719765Y-61585209D01*
X91715441Y-61584269D01*
X91711027Y-61583953D01*
X91711018Y-61583952D01*
X91511154Y-61569658D01*
X91511152Y-61569657D01*
X91508944Y-61569500D01*
X91371056Y-61569500D01*
X91368848Y-61569657D01*
X91368845Y-61569658D01*
X91168981Y-61583952D01*
X91168970Y-61583953D01*
X91164559Y-61584269D01*
X91160235Y-61585209D01*
X91160225Y-61585211D01*
X90899060Y-61642025D01*
X90899057Y-61642025D01*
X90894726Y-61642968D01*
X90890576Y-61644515D01*
X90890572Y-61644517D01*
X90640141Y-61737922D01*
X90640130Y-61737926D01*
X90635993Y-61739470D01*
X90632111Y-61741589D01*
X90632106Y-61741592D01*
X90397521Y-61869685D01*
X90397513Y-61869689D01*
X90393627Y-61871812D01*
X90390077Y-61874469D01*
X90390073Y-61874472D01*
X90176113Y-62034640D01*
X90176106Y-62034645D01*
X90172562Y-62037299D01*
X90169431Y-62040429D01*
X90169424Y-62040436D01*
X89980436Y-62229424D01*
X89980429Y-62229431D01*
X89977299Y-62232562D01*
X89974645Y-62236106D01*
X89974640Y-62236113D01*
X89814472Y-62450073D01*
X89811812Y-62453627D01*
X89809689Y-62457513D01*
X89809685Y-62457521D01*
X89699516Y-62659281D01*
X89679470Y-62695993D01*
X89677926Y-62700130D01*
X89677922Y-62700141D01*
X89620824Y-62853229D01*
X89582968Y-62954726D01*
X89582025Y-62959057D01*
X89582025Y-62959060D01*
X89525211Y-63220225D01*
X89525209Y-63220235D01*
X89524269Y-63224559D01*
X89523953Y-63228970D01*
X89523952Y-63228981D01*
X89521038Y-63269732D01*
X89504569Y-63500000D01*
X75892500Y-63500000D01*
X75892500Y-60776500D01*
X75909113Y-60714500D01*
X75954500Y-60669113D01*
X76016500Y-60652500D01*
X141089589Y-60652500D01*
X141137042Y-60661939D01*
G37*
%TD.AperFunction*%
%TD*%
M02*
