M48
; DRILL file {KiCad (7.0.0)} date Fri Mar 24 19:09:22 2023
; FORMAT={-:-/ absolute / metric / decimal}
; #@! TF.CreationDate,2023-03-24T19:09:22-05:00
; #@! TF.GenerationSoftware,Kicad,Pcbnew,(7.0.0)
; #@! TF.FileFunction,Plated,1,4,PTH
FMAT,2
METRIC
; #@! TA.AperFunction,Plated,PTH,ViaDrill
T1C0.250
; #@! TA.AperFunction,Plated,PTH,ViaDrill
T2C0.500
; #@! TA.AperFunction,Plated,PTH,ComponentDrill
T3C0.800
; #@! TA.AperFunction,Plated,PTH,ComponentDrill
T4C1.016
; #@! TA.AperFunction,Plated,PTH,ComponentDrill
T5C1.200
%
G90
G05
T1
X24.892Y-89.173
X24.892Y-90.951
X24.892Y-92.729
X26.924Y-84.347
X29.972Y-88.157
X30.734Y-83.331
X30.988Y-89.439
X30.988Y-90.189
X31.242Y-91.948
X35.052Y-70.866
X35.052Y-72.898
X35.052Y-74.422
X35.052Y-76.454
X35.56Y-86.36
X35.56Y-92.202
X37.004Y-102.108
X37.004Y-104.14
X37.084Y-70.866
X37.084Y-72.898
X37.084Y-74.422
X37.084Y-76.454
X38.782Y-102.108
X38.782Y-104.14
X39.624Y-84.347
X39.878Y-87.395
X39.878Y-89.681
X41.148Y-92.983
X41.656Y-85.363
X41.83Y-102.108
X41.83Y-104.14
X41.91Y-90.951
X43.862Y-102.108
X43.862Y-104.14
X51.054Y-105.41
X52.578Y-99.568
X53.848Y-85.344
X53.848Y-88.646
X53.848Y-92.456
X53.848Y-95.758
X55.118Y-99.568
X56.642Y-105.41
X63.5Y-69.85
X63.5Y-72.39
X63.5Y-74.93
X66.18Y-87.206
X66.434Y-92.794
X66.802Y-84.836
X68.212Y-88.476
X68.212Y-90.762
X68.466Y-93.81
X68.834Y-102.362
X68.834Y-104.394
X70.866Y-102.362
X70.866Y-104.394
X72.39Y-85.852
X72.39Y-91.694
X72.644Y-70.612
X72.644Y-73.152
X72.644Y-75.692
X73.914Y-102.362
X73.914Y-104.394
X75.692Y-102.362
X75.692Y-104.394
X76.708Y-86.36
X77.102Y-87.968
X77.102Y-88.718
X78.118Y-90.0
X81.166Y-93.81
X83.198Y-85.428
X83.198Y-87.206
X83.198Y-88.984
T2
X77.356Y-94.826
T3
X36.068Y-71.938
X36.068Y-75.438
X37.846Y-103.124
X42.846Y-103.124
X69.85Y-103.378
X74.85Y-103.378
T4
X41.656Y-63.5
X44.196Y-63.5
X46.736Y-63.5
X49.276Y-63.5
X50.8Y-111.76
X51.816Y-63.5
X53.34Y-111.76
X54.356Y-63.5
X55.88Y-111.76
X56.896Y-63.5
X58.42Y-111.76
X59.436Y-63.5
X60.96Y-111.76
X61.976Y-63.5
X63.5Y-111.76
X64.516Y-63.5
X66.04Y-111.76
X68.58Y-63.5
X68.58Y-111.76
X71.12Y-63.5
X73.66Y-63.5
X73.66Y-111.76
X76.2Y-63.5
X76.2Y-111.76
X78.74Y-63.5
X78.74Y-111.76
X81.28Y-63.5
X81.28Y-111.76
X83.82Y-63.5
X83.82Y-111.76
X86.36Y-63.5
X86.36Y-111.76
X86.487Y-83.82
X86.487Y-86.36
X86.487Y-88.9
X89.027Y-83.82
X89.027Y-86.36
X89.027Y-88.9
T5
X30.988Y-104.648
X30.988Y-108.148
X46.99Y-83.82
X46.99Y-87.32
X46.99Y-90.82
X46.99Y-94.32
X60.96Y-83.82
X60.96Y-87.32
X60.96Y-90.82
X60.96Y-94.32
T0
M30
