%TF.GenerationSoftware,KiCad,Pcbnew,(7.0.0)*%
%TF.CreationDate,2023-03-24T19:09:28-05:00*%
%TF.ProjectId,TurretCtl,54757272-6574-4437-946c-2e6b69636164,rev?*%
%TF.SameCoordinates,Original*%
%TF.FileFunction,Soldermask,Bot*%
%TF.FilePolarity,Negative*%
%FSLAX46Y46*%
G04 Gerber Fmt 4.6, Leading zero omitted, Abs format (unit mm)*
G04 Created by KiCad (PCBNEW (7.0.0)) date 2023-03-24 19:09:28*
%MOMM*%
%LPD*%
G01*
G04 APERTURE LIST*
G04 Aperture macros list*
%AMRoundRect*
0 Rectangle with rounded corners*
0 $1 Rounding radius*
0 $2 $3 $4 $5 $6 $7 $8 $9 X,Y pos of 4 corners*
0 Add a 4 corners polygon primitive as box body*
4,1,4,$2,$3,$4,$5,$6,$7,$8,$9,$2,$3,0*
0 Add four circle primitives for the rounded corners*
1,1,$1+$1,$2,$3*
1,1,$1+$1,$4,$5*
1,1,$1+$1,$6,$7*
1,1,$1+$1,$8,$9*
0 Add four rect primitives between the rounded corners*
20,1,$1+$1,$2,$3,$4,$5,0*
20,1,$1+$1,$4,$5,$6,$7,0*
20,1,$1+$1,$6,$7,$8,$9,0*
20,1,$1+$1,$8,$9,$2,$3,0*%
G04 Aperture macros list end*
%ADD10O,1.727200X1.727200*%
%ADD11R,1.727200X1.727200*%
%ADD12C,3.200000*%
%ADD13RoundRect,0.250000X-1.550000X0.650000X-1.550000X-0.650000X1.550000X-0.650000X1.550000X0.650000X0*%
%ADD14O,3.600000X1.800000*%
%ADD15RoundRect,0.250000X1.550000X-0.650000X1.550000X0.650000X-1.550000X0.650000X-1.550000X-0.650000X0*%
%ADD16C,1.600000*%
G04 APERTURE END LIST*
D10*
%TO.C,XA1*%
X68579999Y-111759999D03*
X44195999Y-63499999D03*
X41655999Y-63499999D03*
X86486999Y-86359999D03*
X86486999Y-88899999D03*
X55879999Y-111759999D03*
X89026999Y-86359999D03*
X86486999Y-83819999D03*
X53339999Y-111759999D03*
D11*
X89026999Y-88899999D03*
X66039999Y-111759999D03*
X63499999Y-111759999D03*
X49275999Y-63499999D03*
D10*
X51815999Y-63499999D03*
X54355999Y-63499999D03*
X56895999Y-63499999D03*
X59435999Y-63499999D03*
X61975999Y-63499999D03*
X64515999Y-63499999D03*
X68579999Y-63499999D03*
X71119999Y-63499999D03*
X73659999Y-63499999D03*
X76199999Y-63499999D03*
X78739999Y-63499999D03*
X81279999Y-63499999D03*
X83819999Y-63499999D03*
X86359999Y-63499999D03*
X46735999Y-63499999D03*
X86359999Y-111759999D03*
X83819999Y-111759999D03*
X81279999Y-111759999D03*
X78739999Y-111759999D03*
X76199999Y-111759999D03*
X73659999Y-111759999D03*
X89026999Y-83819999D03*
X60959999Y-111759999D03*
X58419999Y-111759999D03*
D12*
X88900000Y-78740000D03*
D10*
X50799999Y-111759999D03*
D12*
X88900000Y-106680000D03*
X38100000Y-63500000D03*
X36830000Y-111760000D03*
%TD*%
D13*
%TO.C,J4*%
X30988000Y-104648000D03*
D14*
X30987999Y-108147999D03*
%TD*%
%TO.C,J3*%
X60959999Y-94319999D03*
X60959999Y-90819999D03*
X60959999Y-87319999D03*
D13*
X60960000Y-83820000D03*
%TD*%
D14*
%TO.C,J2*%
X46989999Y-83819999D03*
X46989999Y-87319999D03*
X46989999Y-90819999D03*
D15*
X46990000Y-94320000D03*
%TD*%
D16*
%TO.C,C15*%
X36068000Y-75438000D03*
X36068000Y-71938000D03*
%TD*%
%TO.C,C12*%
X69850000Y-103378000D03*
X74850000Y-103378000D03*
%TD*%
%TO.C,C7*%
X42846000Y-103124000D03*
X37846000Y-103124000D03*
%TD*%
M02*
