%TF.GenerationSoftware,KiCad,Pcbnew,(7.0.0)*%
%TF.CreationDate,2023-04-12T03:46:22-05:00*%
%TF.ProjectId,TurretCtl,54757272-6574-4437-946c-2e6b69636164,rev?*%
%TF.SameCoordinates,Original*%
%TF.FileFunction,Paste,Top*%
%TF.FilePolarity,Positive*%
%FSLAX46Y46*%
G04 Gerber Fmt 4.6, Leading zero omitted, Abs format (unit mm)*
G04 Created by KiCad (PCBNEW (7.0.0)) date 2023-04-12 03:46:22*
%MOMM*%
%LPD*%
G01*
G04 APERTURE LIST*
G04 Aperture macros list*
%AMRoundRect*
0 Rectangle with rounded corners*
0 $1 Rounding radius*
0 $2 $3 $4 $5 $6 $7 $8 $9 X,Y pos of 4 corners*
0 Add a 4 corners polygon primitive as box body*
4,1,4,$2,$3,$4,$5,$6,$7,$8,$9,$2,$3,0*
0 Add four circle primitives for the rounded corners*
1,1,$1+$1,$2,$3*
1,1,$1+$1,$4,$5*
1,1,$1+$1,$6,$7*
1,1,$1+$1,$8,$9*
0 Add four rect primitives between the rounded corners*
20,1,$1+$1,$2,$3,$4,$5,0*
20,1,$1+$1,$4,$5,$6,$7,0*
20,1,$1+$1,$6,$7,$8,$9,0*
20,1,$1+$1,$8,$9,$2,$3,0*%
G04 Aperture macros list end*
%ADD10RoundRect,0.140000X-0.170000X0.140000X-0.170000X-0.140000X0.170000X-0.140000X0.170000X0.140000X0*%
%ADD11RoundRect,0.218750X-0.256250X0.218750X-0.256250X-0.218750X0.256250X-0.218750X0.256250X0.218750X0*%
%ADD12RoundRect,0.135000X-0.185000X0.135000X-0.185000X-0.135000X0.185000X-0.135000X0.185000X0.135000X0*%
%ADD13RoundRect,0.218750X0.256250X-0.218750X0.256250X0.218750X-0.256250X0.218750X-0.256250X-0.218750X0*%
%ADD14RoundRect,0.135000X0.185000X-0.135000X0.185000X0.135000X-0.185000X0.135000X-0.185000X-0.135000X0*%
%ADD15RoundRect,0.250001X0.949999X-0.714999X0.949999X0.714999X-0.949999X0.714999X-0.949999X-0.714999X0*%
%ADD16RoundRect,0.100000X0.100000X-0.687500X0.100000X0.687500X-0.100000X0.687500X-0.100000X-0.687500X0*%
%ADD17RoundRect,0.140000X0.170000X-0.140000X0.170000X0.140000X-0.170000X0.140000X-0.170000X-0.140000X0*%
G04 APERTURE END LIST*
D10*
%TO.C,C10*%
X138684000Y-68636000D03*
X138684000Y-69596000D03*
%TD*%
D11*
%TO.C,D8*%
X126746000Y-92460000D03*
X126746000Y-94035000D03*
%TD*%
D12*
%TO.C,R21*%
X112522000Y-87376000D03*
X112522000Y-88396000D03*
%TD*%
D13*
%TO.C,D3*%
X126746000Y-85852000D03*
X126746000Y-84277000D03*
%TD*%
D14*
%TO.C,R6*%
X120650000Y-90932000D03*
X120650000Y-89912000D03*
%TD*%
D12*
%TO.C,R3*%
X140462000Y-56638000D03*
X140462000Y-57658000D03*
%TD*%
%TO.C,R24*%
X118618000Y-87376000D03*
X118618000Y-88396000D03*
%TD*%
D14*
%TO.C,R12*%
X126746000Y-90936000D03*
X126746000Y-89916000D03*
%TD*%
D13*
%TO.C,D1*%
X114554000Y-77775000D03*
X114554000Y-76200000D03*
%TD*%
D14*
%TO.C,R8*%
X122682000Y-90932000D03*
X122682000Y-89912000D03*
%TD*%
%TO.C,R26*%
X118618000Y-90932000D03*
X118618000Y-89912000D03*
%TD*%
D12*
%TO.C,R11*%
X122682000Y-87376000D03*
X122682000Y-88396000D03*
%TD*%
D13*
%TO.C,D18*%
X118618000Y-77724000D03*
X118618000Y-76149000D03*
%TD*%
D11*
%TO.C,D16*%
X112522000Y-92456000D03*
X112522000Y-94031000D03*
%TD*%
D15*
%TO.C,U2*%
X121920000Y-63500000D03*
D16*
X118345000Y-66362500D03*
X118995000Y-66362500D03*
X119645000Y-66362500D03*
X120295000Y-66362500D03*
X120945000Y-66362500D03*
X121595000Y-66362500D03*
X122245000Y-66362500D03*
X122895000Y-66362500D03*
X123545000Y-66362500D03*
X124195000Y-66362500D03*
X124845000Y-66362500D03*
X125495000Y-66362500D03*
X125495000Y-60637500D03*
X124845000Y-60637500D03*
X124195000Y-60637500D03*
X123545000Y-60637500D03*
X122895000Y-60637500D03*
X122245000Y-60637500D03*
X121595000Y-60637500D03*
X120945000Y-60637500D03*
X120295000Y-60637500D03*
X119645000Y-60637500D03*
X118995000Y-60637500D03*
X118345000Y-60637500D03*
%TD*%
D17*
%TO.C,C9*%
X125984000Y-58420000D03*
X125984000Y-57460000D03*
%TD*%
D13*
%TO.C,D11*%
X116586000Y-85852000D03*
X116586000Y-84277000D03*
%TD*%
%TO.C,D7*%
X122682000Y-85852000D03*
X122682000Y-84277000D03*
%TD*%
D14*
%TO.C,R20*%
X112522000Y-90932000D03*
X112522000Y-89912000D03*
%TD*%
D17*
%TO.C,C8*%
X124714000Y-58420000D03*
X124714000Y-57460000D03*
%TD*%
D15*
%TO.C,U1*%
X139700000Y-63500000D03*
D16*
X136125000Y-66362500D03*
X136775000Y-66362500D03*
X137425000Y-66362500D03*
X138075000Y-66362500D03*
X138725000Y-66362500D03*
X139375000Y-66362500D03*
X140025000Y-66362500D03*
X140675000Y-66362500D03*
X141325000Y-66362500D03*
X141975000Y-66362500D03*
X142625000Y-66362500D03*
X143275000Y-66362500D03*
X143275000Y-60637500D03*
X142625000Y-60637500D03*
X141975000Y-60637500D03*
X141325000Y-60637500D03*
X140675000Y-60637500D03*
X140025000Y-60637500D03*
X139375000Y-60637500D03*
X138725000Y-60637500D03*
X138075000Y-60637500D03*
X137425000Y-60637500D03*
X136775000Y-60637500D03*
X136125000Y-60637500D03*
%TD*%
D13*
%TO.C,D17*%
X112522000Y-85852000D03*
X112522000Y-84277000D03*
%TD*%
D12*
%TO.C,R14*%
X122682000Y-79248000D03*
X122682000Y-80268000D03*
%TD*%
%TO.C,R23*%
X116586000Y-79248000D03*
X116586000Y-80268000D03*
%TD*%
D17*
%TO.C,C13*%
X142494000Y-58420000D03*
X142494000Y-57460000D03*
%TD*%
%TO.C,C3*%
X118364000Y-69519800D03*
X118364000Y-68559800D03*
%TD*%
D11*
%TO.C,D12*%
X114554000Y-92456000D03*
X114554000Y-94031000D03*
%TD*%
D12*
%TO.C,R22*%
X118618000Y-79248000D03*
X118618000Y-80268000D03*
%TD*%
D17*
%TO.C,C1*%
X136144000Y-69540000D03*
X136144000Y-68580000D03*
%TD*%
D13*
%TO.C,D20*%
X118618000Y-85852000D03*
X118618000Y-84277000D03*
%TD*%
%TO.C,D19*%
X116586000Y-77775000D03*
X116586000Y-76200000D03*
%TD*%
D17*
%TO.C,C11*%
X143256000Y-69596000D03*
X143256000Y-68636000D03*
%TD*%
D11*
%TO.C,D6*%
X124714000Y-92460000D03*
X124714000Y-94035000D03*
%TD*%
D12*
%TO.C,R18*%
X112522000Y-79248000D03*
X112522000Y-80268000D03*
%TD*%
D13*
%TO.C,D14*%
X112522000Y-77775000D03*
X112522000Y-76200000D03*
%TD*%
D12*
%TO.C,R7*%
X126746000Y-87376000D03*
X126746000Y-88396000D03*
%TD*%
D17*
%TO.C,C2*%
X137414000Y-71374000D03*
X137414000Y-70414000D03*
%TD*%
D12*
%TO.C,R13*%
X120650000Y-87376000D03*
X120650000Y-88396000D03*
%TD*%
D13*
%TO.C,D9*%
X120650000Y-85852000D03*
X120650000Y-84277000D03*
%TD*%
D17*
%TO.C,C6*%
X125476000Y-69596000D03*
X125476000Y-68636000D03*
%TD*%
D12*
%TO.C,R19*%
X120650000Y-79248000D03*
X120650000Y-80268000D03*
%TD*%
%TO.C,R17*%
X114554000Y-87376000D03*
X114554000Y-88396000D03*
%TD*%
D14*
%TO.C,R25*%
X116586000Y-90932000D03*
X116586000Y-89912000D03*
%TD*%
D13*
%TO.C,D5*%
X124714000Y-85852000D03*
X124714000Y-84277000D03*
%TD*%
D10*
%TO.C,C5*%
X120904000Y-68580000D03*
X120904000Y-69540000D03*
%TD*%
D17*
%TO.C,C14*%
X143764000Y-58420000D03*
X143764000Y-57460000D03*
%TD*%
D14*
%TO.C,R4*%
X138938000Y-57658000D03*
X138938000Y-56638000D03*
%TD*%
D12*
%TO.C,R5*%
X114554000Y-79248000D03*
X114554000Y-80268000D03*
%TD*%
D14*
%TO.C,R10*%
X124714000Y-90936000D03*
X124714000Y-89916000D03*
%TD*%
D13*
%TO.C,D13*%
X114554000Y-85852000D03*
X114554000Y-84277000D03*
%TD*%
D11*
%TO.C,D2*%
X120650000Y-92405000D03*
X120650000Y-93980000D03*
%TD*%
D12*
%TO.C,R9*%
X124714000Y-87376000D03*
X124714000Y-88396000D03*
%TD*%
%TO.C,R2*%
X122682000Y-56642000D03*
X122682000Y-57662000D03*
%TD*%
D11*
%TO.C,D22*%
X118618000Y-92456000D03*
X118618000Y-94031000D03*
%TD*%
D12*
%TO.C,R15*%
X116586000Y-87376000D03*
X116586000Y-88396000D03*
%TD*%
D11*
%TO.C,D21*%
X116586000Y-92456000D03*
X116586000Y-94031000D03*
%TD*%
D17*
%TO.C,C4*%
X119634000Y-71318000D03*
X119634000Y-70358000D03*
%TD*%
D14*
%TO.C,R1*%
X121158000Y-57658000D03*
X121158000Y-56638000D03*
%TD*%
%TO.C,R16*%
X114554000Y-90932000D03*
X114554000Y-89912000D03*
%TD*%
D11*
%TO.C,D4*%
X122682000Y-92456000D03*
X122682000Y-94031000D03*
%TD*%
D13*
%TO.C,D10*%
X122682000Y-77724000D03*
X122682000Y-76149000D03*
%TD*%
%TO.C,D15*%
X120650000Y-77724000D03*
X120650000Y-76149000D03*
%TD*%
M02*
