%TF.GenerationSoftware,KiCad,Pcbnew,(7.0.0)*%
%TF.CreationDate,2023-03-01T19:42:45-06:00*%
%TF.ProjectId,TurretCtl,54757272-6574-4437-946c-2e6b69636164,rev?*%
%TF.SameCoordinates,Original*%
%TF.FileFunction,Legend,Top*%
%TF.FilePolarity,Positive*%
%FSLAX46Y46*%
G04 Gerber Fmt 4.6, Leading zero omitted, Abs format (unit mm)*
G04 Created by KiCad (PCBNEW (7.0.0)) date 2023-03-01 19:42:45*
%MOMM*%
%LPD*%
G01*
G04 APERTURE LIST*
%ADD10C,0.150000*%
%ADD11C,0.050000*%
%ADD12C,0.075800*%
%ADD13C,0.075000*%
%ADD14C,0.120000*%
G04 APERTURE END LIST*
D10*
X126238001Y-82804000D02*
G75*
G03*
X126238001Y-82804000I-1J0D01*
G01*
D11*
X138430000Y-100076000D02*
X137668000Y-100838000D01*
X137668000Y-100330000D01*
X136398000Y-100330000D01*
X136398000Y-99822000D01*
X137668000Y-99822000D01*
X137668000Y-99314000D01*
X138430000Y-100076000D01*
X87884000Y-94742000D02*
X89154000Y-94742000D01*
X89154000Y-95250000D01*
X87884000Y-95250000D01*
X87884000Y-95758000D01*
X87122000Y-94996000D01*
X87884000Y-94234000D01*
X87884000Y-94742000D01*
X104749600Y-82778600D02*
G75*
G03*
X104749600Y-82778600I-50800J0D01*
G01*
D12*
X104736700Y-82778600D02*
G75*
G03*
X104736700Y-82778600I-37900J0D01*
G01*
D10*
X109982000Y-78994000D02*
X109474000Y-78994000D01*
X109474000Y-80010000D01*
X108966000Y-80010000D01*
X108966000Y-78994000D01*
X108458000Y-78994000D01*
X109220000Y-78232000D01*
X109982000Y-78994000D01*
D11*
X131572000Y-78994000D02*
X131064000Y-78994000D01*
X131064000Y-80264000D01*
X130556000Y-80264000D01*
X130556000Y-78994000D01*
X130048000Y-78994000D01*
X130810000Y-78232000D01*
X131572000Y-78994000D01*
D10*
X104648001Y-82804000D02*
G75*
G03*
X104648001Y-82804000I-1J0D01*
G01*
D11*
X126288800Y-82804000D02*
G75*
G03*
X126288800Y-82804000I-50800J0D01*
G01*
D10*
X110982095Y-98969428D02*
X111744000Y-98969428D01*
X111363047Y-99350380D02*
X111363047Y-98588476D01*
X122110476Y-68314761D02*
X122253333Y-68362380D01*
X122253333Y-68362380D02*
X122491428Y-68362380D01*
X122491428Y-68362380D02*
X122586666Y-68314761D01*
X122586666Y-68314761D02*
X122634285Y-68267142D01*
X122634285Y-68267142D02*
X122681904Y-68171904D01*
X122681904Y-68171904D02*
X122681904Y-68076666D01*
X122681904Y-68076666D02*
X122634285Y-67981428D01*
X122634285Y-67981428D02*
X122586666Y-67933809D01*
X122586666Y-67933809D02*
X122491428Y-67886190D01*
X122491428Y-67886190D02*
X122300952Y-67838571D01*
X122300952Y-67838571D02*
X122205714Y-67790952D01*
X122205714Y-67790952D02*
X122158095Y-67743333D01*
X122158095Y-67743333D02*
X122110476Y-67648095D01*
X122110476Y-67648095D02*
X122110476Y-67552857D01*
X122110476Y-67552857D02*
X122158095Y-67457619D01*
X122158095Y-67457619D02*
X122205714Y-67410000D01*
X122205714Y-67410000D02*
X122300952Y-67362380D01*
X122300952Y-67362380D02*
X122539047Y-67362380D01*
X122539047Y-67362380D02*
X122681904Y-67410000D01*
X122967619Y-67695714D02*
X123348571Y-67695714D01*
X123110476Y-67362380D02*
X123110476Y-68219523D01*
X123110476Y-68219523D02*
X123158095Y-68314761D01*
X123158095Y-68314761D02*
X123253333Y-68362380D01*
X123253333Y-68362380D02*
X123348571Y-68362380D01*
X124062857Y-68314761D02*
X123967619Y-68362380D01*
X123967619Y-68362380D02*
X123777143Y-68362380D01*
X123777143Y-68362380D02*
X123681905Y-68314761D01*
X123681905Y-68314761D02*
X123634286Y-68219523D01*
X123634286Y-68219523D02*
X123634286Y-67838571D01*
X123634286Y-67838571D02*
X123681905Y-67743333D01*
X123681905Y-67743333D02*
X123777143Y-67695714D01*
X123777143Y-67695714D02*
X123967619Y-67695714D01*
X123967619Y-67695714D02*
X124062857Y-67743333D01*
X124062857Y-67743333D02*
X124110476Y-67838571D01*
X124110476Y-67838571D02*
X124110476Y-67933809D01*
X124110476Y-67933809D02*
X123634286Y-68029047D01*
X124539048Y-67695714D02*
X124539048Y-68695714D01*
X124539048Y-67743333D02*
X124634286Y-67695714D01*
X124634286Y-67695714D02*
X124824762Y-67695714D01*
X124824762Y-67695714D02*
X124920000Y-67743333D01*
X124920000Y-67743333D02*
X124967619Y-67790952D01*
X124967619Y-67790952D02*
X125015238Y-67886190D01*
X125015238Y-67886190D02*
X125015238Y-68171904D01*
X125015238Y-68171904D02*
X124967619Y-68267142D01*
X124967619Y-68267142D02*
X124920000Y-68314761D01*
X124920000Y-68314761D02*
X124824762Y-68362380D01*
X124824762Y-68362380D02*
X124634286Y-68362380D01*
X124634286Y-68362380D02*
X124539048Y-68314761D01*
X125443810Y-67695714D02*
X125443810Y-68695714D01*
X125443810Y-67743333D02*
X125539048Y-67695714D01*
X125539048Y-67695714D02*
X125729524Y-67695714D01*
X125729524Y-67695714D02*
X125824762Y-67743333D01*
X125824762Y-67743333D02*
X125872381Y-67790952D01*
X125872381Y-67790952D02*
X125920000Y-67886190D01*
X125920000Y-67886190D02*
X125920000Y-68171904D01*
X125920000Y-68171904D02*
X125872381Y-68267142D01*
X125872381Y-68267142D02*
X125824762Y-68314761D01*
X125824762Y-68314761D02*
X125729524Y-68362380D01*
X125729524Y-68362380D02*
X125539048Y-68362380D01*
X125539048Y-68362380D02*
X125443810Y-68314761D01*
X126729524Y-68314761D02*
X126634286Y-68362380D01*
X126634286Y-68362380D02*
X126443810Y-68362380D01*
X126443810Y-68362380D02*
X126348572Y-68314761D01*
X126348572Y-68314761D02*
X126300953Y-68219523D01*
X126300953Y-68219523D02*
X126300953Y-67838571D01*
X126300953Y-67838571D02*
X126348572Y-67743333D01*
X126348572Y-67743333D02*
X126443810Y-67695714D01*
X126443810Y-67695714D02*
X126634286Y-67695714D01*
X126634286Y-67695714D02*
X126729524Y-67743333D01*
X126729524Y-67743333D02*
X126777143Y-67838571D01*
X126777143Y-67838571D02*
X126777143Y-67933809D01*
X126777143Y-67933809D02*
X126300953Y-68029047D01*
X127205715Y-68362380D02*
X127205715Y-67695714D01*
X127205715Y-67886190D02*
X127253334Y-67790952D01*
X127253334Y-67790952D02*
X127300953Y-67743333D01*
X127300953Y-67743333D02*
X127396191Y-67695714D01*
X127396191Y-67695714D02*
X127491429Y-67695714D01*
X127777144Y-67457619D02*
X127824763Y-67410000D01*
X127824763Y-67410000D02*
X127920001Y-67362380D01*
X127920001Y-67362380D02*
X128158096Y-67362380D01*
X128158096Y-67362380D02*
X128253334Y-67410000D01*
X128253334Y-67410000D02*
X128300953Y-67457619D01*
X128300953Y-67457619D02*
X128348572Y-67552857D01*
X128348572Y-67552857D02*
X128348572Y-67648095D01*
X128348572Y-67648095D02*
X128300953Y-67790952D01*
X128300953Y-67790952D02*
X127729525Y-68362380D01*
X127729525Y-68362380D02*
X128348572Y-68362380D01*
X86090095Y-86269428D02*
X86852000Y-86269428D01*
X86471047Y-86650380D02*
X86471047Y-85888476D01*
X89646095Y-98969428D02*
X90408000Y-98969428D01*
X90027047Y-99350380D02*
X90027047Y-98588476D01*
X80248095Y-89952380D02*
X80248095Y-88952380D01*
X80248095Y-88952380D02*
X80629047Y-88952380D01*
X80629047Y-88952380D02*
X80724285Y-89000000D01*
X80724285Y-89000000D02*
X80771904Y-89047619D01*
X80771904Y-89047619D02*
X80819523Y-89142857D01*
X80819523Y-89142857D02*
X80819523Y-89285714D01*
X80819523Y-89285714D02*
X80771904Y-89380952D01*
X80771904Y-89380952D02*
X80724285Y-89428571D01*
X80724285Y-89428571D02*
X80629047Y-89476190D01*
X80629047Y-89476190D02*
X80248095Y-89476190D01*
X81152857Y-88952380D02*
X81390952Y-89952380D01*
X81390952Y-89952380D02*
X81581428Y-89238095D01*
X81581428Y-89238095D02*
X81771904Y-89952380D01*
X81771904Y-89952380D02*
X82010000Y-88952380D01*
X82962380Y-89952380D02*
X82629047Y-89476190D01*
X82390952Y-89952380D02*
X82390952Y-88952380D01*
X82390952Y-88952380D02*
X82771904Y-88952380D01*
X82771904Y-88952380D02*
X82867142Y-89000000D01*
X82867142Y-89000000D02*
X82914761Y-89047619D01*
X82914761Y-89047619D02*
X82962380Y-89142857D01*
X82962380Y-89142857D02*
X82962380Y-89285714D01*
X82962380Y-89285714D02*
X82914761Y-89380952D01*
X82914761Y-89380952D02*
X82867142Y-89428571D01*
X82867142Y-89428571D02*
X82771904Y-89476190D01*
X82771904Y-89476190D02*
X82390952Y-89476190D01*
X131810095Y-102525428D02*
X132572000Y-102525428D01*
X132191047Y-102906380D02*
X132191047Y-102144476D01*
X101107809Y-107494380D02*
X101107809Y-108208666D01*
X101107809Y-108208666D02*
X101060190Y-108351523D01*
X101060190Y-108351523D02*
X100964952Y-108446761D01*
X100964952Y-108446761D02*
X100822095Y-108494380D01*
X100822095Y-108494380D02*
X100726857Y-108494380D01*
X102060190Y-108494380D02*
X101584000Y-108494380D01*
X101584000Y-108494380D02*
X101584000Y-107494380D01*
X102964952Y-108399142D02*
X102917333Y-108446761D01*
X102917333Y-108446761D02*
X102774476Y-108494380D01*
X102774476Y-108494380D02*
X102679238Y-108494380D01*
X102679238Y-108494380D02*
X102536381Y-108446761D01*
X102536381Y-108446761D02*
X102441143Y-108351523D01*
X102441143Y-108351523D02*
X102393524Y-108256285D01*
X102393524Y-108256285D02*
X102345905Y-108065809D01*
X102345905Y-108065809D02*
X102345905Y-107922952D01*
X102345905Y-107922952D02*
X102393524Y-107732476D01*
X102393524Y-107732476D02*
X102441143Y-107637238D01*
X102441143Y-107637238D02*
X102536381Y-107542000D01*
X102536381Y-107542000D02*
X102679238Y-107494380D01*
X102679238Y-107494380D02*
X102774476Y-107494380D01*
X102774476Y-107494380D02*
X102917333Y-107542000D01*
X102917333Y-107542000D02*
X102964952Y-107589619D01*
X103679238Y-107494380D02*
X103679238Y-108208666D01*
X103679238Y-108208666D02*
X103631619Y-108351523D01*
X103631619Y-108351523D02*
X103536381Y-108446761D01*
X103536381Y-108446761D02*
X103393524Y-108494380D01*
X103393524Y-108494380D02*
X103298286Y-108494380D01*
X104631619Y-108494380D02*
X104155429Y-108494380D01*
X104155429Y-108494380D02*
X104155429Y-107494380D01*
X105536381Y-108399142D02*
X105488762Y-108446761D01*
X105488762Y-108446761D02*
X105345905Y-108494380D01*
X105345905Y-108494380D02*
X105250667Y-108494380D01*
X105250667Y-108494380D02*
X105107810Y-108446761D01*
X105107810Y-108446761D02*
X105012572Y-108351523D01*
X105012572Y-108351523D02*
X104964953Y-108256285D01*
X104964953Y-108256285D02*
X104917334Y-108065809D01*
X104917334Y-108065809D02*
X104917334Y-107922952D01*
X104917334Y-107922952D02*
X104964953Y-107732476D01*
X104964953Y-107732476D02*
X105012572Y-107637238D01*
X105012572Y-107637238D02*
X105107810Y-107542000D01*
X105107810Y-107542000D02*
X105250667Y-107494380D01*
X105250667Y-107494380D02*
X105345905Y-107494380D01*
X105345905Y-107494380D02*
X105488762Y-107542000D01*
X105488762Y-107542000D02*
X105536381Y-107589619D01*
X106250667Y-107494380D02*
X106250667Y-108208666D01*
X106250667Y-108208666D02*
X106203048Y-108351523D01*
X106203048Y-108351523D02*
X106107810Y-108446761D01*
X106107810Y-108446761D02*
X105964953Y-108494380D01*
X105964953Y-108494380D02*
X105869715Y-108494380D01*
X107203048Y-108494380D02*
X106726858Y-108494380D01*
X106726858Y-108494380D02*
X106726858Y-107494380D01*
X108107810Y-108399142D02*
X108060191Y-108446761D01*
X108060191Y-108446761D02*
X107917334Y-108494380D01*
X107917334Y-108494380D02*
X107822096Y-108494380D01*
X107822096Y-108494380D02*
X107679239Y-108446761D01*
X107679239Y-108446761D02*
X107584001Y-108351523D01*
X107584001Y-108351523D02*
X107536382Y-108256285D01*
X107536382Y-108256285D02*
X107488763Y-108065809D01*
X107488763Y-108065809D02*
X107488763Y-107922952D01*
X107488763Y-107922952D02*
X107536382Y-107732476D01*
X107536382Y-107732476D02*
X107584001Y-107637238D01*
X107584001Y-107637238D02*
X107679239Y-107542000D01*
X107679239Y-107542000D02*
X107822096Y-107494380D01*
X107822096Y-107494380D02*
X107917334Y-107494380D01*
X107917334Y-107494380D02*
X108060191Y-107542000D01*
X108060191Y-107542000D02*
X108107810Y-107589619D01*
X108822096Y-107494380D02*
X108822096Y-108208666D01*
X108822096Y-108208666D02*
X108774477Y-108351523D01*
X108774477Y-108351523D02*
X108679239Y-108446761D01*
X108679239Y-108446761D02*
X108536382Y-108494380D01*
X108536382Y-108494380D02*
X108441144Y-108494380D01*
X109774477Y-108494380D02*
X109298287Y-108494380D01*
X109298287Y-108494380D02*
X109298287Y-107494380D01*
X110679239Y-108399142D02*
X110631620Y-108446761D01*
X110631620Y-108446761D02*
X110488763Y-108494380D01*
X110488763Y-108494380D02*
X110393525Y-108494380D01*
X110393525Y-108494380D02*
X110250668Y-108446761D01*
X110250668Y-108446761D02*
X110155430Y-108351523D01*
X110155430Y-108351523D02*
X110107811Y-108256285D01*
X110107811Y-108256285D02*
X110060192Y-108065809D01*
X110060192Y-108065809D02*
X110060192Y-107922952D01*
X110060192Y-107922952D02*
X110107811Y-107732476D01*
X110107811Y-107732476D02*
X110155430Y-107637238D01*
X110155430Y-107637238D02*
X110250668Y-107542000D01*
X110250668Y-107542000D02*
X110393525Y-107494380D01*
X110393525Y-107494380D02*
X110488763Y-107494380D01*
X110488763Y-107494380D02*
X110631620Y-107542000D01*
X110631620Y-107542000D02*
X110679239Y-107589619D01*
X100520476Y-68314761D02*
X100663333Y-68362380D01*
X100663333Y-68362380D02*
X100901428Y-68362380D01*
X100901428Y-68362380D02*
X100996666Y-68314761D01*
X100996666Y-68314761D02*
X101044285Y-68267142D01*
X101044285Y-68267142D02*
X101091904Y-68171904D01*
X101091904Y-68171904D02*
X101091904Y-68076666D01*
X101091904Y-68076666D02*
X101044285Y-67981428D01*
X101044285Y-67981428D02*
X100996666Y-67933809D01*
X100996666Y-67933809D02*
X100901428Y-67886190D01*
X100901428Y-67886190D02*
X100710952Y-67838571D01*
X100710952Y-67838571D02*
X100615714Y-67790952D01*
X100615714Y-67790952D02*
X100568095Y-67743333D01*
X100568095Y-67743333D02*
X100520476Y-67648095D01*
X100520476Y-67648095D02*
X100520476Y-67552857D01*
X100520476Y-67552857D02*
X100568095Y-67457619D01*
X100568095Y-67457619D02*
X100615714Y-67410000D01*
X100615714Y-67410000D02*
X100710952Y-67362380D01*
X100710952Y-67362380D02*
X100949047Y-67362380D01*
X100949047Y-67362380D02*
X101091904Y-67410000D01*
X101377619Y-67695714D02*
X101758571Y-67695714D01*
X101520476Y-67362380D02*
X101520476Y-68219523D01*
X101520476Y-68219523D02*
X101568095Y-68314761D01*
X101568095Y-68314761D02*
X101663333Y-68362380D01*
X101663333Y-68362380D02*
X101758571Y-68362380D01*
X102472857Y-68314761D02*
X102377619Y-68362380D01*
X102377619Y-68362380D02*
X102187143Y-68362380D01*
X102187143Y-68362380D02*
X102091905Y-68314761D01*
X102091905Y-68314761D02*
X102044286Y-68219523D01*
X102044286Y-68219523D02*
X102044286Y-67838571D01*
X102044286Y-67838571D02*
X102091905Y-67743333D01*
X102091905Y-67743333D02*
X102187143Y-67695714D01*
X102187143Y-67695714D02*
X102377619Y-67695714D01*
X102377619Y-67695714D02*
X102472857Y-67743333D01*
X102472857Y-67743333D02*
X102520476Y-67838571D01*
X102520476Y-67838571D02*
X102520476Y-67933809D01*
X102520476Y-67933809D02*
X102044286Y-68029047D01*
X102949048Y-67695714D02*
X102949048Y-68695714D01*
X102949048Y-67743333D02*
X103044286Y-67695714D01*
X103044286Y-67695714D02*
X103234762Y-67695714D01*
X103234762Y-67695714D02*
X103330000Y-67743333D01*
X103330000Y-67743333D02*
X103377619Y-67790952D01*
X103377619Y-67790952D02*
X103425238Y-67886190D01*
X103425238Y-67886190D02*
X103425238Y-68171904D01*
X103425238Y-68171904D02*
X103377619Y-68267142D01*
X103377619Y-68267142D02*
X103330000Y-68314761D01*
X103330000Y-68314761D02*
X103234762Y-68362380D01*
X103234762Y-68362380D02*
X103044286Y-68362380D01*
X103044286Y-68362380D02*
X102949048Y-68314761D01*
X103853810Y-67695714D02*
X103853810Y-68695714D01*
X103853810Y-67743333D02*
X103949048Y-67695714D01*
X103949048Y-67695714D02*
X104139524Y-67695714D01*
X104139524Y-67695714D02*
X104234762Y-67743333D01*
X104234762Y-67743333D02*
X104282381Y-67790952D01*
X104282381Y-67790952D02*
X104330000Y-67886190D01*
X104330000Y-67886190D02*
X104330000Y-68171904D01*
X104330000Y-68171904D02*
X104282381Y-68267142D01*
X104282381Y-68267142D02*
X104234762Y-68314761D01*
X104234762Y-68314761D02*
X104139524Y-68362380D01*
X104139524Y-68362380D02*
X103949048Y-68362380D01*
X103949048Y-68362380D02*
X103853810Y-68314761D01*
X105139524Y-68314761D02*
X105044286Y-68362380D01*
X105044286Y-68362380D02*
X104853810Y-68362380D01*
X104853810Y-68362380D02*
X104758572Y-68314761D01*
X104758572Y-68314761D02*
X104710953Y-68219523D01*
X104710953Y-68219523D02*
X104710953Y-67838571D01*
X104710953Y-67838571D02*
X104758572Y-67743333D01*
X104758572Y-67743333D02*
X104853810Y-67695714D01*
X104853810Y-67695714D02*
X105044286Y-67695714D01*
X105044286Y-67695714D02*
X105139524Y-67743333D01*
X105139524Y-67743333D02*
X105187143Y-67838571D01*
X105187143Y-67838571D02*
X105187143Y-67933809D01*
X105187143Y-67933809D02*
X104710953Y-68029047D01*
X105615715Y-68362380D02*
X105615715Y-67695714D01*
X105615715Y-67886190D02*
X105663334Y-67790952D01*
X105663334Y-67790952D02*
X105710953Y-67743333D01*
X105710953Y-67743333D02*
X105806191Y-67695714D01*
X105806191Y-67695714D02*
X105901429Y-67695714D01*
X106758572Y-68362380D02*
X106187144Y-68362380D01*
X106472858Y-68362380D02*
X106472858Y-67362380D01*
X106472858Y-67362380D02*
X106377620Y-67505238D01*
X106377620Y-67505238D02*
X106282382Y-67600476D01*
X106282382Y-67600476D02*
X106187144Y-67648095D01*
X92138476Y-106414761D02*
X92281333Y-106462380D01*
X92281333Y-106462380D02*
X92519428Y-106462380D01*
X92519428Y-106462380D02*
X92614666Y-106414761D01*
X92614666Y-106414761D02*
X92662285Y-106367142D01*
X92662285Y-106367142D02*
X92709904Y-106271904D01*
X92709904Y-106271904D02*
X92709904Y-106176666D01*
X92709904Y-106176666D02*
X92662285Y-106081428D01*
X92662285Y-106081428D02*
X92614666Y-106033809D01*
X92614666Y-106033809D02*
X92519428Y-105986190D01*
X92519428Y-105986190D02*
X92328952Y-105938571D01*
X92328952Y-105938571D02*
X92233714Y-105890952D01*
X92233714Y-105890952D02*
X92186095Y-105843333D01*
X92186095Y-105843333D02*
X92138476Y-105748095D01*
X92138476Y-105748095D02*
X92138476Y-105652857D01*
X92138476Y-105652857D02*
X92186095Y-105557619D01*
X92186095Y-105557619D02*
X92233714Y-105510000D01*
X92233714Y-105510000D02*
X92328952Y-105462380D01*
X92328952Y-105462380D02*
X92567047Y-105462380D01*
X92567047Y-105462380D02*
X92709904Y-105510000D01*
X92995619Y-105795714D02*
X93376571Y-105795714D01*
X93138476Y-105462380D02*
X93138476Y-106319523D01*
X93138476Y-106319523D02*
X93186095Y-106414761D01*
X93186095Y-106414761D02*
X93281333Y-106462380D01*
X93281333Y-106462380D02*
X93376571Y-106462380D01*
X94090857Y-106414761D02*
X93995619Y-106462380D01*
X93995619Y-106462380D02*
X93805143Y-106462380D01*
X93805143Y-106462380D02*
X93709905Y-106414761D01*
X93709905Y-106414761D02*
X93662286Y-106319523D01*
X93662286Y-106319523D02*
X93662286Y-105938571D01*
X93662286Y-105938571D02*
X93709905Y-105843333D01*
X93709905Y-105843333D02*
X93805143Y-105795714D01*
X93805143Y-105795714D02*
X93995619Y-105795714D01*
X93995619Y-105795714D02*
X94090857Y-105843333D01*
X94090857Y-105843333D02*
X94138476Y-105938571D01*
X94138476Y-105938571D02*
X94138476Y-106033809D01*
X94138476Y-106033809D02*
X93662286Y-106129047D01*
X94567048Y-105795714D02*
X94567048Y-106795714D01*
X94567048Y-105843333D02*
X94662286Y-105795714D01*
X94662286Y-105795714D02*
X94852762Y-105795714D01*
X94852762Y-105795714D02*
X94948000Y-105843333D01*
X94948000Y-105843333D02*
X94995619Y-105890952D01*
X94995619Y-105890952D02*
X95043238Y-105986190D01*
X95043238Y-105986190D02*
X95043238Y-106271904D01*
X95043238Y-106271904D02*
X94995619Y-106367142D01*
X94995619Y-106367142D02*
X94948000Y-106414761D01*
X94948000Y-106414761D02*
X94852762Y-106462380D01*
X94852762Y-106462380D02*
X94662286Y-106462380D01*
X94662286Y-106462380D02*
X94567048Y-106414761D01*
X95471810Y-105795714D02*
X95471810Y-106795714D01*
X95471810Y-105843333D02*
X95567048Y-105795714D01*
X95567048Y-105795714D02*
X95757524Y-105795714D01*
X95757524Y-105795714D02*
X95852762Y-105843333D01*
X95852762Y-105843333D02*
X95900381Y-105890952D01*
X95900381Y-105890952D02*
X95948000Y-105986190D01*
X95948000Y-105986190D02*
X95948000Y-106271904D01*
X95948000Y-106271904D02*
X95900381Y-106367142D01*
X95900381Y-106367142D02*
X95852762Y-106414761D01*
X95852762Y-106414761D02*
X95757524Y-106462380D01*
X95757524Y-106462380D02*
X95567048Y-106462380D01*
X95567048Y-106462380D02*
X95471810Y-106414761D01*
X96757524Y-106414761D02*
X96662286Y-106462380D01*
X96662286Y-106462380D02*
X96471810Y-106462380D01*
X96471810Y-106462380D02*
X96376572Y-106414761D01*
X96376572Y-106414761D02*
X96328953Y-106319523D01*
X96328953Y-106319523D02*
X96328953Y-105938571D01*
X96328953Y-105938571D02*
X96376572Y-105843333D01*
X96376572Y-105843333D02*
X96471810Y-105795714D01*
X96471810Y-105795714D02*
X96662286Y-105795714D01*
X96662286Y-105795714D02*
X96757524Y-105843333D01*
X96757524Y-105843333D02*
X96805143Y-105938571D01*
X96805143Y-105938571D02*
X96805143Y-106033809D01*
X96805143Y-106033809D02*
X96328953Y-106129047D01*
X97233715Y-106462380D02*
X97233715Y-105795714D01*
X97233715Y-105986190D02*
X97281334Y-105890952D01*
X97281334Y-105890952D02*
X97328953Y-105843333D01*
X97328953Y-105843333D02*
X97424191Y-105795714D01*
X97424191Y-105795714D02*
X97519429Y-105795714D01*
X99024191Y-106367142D02*
X98976572Y-106414761D01*
X98976572Y-106414761D02*
X98833715Y-106462380D01*
X98833715Y-106462380D02*
X98738477Y-106462380D01*
X98738477Y-106462380D02*
X98595620Y-106414761D01*
X98595620Y-106414761D02*
X98500382Y-106319523D01*
X98500382Y-106319523D02*
X98452763Y-106224285D01*
X98452763Y-106224285D02*
X98405144Y-106033809D01*
X98405144Y-106033809D02*
X98405144Y-105890952D01*
X98405144Y-105890952D02*
X98452763Y-105700476D01*
X98452763Y-105700476D02*
X98500382Y-105605238D01*
X98500382Y-105605238D02*
X98595620Y-105510000D01*
X98595620Y-105510000D02*
X98738477Y-105462380D01*
X98738477Y-105462380D02*
X98833715Y-105462380D01*
X98833715Y-105462380D02*
X98976572Y-105510000D01*
X98976572Y-105510000D02*
X99024191Y-105557619D01*
X99595620Y-106462380D02*
X99500382Y-106414761D01*
X99500382Y-106414761D02*
X99452763Y-106367142D01*
X99452763Y-106367142D02*
X99405144Y-106271904D01*
X99405144Y-106271904D02*
X99405144Y-105986190D01*
X99405144Y-105986190D02*
X99452763Y-105890952D01*
X99452763Y-105890952D02*
X99500382Y-105843333D01*
X99500382Y-105843333D02*
X99595620Y-105795714D01*
X99595620Y-105795714D02*
X99738477Y-105795714D01*
X99738477Y-105795714D02*
X99833715Y-105843333D01*
X99833715Y-105843333D02*
X99881334Y-105890952D01*
X99881334Y-105890952D02*
X99928953Y-105986190D01*
X99928953Y-105986190D02*
X99928953Y-106271904D01*
X99928953Y-106271904D02*
X99881334Y-106367142D01*
X99881334Y-106367142D02*
X99833715Y-106414761D01*
X99833715Y-106414761D02*
X99738477Y-106462380D01*
X99738477Y-106462380D02*
X99595620Y-106462380D01*
X100357525Y-105795714D02*
X100357525Y-106462380D01*
X100357525Y-105890952D02*
X100405144Y-105843333D01*
X100405144Y-105843333D02*
X100500382Y-105795714D01*
X100500382Y-105795714D02*
X100643239Y-105795714D01*
X100643239Y-105795714D02*
X100738477Y-105843333D01*
X100738477Y-105843333D02*
X100786096Y-105938571D01*
X100786096Y-105938571D02*
X100786096Y-106462380D01*
X101119430Y-105795714D02*
X101500382Y-105795714D01*
X101262287Y-105462380D02*
X101262287Y-106319523D01*
X101262287Y-106319523D02*
X101309906Y-106414761D01*
X101309906Y-106414761D02*
X101405144Y-106462380D01*
X101405144Y-106462380D02*
X101500382Y-106462380D01*
X101833716Y-106462380D02*
X101833716Y-105795714D01*
X101833716Y-105986190D02*
X101881335Y-105890952D01*
X101881335Y-105890952D02*
X101928954Y-105843333D01*
X101928954Y-105843333D02*
X102024192Y-105795714D01*
X102024192Y-105795714D02*
X102119430Y-105795714D01*
X102595621Y-106462380D02*
X102500383Y-106414761D01*
X102500383Y-106414761D02*
X102452764Y-106367142D01*
X102452764Y-106367142D02*
X102405145Y-106271904D01*
X102405145Y-106271904D02*
X102405145Y-105986190D01*
X102405145Y-105986190D02*
X102452764Y-105890952D01*
X102452764Y-105890952D02*
X102500383Y-105843333D01*
X102500383Y-105843333D02*
X102595621Y-105795714D01*
X102595621Y-105795714D02*
X102738478Y-105795714D01*
X102738478Y-105795714D02*
X102833716Y-105843333D01*
X102833716Y-105843333D02*
X102881335Y-105890952D01*
X102881335Y-105890952D02*
X102928954Y-105986190D01*
X102928954Y-105986190D02*
X102928954Y-106271904D01*
X102928954Y-106271904D02*
X102881335Y-106367142D01*
X102881335Y-106367142D02*
X102833716Y-106414761D01*
X102833716Y-106414761D02*
X102738478Y-106462380D01*
X102738478Y-106462380D02*
X102595621Y-106462380D01*
X103500383Y-106462380D02*
X103405145Y-106414761D01*
X103405145Y-106414761D02*
X103357526Y-106319523D01*
X103357526Y-106319523D02*
X103357526Y-105462380D01*
X104814669Y-105938571D02*
X104957526Y-105986190D01*
X104957526Y-105986190D02*
X105005145Y-106033809D01*
X105005145Y-106033809D02*
X105052764Y-106129047D01*
X105052764Y-106129047D02*
X105052764Y-106271904D01*
X105052764Y-106271904D02*
X105005145Y-106367142D01*
X105005145Y-106367142D02*
X104957526Y-106414761D01*
X104957526Y-106414761D02*
X104862288Y-106462380D01*
X104862288Y-106462380D02*
X104481336Y-106462380D01*
X104481336Y-106462380D02*
X104481336Y-105462380D01*
X104481336Y-105462380D02*
X104814669Y-105462380D01*
X104814669Y-105462380D02*
X104909907Y-105510000D01*
X104909907Y-105510000D02*
X104957526Y-105557619D01*
X104957526Y-105557619D02*
X105005145Y-105652857D01*
X105005145Y-105652857D02*
X105005145Y-105748095D01*
X105005145Y-105748095D02*
X104957526Y-105843333D01*
X104957526Y-105843333D02*
X104909907Y-105890952D01*
X104909907Y-105890952D02*
X104814669Y-105938571D01*
X104814669Y-105938571D02*
X104481336Y-105938571D01*
X105624193Y-106462380D02*
X105528955Y-106414761D01*
X105528955Y-106414761D02*
X105481336Y-106367142D01*
X105481336Y-106367142D02*
X105433717Y-106271904D01*
X105433717Y-106271904D02*
X105433717Y-105986190D01*
X105433717Y-105986190D02*
X105481336Y-105890952D01*
X105481336Y-105890952D02*
X105528955Y-105843333D01*
X105528955Y-105843333D02*
X105624193Y-105795714D01*
X105624193Y-105795714D02*
X105767050Y-105795714D01*
X105767050Y-105795714D02*
X105862288Y-105843333D01*
X105862288Y-105843333D02*
X105909907Y-105890952D01*
X105909907Y-105890952D02*
X105957526Y-105986190D01*
X105957526Y-105986190D02*
X105957526Y-106271904D01*
X105957526Y-106271904D02*
X105909907Y-106367142D01*
X105909907Y-106367142D02*
X105862288Y-106414761D01*
X105862288Y-106414761D02*
X105767050Y-106462380D01*
X105767050Y-106462380D02*
X105624193Y-106462380D01*
X106814669Y-106462380D02*
X106814669Y-105938571D01*
X106814669Y-105938571D02*
X106767050Y-105843333D01*
X106767050Y-105843333D02*
X106671812Y-105795714D01*
X106671812Y-105795714D02*
X106481336Y-105795714D01*
X106481336Y-105795714D02*
X106386098Y-105843333D01*
X106814669Y-106414761D02*
X106719431Y-106462380D01*
X106719431Y-106462380D02*
X106481336Y-106462380D01*
X106481336Y-106462380D02*
X106386098Y-106414761D01*
X106386098Y-106414761D02*
X106338479Y-106319523D01*
X106338479Y-106319523D02*
X106338479Y-106224285D01*
X106338479Y-106224285D02*
X106386098Y-106129047D01*
X106386098Y-106129047D02*
X106481336Y-106081428D01*
X106481336Y-106081428D02*
X106719431Y-106081428D01*
X106719431Y-106081428D02*
X106814669Y-106033809D01*
X107290860Y-106462380D02*
X107290860Y-105795714D01*
X107290860Y-105986190D02*
X107338479Y-105890952D01*
X107338479Y-105890952D02*
X107386098Y-105843333D01*
X107386098Y-105843333D02*
X107481336Y-105795714D01*
X107481336Y-105795714D02*
X107576574Y-105795714D01*
X108338479Y-106462380D02*
X108338479Y-105462380D01*
X108338479Y-106414761D02*
X108243241Y-106462380D01*
X108243241Y-106462380D02*
X108052765Y-106462380D01*
X108052765Y-106462380D02*
X107957527Y-106414761D01*
X107957527Y-106414761D02*
X107909908Y-106367142D01*
X107909908Y-106367142D02*
X107862289Y-106271904D01*
X107862289Y-106271904D02*
X107862289Y-105986190D01*
X107862289Y-105986190D02*
X107909908Y-105890952D01*
X107909908Y-105890952D02*
X107957527Y-105843333D01*
X107957527Y-105843333D02*
X108052765Y-105795714D01*
X108052765Y-105795714D02*
X108243241Y-105795714D01*
X108243241Y-105795714D02*
X108338479Y-105843333D01*
X109271813Y-105462380D02*
X109605146Y-106462380D01*
X109605146Y-106462380D02*
X109938479Y-105462380D01*
X110795622Y-106462380D02*
X110224194Y-106462380D01*
X110509908Y-106462380D02*
X110509908Y-105462380D01*
X110509908Y-105462380D02*
X110414670Y-105605238D01*
X110414670Y-105605238D02*
X110319432Y-105700476D01*
X110319432Y-105700476D02*
X110224194Y-105748095D01*
X136080476Y-103874761D02*
X136223333Y-103922380D01*
X136223333Y-103922380D02*
X136461428Y-103922380D01*
X136461428Y-103922380D02*
X136556666Y-103874761D01*
X136556666Y-103874761D02*
X136604285Y-103827142D01*
X136604285Y-103827142D02*
X136651904Y-103731904D01*
X136651904Y-103731904D02*
X136651904Y-103636666D01*
X136651904Y-103636666D02*
X136604285Y-103541428D01*
X136604285Y-103541428D02*
X136556666Y-103493809D01*
X136556666Y-103493809D02*
X136461428Y-103446190D01*
X136461428Y-103446190D02*
X136270952Y-103398571D01*
X136270952Y-103398571D02*
X136175714Y-103350952D01*
X136175714Y-103350952D02*
X136128095Y-103303333D01*
X136128095Y-103303333D02*
X136080476Y-103208095D01*
X136080476Y-103208095D02*
X136080476Y-103112857D01*
X136080476Y-103112857D02*
X136128095Y-103017619D01*
X136128095Y-103017619D02*
X136175714Y-102970000D01*
X136175714Y-102970000D02*
X136270952Y-102922380D01*
X136270952Y-102922380D02*
X136509047Y-102922380D01*
X136509047Y-102922380D02*
X136651904Y-102970000D01*
X137461428Y-103874761D02*
X137366190Y-103922380D01*
X137366190Y-103922380D02*
X137175714Y-103922380D01*
X137175714Y-103922380D02*
X137080476Y-103874761D01*
X137080476Y-103874761D02*
X137032857Y-103779523D01*
X137032857Y-103779523D02*
X137032857Y-103398571D01*
X137032857Y-103398571D02*
X137080476Y-103303333D01*
X137080476Y-103303333D02*
X137175714Y-103255714D01*
X137175714Y-103255714D02*
X137366190Y-103255714D01*
X137366190Y-103255714D02*
X137461428Y-103303333D01*
X137461428Y-103303333D02*
X137509047Y-103398571D01*
X137509047Y-103398571D02*
X137509047Y-103493809D01*
X137509047Y-103493809D02*
X137032857Y-103589047D01*
X137937619Y-103255714D02*
X137937619Y-103922380D01*
X137937619Y-103350952D02*
X137985238Y-103303333D01*
X137985238Y-103303333D02*
X138080476Y-103255714D01*
X138080476Y-103255714D02*
X138223333Y-103255714D01*
X138223333Y-103255714D02*
X138318571Y-103303333D01*
X138318571Y-103303333D02*
X138366190Y-103398571D01*
X138366190Y-103398571D02*
X138366190Y-103922380D01*
X138794762Y-103874761D02*
X138890000Y-103922380D01*
X138890000Y-103922380D02*
X139080476Y-103922380D01*
X139080476Y-103922380D02*
X139175714Y-103874761D01*
X139175714Y-103874761D02*
X139223333Y-103779523D01*
X139223333Y-103779523D02*
X139223333Y-103731904D01*
X139223333Y-103731904D02*
X139175714Y-103636666D01*
X139175714Y-103636666D02*
X139080476Y-103589047D01*
X139080476Y-103589047D02*
X138937619Y-103589047D01*
X138937619Y-103589047D02*
X138842381Y-103541428D01*
X138842381Y-103541428D02*
X138794762Y-103446190D01*
X138794762Y-103446190D02*
X138794762Y-103398571D01*
X138794762Y-103398571D02*
X138842381Y-103303333D01*
X138842381Y-103303333D02*
X138937619Y-103255714D01*
X138937619Y-103255714D02*
X139080476Y-103255714D01*
X139080476Y-103255714D02*
X139175714Y-103303333D01*
X140032857Y-103874761D02*
X139937619Y-103922380D01*
X139937619Y-103922380D02*
X139747143Y-103922380D01*
X139747143Y-103922380D02*
X139651905Y-103874761D01*
X139651905Y-103874761D02*
X139604286Y-103779523D01*
X139604286Y-103779523D02*
X139604286Y-103398571D01*
X139604286Y-103398571D02*
X139651905Y-103303333D01*
X139651905Y-103303333D02*
X139747143Y-103255714D01*
X139747143Y-103255714D02*
X139937619Y-103255714D01*
X139937619Y-103255714D02*
X140032857Y-103303333D01*
X140032857Y-103303333D02*
X140080476Y-103398571D01*
X140080476Y-103398571D02*
X140080476Y-103493809D01*
X140080476Y-103493809D02*
X139604286Y-103589047D01*
X87725238Y-85142380D02*
X88058571Y-86142380D01*
X88058571Y-86142380D02*
X88391904Y-85142380D01*
X89249047Y-86142380D02*
X88677619Y-86142380D01*
X88963333Y-86142380D02*
X88963333Y-85142380D01*
X88963333Y-85142380D02*
X88868095Y-85285238D01*
X88868095Y-85285238D02*
X88772857Y-85380476D01*
X88772857Y-85380476D02*
X88677619Y-85428095D01*
X89630000Y-85237619D02*
X89677619Y-85190000D01*
X89677619Y-85190000D02*
X89772857Y-85142380D01*
X89772857Y-85142380D02*
X90010952Y-85142380D01*
X90010952Y-85142380D02*
X90106190Y-85190000D01*
X90106190Y-85190000D02*
X90153809Y-85237619D01*
X90153809Y-85237619D02*
X90201428Y-85332857D01*
X90201428Y-85332857D02*
X90201428Y-85428095D01*
X90201428Y-85428095D02*
X90153809Y-85570952D01*
X90153809Y-85570952D02*
X89582381Y-86142380D01*
X89582381Y-86142380D02*
X90201428Y-86142380D01*
%TO.C,C7*%
X116205333Y-93082142D02*
X116157714Y-93129761D01*
X116157714Y-93129761D02*
X116014857Y-93177380D01*
X116014857Y-93177380D02*
X115919619Y-93177380D01*
X115919619Y-93177380D02*
X115776762Y-93129761D01*
X115776762Y-93129761D02*
X115681524Y-93034523D01*
X115681524Y-93034523D02*
X115633905Y-92939285D01*
X115633905Y-92939285D02*
X115586286Y-92748809D01*
X115586286Y-92748809D02*
X115586286Y-92605952D01*
X115586286Y-92605952D02*
X115633905Y-92415476D01*
X115633905Y-92415476D02*
X115681524Y-92320238D01*
X115681524Y-92320238D02*
X115776762Y-92225000D01*
X115776762Y-92225000D02*
X115919619Y-92177380D01*
X115919619Y-92177380D02*
X116014857Y-92177380D01*
X116014857Y-92177380D02*
X116157714Y-92225000D01*
X116157714Y-92225000D02*
X116205333Y-92272619D01*
X116538667Y-92177380D02*
X117205333Y-92177380D01*
X117205333Y-92177380D02*
X116776762Y-93177380D01*
%TO.C,C12*%
X94877142Y-93082142D02*
X94829523Y-93129761D01*
X94829523Y-93129761D02*
X94686666Y-93177380D01*
X94686666Y-93177380D02*
X94591428Y-93177380D01*
X94591428Y-93177380D02*
X94448571Y-93129761D01*
X94448571Y-93129761D02*
X94353333Y-93034523D01*
X94353333Y-93034523D02*
X94305714Y-92939285D01*
X94305714Y-92939285D02*
X94258095Y-92748809D01*
X94258095Y-92748809D02*
X94258095Y-92605952D01*
X94258095Y-92605952D02*
X94305714Y-92415476D01*
X94305714Y-92415476D02*
X94353333Y-92320238D01*
X94353333Y-92320238D02*
X94448571Y-92225000D01*
X94448571Y-92225000D02*
X94591428Y-92177380D01*
X94591428Y-92177380D02*
X94686666Y-92177380D01*
X94686666Y-92177380D02*
X94829523Y-92225000D01*
X94829523Y-92225000D02*
X94877142Y-92272619D01*
X95829523Y-93177380D02*
X95258095Y-93177380D01*
X95543809Y-93177380D02*
X95543809Y-92177380D01*
X95543809Y-92177380D02*
X95448571Y-92320238D01*
X95448571Y-92320238D02*
X95353333Y-92415476D01*
X95353333Y-92415476D02*
X95258095Y-92463095D01*
X96210476Y-92272619D02*
X96258095Y-92225000D01*
X96258095Y-92225000D02*
X96353333Y-92177380D01*
X96353333Y-92177380D02*
X96591428Y-92177380D01*
X96591428Y-92177380D02*
X96686666Y-92225000D01*
X96686666Y-92225000D02*
X96734285Y-92272619D01*
X96734285Y-92272619D02*
X96781904Y-92367857D01*
X96781904Y-92367857D02*
X96781904Y-92463095D01*
X96781904Y-92463095D02*
X96734285Y-92605952D01*
X96734285Y-92605952D02*
X96162857Y-93177380D01*
X96162857Y-93177380D02*
X96781904Y-93177380D01*
%TO.C,J4*%
X86579880Y-96908333D02*
X87294166Y-96908333D01*
X87294166Y-96908333D02*
X87437023Y-96955952D01*
X87437023Y-96955952D02*
X87532261Y-97051190D01*
X87532261Y-97051190D02*
X87579880Y-97194047D01*
X87579880Y-97194047D02*
X87579880Y-97289285D01*
X86913214Y-96003571D02*
X87579880Y-96003571D01*
X86532261Y-96241666D02*
X87246547Y-96479761D01*
X87246547Y-96479761D02*
X87246547Y-95860714D01*
%TO.C,C15*%
X127102142Y-97872857D02*
X127149761Y-97920476D01*
X127149761Y-97920476D02*
X127197380Y-98063333D01*
X127197380Y-98063333D02*
X127197380Y-98158571D01*
X127197380Y-98158571D02*
X127149761Y-98301428D01*
X127149761Y-98301428D02*
X127054523Y-98396666D01*
X127054523Y-98396666D02*
X126959285Y-98444285D01*
X126959285Y-98444285D02*
X126768809Y-98491904D01*
X126768809Y-98491904D02*
X126625952Y-98491904D01*
X126625952Y-98491904D02*
X126435476Y-98444285D01*
X126435476Y-98444285D02*
X126340238Y-98396666D01*
X126340238Y-98396666D02*
X126245000Y-98301428D01*
X126245000Y-98301428D02*
X126197380Y-98158571D01*
X126197380Y-98158571D02*
X126197380Y-98063333D01*
X126197380Y-98063333D02*
X126245000Y-97920476D01*
X126245000Y-97920476D02*
X126292619Y-97872857D01*
X127197380Y-96920476D02*
X127197380Y-97491904D01*
X127197380Y-97206190D02*
X126197380Y-97206190D01*
X126197380Y-97206190D02*
X126340238Y-97301428D01*
X126340238Y-97301428D02*
X126435476Y-97396666D01*
X126435476Y-97396666D02*
X126483095Y-97491904D01*
X126197380Y-96015714D02*
X126197380Y-96491904D01*
X126197380Y-96491904D02*
X126673571Y-96539523D01*
X126673571Y-96539523D02*
X126625952Y-96491904D01*
X126625952Y-96491904D02*
X126578333Y-96396666D01*
X126578333Y-96396666D02*
X126578333Y-96158571D01*
X126578333Y-96158571D02*
X126625952Y-96063333D01*
X126625952Y-96063333D02*
X126673571Y-96015714D01*
X126673571Y-96015714D02*
X126768809Y-95968095D01*
X126768809Y-95968095D02*
X127006904Y-95968095D01*
X127006904Y-95968095D02*
X127102142Y-96015714D01*
X127102142Y-96015714D02*
X127149761Y-96063333D01*
X127149761Y-96063333D02*
X127197380Y-96158571D01*
X127197380Y-96158571D02*
X127197380Y-96396666D01*
X127197380Y-96396666D02*
X127149761Y-96491904D01*
X127149761Y-96491904D02*
X127102142Y-96539523D01*
%TO.C,XA1*%
X138684000Y-82568142D02*
X138731619Y-82615761D01*
X138731619Y-82615761D02*
X138684000Y-82663380D01*
X138684000Y-82663380D02*
X138636381Y-82615761D01*
X138636381Y-82615761D02*
X138684000Y-82568142D01*
X138684000Y-82568142D02*
X138684000Y-82663380D01*
D13*
X139330952Y-65588690D02*
X139330952Y-65088690D01*
X139330952Y-65088690D02*
X139450000Y-65088690D01*
X139450000Y-65088690D02*
X139521428Y-65112500D01*
X139521428Y-65112500D02*
X139569047Y-65160119D01*
X139569047Y-65160119D02*
X139592857Y-65207738D01*
X139592857Y-65207738D02*
X139616666Y-65302976D01*
X139616666Y-65302976D02*
X139616666Y-65374404D01*
X139616666Y-65374404D02*
X139592857Y-65469642D01*
X139592857Y-65469642D02*
X139569047Y-65517261D01*
X139569047Y-65517261D02*
X139521428Y-65564880D01*
X139521428Y-65564880D02*
X139450000Y-65588690D01*
X139450000Y-65588690D02*
X139330952Y-65588690D01*
X139926190Y-65088690D02*
X139973809Y-65088690D01*
X139973809Y-65088690D02*
X140021428Y-65112500D01*
X140021428Y-65112500D02*
X140045238Y-65136309D01*
X140045238Y-65136309D02*
X140069047Y-65183928D01*
X140069047Y-65183928D02*
X140092857Y-65279166D01*
X140092857Y-65279166D02*
X140092857Y-65398214D01*
X140092857Y-65398214D02*
X140069047Y-65493452D01*
X140069047Y-65493452D02*
X140045238Y-65541071D01*
X140045238Y-65541071D02*
X140021428Y-65564880D01*
X140021428Y-65564880D02*
X139973809Y-65588690D01*
X139973809Y-65588690D02*
X139926190Y-65588690D01*
X139926190Y-65588690D02*
X139878571Y-65564880D01*
X139878571Y-65564880D02*
X139854762Y-65541071D01*
X139854762Y-65541071D02*
X139830952Y-65493452D01*
X139830952Y-65493452D02*
X139807143Y-65398214D01*
X139807143Y-65398214D02*
X139807143Y-65279166D01*
X139807143Y-65279166D02*
X139830952Y-65183928D01*
X139830952Y-65183928D02*
X139854762Y-65136309D01*
X139854762Y-65136309D02*
X139878571Y-65112500D01*
X139878571Y-65112500D02*
X139926190Y-65088690D01*
D14*
%TO.C,R3*%
X119508000Y-92099641D02*
X119508000Y-91792359D01*
X120268000Y-92099641D02*
X120268000Y-91792359D01*
%TO.C,C13*%
X118978000Y-91840164D02*
X118978000Y-92055836D01*
X118258000Y-91840164D02*
X118258000Y-92055836D01*
%TO.C,U2*%
X104255000Y-86682500D02*
X104255000Y-83032500D01*
X104255000Y-86682500D02*
X104255000Y-88882500D01*
X95935000Y-86682500D02*
X95935000Y-84482500D01*
X95935000Y-86682500D02*
X95935000Y-88882500D01*
%TO.C,J3*%
X133760000Y-77902000D02*
X131760000Y-77902000D01*
X133760000Y-76652000D02*
X133760000Y-77902000D01*
X133370000Y-77512000D02*
X133370000Y-70042000D01*
X133370000Y-70042000D02*
X117750000Y-70042000D01*
X132310000Y-76552000D02*
X129310000Y-76552000D01*
X132310000Y-75202000D02*
X131560000Y-75202000D01*
X132310000Y-70902000D02*
X132310000Y-75202000D01*
X132060000Y-75552000D02*
X132310000Y-76552000D01*
X131560000Y-75552000D02*
X132060000Y-75552000D01*
X131560000Y-75202000D02*
X131560000Y-75552000D01*
X131560000Y-70902000D02*
X132310000Y-70902000D01*
X130060000Y-75552000D02*
X130060000Y-75202000D01*
X130060000Y-75202000D02*
X129310000Y-75202000D01*
X129560000Y-75552000D02*
X130060000Y-75552000D01*
X129310000Y-76552000D02*
X129560000Y-75552000D01*
X129310000Y-75202000D02*
X129310000Y-70902000D01*
X129310000Y-70902000D02*
X130060000Y-70902000D01*
X128810000Y-76552000D02*
X125810000Y-76552000D01*
X128810000Y-75202000D02*
X128060000Y-75202000D01*
X128810000Y-70902000D02*
X128810000Y-75202000D01*
X128560000Y-75552000D02*
X128810000Y-76552000D01*
X128060000Y-75552000D02*
X128560000Y-75552000D01*
X128060000Y-75202000D02*
X128060000Y-75552000D01*
X128060000Y-70902000D02*
X128810000Y-70902000D01*
X126560000Y-75552000D02*
X126560000Y-75202000D01*
X126560000Y-75202000D02*
X125810000Y-75202000D01*
X126060000Y-75552000D02*
X126560000Y-75552000D01*
X125810000Y-76552000D02*
X126060000Y-75552000D01*
X125810000Y-75202000D02*
X125810000Y-70902000D01*
X125810000Y-70902000D02*
X126560000Y-70902000D01*
X125310000Y-76552000D02*
X122310000Y-76552000D01*
X125310000Y-75202000D02*
X124560000Y-75202000D01*
X125310000Y-70902000D02*
X125310000Y-75202000D01*
X125060000Y-75552000D02*
X125310000Y-76552000D01*
X124560000Y-75552000D02*
X125060000Y-75552000D01*
X124560000Y-75202000D02*
X124560000Y-75552000D01*
X124560000Y-70902000D02*
X125310000Y-70902000D01*
X123060000Y-75552000D02*
X123060000Y-75202000D01*
X123060000Y-75202000D02*
X122310000Y-75202000D01*
X122560000Y-75552000D02*
X123060000Y-75552000D01*
X122310000Y-76552000D02*
X122560000Y-75552000D01*
X122310000Y-75202000D02*
X122310000Y-70902000D01*
X122310000Y-70902000D02*
X123060000Y-70902000D01*
X121810000Y-76552000D02*
X118810000Y-76552000D01*
X121810000Y-75202000D02*
X121060000Y-75202000D01*
X121810000Y-70902000D02*
X121810000Y-75202000D01*
X121560000Y-75552000D02*
X121810000Y-76552000D01*
X121060000Y-75552000D02*
X121560000Y-75552000D01*
X121060000Y-75202000D02*
X121060000Y-75552000D01*
X121060000Y-70902000D02*
X121810000Y-70902000D01*
X119560000Y-75552000D02*
X119560000Y-75202000D01*
X119560000Y-75202000D02*
X118810000Y-75202000D01*
X119060000Y-75552000D02*
X119560000Y-75552000D01*
X118810000Y-76552000D02*
X119060000Y-75552000D01*
X118810000Y-75202000D02*
X118810000Y-70902000D01*
X118810000Y-70902000D02*
X119560000Y-70902000D01*
X117750000Y-77512000D02*
X133370000Y-77512000D01*
X117750000Y-70042000D02*
X117750000Y-77512000D01*
X130060353Y-70902155D02*
G75*
G03*
X131560000Y-70902000I749647J1700155D01*
G01*
X126560353Y-70902155D02*
G75*
G03*
X128060000Y-70902000I749647J1700155D01*
G01*
X123060353Y-70902155D02*
G75*
G03*
X124560000Y-70902000I749647J1700155D01*
G01*
X119560353Y-70902155D02*
G75*
G03*
X121060000Y-70902000I749647J1700155D01*
G01*
%TO.C,C6*%
X102226164Y-80158000D02*
X102441836Y-80158000D01*
X102226164Y-80878000D02*
X102441836Y-80878000D01*
%TO.C,C7*%
X121492000Y-99060000D02*
G75*
G03*
X121492000Y-99060000I-5120000J0D01*
G01*
%TO.C,C14*%
X117708000Y-91812164D02*
X117708000Y-92027836D01*
X116988000Y-91812164D02*
X116988000Y-92027836D01*
%TO.C,R2*%
X97918000Y-92103641D02*
X97918000Y-91796359D01*
X98678000Y-92103641D02*
X98678000Y-91796359D01*
%TO.C,C1*%
X125848164Y-81428000D02*
X126063836Y-81428000D01*
X125848164Y-82148000D02*
X126063836Y-82148000D01*
%TO.C,C3*%
X104314164Y-81428000D02*
X104529836Y-81428000D01*
X104314164Y-82148000D02*
X104529836Y-82148000D01*
%TO.C,C12*%
X100640000Y-99060000D02*
G75*
G03*
X100640000Y-99060000I-5120000J0D01*
G01*
%TO.C,C11*%
X123844164Y-80158000D02*
X124059836Y-80158000D01*
X123844164Y-80878000D02*
X124059836Y-80878000D01*
%TO.C,J1*%
X139768000Y-102259000D02*
X139768000Y-100459000D01*
X141218000Y-102259000D02*
X139768000Y-102259000D01*
X144038000Y-100989000D02*
X144038000Y-92559000D01*
X139768000Y-100459000D02*
X138778000Y-100459000D01*
X139768000Y-91289000D02*
X139768000Y-93089000D01*
X141218000Y-91289000D02*
X139768000Y-91289000D01*
%TO.C,J4*%
X85522500Y-92265000D02*
X76102500Y-92265000D01*
X85522500Y-92265000D02*
X85522500Y-93775000D01*
X79412500Y-92265000D02*
X79412500Y-100885000D01*
X76102500Y-92265000D02*
X76102500Y-100885000D01*
X86812500Y-94525000D02*
X86812500Y-95125000D01*
X86212500Y-94825000D02*
X86812500Y-94525000D01*
X86812500Y-95125000D02*
X86212500Y-94825000D01*
X85522500Y-95875000D02*
X85522500Y-97275000D01*
X85522500Y-100885000D02*
X85522500Y-99375000D01*
X76102500Y-100885000D02*
X85522500Y-100885000D01*
%TO.C,U1*%
X125845000Y-86682500D02*
X125845000Y-83032500D01*
X125845000Y-86682500D02*
X125845000Y-88882500D01*
X117525000Y-86682500D02*
X117525000Y-84482500D01*
X117525000Y-86682500D02*
X117525000Y-88882500D01*
%TO.C,R4*%
X122046000Y-92810359D02*
X122046000Y-93117641D01*
X121286000Y-92810359D02*
X121286000Y-93117641D01*
%TO.C,C4*%
X102226164Y-81428000D02*
X102441836Y-81428000D01*
X102226164Y-82148000D02*
X102441836Y-82148000D01*
%TO.C,D1*%
X89902500Y-88365000D02*
X89902500Y-86895000D01*
X89902500Y-86895000D02*
X87617500Y-86895000D01*
X87617500Y-88365000D02*
X89902500Y-88365000D01*
%TO.C,C10*%
X117991836Y-82148000D02*
X117776164Y-82148000D01*
X117991836Y-81428000D02*
X117776164Y-81428000D01*
%TO.C,C8*%
X97388000Y-91812164D02*
X97388000Y-92027836D01*
X96668000Y-91812164D02*
X96668000Y-92027836D01*
%TO.C,R5*%
X92046359Y-87250000D02*
X92353641Y-87250000D01*
X92046359Y-88010000D02*
X92353641Y-88010000D01*
%TO.C,R1*%
X100456000Y-92812359D02*
X100456000Y-93119641D01*
X99696000Y-92812359D02*
X99696000Y-93119641D01*
%TO.C,C15*%
X136200000Y-97230000D02*
G75*
G03*
X136200000Y-97230000I-4120000J0D01*
G01*
%TO.C,C5*%
X96401836Y-82148000D02*
X96186164Y-82148000D01*
X96401836Y-81428000D02*
X96186164Y-81428000D01*
%TO.C,J2*%
X112170000Y-77902000D02*
X110170000Y-77902000D01*
X112170000Y-76652000D02*
X112170000Y-77902000D01*
X111780000Y-77512000D02*
X111780000Y-70042000D01*
X111780000Y-70042000D02*
X96160000Y-70042000D01*
X110720000Y-76552000D02*
X107720000Y-76552000D01*
X110720000Y-75202000D02*
X109970000Y-75202000D01*
X110720000Y-70902000D02*
X110720000Y-75202000D01*
X110470000Y-75552000D02*
X110720000Y-76552000D01*
X109970000Y-75552000D02*
X110470000Y-75552000D01*
X109970000Y-75202000D02*
X109970000Y-75552000D01*
X109970000Y-70902000D02*
X110720000Y-70902000D01*
X108470000Y-75552000D02*
X108470000Y-75202000D01*
X108470000Y-75202000D02*
X107720000Y-75202000D01*
X107970000Y-75552000D02*
X108470000Y-75552000D01*
X107720000Y-76552000D02*
X107970000Y-75552000D01*
X107720000Y-75202000D02*
X107720000Y-70902000D01*
X107720000Y-70902000D02*
X108470000Y-70902000D01*
X107220000Y-76552000D02*
X104220000Y-76552000D01*
X107220000Y-75202000D02*
X106470000Y-75202000D01*
X107220000Y-70902000D02*
X107220000Y-75202000D01*
X106970000Y-75552000D02*
X107220000Y-76552000D01*
X106470000Y-75552000D02*
X106970000Y-75552000D01*
X106470000Y-75202000D02*
X106470000Y-75552000D01*
X106470000Y-70902000D02*
X107220000Y-70902000D01*
X104970000Y-75552000D02*
X104970000Y-75202000D01*
X104970000Y-75202000D02*
X104220000Y-75202000D01*
X104470000Y-75552000D02*
X104970000Y-75552000D01*
X104220000Y-76552000D02*
X104470000Y-75552000D01*
X104220000Y-75202000D02*
X104220000Y-70902000D01*
X104220000Y-70902000D02*
X104970000Y-70902000D01*
X103720000Y-76552000D02*
X100720000Y-76552000D01*
X103720000Y-75202000D02*
X102970000Y-75202000D01*
X103720000Y-70902000D02*
X103720000Y-75202000D01*
X103470000Y-75552000D02*
X103720000Y-76552000D01*
X102970000Y-75552000D02*
X103470000Y-75552000D01*
X102970000Y-75202000D02*
X102970000Y-75552000D01*
X102970000Y-70902000D02*
X103720000Y-70902000D01*
X101470000Y-75552000D02*
X101470000Y-75202000D01*
X101470000Y-75202000D02*
X100720000Y-75202000D01*
X100970000Y-75552000D02*
X101470000Y-75552000D01*
X100720000Y-76552000D02*
X100970000Y-75552000D01*
X100720000Y-75202000D02*
X100720000Y-70902000D01*
X100720000Y-70902000D02*
X101470000Y-70902000D01*
X100220000Y-76552000D02*
X97220000Y-76552000D01*
X100220000Y-75202000D02*
X99470000Y-75202000D01*
X100220000Y-70902000D02*
X100220000Y-75202000D01*
X99970000Y-75552000D02*
X100220000Y-76552000D01*
X99470000Y-75552000D02*
X99970000Y-75552000D01*
X99470000Y-75202000D02*
X99470000Y-75552000D01*
X99470000Y-70902000D02*
X100220000Y-70902000D01*
X97970000Y-75552000D02*
X97970000Y-75202000D01*
X97970000Y-75202000D02*
X97220000Y-75202000D01*
X97470000Y-75552000D02*
X97970000Y-75552000D01*
X97220000Y-76552000D02*
X97470000Y-75552000D01*
X97220000Y-75202000D02*
X97220000Y-70902000D01*
X97220000Y-70902000D02*
X97970000Y-70902000D01*
X96160000Y-77512000D02*
X111780000Y-77512000D01*
X96160000Y-70042000D02*
X96160000Y-77512000D01*
X108470353Y-70902155D02*
G75*
G03*
X109970000Y-70902000I749647J1700155D01*
G01*
X104970353Y-70902155D02*
G75*
G03*
X106470000Y-70902000I749647J1700155D01*
G01*
X101470353Y-70902155D02*
G75*
G03*
X102970000Y-70902000I749647J1700155D01*
G01*
X97970353Y-70902155D02*
G75*
G03*
X99470000Y-70902000I749647J1700155D01*
G01*
%TO.C,C2*%
X123816164Y-81428000D02*
X124031836Y-81428000D01*
X123816164Y-82148000D02*
X124031836Y-82148000D01*
%TO.C,C9*%
X96118000Y-91812164D02*
X96118000Y-92027836D01*
X95398000Y-91812164D02*
X95398000Y-92027836D01*
%TD*%
M02*
