%TF.GenerationSoftware,KiCad,Pcbnew,(7.0.0)*%
%TF.CreationDate,2023-03-01T19:42:45-06:00*%
%TF.ProjectId,TurretCtl,54757272-6574-4437-946c-2e6b69636164,rev?*%
%TF.SameCoordinates,Original*%
%TF.FileFunction,Copper,L4,Bot*%
%TF.FilePolarity,Positive*%
%FSLAX46Y46*%
G04 Gerber Fmt 4.6, Leading zero omitted, Abs format (unit mm)*
G04 Created by KiCad (PCBNEW (7.0.0)) date 2023-03-01 19:42:45*
%MOMM*%
%LPD*%
G01*
G04 APERTURE LIST*
G04 Aperture macros list*
%AMRoundRect*
0 Rectangle with rounded corners*
0 $1 Rounding radius*
0 $2 $3 $4 $5 $6 $7 $8 $9 X,Y pos of 4 corners*
0 Add a 4 corners polygon primitive as box body*
4,1,4,$2,$3,$4,$5,$6,$7,$8,$9,$2,$3,0*
0 Add four circle primitives for the rounded corners*
1,1,$1+$1,$2,$3*
1,1,$1+$1,$4,$5*
1,1,$1+$1,$6,$7*
1,1,$1+$1,$8,$9*
0 Add four rect primitives between the rounded corners*
20,1,$1+$1,$2,$3,$4,$5,0*
20,1,$1+$1,$4,$5,$6,$7,0*
20,1,$1+$1,$6,$7,$8,$9,0*
20,1,$1+$1,$8,$9,$2,$3,0*%
G04 Aperture macros list end*
%TA.AperFunction,ComponentPad*%
%ADD10RoundRect,0.250000X0.650000X1.550000X-0.650000X1.550000X-0.650000X-1.550000X0.650000X-1.550000X0*%
%TD*%
%TA.AperFunction,ComponentPad*%
%ADD11O,1.800000X3.600000*%
%TD*%
%TA.AperFunction,ComponentPad*%
%ADD12C,1.600000*%
%TD*%
%TA.AperFunction,ComponentPad*%
%ADD13RoundRect,0.250000X-1.550000X0.650000X-1.550000X-0.650000X1.550000X-0.650000X1.550000X0.650000X0*%
%TD*%
%TA.AperFunction,ComponentPad*%
%ADD14O,3.600000X1.800000*%
%TD*%
%TA.AperFunction,ComponentPad*%
%ADD15O,1.727200X1.727200*%
%TD*%
%TA.AperFunction,ComponentPad*%
%ADD16R,1.727200X1.727200*%
%TD*%
%TA.AperFunction,ViaPad*%
%ADD17C,1.000000*%
%TD*%
%TA.AperFunction,ViaPad*%
%ADD18C,0.530000*%
%TD*%
%TA.AperFunction,Conductor*%
%ADD19C,0.254000*%
%TD*%
%TA.AperFunction,Conductor*%
%ADD20C,0.508000*%
%TD*%
%TA.AperFunction,Conductor*%
%ADD21C,0.762000*%
%TD*%
G04 APERTURE END LIST*
D10*
%TO.P,J3,1,Pin_1*%
%TO.N,S2_AOUT1*%
X130810000Y-73152000D03*
D11*
%TO.P,J3,2,Pin_2*%
%TO.N,S2_AOUT2*%
X127309999Y-73151999D03*
%TO.P,J3,3,Pin_3*%
%TO.N,S2_BOUT2*%
X123809999Y-73151999D03*
%TO.P,J3,4,Pin_4*%
%TO.N,S2_BOUT1*%
X120309999Y-73151999D03*
%TD*%
D12*
%TO.P,C7,1*%
%TO.N,+12V*%
X113872000Y-99060000D03*
%TO.P,C7,2*%
%TO.N,GND*%
X118872000Y-99060000D03*
%TD*%
%TO.P,C12,1*%
%TO.N,+12V*%
X93020000Y-99060000D03*
%TO.P,C12,2*%
%TO.N,GND*%
X98020000Y-99060000D03*
%TD*%
D13*
%TO.P,J4,1,Pin_1*%
%TO.N,GND*%
X84212500Y-94825000D03*
D14*
%TO.P,J4,2,Pin_2*%
%TO.N,+12V*%
X84212499Y-98324999D03*
%TD*%
D12*
%TO.P,C15,1*%
%TO.N,+5V*%
X132080000Y-98980000D03*
%TO.P,C15,2*%
%TO.N,GND*%
X132080000Y-95480000D03*
%TD*%
D10*
%TO.P,J2,1,Pin_1*%
%TO.N,S1_AOUT1*%
X109220000Y-73152000D03*
D11*
%TO.P,J2,2,Pin_2*%
%TO.N,S1_AOUT2*%
X105719999Y-73151999D03*
%TO.P,J2,3,Pin_3*%
%TO.N,S1_BOUT2*%
X102219999Y-73151999D03*
%TO.P,J2,4,Pin_4*%
%TO.N,S1_BOUT1*%
X98719999Y-73151999D03*
%TD*%
D15*
%TO.P,XA1,*%
%TO.N,*%
X104139999Y-111759999D03*
%TO.P,XA1,3V3,3.3V*%
%TO.N,unconnected-(XA1-3.3V-Pad3V3)*%
X111759999Y-111759999D03*
%TO.P,XA1,5V1,5V*%
%TO.N,+5V*%
X114299999Y-111759999D03*
%TO.P,XA1,5V2,SPI_5V*%
%TO.N,unconnected-(XA1-SPI_5V-Pad5V2)*%
X142366999Y-83819999D03*
%TO.P,XA1,A0,A0*%
%TO.N,unconnected-(XA1-PadA0)*%
X126999999Y-111759999D03*
%TO.P,XA1,A1,A1*%
%TO.N,unconnected-(XA1-PadA1)*%
X129539999Y-111759999D03*
%TO.P,XA1,A2,A2*%
%TO.N,unconnected-(XA1-PadA2)*%
X132079999Y-111759999D03*
%TO.P,XA1,A3,A3*%
%TO.N,unconnected-(XA1-PadA3)*%
X134619999Y-111759999D03*
%TO.P,XA1,A4,A4*%
%TO.N,unconnected-(XA1-PadA4)*%
X137159999Y-111759999D03*
%TO.P,XA1,A5,A5*%
%TO.N,unconnected-(XA1-PadA5)*%
X139699999Y-111759999D03*
%TO.P,XA1,AREF,AREF*%
%TO.N,unconnected-(XA1-PadAREF)*%
X100075999Y-63499999D03*
%TO.P,XA1,D0,D0_RX0*%
%TO.N,unconnected-(XA1-D0_RX0-PadD0)*%
X139699999Y-63499999D03*
%TO.P,XA1,D1,D1_TX0*%
%TO.N,unconnected-(XA1-D1_TX0-PadD1)*%
X137159999Y-63499999D03*
%TO.P,XA1,D2,D2_INT0*%
%TO.N,S2_DIR*%
X134619999Y-63499999D03*
%TO.P,XA1,D3,D3_INT1*%
%TO.N,S2_STEP*%
X132079999Y-63499999D03*
%TO.P,XA1,D4,D4*%
%TO.N,S1_DIR*%
X129539999Y-63499999D03*
%TO.P,XA1,D5,D5*%
%TO.N,S1_STEP*%
X126999999Y-63499999D03*
%TO.P,XA1,D6,D6*%
%TO.N,unconnected-(XA1-PadD6)*%
X124459999Y-63499999D03*
%TO.P,XA1,D7,D7*%
%TO.N,unconnected-(XA1-PadD7)*%
X121919999Y-63499999D03*
%TO.P,XA1,D8,D8*%
%TO.N,unconnected-(XA1-PadD8)*%
X117855999Y-63499999D03*
%TO.P,XA1,D9,D9*%
%TO.N,unconnected-(XA1-PadD9)*%
X115315999Y-63499999D03*
%TO.P,XA1,D10,D10_CS*%
%TO.N,unconnected-(XA1-D10_CS-PadD10)*%
X112775999Y-63499999D03*
%TO.P,XA1,D11,D11*%
%TO.N,unconnected-(XA1-PadD11)*%
X110235999Y-63499999D03*
%TO.P,XA1,D12,D12*%
%TO.N,unconnected-(XA1-PadD12)*%
X107695999Y-63499999D03*
%TO.P,XA1,D13,D13*%
%TO.N,unconnected-(XA1-PadD13)*%
X105155999Y-63499999D03*
D16*
%TO.P,XA1,GND1,GND*%
%TO.N,GND*%
X102615999Y-63499999D03*
%TO.P,XA1,GND2,GND*%
X116839999Y-111759999D03*
%TO.P,XA1,GND3,GND*%
X119379999Y-111759999D03*
%TO.P,XA1,GND4,SPI_GND*%
%TO.N,unconnected-(XA1-SPI_GND-PadGND4)*%
X142366999Y-88899999D03*
D15*
%TO.P,XA1,IORF,IOREF*%
%TO.N,unconnected-(XA1-IOREF-PadIORF)*%
X106679999Y-111759999D03*
%TO.P,XA1,MISO,SPI_MISO*%
%TO.N,unconnected-(XA1-SPI_MISO-PadMISO)*%
X139826999Y-83819999D03*
%TO.P,XA1,MOSI,SPI_MOSI*%
%TO.N,unconnected-(XA1-SPI_MOSI-PadMOSI)*%
X142366999Y-86359999D03*
%TO.P,XA1,RST1,RESET*%
%TO.N,unconnected-(XA1-RESET-PadRST1)*%
X109219999Y-111759999D03*
%TO.P,XA1,RST2,SPI_RESET*%
%TO.N,unconnected-(XA1-SPI_RESET-PadRST2)*%
X139826999Y-88899999D03*
%TO.P,XA1,SCK,SPI_SCK*%
%TO.N,unconnected-(XA1-SPI_SCK-PadSCK)*%
X139826999Y-86359999D03*
%TO.P,XA1,SCL,SCL*%
%TO.N,SCL*%
X94995999Y-63499999D03*
%TO.P,XA1,SDA,SDA*%
%TO.N,SDA*%
X97535999Y-63499999D03*
%TO.P,XA1,VIN,VIN*%
%TO.N,+12V*%
X121919999Y-111759999D03*
%TD*%
D17*
%TO.N,+12V*%
X112776000Y-97790000D03*
X112776000Y-100330000D03*
X114808000Y-100330000D03*
X91948000Y-100330000D03*
X101854000Y-78740000D03*
X91948000Y-97790000D03*
X93980000Y-100330000D03*
X123444000Y-78702000D03*
X94742000Y-80264000D03*
X114808000Y-97790000D03*
X86360000Y-87630000D03*
X93980000Y-97790000D03*
X116332000Y-80226000D03*
D18*
%TO.N,GND*%
X119888000Y-82258000D03*
D17*
X124460000Y-87376000D03*
X119888000Y-100330000D03*
X102870000Y-87376000D03*
X125476000Y-80480000D03*
X117856000Y-93434000D03*
X133096000Y-96520000D03*
X96266000Y-93472000D03*
X121666000Y-94450000D03*
X94742000Y-81788000D03*
X117856000Y-100330000D03*
X124460000Y-85852000D03*
X97282000Y-87376000D03*
X102616000Y-90932000D03*
X116332000Y-81750000D03*
X137922000Y-93218000D03*
D18*
X100330000Y-82296000D03*
D17*
X103886000Y-80518000D03*
X93980000Y-87630000D03*
X100076000Y-94488000D03*
X131064000Y-93980000D03*
X97028000Y-100330000D03*
X133096000Y-93980000D03*
X119888000Y-97790000D03*
X118872000Y-85852000D03*
X117856000Y-97790000D03*
X99060000Y-100330000D03*
X124206000Y-90894000D03*
X131064000Y-96520000D03*
X102870000Y-85852000D03*
X99060000Y-97790000D03*
D18*
X98298000Y-82296000D03*
D17*
X118872000Y-87376000D03*
X97282000Y-85852000D03*
X97028000Y-97790000D03*
D18*
X121920000Y-82258000D03*
%TO.N,/Stepper1/DVDD*%
X99822000Y-90932000D03*
X103632000Y-91440000D03*
X98298000Y-93218000D03*
%TO.N,/Stepper2/DVDD*%
X125222000Y-91402000D03*
X121412000Y-90894000D03*
X119888000Y-93180000D03*
D17*
%TO.N,SCL*%
X136652000Y-97028000D03*
%TO.N,SDA*%
X136652000Y-94996000D03*
D18*
%TO.N,S1_AOUT1*%
X100838000Y-81534000D03*
%TO.N,S1_AOUT2*%
X99822000Y-81534000D03*
%TO.N,S1_BOUT2*%
X98806000Y-81534000D03*
%TO.N,S1_BOUT1*%
X97790000Y-81534000D03*
%TO.N,S2_AOUT1*%
X122428000Y-81496000D03*
%TO.N,S2_AOUT2*%
X121412000Y-81496000D03*
%TO.N,S2_BOUT2*%
X120396000Y-81496000D03*
%TO.N,S2_BOUT1*%
X119380000Y-81496000D03*
%TD*%
D19*
%TO.N,/Stepper1/DVDD*%
X98298000Y-93218000D02*
X101854000Y-93218000D01*
X98298000Y-93218000D02*
X99822000Y-91694000D01*
X99822000Y-91694000D02*
X99822000Y-90932000D01*
X101854000Y-93218000D02*
X103632000Y-91440000D01*
%TO.N,/Stepper2/DVDD*%
X121412000Y-91656000D02*
X121412000Y-90894000D01*
X119888000Y-93180000D02*
X121412000Y-91656000D01*
X119888000Y-93180000D02*
X123444000Y-93180000D01*
X123444000Y-93180000D02*
X125222000Y-91402000D01*
D20*
%TO.N,SCL*%
X134620000Y-94996000D02*
X136652000Y-97028000D01*
X134620000Y-90932000D02*
X134620000Y-94996000D01*
X133096000Y-89408000D02*
X134620000Y-90932000D01*
X99060000Y-67564000D02*
X131064000Y-67564000D01*
X94996000Y-63500000D02*
X99060000Y-67564000D01*
X133096000Y-69596000D02*
X133096000Y-89408000D01*
X131064000Y-67564000D02*
X133096000Y-69596000D01*
%TO.N,SDA*%
X136652000Y-94996000D02*
X136652000Y-69088000D01*
X99568000Y-65532000D02*
X97536000Y-63500000D01*
X136652000Y-69088000D02*
X133096000Y-65532000D01*
X133096000Y-65532000D02*
X99568000Y-65532000D01*
D21*
%TO.N,S1_AOUT1*%
X100838000Y-81534000D02*
X109220000Y-73152000D01*
%TO.N,S1_AOUT2*%
X99822000Y-81189526D02*
X100330000Y-80681526D01*
X99822000Y-81534000D02*
X99822000Y-81189526D01*
X100330000Y-80681526D02*
X100330000Y-78542000D01*
X100330000Y-78542000D02*
X105720000Y-73152000D01*
%TO.N,S1_BOUT2*%
X98806000Y-81534000D02*
X98806000Y-80010000D01*
X102220000Y-73294000D02*
X102220000Y-73152000D01*
X98806000Y-80010000D02*
X97790000Y-78994000D01*
X97790000Y-78994000D02*
X97790000Y-77724000D01*
X97790000Y-77724000D02*
X102220000Y-73294000D01*
%TO.N,S1_BOUT1*%
X98044000Y-73152000D02*
X98720000Y-73152000D01*
X95758000Y-79502000D02*
X95758000Y-75438000D01*
X97790000Y-81534000D02*
X95758000Y-79502000D01*
X95758000Y-75438000D02*
X98044000Y-73152000D01*
%TO.N,S2_AOUT1*%
X122428000Y-81496000D02*
X130810000Y-73114000D01*
%TO.N,S2_AOUT2*%
X121920000Y-80643526D02*
X121920000Y-78504000D01*
X121412000Y-81151526D02*
X121920000Y-80643526D01*
X121920000Y-78504000D02*
X127310000Y-73114000D01*
X121412000Y-81496000D02*
X121412000Y-81151526D01*
%TO.N,S2_BOUT2*%
X119380000Y-77686000D02*
X123810000Y-73256000D01*
X120396000Y-81496000D02*
X120396000Y-79972000D01*
X119380000Y-78956000D02*
X119380000Y-77686000D01*
X123810000Y-73256000D02*
X123810000Y-73114000D01*
X120396000Y-79972000D02*
X119380000Y-78956000D01*
%TO.N,S2_BOUT1*%
X119380000Y-81496000D02*
X117348000Y-79464000D01*
X117348000Y-75400000D02*
X119634000Y-73114000D01*
X119634000Y-73114000D02*
X120310000Y-73114000D01*
X117348000Y-79464000D02*
X117348000Y-75400000D01*
%TD*%
M02*
