%TF.GenerationSoftware,KiCad,Pcbnew,(7.0.0)*%
%TF.CreationDate,2023-04-12T03:46:22-05:00*%
%TF.ProjectId,TurretCtl,54757272-6574-4437-946c-2e6b69636164,rev?*%
%TF.SameCoordinates,Original*%
%TF.FileFunction,Legend,Bot*%
%TF.FilePolarity,Positive*%
%FSLAX46Y46*%
G04 Gerber Fmt 4.6, Leading zero omitted, Abs format (unit mm)*
G04 Created by KiCad (PCBNEW (7.0.0)) date 2023-04-12 03:46:22*
%MOMM*%
%LPD*%
G01*
G04 APERTURE LIST*
%ADD10C,0.150000*%
%ADD11C,0.075000*%
G04 APERTURE END LIST*
D10*
%TO.C,XA1*%
X90138094Y-46611380D02*
X89471428Y-47611380D01*
X89471428Y-46611380D02*
X90138094Y-47611380D01*
X89138094Y-47325666D02*
X88661904Y-47325666D01*
X89233332Y-47611380D02*
X88899999Y-46611380D01*
X88899999Y-46611380D02*
X88566666Y-47611380D01*
X87709523Y-47611380D02*
X88280951Y-47611380D01*
X87995237Y-47611380D02*
X87995237Y-46611380D01*
X87995237Y-46611380D02*
X88090475Y-46754238D01*
X88090475Y-46754238D02*
X88185713Y-46849476D01*
X88185713Y-46849476D02*
X88280951Y-46897095D01*
X148844000Y-69868142D02*
X148891619Y-69915761D01*
X148891619Y-69915761D02*
X148844000Y-69963380D01*
X148844000Y-69963380D02*
X148796381Y-69915761D01*
X148796381Y-69915761D02*
X148844000Y-69868142D01*
X148844000Y-69868142D02*
X148844000Y-69963380D01*
D11*
X150229047Y-52888690D02*
X150229047Y-52388690D01*
X150229047Y-52388690D02*
X150109999Y-52388690D01*
X150109999Y-52388690D02*
X150038571Y-52412500D01*
X150038571Y-52412500D02*
X149990952Y-52460119D01*
X149990952Y-52460119D02*
X149967142Y-52507738D01*
X149967142Y-52507738D02*
X149943333Y-52602976D01*
X149943333Y-52602976D02*
X149943333Y-52674404D01*
X149943333Y-52674404D02*
X149967142Y-52769642D01*
X149967142Y-52769642D02*
X149990952Y-52817261D01*
X149990952Y-52817261D02*
X150038571Y-52864880D01*
X150038571Y-52864880D02*
X150109999Y-52888690D01*
X150109999Y-52888690D02*
X150229047Y-52888690D01*
X149633809Y-52388690D02*
X149586190Y-52388690D01*
X149586190Y-52388690D02*
X149538571Y-52412500D01*
X149538571Y-52412500D02*
X149514761Y-52436309D01*
X149514761Y-52436309D02*
X149490952Y-52483928D01*
X149490952Y-52483928D02*
X149467142Y-52579166D01*
X149467142Y-52579166D02*
X149467142Y-52698214D01*
X149467142Y-52698214D02*
X149490952Y-52793452D01*
X149490952Y-52793452D02*
X149514761Y-52841071D01*
X149514761Y-52841071D02*
X149538571Y-52864880D01*
X149538571Y-52864880D02*
X149586190Y-52888690D01*
X149586190Y-52888690D02*
X149633809Y-52888690D01*
X149633809Y-52888690D02*
X149681428Y-52864880D01*
X149681428Y-52864880D02*
X149705237Y-52841071D01*
X149705237Y-52841071D02*
X149729047Y-52793452D01*
X149729047Y-52793452D02*
X149752856Y-52698214D01*
X149752856Y-52698214D02*
X149752856Y-52579166D01*
X149752856Y-52579166D02*
X149729047Y-52483928D01*
X149729047Y-52483928D02*
X149705237Y-52436309D01*
X149705237Y-52436309D02*
X149681428Y-52412500D01*
X149681428Y-52412500D02*
X149633809Y-52388690D01*
D10*
X86360000Y-48260000D02*
X86360000Y-101600000D01*
X86360000Y-48260000D02*
X150876000Y-48260000D01*
X86360000Y-101600000D02*
X152400000Y-101600000D01*
X150876000Y-48260000D02*
X152400000Y-49784000D01*
X152400000Y-60960000D02*
X152400000Y-49784000D01*
X152400000Y-100330000D02*
X154940000Y-97790000D01*
X152400000Y-101600000D02*
X152400000Y-100330000D01*
X154940000Y-63500000D02*
X152400000Y-60960000D01*
X154940000Y-97790000D02*
X154940000Y-63500000D01*
%TD*%
M02*
