%TF.GenerationSoftware,KiCad,Pcbnew,(7.0.0)*%
%TF.CreationDate,2023-03-25T14:04:38-05:00*%
%TF.ProjectId,TurretCtl,54757272-6574-4437-946c-2e6b69636164,rev?*%
%TF.SameCoordinates,Original*%
%TF.FileFunction,Legend,Bot*%
%TF.FilePolarity,Positive*%
%FSLAX46Y46*%
G04 Gerber Fmt 4.6, Leading zero omitted, Abs format (unit mm)*
G04 Created by KiCad (PCBNEW (7.0.0)) date 2023-03-25 14:04:38*
%MOMM*%
%LPD*%
G01*
G04 APERTURE LIST*
%ADD10C,0.150000*%
%ADD11C,0.075000*%
G04 APERTURE END LIST*
D10*
%TO.C,XA1*%
X26638094Y-59311380D02*
X25971428Y-60311380D01*
X25971428Y-59311380D02*
X26638094Y-60311380D01*
X25638094Y-60025666D02*
X25161904Y-60025666D01*
X25733332Y-60311380D02*
X25399999Y-59311380D01*
X25399999Y-59311380D02*
X25066666Y-60311380D01*
X24209523Y-60311380D02*
X24780951Y-60311380D01*
X24495237Y-60311380D02*
X24495237Y-59311380D01*
X24495237Y-59311380D02*
X24590475Y-59454238D01*
X24590475Y-59454238D02*
X24685713Y-59549476D01*
X24685713Y-59549476D02*
X24780951Y-59597095D01*
X85344000Y-82568142D02*
X85391619Y-82615761D01*
X85391619Y-82615761D02*
X85344000Y-82663380D01*
X85344000Y-82663380D02*
X85296381Y-82615761D01*
X85296381Y-82615761D02*
X85344000Y-82568142D01*
X85344000Y-82568142D02*
X85344000Y-82663380D01*
D11*
X86729047Y-65588690D02*
X86729047Y-65088690D01*
X86729047Y-65088690D02*
X86609999Y-65088690D01*
X86609999Y-65088690D02*
X86538571Y-65112500D01*
X86538571Y-65112500D02*
X86490952Y-65160119D01*
X86490952Y-65160119D02*
X86467142Y-65207738D01*
X86467142Y-65207738D02*
X86443333Y-65302976D01*
X86443333Y-65302976D02*
X86443333Y-65374404D01*
X86443333Y-65374404D02*
X86467142Y-65469642D01*
X86467142Y-65469642D02*
X86490952Y-65517261D01*
X86490952Y-65517261D02*
X86538571Y-65564880D01*
X86538571Y-65564880D02*
X86609999Y-65588690D01*
X86609999Y-65588690D02*
X86729047Y-65588690D01*
X86133809Y-65088690D02*
X86086190Y-65088690D01*
X86086190Y-65088690D02*
X86038571Y-65112500D01*
X86038571Y-65112500D02*
X86014761Y-65136309D01*
X86014761Y-65136309D02*
X85990952Y-65183928D01*
X85990952Y-65183928D02*
X85967142Y-65279166D01*
X85967142Y-65279166D02*
X85967142Y-65398214D01*
X85967142Y-65398214D02*
X85990952Y-65493452D01*
X85990952Y-65493452D02*
X86014761Y-65541071D01*
X86014761Y-65541071D02*
X86038571Y-65564880D01*
X86038571Y-65564880D02*
X86086190Y-65588690D01*
X86086190Y-65588690D02*
X86133809Y-65588690D01*
X86133809Y-65588690D02*
X86181428Y-65564880D01*
X86181428Y-65564880D02*
X86205237Y-65541071D01*
X86205237Y-65541071D02*
X86229047Y-65493452D01*
X86229047Y-65493452D02*
X86252856Y-65398214D01*
X86252856Y-65398214D02*
X86252856Y-65279166D01*
X86252856Y-65279166D02*
X86229047Y-65183928D01*
X86229047Y-65183928D02*
X86205237Y-65136309D01*
X86205237Y-65136309D02*
X86181428Y-65112500D01*
X86181428Y-65112500D02*
X86133809Y-65088690D01*
D10*
X22860000Y-60960000D02*
X22860000Y-114300000D01*
X22860000Y-60960000D02*
X87376000Y-60960000D01*
X22860000Y-114300000D02*
X88900000Y-114300000D01*
X87376000Y-60960000D02*
X88900000Y-62484000D01*
X88900000Y-73660000D02*
X88900000Y-62484000D01*
X88900000Y-113030000D02*
X91440000Y-110490000D01*
X88900000Y-114300000D02*
X88900000Y-113030000D01*
X91440000Y-76200000D02*
X88900000Y-73660000D01*
X91440000Y-110490000D02*
X91440000Y-76200000D01*
%TD*%
M02*
