%TF.GenerationSoftware,KiCad,Pcbnew,(7.0.0)*%
%TF.CreationDate,2023-03-25T14:04:38-05:00*%
%TF.ProjectId,TurretCtl,54757272-6574-4437-946c-2e6b69636164,rev?*%
%TF.SameCoordinates,Original*%
%TF.FileFunction,Copper,L4,Bot*%
%TF.FilePolarity,Positive*%
%FSLAX46Y46*%
G04 Gerber Fmt 4.6, Leading zero omitted, Abs format (unit mm)*
G04 Created by KiCad (PCBNEW (7.0.0)) date 2023-03-25 14:04:38*
%MOMM*%
%LPD*%
G01*
G04 APERTURE LIST*
G04 Aperture macros list*
%AMRoundRect*
0 Rectangle with rounded corners*
0 $1 Rounding radius*
0 $2 $3 $4 $5 $6 $7 $8 $9 X,Y pos of 4 corners*
0 Add a 4 corners polygon primitive as box body*
4,1,4,$2,$3,$4,$5,$6,$7,$8,$9,$2,$3,0*
0 Add four circle primitives for the rounded corners*
1,1,$1+$1,$2,$3*
1,1,$1+$1,$4,$5*
1,1,$1+$1,$6,$7*
1,1,$1+$1,$8,$9*
0 Add four rect primitives between the rounded corners*
20,1,$1+$1,$2,$3,$4,$5,0*
20,1,$1+$1,$4,$5,$6,$7,0*
20,1,$1+$1,$6,$7,$8,$9,0*
20,1,$1+$1,$8,$9,$2,$3,0*%
G04 Aperture macros list end*
%TA.AperFunction,ComponentPad*%
%ADD10RoundRect,0.250000X-1.550000X0.650000X-1.550000X-0.650000X1.550000X-0.650000X1.550000X0.650000X0*%
%TD*%
%TA.AperFunction,ComponentPad*%
%ADD11O,3.600000X1.800000*%
%TD*%
%TA.AperFunction,ComponentPad*%
%ADD12RoundRect,0.250000X1.550000X-0.650000X1.550000X0.650000X-1.550000X0.650000X-1.550000X-0.650000X0*%
%TD*%
%TA.AperFunction,ComponentPad*%
%ADD13O,1.727200X1.727200*%
%TD*%
%TA.AperFunction,ComponentPad*%
%ADD14R,1.727200X1.727200*%
%TD*%
%TA.AperFunction,ComponentPad*%
%ADD15C,1.600000*%
%TD*%
%TA.AperFunction,ViaPad*%
%ADD16C,0.530000*%
%TD*%
%TA.AperFunction,ViaPad*%
%ADD17C,1.000000*%
%TD*%
%TA.AperFunction,Conductor*%
%ADD18C,0.254000*%
%TD*%
%TA.AperFunction,Conductor*%
%ADD19C,0.508000*%
%TD*%
%TA.AperFunction,Conductor*%
%ADD20C,2.540000*%
%TD*%
%TA.AperFunction,Conductor*%
%ADD21C,0.250000*%
%TD*%
G04 APERTURE END LIST*
D10*
%TO.P,J3,1,Pin_1*%
%TO.N,S2_AOUT1*%
X60960000Y-83820000D03*
D11*
%TO.P,J3,2,Pin_2*%
%TO.N,S2_AOUT2*%
X60959999Y-87319999D03*
%TO.P,J3,3,Pin_3*%
%TO.N,S2_BOUT2*%
X60959999Y-90819999D03*
%TO.P,J3,4,Pin_4*%
%TO.N,S2_BOUT1*%
X60959999Y-94319999D03*
%TD*%
D12*
%TO.P,J2,1,Pin_1*%
%TO.N,S1_AOUT1*%
X46990000Y-94320000D03*
D11*
%TO.P,J2,2,Pin_2*%
%TO.N,S1_AOUT2*%
X46989999Y-90819999D03*
%TO.P,J2,3,Pin_3*%
%TO.N,S1_BOUT2*%
X46989999Y-87319999D03*
%TO.P,J2,4,Pin_4*%
%TO.N,S1_BOUT1*%
X46989999Y-83819999D03*
%TD*%
D13*
%TO.P,XA1,*%
%TO.N,*%
X50799999Y-111759999D03*
%TO.P,XA1,3V3,3.3V*%
%TO.N,unconnected-(XA1-3.3V-Pad3V3)*%
X58419999Y-111759999D03*
%TO.P,XA1,5V1,5V*%
%TO.N,+5V*%
X60959999Y-111759999D03*
%TO.P,XA1,5V2,SPI_5V*%
%TO.N,unconnected-(XA1-SPI_5V-Pad5V2)*%
X89026999Y-83819999D03*
%TO.P,XA1,A0,A0*%
%TO.N,unconnected-(XA1-PadA0)*%
X73659999Y-111759999D03*
%TO.P,XA1,A1,A1*%
%TO.N,unconnected-(XA1-PadA1)*%
X76199999Y-111759999D03*
%TO.P,XA1,A2,A2*%
%TO.N,unconnected-(XA1-PadA2)*%
X78739999Y-111759999D03*
%TO.P,XA1,A3,A3*%
%TO.N,unconnected-(XA1-PadA3)*%
X81279999Y-111759999D03*
%TO.P,XA1,A4,A4*%
%TO.N,unconnected-(XA1-PadA4)*%
X83819999Y-111759999D03*
%TO.P,XA1,A5,A5*%
%TO.N,unconnected-(XA1-PadA5)*%
X86359999Y-111759999D03*
%TO.P,XA1,AREF,AREF*%
%TO.N,unconnected-(XA1-PadAREF)*%
X46735999Y-63499999D03*
%TO.P,XA1,D0,D0_RX0*%
%TO.N,unconnected-(XA1-D0_RX0-PadD0)*%
X86359999Y-63499999D03*
%TO.P,XA1,D1,D1_TX0*%
%TO.N,unconnected-(XA1-D1_TX0-PadD1)*%
X83819999Y-63499999D03*
%TO.P,XA1,D2,D2_INT0*%
%TO.N,S2_DIR*%
X81279999Y-63499999D03*
%TO.P,XA1,D3,D3_INT1*%
%TO.N,S2_STEP*%
X78739999Y-63499999D03*
%TO.P,XA1,D4,D4*%
%TO.N,S1_DIR*%
X76199999Y-63499999D03*
%TO.P,XA1,D5,D5*%
%TO.N,S1_STEP*%
X73659999Y-63499999D03*
%TO.P,XA1,D6,D6*%
%TO.N,D6*%
X71119999Y-63499999D03*
%TO.P,XA1,D7,D7*%
%TO.N,D7*%
X68579999Y-63499999D03*
%TO.P,XA1,D8,D8*%
%TO.N,D8*%
X64515999Y-63499999D03*
%TO.P,XA1,D9,D9*%
%TO.N,unconnected-(XA1-PadD9)*%
X61975999Y-63499999D03*
%TO.P,XA1,D10,D10_CS*%
%TO.N,unconnected-(XA1-D10_CS-PadD10)*%
X59435999Y-63499999D03*
%TO.P,XA1,D11,D11*%
%TO.N,unconnected-(XA1-PadD11)*%
X56895999Y-63499999D03*
%TO.P,XA1,D12,D12*%
%TO.N,unconnected-(XA1-PadD12)*%
X54355999Y-63499999D03*
%TO.P,XA1,D13,D13*%
%TO.N,unconnected-(XA1-PadD13)*%
X51815999Y-63499999D03*
D14*
%TO.P,XA1,GND1,GND*%
%TO.N,GND*%
X49275999Y-63499999D03*
%TO.P,XA1,GND2,GND*%
X63499999Y-111759999D03*
%TO.P,XA1,GND3,GND*%
X66039999Y-111759999D03*
%TO.P,XA1,GND4,SPI_GND*%
%TO.N,unconnected-(XA1-SPI_GND-PadGND4)*%
X89026999Y-88899999D03*
D13*
%TO.P,XA1,IORF,IOREF*%
%TO.N,unconnected-(XA1-IOREF-PadIORF)*%
X53339999Y-111759999D03*
%TO.P,XA1,MISO,SPI_MISO*%
%TO.N,unconnected-(XA1-SPI_MISO-PadMISO)*%
X86486999Y-83819999D03*
%TO.P,XA1,MOSI,SPI_MOSI*%
%TO.N,unconnected-(XA1-SPI_MOSI-PadMOSI)*%
X89026999Y-86359999D03*
%TO.P,XA1,RST1,RESET*%
%TO.N,unconnected-(XA1-RESET-PadRST1)*%
X55879999Y-111759999D03*
%TO.P,XA1,RST2,SPI_RESET*%
%TO.N,unconnected-(XA1-SPI_RESET-PadRST2)*%
X86486999Y-88899999D03*
%TO.P,XA1,SCK,SPI_SCK*%
%TO.N,unconnected-(XA1-SPI_SCK-PadSCK)*%
X86486999Y-86359999D03*
%TO.P,XA1,SCL,SCL*%
%TO.N,SCL*%
X41655999Y-63499999D03*
%TO.P,XA1,SDA,SDA*%
%TO.N,SDA*%
X44195999Y-63499999D03*
%TO.P,XA1,VIN,VIN*%
%TO.N,+12V*%
X68579999Y-111759999D03*
%TD*%
D15*
%TO.P,C12,1*%
%TO.N,+12V*%
X69850000Y-103378000D03*
%TO.P,C12,2*%
%TO.N,GND*%
X74850000Y-103378000D03*
%TD*%
%TO.P,C7,1*%
%TO.N,+12V*%
X42846000Y-103124000D03*
%TO.P,C7,2*%
%TO.N,GND*%
X37846000Y-103124000D03*
%TD*%
%TO.P,C15,1*%
%TO.N,+5V*%
X36068000Y-75438000D03*
%TO.P,C15,2*%
%TO.N,GND*%
X36068000Y-71938000D03*
%TD*%
D10*
%TO.P,J4,1,Pin_1*%
%TO.N,GND*%
X30988000Y-104648000D03*
D11*
%TO.P,J4,2,Pin_2*%
%TO.N,+12V*%
X30987999Y-108147999D03*
%TD*%
D16*
%TO.N,GND*%
X72390000Y-85852000D03*
X72390000Y-91694000D03*
X35560000Y-86360000D03*
X35560000Y-92202000D03*
%TO.N,+12V*%
X66433893Y-92794000D03*
X56642000Y-105410000D03*
X68834000Y-104394000D03*
X41830000Y-104140000D03*
X70866000Y-104394000D03*
X41656000Y-85363000D03*
X70866000Y-102362000D03*
X41148000Y-92983000D03*
X68834000Y-102362000D03*
X66802000Y-84836000D03*
X43862000Y-102108000D03*
X43862000Y-104140000D03*
X41830000Y-102108000D03*
%TO.N,GND*%
X38782000Y-102108000D03*
X38782000Y-104140000D03*
X83197893Y-87206000D03*
X73914000Y-102362000D03*
X37084000Y-72898000D03*
X24892000Y-90951000D03*
X68211893Y-90762000D03*
X53848000Y-92456000D03*
X37004000Y-104140000D03*
X55118000Y-99568000D03*
X37084000Y-70866000D03*
X53848000Y-95758000D03*
X35052000Y-70866000D03*
X75692000Y-102362000D03*
X83197893Y-88984000D03*
X63500000Y-74930000D03*
X26924000Y-84347000D03*
X31242000Y-91948000D03*
X53848000Y-88646000D03*
D17*
X77355893Y-94826000D03*
D16*
X68465893Y-93810000D03*
X81165893Y-93810000D03*
X41910000Y-90951000D03*
X66179893Y-87206000D03*
X75692000Y-104394000D03*
X24892000Y-89173000D03*
X73914000Y-104394000D03*
X30734000Y-83331000D03*
X52578000Y-99568000D03*
X37004000Y-102108000D03*
X35052000Y-72898000D03*
X63500000Y-69850000D03*
X68211893Y-88476000D03*
X76708000Y-86360000D03*
X53848000Y-85344000D03*
X39878000Y-89681000D03*
X39878000Y-87395000D03*
X63500000Y-72390000D03*
X39624000Y-84347000D03*
%TO.N,+5V*%
X72644000Y-70612000D03*
X51054000Y-105410000D03*
X72644000Y-75692000D03*
X35052000Y-74422000D03*
X35052000Y-76454000D03*
X37084000Y-76454000D03*
X29972000Y-88157000D03*
X78117893Y-90000000D03*
X72644000Y-73152000D03*
X37084000Y-74422000D03*
%TO.N,S2_STEP*%
X77101893Y-88717500D03*
%TO.N,S2_DIR*%
X77101893Y-87968000D03*
%TO.N,S1_STEP*%
X30988000Y-89439500D03*
%TO.N,S1_DIR*%
X30988000Y-90189000D03*
%TD*%
D18*
%TO.N,+12V*%
X67818000Y-105410000D02*
X68834000Y-104394000D01*
X56642000Y-105410000D02*
X67818000Y-105410000D01*
D19*
%TO.N,+5V*%
X29972000Y-88157000D02*
X29972000Y-80010000D01*
D20*
X60960000Y-110999791D02*
X60960000Y-111760000D01*
X41148000Y-96774000D02*
X53800400Y-109426400D01*
D19*
X35052000Y-74422000D02*
X37084000Y-74422000D01*
D20*
X31242000Y-96774000D02*
X41148000Y-96774000D01*
D19*
X76284000Y-90000000D02*
X78117893Y-90000000D01*
X37084000Y-76454000D02*
X35052000Y-76454000D01*
X37084000Y-74422000D02*
X37084000Y-76454000D01*
X29972000Y-95504000D02*
X29972000Y-88157000D01*
D20*
X59386609Y-109426400D02*
X60960000Y-110999791D01*
D19*
X72644000Y-75692000D02*
X72644000Y-86360000D01*
X35052000Y-76454000D02*
X35052000Y-74422000D01*
X31242000Y-96774000D02*
X29972000Y-95504000D01*
D20*
X29972000Y-80010000D02*
X34544000Y-75438000D01*
D19*
X34544000Y-75438000D02*
X36068000Y-75438000D01*
X72644000Y-75692000D02*
X72644000Y-73152000D01*
D20*
X53800400Y-109426400D02*
X59386609Y-109426400D01*
D19*
X72644000Y-86360000D02*
X76284000Y-90000000D01*
X72644000Y-73152000D02*
X72644000Y-70612000D01*
%TO.N,S2_STEP*%
X78740000Y-63500000D02*
X78740000Y-80772000D01*
X75184000Y-87122000D02*
X76779500Y-88717500D01*
X76779500Y-88717500D02*
X77101893Y-88717500D01*
D21*
X77186780Y-88717500D02*
X77101893Y-88717500D01*
D19*
X78740000Y-80772000D02*
X75184000Y-84328000D01*
X75184000Y-84328000D02*
X75184000Y-87122000D01*
D21*
%TO.N,S2_DIR*%
X81280000Y-63500000D02*
X81280000Y-83789893D01*
X81280000Y-83789893D02*
X77101893Y-87968000D01*
D19*
%TO.N,S1_STEP*%
X56642000Y-80518000D02*
X39909500Y-80518000D01*
X39909500Y-80518000D02*
X30988000Y-89439500D01*
X73660000Y-63500000D02*
X56642000Y-80518000D01*
D21*
%TO.N,S1_DIR*%
X76200000Y-64721314D02*
X48465314Y-92456000D01*
X76200000Y-63500000D02*
X76200000Y-64721314D01*
X42470000Y-92456000D02*
X40285000Y-90271000D01*
X31070000Y-90271000D02*
X30988000Y-90189000D01*
X40285000Y-90271000D02*
X31070000Y-90271000D01*
X48465314Y-92456000D02*
X42470000Y-92456000D01*
%TD*%
%TA.AperFunction,Conductor*%
%TO.N,+5V*%
G36*
X35295025Y-74181028D02*
G01*
X35338727Y-74217375D01*
X35361620Y-74269403D01*
X35358892Y-74326179D01*
X35352156Y-74338206D01*
X35345742Y-74358549D01*
X35352128Y-74368574D01*
X36056457Y-75072903D01*
X36067999Y-75079567D01*
X36079542Y-75072903D01*
X36783870Y-74368574D01*
X36790256Y-74358550D01*
X36783843Y-74338210D01*
X36777106Y-74326180D01*
X36774378Y-74269403D01*
X36797271Y-74217375D01*
X36840973Y-74181028D01*
X36896302Y-74168000D01*
X37214000Y-74168000D01*
X37276000Y-74184613D01*
X37321387Y-74230000D01*
X37338000Y-74292000D01*
X37338000Y-74609698D01*
X37324972Y-74665027D01*
X37288624Y-74708729D01*
X37236596Y-74731622D01*
X37179819Y-74728894D01*
X37167784Y-74722154D01*
X37147448Y-74715742D01*
X37137424Y-74722128D01*
X36433095Y-75426457D01*
X36426431Y-75438000D01*
X36433095Y-75449542D01*
X37137421Y-76153867D01*
X37147449Y-76160256D01*
X37167784Y-76153844D01*
X37179819Y-76147105D01*
X37236596Y-76144377D01*
X37288624Y-76167270D01*
X37324972Y-76210972D01*
X37338000Y-76266301D01*
X37338000Y-76584000D01*
X37321387Y-76646000D01*
X37276000Y-76691387D01*
X37214000Y-76708000D01*
X36896301Y-76708000D01*
X36840972Y-76694972D01*
X36797270Y-76658624D01*
X36774377Y-76606596D01*
X36777105Y-76549819D01*
X36783844Y-76537784D01*
X36790256Y-76517449D01*
X36783867Y-76507421D01*
X36079542Y-75803095D01*
X36068000Y-75796431D01*
X36056457Y-75803095D01*
X35352128Y-76507424D01*
X35345742Y-76517448D01*
X35352154Y-76537784D01*
X35358894Y-76549819D01*
X35361622Y-76606596D01*
X35338729Y-76658624D01*
X35295027Y-76694972D01*
X35239698Y-76708000D01*
X34922000Y-76708000D01*
X34860000Y-76691387D01*
X34814613Y-76646000D01*
X34798000Y-76584000D01*
X34798000Y-76266302D01*
X34811028Y-76210973D01*
X34847375Y-76167271D01*
X34899403Y-76144378D01*
X34956180Y-76147106D01*
X34968210Y-76153843D01*
X34988550Y-76160256D01*
X34998574Y-76153870D01*
X35702903Y-75449542D01*
X35709567Y-75438000D01*
X35702903Y-75426457D01*
X34998574Y-74722128D01*
X34988549Y-74715742D01*
X34968206Y-74722156D01*
X34956179Y-74728892D01*
X34899403Y-74731620D01*
X34847375Y-74708727D01*
X34811028Y-74665025D01*
X34798000Y-74609696D01*
X34798000Y-74292000D01*
X34814613Y-74230000D01*
X34860000Y-74184613D01*
X34922000Y-74168000D01*
X35239696Y-74168000D01*
X35295025Y-74181028D01*
G37*
%TD.AperFunction*%
%TD*%
M02*
