%TF.GenerationSoftware,KiCad,Pcbnew,(7.0.0)*%
%TF.CreationDate,2023-03-01T19:42:45-06:00*%
%TF.ProjectId,TurretCtl,54757272-6574-4437-946c-2e6b69636164,rev?*%
%TF.SameCoordinates,Original*%
%TF.FileFunction,Soldermask,Top*%
%TF.FilePolarity,Negative*%
%FSLAX46Y46*%
G04 Gerber Fmt 4.6, Leading zero omitted, Abs format (unit mm)*
G04 Created by KiCad (PCBNEW (7.0.0)) date 2023-03-01 19:42:45*
%MOMM*%
%LPD*%
G01*
G04 APERTURE LIST*
G04 Aperture macros list*
%AMRoundRect*
0 Rectangle with rounded corners*
0 $1 Rounding radius*
0 $2 $3 $4 $5 $6 $7 $8 $9 X,Y pos of 4 corners*
0 Add a 4 corners polygon primitive as box body*
4,1,4,$2,$3,$4,$5,$6,$7,$8,$9,$2,$3,0*
0 Add four circle primitives for the rounded corners*
1,1,$1+$1,$2,$3*
1,1,$1+$1,$4,$5*
1,1,$1+$1,$6,$7*
1,1,$1+$1,$8,$9*
0 Add four rect primitives between the rounded corners*
20,1,$1+$1,$2,$3,$4,$5,0*
20,1,$1+$1,$4,$5,$6,$7,0*
20,1,$1+$1,$6,$7,$8,$9,0*
20,1,$1+$1,$8,$9,$2,$3,0*%
G04 Aperture macros list end*
%ADD10RoundRect,0.135000X0.185000X-0.135000X0.185000X0.135000X-0.185000X0.135000X-0.185000X-0.135000X0*%
%ADD11RoundRect,0.140000X-0.170000X0.140000X-0.170000X-0.140000X0.170000X-0.140000X0.170000X0.140000X0*%
%ADD12R,2.980000X2.400000*%
%ADD13RoundRect,0.100000X-0.100000X0.687500X-0.100000X-0.687500X0.100000X-0.687500X0.100000X0.687500X0*%
%ADD14RoundRect,0.250000X0.650000X1.550000X-0.650000X1.550000X-0.650000X-1.550000X0.650000X-1.550000X0*%
%ADD15O,1.800000X3.600000*%
%ADD16RoundRect,0.140000X-0.140000X-0.170000X0.140000X-0.170000X0.140000X0.170000X-0.140000X0.170000X0*%
%ADD17C,1.600000*%
%ADD18RoundRect,0.150000X0.700000X-0.150000X0.700000X0.150000X-0.700000X0.150000X-0.700000X-0.150000X0*%
%ADD19RoundRect,0.250000X1.100000X-0.250000X1.100000X0.250000X-1.100000X0.250000X-1.100000X-0.250000X0*%
%ADD20RoundRect,0.250000X-1.550000X0.650000X-1.550000X-0.650000X1.550000X-0.650000X1.550000X0.650000X0*%
%ADD21O,3.600000X1.800000*%
%ADD22RoundRect,0.135000X-0.185000X0.135000X-0.185000X-0.135000X0.185000X-0.135000X0.185000X0.135000X0*%
%ADD23RoundRect,0.218750X0.218750X0.256250X-0.218750X0.256250X-0.218750X-0.256250X0.218750X-0.256250X0*%
%ADD24RoundRect,0.140000X0.140000X0.170000X-0.140000X0.170000X-0.140000X-0.170000X0.140000X-0.170000X0*%
%ADD25RoundRect,0.135000X-0.135000X-0.185000X0.135000X-0.185000X0.135000X0.185000X-0.135000X0.185000X0*%
%ADD26C,3.200000*%
%ADD27O,1.727200X1.727200*%
%ADD28R,1.727200X1.727200*%
G04 APERTURE END LIST*
D10*
%TO.C,R3*%
X119888000Y-92456000D03*
X119888000Y-91436000D03*
%TD*%
D11*
%TO.C,C13*%
X118618000Y-91468000D03*
X118618000Y-92428000D03*
%TD*%
D12*
%TO.C,U2*%
X100094999Y-86682499D03*
D13*
X103670000Y-83820000D03*
X103020000Y-83820000D03*
X102370000Y-83820000D03*
X101720000Y-83820000D03*
X101070000Y-83820000D03*
X100420000Y-83820000D03*
X99770000Y-83820000D03*
X99120000Y-83820000D03*
X98470000Y-83820000D03*
X97820000Y-83820000D03*
X97170000Y-83820000D03*
X96520000Y-83820000D03*
X96520000Y-89545000D03*
X97170000Y-89545000D03*
X97820000Y-89545000D03*
X98470000Y-89545000D03*
X99120000Y-89545000D03*
X99770000Y-89545000D03*
X100420000Y-89545000D03*
X101070000Y-89545000D03*
X101720000Y-89545000D03*
X102370000Y-89545000D03*
X103020000Y-89545000D03*
X103670000Y-89545000D03*
%TD*%
D14*
%TO.C,J3*%
X130810000Y-73152000D03*
D15*
X127309999Y-73151999D03*
X123809999Y-73151999D03*
X120309999Y-73151999D03*
%TD*%
D16*
%TO.C,C6*%
X101854000Y-80518000D03*
X102814000Y-80518000D03*
%TD*%
D17*
%TO.C,C7*%
X113872000Y-99060000D03*
X118872000Y-99060000D03*
%TD*%
D11*
%TO.C,C14*%
X117348000Y-91440000D03*
X117348000Y-92400000D03*
%TD*%
D10*
%TO.C,R2*%
X98298000Y-92460000D03*
X98298000Y-91440000D03*
%TD*%
D16*
%TO.C,C1*%
X125476000Y-81788000D03*
X126436000Y-81788000D03*
%TD*%
%TO.C,C3*%
X103942000Y-81788000D03*
X104902000Y-81788000D03*
%TD*%
D17*
%TO.C,C12*%
X93020000Y-99060000D03*
X98020000Y-99060000D03*
%TD*%
D16*
%TO.C,C11*%
X123472000Y-80518000D03*
X124432000Y-80518000D03*
%TD*%
D18*
%TO.C,J1*%
X139628000Y-99899000D03*
X139628000Y-98649000D03*
X139628000Y-97399000D03*
X139628000Y-96149000D03*
X139628000Y-94899000D03*
X139628000Y-93649000D03*
D19*
X142828000Y-101749000D03*
X142828000Y-91799000D03*
%TD*%
D20*
%TO.C,J4*%
X84212500Y-94825000D03*
D21*
X84212499Y-98324999D03*
%TD*%
D12*
%TO.C,U1*%
X121684999Y-86682499D03*
D13*
X125260000Y-83820000D03*
X124610000Y-83820000D03*
X123960000Y-83820000D03*
X123310000Y-83820000D03*
X122660000Y-83820000D03*
X122010000Y-83820000D03*
X121360000Y-83820000D03*
X120710000Y-83820000D03*
X120060000Y-83820000D03*
X119410000Y-83820000D03*
X118760000Y-83820000D03*
X118110000Y-83820000D03*
X118110000Y-89545000D03*
X118760000Y-89545000D03*
X119410000Y-89545000D03*
X120060000Y-89545000D03*
X120710000Y-89545000D03*
X121360000Y-89545000D03*
X122010000Y-89545000D03*
X122660000Y-89545000D03*
X123310000Y-89545000D03*
X123960000Y-89545000D03*
X124610000Y-89545000D03*
X125260000Y-89545000D03*
%TD*%
D22*
%TO.C,R4*%
X121666000Y-92454000D03*
X121666000Y-93474000D03*
%TD*%
D16*
%TO.C,C4*%
X101854000Y-81788000D03*
X102814000Y-81788000D03*
%TD*%
D23*
%TO.C,D1*%
X89205000Y-87630000D03*
X87630000Y-87630000D03*
%TD*%
D24*
%TO.C,C10*%
X118364000Y-81788000D03*
X117404000Y-81788000D03*
%TD*%
D11*
%TO.C,C8*%
X97028000Y-91440000D03*
X97028000Y-92400000D03*
%TD*%
D25*
%TO.C,R5*%
X91690000Y-87630000D03*
X92710000Y-87630000D03*
%TD*%
D22*
%TO.C,R1*%
X100076000Y-92456000D03*
X100076000Y-93476000D03*
%TD*%
D17*
%TO.C,C15*%
X132080000Y-98980000D03*
X132080000Y-95480000D03*
%TD*%
D24*
%TO.C,C5*%
X96774000Y-81788000D03*
X95814000Y-81788000D03*
%TD*%
D14*
%TO.C,J2*%
X109220000Y-73152000D03*
D15*
X105719999Y-73151999D03*
X102219999Y-73151999D03*
X98719999Y-73151999D03*
%TD*%
D16*
%TO.C,C2*%
X123444000Y-81788000D03*
X124404000Y-81788000D03*
%TD*%
D26*
%TO.C,XA1*%
X90170000Y-111760000D03*
X91440000Y-63500000D03*
D27*
X104139999Y-111759999D03*
D26*
X142240000Y-78740000D03*
X142240000Y-106680000D03*
D27*
X111759999Y-111759999D03*
X114299999Y-111759999D03*
X142366999Y-83819999D03*
X126999999Y-111759999D03*
X129539999Y-111759999D03*
X132079999Y-111759999D03*
X134619999Y-111759999D03*
X137159999Y-111759999D03*
X139699999Y-111759999D03*
X100075999Y-63499999D03*
X139699999Y-63499999D03*
X137159999Y-63499999D03*
X134619999Y-63499999D03*
X132079999Y-63499999D03*
X129539999Y-63499999D03*
X126999999Y-63499999D03*
X124459999Y-63499999D03*
X121919999Y-63499999D03*
X117855999Y-63499999D03*
X115315999Y-63499999D03*
X112775999Y-63499999D03*
X110235999Y-63499999D03*
X107695999Y-63499999D03*
X105155999Y-63499999D03*
D28*
X102615999Y-63499999D03*
X116839999Y-111759999D03*
X119379999Y-111759999D03*
X142366999Y-88899999D03*
D27*
X106679999Y-111759999D03*
X139826999Y-83819999D03*
X142366999Y-86359999D03*
X109219999Y-111759999D03*
X139826999Y-88899999D03*
X139826999Y-86359999D03*
X94995999Y-63499999D03*
X97535999Y-63499999D03*
X121919999Y-111759999D03*
%TD*%
D11*
%TO.C,C9*%
X95758000Y-91440000D03*
X95758000Y-92400000D03*
%TD*%
M02*
