%TF.GenerationSoftware,KiCad,Pcbnew,(7.0.0)*%
%TF.CreationDate,2023-03-25T14:04:38-05:00*%
%TF.ProjectId,TurretCtl,54757272-6574-4437-946c-2e6b69636164,rev?*%
%TF.SameCoordinates,Original*%
%TF.FileFunction,Soldermask,Top*%
%TF.FilePolarity,Negative*%
%FSLAX46Y46*%
G04 Gerber Fmt 4.6, Leading zero omitted, Abs format (unit mm)*
G04 Created by KiCad (PCBNEW (7.0.0)) date 2023-03-25 14:04:38*
%MOMM*%
%LPD*%
G01*
G04 APERTURE LIST*
G04 Aperture macros list*
%AMRoundRect*
0 Rectangle with rounded corners*
0 $1 Rounding radius*
0 $2 $3 $4 $5 $6 $7 $8 $9 X,Y pos of 4 corners*
0 Add a 4 corners polygon primitive as box body*
4,1,4,$2,$3,$4,$5,$6,$7,$8,$9,$2,$3,0*
0 Add four circle primitives for the rounded corners*
1,1,$1+$1,$2,$3*
1,1,$1+$1,$4,$5*
1,1,$1+$1,$6,$7*
1,1,$1+$1,$8,$9*
0 Add four rect primitives between the rounded corners*
20,1,$1+$1,$2,$3,$4,$5,0*
20,1,$1+$1,$4,$5,$6,$7,0*
20,1,$1+$1,$6,$7,$8,$9,0*
20,1,$1+$1,$8,$9,$2,$3,0*%
G04 Aperture macros list end*
%ADD10RoundRect,0.135000X0.185000X-0.135000X0.185000X0.135000X-0.185000X0.135000X-0.185000X-0.135000X0*%
%ADD11RoundRect,0.135000X-0.185000X0.135000X-0.185000X-0.135000X0.185000X-0.135000X0.185000X0.135000X0*%
%ADD12RoundRect,0.250000X-1.550000X0.650000X-1.550000X-0.650000X1.550000X-0.650000X1.550000X0.650000X0*%
%ADD13O,3.600000X1.800000*%
%ADD14RoundRect,0.218750X0.218750X0.256250X-0.218750X0.256250X-0.218750X-0.256250X0.218750X-0.256250X0*%
%ADD15RoundRect,0.135000X0.135000X0.185000X-0.135000X0.185000X-0.135000X-0.185000X0.135000X-0.185000X0*%
%ADD16RoundRect,0.218750X-0.218750X-0.256250X0.218750X-0.256250X0.218750X0.256250X-0.218750X0.256250X0*%
%ADD17RoundRect,0.140000X-0.140000X-0.170000X0.140000X-0.170000X0.140000X0.170000X-0.140000X0.170000X0*%
%ADD18RoundRect,0.250000X1.550000X-0.650000X1.550000X0.650000X-1.550000X0.650000X-1.550000X-0.650000X0*%
%ADD19RoundRect,0.150000X0.700000X-0.150000X0.700000X0.150000X-0.700000X0.150000X-0.700000X-0.150000X0*%
%ADD20RoundRect,0.250000X1.100000X-0.250000X1.100000X0.250000X-1.100000X0.250000X-1.100000X-0.250000X0*%
%ADD21RoundRect,0.140000X0.170000X-0.140000X0.170000X0.140000X-0.170000X0.140000X-0.170000X-0.140000X0*%
%ADD22RoundRect,0.135000X-0.135000X-0.185000X0.135000X-0.185000X0.135000X0.185000X-0.135000X0.185000X0*%
%ADD23RoundRect,0.218750X-0.256250X0.218750X-0.256250X-0.218750X0.256250X-0.218750X0.256250X0.218750X0*%
%ADD24RoundRect,0.140000X-0.170000X0.140000X-0.170000X-0.140000X0.170000X-0.140000X0.170000X0.140000X0*%
%ADD25C,3.200000*%
%ADD26O,1.727200X1.727200*%
%ADD27R,1.727200X1.727200*%
%ADD28C,1.600000*%
%ADD29RoundRect,0.140000X0.140000X0.170000X-0.140000X0.170000X-0.140000X-0.170000X0.140000X-0.170000X0*%
%ADD30R,2.400000X2.980000*%
%ADD31RoundRect,0.100000X-0.687500X-0.100000X0.687500X-0.100000X0.687500X0.100000X-0.687500X0.100000X0*%
%ADD32RoundRect,0.100000X0.687500X0.100000X-0.687500X0.100000X-0.687500X-0.100000X0.687500X-0.100000X0*%
G04 APERTURE END LIST*
D10*
%TO.C,R1*%
X26924000Y-86125000D03*
X26924000Y-85105000D03*
%TD*%
D11*
%TO.C,R4*%
X81280000Y-91948000D03*
X81280000Y-92968000D03*
%TD*%
D12*
%TO.C,J3*%
X60960000Y-83820000D03*
D13*
X60959999Y-87319999D03*
X60959999Y-90819999D03*
X60959999Y-94319999D03*
%TD*%
D14*
%TO.C,D17*%
X79807000Y-87122000D03*
X78232000Y-87122000D03*
%TD*%
D15*
%TO.C,R9*%
X56134000Y-92456000D03*
X55114000Y-92456000D03*
%TD*%
D16*
%TO.C,D9*%
X54813000Y-83820000D03*
X56388000Y-83820000D03*
%TD*%
%TO.C,D16*%
X28397000Y-90951000D03*
X29972000Y-90951000D03*
%TD*%
D17*
%TO.C,C2*%
X66858000Y-85852000D03*
X67818000Y-85852000D03*
%TD*%
D16*
%TO.C,D3*%
X54813000Y-94234000D03*
X56388000Y-94234000D03*
%TD*%
D15*
%TO.C,R11*%
X56134000Y-88646000D03*
X55114000Y-88646000D03*
%TD*%
%TO.C,R16*%
X26924000Y-89173000D03*
X25904000Y-89173000D03*
%TD*%
D18*
%TO.C,J2*%
X46990000Y-94320000D03*
D13*
X46989999Y-90819999D03*
X46989999Y-87319999D03*
X46989999Y-83819999D03*
%TD*%
D17*
%TO.C,C6*%
X40188000Y-90951000D03*
X41148000Y-90951000D03*
%TD*%
D19*
%TO.C,J5*%
X74270000Y-75620000D03*
X74270000Y-74370000D03*
X74270000Y-73120000D03*
X74270000Y-71870000D03*
X74270000Y-70620000D03*
X74270000Y-69370000D03*
D20*
X77470000Y-77470000D03*
X77470000Y-67520000D03*
%TD*%
D14*
%TO.C,D8*%
X53137000Y-94234000D03*
X51562000Y-94234000D03*
%TD*%
D21*
%TO.C,C5*%
X40640000Y-85363000D03*
X40640000Y-84403000D03*
%TD*%
D10*
%TO.C,R5*%
X55118000Y-101600000D03*
X55118000Y-100580000D03*
%TD*%
D22*
%TO.C,R17*%
X81280000Y-88900000D03*
X82300000Y-88900000D03*
%TD*%
D23*
%TO.C,D1*%
X55118000Y-103835000D03*
X55118000Y-105410000D03*
%TD*%
D16*
%TO.C,D7*%
X54813000Y-87122000D03*
X56388000Y-87122000D03*
%TD*%
D11*
%TO.C,R2*%
X28194000Y-85109000D03*
X28194000Y-86129000D03*
%TD*%
D24*
%TO.C,C13*%
X77343000Y-92075000D03*
X77343000Y-93035000D03*
%TD*%
D17*
%TO.C,C1*%
X68326000Y-83820000D03*
X69286000Y-83820000D03*
%TD*%
D16*
%TO.C,D12*%
X28397000Y-89173000D03*
X29972000Y-89173000D03*
%TD*%
D25*
%TO.C,XA1*%
X36830000Y-111760000D03*
X38100000Y-63500000D03*
D26*
X50799999Y-111759999D03*
D25*
X88900000Y-78740000D03*
X88900000Y-106680000D03*
D26*
X58419999Y-111759999D03*
X60959999Y-111759999D03*
X89026999Y-83819999D03*
X73659999Y-111759999D03*
X76199999Y-111759999D03*
X78739999Y-111759999D03*
X81279999Y-111759999D03*
X83819999Y-111759999D03*
X86359999Y-111759999D03*
X46735999Y-63499999D03*
X86359999Y-63499999D03*
X83819999Y-63499999D03*
X81279999Y-63499999D03*
X78739999Y-63499999D03*
X76199999Y-63499999D03*
X73659999Y-63499999D03*
X71119999Y-63499999D03*
X68579999Y-63499999D03*
X64515999Y-63499999D03*
X61975999Y-63499999D03*
X59435999Y-63499999D03*
X56895999Y-63499999D03*
X54355999Y-63499999D03*
X51815999Y-63499999D03*
D27*
X49275999Y-63499999D03*
X63499999Y-111759999D03*
X66039999Y-111759999D03*
X89026999Y-88899999D03*
D26*
X53339999Y-111759999D03*
X86486999Y-83819999D03*
X89026999Y-86359999D03*
X55879999Y-111759999D03*
X86486999Y-88899999D03*
X86486999Y-86359999D03*
X41655999Y-63499999D03*
X44195999Y-63499999D03*
X68579999Y-111759999D03*
%TD*%
D14*
%TO.C,D2*%
X53086000Y-83820000D03*
X51511000Y-83820000D03*
%TD*%
D15*
%TO.C,R13*%
X56134000Y-85344000D03*
X55114000Y-85344000D03*
%TD*%
D10*
%TO.C,R3*%
X79756000Y-92964000D03*
X79756000Y-91944000D03*
%TD*%
D14*
%TO.C,D6*%
X53137000Y-90932000D03*
X51562000Y-90932000D03*
%TD*%
%TO.C,D13*%
X79807000Y-88900000D03*
X78232000Y-88900000D03*
%TD*%
D28*
%TO.C,C12*%
X69850000Y-103378000D03*
X74850000Y-103378000D03*
%TD*%
D22*
%TO.C,R21*%
X81278000Y-87122000D03*
X82298000Y-87122000D03*
%TD*%
D15*
%TO.C,R19*%
X66040000Y-69850000D03*
X65020000Y-69850000D03*
%TD*%
D23*
%TO.C,D14*%
X52578000Y-103835000D03*
X52578000Y-105410000D03*
%TD*%
D28*
%TO.C,C7*%
X42846000Y-103124000D03*
X37846000Y-103124000D03*
%TD*%
%TO.C,C15*%
X36068000Y-75438000D03*
X36068000Y-71938000D03*
%TD*%
D14*
%TO.C,D4*%
X53137000Y-87122000D03*
X51562000Y-87122000D03*
%TD*%
D16*
%TO.C,D19*%
X68275000Y-74930000D03*
X69850000Y-74930000D03*
%TD*%
D22*
%TO.C,R10*%
X51816000Y-92456000D03*
X52836000Y-92456000D03*
%TD*%
D29*
%TO.C,C10*%
X67818000Y-87122000D03*
X66858000Y-87122000D03*
%TD*%
D30*
%TO.C,U1*%
X72458499Y-88918999D03*
D31*
X69596000Y-85344000D03*
X69596000Y-85994000D03*
X69596000Y-86644000D03*
X69596000Y-87294000D03*
X69596000Y-87944000D03*
X69596000Y-88594000D03*
X69596000Y-89244000D03*
X69596000Y-89894000D03*
X69596000Y-90544000D03*
X69596000Y-91194000D03*
X69596000Y-91844000D03*
X69596000Y-92494000D03*
X75321000Y-92494000D03*
X75321000Y-91844000D03*
X75321000Y-91194000D03*
X75321000Y-90544000D03*
X75321000Y-89894000D03*
X75321000Y-89244000D03*
X75321000Y-88594000D03*
X75321000Y-87944000D03*
X75321000Y-87294000D03*
X75321000Y-86644000D03*
X75321000Y-85994000D03*
X75321000Y-85344000D03*
%TD*%
D10*
%TO.C,R18*%
X52578000Y-101600000D03*
X52578000Y-100580000D03*
%TD*%
D15*
%TO.C,R23*%
X66040000Y-74930000D03*
X65020000Y-74930000D03*
%TD*%
D16*
%TO.C,D15*%
X68275000Y-69850000D03*
X69850000Y-69850000D03*
%TD*%
D15*
%TO.C,R22*%
X66040000Y-72390000D03*
X65020000Y-72390000D03*
%TD*%
D21*
%TO.C,C9*%
X32512000Y-84093000D03*
X32512000Y-83133000D03*
%TD*%
D29*
%TO.C,C4*%
X41148000Y-92221000D03*
X40188000Y-92221000D03*
%TD*%
D21*
%TO.C,C8*%
X30734000Y-86125000D03*
X30734000Y-85165000D03*
%TD*%
D29*
%TO.C,C3*%
X39878000Y-94253000D03*
X38918000Y-94253000D03*
%TD*%
D12*
%TO.C,J4*%
X30988000Y-104648000D03*
D13*
X30987999Y-108147999D03*
%TD*%
D15*
%TO.C,R7*%
X56134000Y-95758000D03*
X55114000Y-95758000D03*
%TD*%
D30*
%TO.C,U2*%
X35559999Y-89172999D03*
D32*
X38422500Y-92748000D03*
X38422500Y-92098000D03*
X38422500Y-91448000D03*
X38422500Y-90798000D03*
X38422500Y-90148000D03*
X38422500Y-89498000D03*
X38422500Y-88848000D03*
X38422500Y-88198000D03*
X38422500Y-87548000D03*
X38422500Y-86898000D03*
X38422500Y-86248000D03*
X38422500Y-85598000D03*
X32697500Y-85598000D03*
X32697500Y-86248000D03*
X32697500Y-86898000D03*
X32697500Y-87548000D03*
X32697500Y-88198000D03*
X32697500Y-88848000D03*
X32697500Y-89498000D03*
X32697500Y-90148000D03*
X32697500Y-90798000D03*
X32697500Y-91448000D03*
X32697500Y-92098000D03*
X32697500Y-92748000D03*
%TD*%
D24*
%TO.C,C11*%
X67437000Y-92837000D03*
X67437000Y-93797000D03*
%TD*%
D16*
%TO.C,D18*%
X68275000Y-72390000D03*
X69850000Y-72390000D03*
%TD*%
D22*
%TO.C,R6*%
X51816000Y-85344000D03*
X52836000Y-85344000D03*
%TD*%
D16*
%TO.C,D5*%
X54813000Y-90932000D03*
X56388000Y-90932000D03*
%TD*%
D22*
%TO.C,R8*%
X51816000Y-88646000D03*
X52836000Y-88646000D03*
%TD*%
D15*
%TO.C,R20*%
X26924000Y-90951000D03*
X25904000Y-90951000D03*
%TD*%
D24*
%TO.C,C14*%
X75565000Y-93980000D03*
X75565000Y-94940000D03*
%TD*%
D22*
%TO.C,R12*%
X51812000Y-95758000D03*
X52832000Y-95758000D03*
%TD*%
D19*
%TO.C,J1*%
X45060000Y-75410000D03*
X45060000Y-74160000D03*
X45060000Y-72910000D03*
X45060000Y-71660000D03*
X45060000Y-70410000D03*
X45060000Y-69160000D03*
D20*
X48260000Y-77260000D03*
X48260000Y-67310000D03*
%TD*%
M02*
