M48
; DRILL file {KiCad (7.0.0)} date Wed Apr 12 03:46:20 2023
; FORMAT={-:-/ absolute / metric / decimal}
; #@! TF.CreationDate,2023-04-12T03:46:20-05:00
; #@! TF.GenerationSoftware,Kicad,Pcbnew,(7.0.0)
; #@! TF.FileFunction,Plated,1,4,PTH
FMAT,2
METRIC
; #@! TA.AperFunction,Plated,PTH,ViaDrill
T1C0.250
; #@! TA.AperFunction,Plated,PTH,ViaDrill
T2C0.400
; #@! TA.AperFunction,Plated,PTH,ComponentDrill
T3C0.800
; #@! TA.AperFunction,Plated,PTH,ComponentDrill
T4C1.016
; #@! TA.AperFunction,Plated,PTH,ComponentDrill
T5C1.200
%
G90
G05
T1
X111.252Y-84.328
X111.252Y-93.98
X111.506Y-75.032
X112.522Y-81.077
X112.522Y-89.154
X113.538Y-74.981
X114.554Y-81.077
X114.554Y-89.154
X116.586Y-81.026
X116.586Y-89.154
X117.602Y-82.55
X117.602Y-95.758
X118.364Y-57.658
X118.364Y-58.42
X118.369Y-59.19
X118.618Y-81.026
X118.618Y-89.154
X119.38Y-63.5
X119.38Y-82.55
X119.38Y-95.758
X119.385Y-59.19
X120.147Y-59.19
X120.147Y-68.588
X120.379Y-56.65
X120.65Y-81.026
X120.65Y-89.154
X120.909Y-67.826
X122.179Y-67.826
X122.433Y-59.19
X122.682Y-81.026
X122.682Y-89.154
X122.941Y-67.826
X123.449Y-56.65
X123.703Y-68.58
X124.211Y-67.826
X124.46Y-63.5
X124.714Y-89.154
X124.719Y-59.19
X125.989Y-56.904
X126.243Y-68.588
X126.243Y-69.604
X126.746Y-89.154
X136.144Y-57.658
X136.144Y-58.42
X136.144Y-59.182
X137.16Y-59.182
X137.16Y-63.5
X137.922Y-59.182
X137.922Y-68.58
X138.153Y-56.642
X138.684Y-67.818
X139.954Y-67.818
X140.208Y-59.182
X140.716Y-67.818
X141.224Y-56.642
X141.478Y-68.58
X141.986Y-67.818
X142.24Y-63.5
X142.494Y-59.182
X143.764Y-56.896
X144.018Y-68.58
X144.018Y-69.596
T2
X112.776Y-60.198
X113.798Y-60.204
X114.819Y-60.209
X125.476Y-54.864
T3
X91.44Y-78.74
X94.94Y-78.74
X101.6Y-78.74
X101.6Y-89.789
X106.6Y-78.74
X106.6Y-89.789
T4
X105.156Y-50.8
X107.696Y-50.8
X110.236Y-50.8
X112.776Y-50.8
X114.3Y-99.06
X115.316Y-50.8
X116.84Y-99.06
X117.856Y-50.8
X119.38Y-99.06
X120.396Y-50.8
X121.92Y-99.06
X122.936Y-50.8
X124.46Y-99.06
X125.476Y-50.8
X127.0Y-99.06
X128.016Y-50.8
X129.54Y-99.06
X132.08Y-50.8
X132.08Y-99.06
X134.62Y-50.8
X137.16Y-50.8
X137.16Y-99.06
X139.7Y-50.8
X139.7Y-99.06
X142.24Y-50.8
X142.24Y-99.06
X144.78Y-50.8
X144.78Y-99.06
X147.32Y-50.8
X147.32Y-99.06
X149.86Y-50.8
X149.86Y-99.06
X149.987Y-71.12
X149.987Y-73.66
X149.987Y-76.2
X152.527Y-71.12
X152.527Y-73.66
X152.527Y-76.2
T5
X91.44Y-58.42
X91.44Y-68.58
X93.98Y-91.44
X93.98Y-94.94
X94.94Y-58.42
X94.94Y-68.58
X98.44Y-58.42
X98.44Y-68.58
X101.94Y-58.42
X101.94Y-68.58
X105.44Y-58.42
X105.44Y-68.58
X108.94Y-58.42
X108.94Y-68.58
X132.08Y-78.74
X132.08Y-88.9
X135.58Y-78.74
X135.58Y-88.9
X139.08Y-78.74
X139.08Y-88.9
X142.58Y-78.74
X142.58Y-88.9
T0
M30
