%TF.GenerationSoftware,KiCad,Pcbnew,(7.0.0)*%
%TF.CreationDate,2023-03-25T14:04:38-05:00*%
%TF.ProjectId,TurretCtl,54757272-6574-4437-946c-2e6b69636164,rev?*%
%TF.SameCoordinates,Original*%
%TF.FileFunction,Legend,Top*%
%TF.FilePolarity,Positive*%
%FSLAX46Y46*%
G04 Gerber Fmt 4.6, Leading zero omitted, Abs format (unit mm)*
G04 Created by KiCad (PCBNEW (7.0.0)) date 2023-03-25 14:04:38*
%MOMM*%
%LPD*%
G01*
G04 APERTURE LIST*
%ADD10C,0.150000*%
%ADD11C,0.050000*%
%ADD12C,0.062500*%
%ADD13C,0.075000*%
%ADD14C,0.120000*%
G04 APERTURE END LIST*
D10*
X73108420Y-83566000D02*
G75*
G03*
X73108420Y-83566000I-718420J0D01*
G01*
X36278420Y-94488000D02*
G75*
G03*
X36278420Y-94488000I-718420J0D01*
G01*
X24129904Y-99922000D02*
X24034666Y-99874380D01*
X24034666Y-99874380D02*
X23891809Y-99874380D01*
X23891809Y-99874380D02*
X23748952Y-99922000D01*
X23748952Y-99922000D02*
X23653714Y-100017238D01*
X23653714Y-100017238D02*
X23606095Y-100112476D01*
X23606095Y-100112476D02*
X23558476Y-100302952D01*
X23558476Y-100302952D02*
X23558476Y-100445809D01*
X23558476Y-100445809D02*
X23606095Y-100636285D01*
X23606095Y-100636285D02*
X23653714Y-100731523D01*
X23653714Y-100731523D02*
X23748952Y-100826761D01*
X23748952Y-100826761D02*
X23891809Y-100874380D01*
X23891809Y-100874380D02*
X23987047Y-100874380D01*
X23987047Y-100874380D02*
X24129904Y-100826761D01*
X24129904Y-100826761D02*
X24177523Y-100779142D01*
X24177523Y-100779142D02*
X24177523Y-100445809D01*
X24177523Y-100445809D02*
X23987047Y-100445809D01*
X24606095Y-100874380D02*
X24606095Y-99874380D01*
X24606095Y-99874380D02*
X25177523Y-100874380D01*
X25177523Y-100874380D02*
X25177523Y-99874380D01*
X25653714Y-100874380D02*
X25653714Y-99874380D01*
X25653714Y-99874380D02*
X25891809Y-99874380D01*
X25891809Y-99874380D02*
X26034666Y-99922000D01*
X26034666Y-99922000D02*
X26129904Y-100017238D01*
X26129904Y-100017238D02*
X26177523Y-100112476D01*
X26177523Y-100112476D02*
X26225142Y-100302952D01*
X26225142Y-100302952D02*
X26225142Y-100445809D01*
X26225142Y-100445809D02*
X26177523Y-100636285D01*
X26177523Y-100636285D02*
X26129904Y-100731523D01*
X26129904Y-100731523D02*
X26034666Y-100826761D01*
X26034666Y-100826761D02*
X25891809Y-100874380D01*
X25891809Y-100874380D02*
X25653714Y-100874380D01*
D11*
X77819238Y-65399380D02*
X77866857Y-65423190D01*
X77866857Y-65423190D02*
X77962095Y-65423190D01*
X77962095Y-65423190D02*
X78009714Y-65399380D01*
X78009714Y-65399380D02*
X78033523Y-65351761D01*
X78033523Y-65351761D02*
X78033523Y-65327952D01*
X78033523Y-65327952D02*
X78009714Y-65280333D01*
X78009714Y-65280333D02*
X77962095Y-65256523D01*
X77962095Y-65256523D02*
X77890666Y-65256523D01*
X77890666Y-65256523D02*
X77843047Y-65232714D01*
X77843047Y-65232714D02*
X77819238Y-65185095D01*
X77819238Y-65185095D02*
X77819238Y-65161285D01*
X77819238Y-65161285D02*
X77843047Y-65113666D01*
X77843047Y-65113666D02*
X77890666Y-65089857D01*
X77890666Y-65089857D02*
X77962095Y-65089857D01*
X77962095Y-65089857D02*
X78009714Y-65113666D01*
X78224000Y-64970809D02*
X78247809Y-64947000D01*
X78247809Y-64947000D02*
X78295428Y-64923190D01*
X78295428Y-64923190D02*
X78414476Y-64923190D01*
X78414476Y-64923190D02*
X78462095Y-64947000D01*
X78462095Y-64947000D02*
X78485904Y-64970809D01*
X78485904Y-64970809D02*
X78509714Y-65018428D01*
X78509714Y-65018428D02*
X78509714Y-65066047D01*
X78509714Y-65066047D02*
X78485904Y-65137476D01*
X78485904Y-65137476D02*
X78200190Y-65423190D01*
X78200190Y-65423190D02*
X78509714Y-65423190D01*
X78700190Y-65399380D02*
X78747809Y-65423190D01*
X78747809Y-65423190D02*
X78843047Y-65423190D01*
X78843047Y-65423190D02*
X78890666Y-65399380D01*
X78890666Y-65399380D02*
X78914475Y-65351761D01*
X78914475Y-65351761D02*
X78914475Y-65327952D01*
X78914475Y-65327952D02*
X78890666Y-65280333D01*
X78890666Y-65280333D02*
X78843047Y-65256523D01*
X78843047Y-65256523D02*
X78771618Y-65256523D01*
X78771618Y-65256523D02*
X78723999Y-65232714D01*
X78723999Y-65232714D02*
X78700190Y-65185095D01*
X78700190Y-65185095D02*
X78700190Y-65161285D01*
X78700190Y-65161285D02*
X78723999Y-65113666D01*
X78723999Y-65113666D02*
X78771618Y-65089857D01*
X78771618Y-65089857D02*
X78843047Y-65089857D01*
X78843047Y-65089857D02*
X78890666Y-65113666D01*
X79057333Y-65089857D02*
X79247809Y-65089857D01*
X79128761Y-64923190D02*
X79128761Y-65351761D01*
X79128761Y-65351761D02*
X79152571Y-65399380D01*
X79152571Y-65399380D02*
X79200190Y-65423190D01*
X79200190Y-65423190D02*
X79247809Y-65423190D01*
X79604951Y-65399380D02*
X79557332Y-65423190D01*
X79557332Y-65423190D02*
X79462094Y-65423190D01*
X79462094Y-65423190D02*
X79414475Y-65399380D01*
X79414475Y-65399380D02*
X79390666Y-65351761D01*
X79390666Y-65351761D02*
X79390666Y-65161285D01*
X79390666Y-65161285D02*
X79414475Y-65113666D01*
X79414475Y-65113666D02*
X79462094Y-65089857D01*
X79462094Y-65089857D02*
X79557332Y-65089857D01*
X79557332Y-65089857D02*
X79604951Y-65113666D01*
X79604951Y-65113666D02*
X79628761Y-65161285D01*
X79628761Y-65161285D02*
X79628761Y-65208904D01*
X79628761Y-65208904D02*
X79390666Y-65256523D01*
X79843046Y-65089857D02*
X79843046Y-65589857D01*
X79843046Y-65113666D02*
X79890665Y-65089857D01*
X79890665Y-65089857D02*
X79985903Y-65089857D01*
X79985903Y-65089857D02*
X80033522Y-65113666D01*
X80033522Y-65113666D02*
X80057332Y-65137476D01*
X80057332Y-65137476D02*
X80081141Y-65185095D01*
X80081141Y-65185095D02*
X80081141Y-65327952D01*
X80081141Y-65327952D02*
X80057332Y-65375571D01*
X80057332Y-65375571D02*
X80033522Y-65399380D01*
X80033522Y-65399380D02*
X79985903Y-65423190D01*
X79985903Y-65423190D02*
X79890665Y-65423190D01*
X79890665Y-65423190D02*
X79843046Y-65399380D01*
D12*
X70671523Y-75796357D02*
X70862000Y-75796357D01*
X70766761Y-75891595D02*
X70766761Y-75701119D01*
X77275523Y-89766357D02*
X77466000Y-89766357D01*
X77370761Y-89861595D02*
X77370761Y-89671119D01*
D10*
X57149904Y-104684380D02*
X56578476Y-104684380D01*
X56864190Y-104684380D02*
X56864190Y-103684380D01*
X56864190Y-103684380D02*
X56768952Y-103827238D01*
X56768952Y-103827238D02*
X56673714Y-103922476D01*
X56673714Y-103922476D02*
X56578476Y-103970095D01*
X57530857Y-103779619D02*
X57578476Y-103732000D01*
X57578476Y-103732000D02*
X57673714Y-103684380D01*
X57673714Y-103684380D02*
X57911809Y-103684380D01*
X57911809Y-103684380D02*
X58007047Y-103732000D01*
X58007047Y-103732000D02*
X58054666Y-103779619D01*
X58054666Y-103779619D02*
X58102285Y-103874857D01*
X58102285Y-103874857D02*
X58102285Y-103970095D01*
X58102285Y-103970095D02*
X58054666Y-104112952D01*
X58054666Y-104112952D02*
X57483238Y-104684380D01*
X57483238Y-104684380D02*
X58102285Y-104684380D01*
X58388000Y-103684380D02*
X58721333Y-104684380D01*
X58721333Y-104684380D02*
X59054666Y-103684380D01*
D12*
X50605523Y-91798357D02*
X50796000Y-91798357D01*
X50700761Y-91893595D02*
X50700761Y-91703119D01*
X83625523Y-87719285D02*
X83708857Y-87719285D01*
X83744571Y-87981190D02*
X83625523Y-87981190D01*
X83625523Y-87981190D02*
X83625523Y-87481190D01*
X83625523Y-87481190D02*
X83744571Y-87481190D01*
X83851713Y-87981190D02*
X83851713Y-87481190D01*
X83851713Y-87481190D02*
X83994570Y-87981190D01*
X83994570Y-87981190D02*
X83994570Y-87481190D01*
X84101714Y-87838333D02*
X84220761Y-87838333D01*
X84077904Y-87981190D02*
X84161237Y-87481190D01*
X84161237Y-87481190D02*
X84244571Y-87981190D01*
X84411238Y-87719285D02*
X84446952Y-87743095D01*
X84446952Y-87743095D02*
X84458857Y-87766904D01*
X84458857Y-87766904D02*
X84470761Y-87814523D01*
X84470761Y-87814523D02*
X84470761Y-87885952D01*
X84470761Y-87885952D02*
X84458857Y-87933571D01*
X84458857Y-87933571D02*
X84446952Y-87957380D01*
X84446952Y-87957380D02*
X84423142Y-87981190D01*
X84423142Y-87981190D02*
X84327904Y-87981190D01*
X84327904Y-87981190D02*
X84327904Y-87481190D01*
X84327904Y-87481190D02*
X84411238Y-87481190D01*
X84411238Y-87481190D02*
X84435047Y-87505000D01*
X84435047Y-87505000D02*
X84446952Y-87528809D01*
X84446952Y-87528809D02*
X84458857Y-87576428D01*
X84458857Y-87576428D02*
X84458857Y-87624047D01*
X84458857Y-87624047D02*
X84446952Y-87671666D01*
X84446952Y-87671666D02*
X84435047Y-87695476D01*
X84435047Y-87695476D02*
X84411238Y-87719285D01*
X84411238Y-87719285D02*
X84327904Y-87719285D01*
X84696952Y-87981190D02*
X84577904Y-87981190D01*
X84577904Y-87981190D02*
X84577904Y-87481190D01*
X84780285Y-87719285D02*
X84863619Y-87719285D01*
X84899333Y-87981190D02*
X84780285Y-87981190D01*
X84780285Y-87981190D02*
X84780285Y-87481190D01*
X84780285Y-87481190D02*
X84899333Y-87481190D01*
X83613619Y-88767380D02*
X83649333Y-88791190D01*
X83649333Y-88791190D02*
X83708857Y-88791190D01*
X83708857Y-88791190D02*
X83732666Y-88767380D01*
X83732666Y-88767380D02*
X83744571Y-88743571D01*
X83744571Y-88743571D02*
X83756476Y-88695952D01*
X83756476Y-88695952D02*
X83756476Y-88648333D01*
X83756476Y-88648333D02*
X83744571Y-88600714D01*
X83744571Y-88600714D02*
X83732666Y-88576904D01*
X83732666Y-88576904D02*
X83708857Y-88553095D01*
X83708857Y-88553095D02*
X83661238Y-88529285D01*
X83661238Y-88529285D02*
X83637428Y-88505476D01*
X83637428Y-88505476D02*
X83625523Y-88481666D01*
X83625523Y-88481666D02*
X83613619Y-88434047D01*
X83613619Y-88434047D02*
X83613619Y-88386428D01*
X83613619Y-88386428D02*
X83625523Y-88338809D01*
X83625523Y-88338809D02*
X83637428Y-88315000D01*
X83637428Y-88315000D02*
X83661238Y-88291190D01*
X83661238Y-88291190D02*
X83720761Y-88291190D01*
X83720761Y-88291190D02*
X83756476Y-88315000D01*
X83982666Y-88791190D02*
X83863618Y-88791190D01*
X83863618Y-88791190D02*
X83863618Y-88291190D01*
X84065999Y-88529285D02*
X84149333Y-88529285D01*
X84185047Y-88791190D02*
X84065999Y-88791190D01*
X84065999Y-88791190D02*
X84065999Y-88291190D01*
X84065999Y-88291190D02*
X84185047Y-88291190D01*
X84292189Y-88529285D02*
X84375523Y-88529285D01*
X84411237Y-88791190D02*
X84292189Y-88791190D01*
X84292189Y-88791190D02*
X84292189Y-88291190D01*
X84292189Y-88291190D02*
X84411237Y-88291190D01*
X84518379Y-88791190D02*
X84518379Y-88291190D01*
X84518379Y-88291190D02*
X84613617Y-88291190D01*
X84613617Y-88291190D02*
X84637427Y-88315000D01*
X84637427Y-88315000D02*
X84649332Y-88338809D01*
X84649332Y-88338809D02*
X84661236Y-88386428D01*
X84661236Y-88386428D02*
X84661236Y-88457857D01*
X84661236Y-88457857D02*
X84649332Y-88505476D01*
X84649332Y-88505476D02*
X84637427Y-88529285D01*
X84637427Y-88529285D02*
X84613617Y-88553095D01*
X84613617Y-88553095D02*
X84518379Y-88553095D01*
X57209523Y-95100357D02*
X57400000Y-95100357D01*
X57304761Y-95195595D02*
X57304761Y-95005119D01*
D11*
X64637380Y-67976761D02*
X64661190Y-67905333D01*
X64661190Y-67905333D02*
X64661190Y-67786285D01*
X64661190Y-67786285D02*
X64637380Y-67738666D01*
X64637380Y-67738666D02*
X64613571Y-67714857D01*
X64613571Y-67714857D02*
X64565952Y-67691047D01*
X64565952Y-67691047D02*
X64518333Y-67691047D01*
X64518333Y-67691047D02*
X64470714Y-67714857D01*
X64470714Y-67714857D02*
X64446904Y-67738666D01*
X64446904Y-67738666D02*
X64423095Y-67786285D01*
X64423095Y-67786285D02*
X64399285Y-67881523D01*
X64399285Y-67881523D02*
X64375476Y-67929142D01*
X64375476Y-67929142D02*
X64351666Y-67952952D01*
X64351666Y-67952952D02*
X64304047Y-67976761D01*
X64304047Y-67976761D02*
X64256428Y-67976761D01*
X64256428Y-67976761D02*
X64208809Y-67952952D01*
X64208809Y-67952952D02*
X64185000Y-67929142D01*
X64185000Y-67929142D02*
X64161190Y-67881523D01*
X64161190Y-67881523D02*
X64161190Y-67762476D01*
X64161190Y-67762476D02*
X64185000Y-67691047D01*
X64637380Y-67286286D02*
X64661190Y-67333905D01*
X64661190Y-67333905D02*
X64661190Y-67429143D01*
X64661190Y-67429143D02*
X64637380Y-67476762D01*
X64637380Y-67476762D02*
X64589761Y-67500571D01*
X64589761Y-67500571D02*
X64399285Y-67500571D01*
X64399285Y-67500571D02*
X64351666Y-67476762D01*
X64351666Y-67476762D02*
X64327857Y-67429143D01*
X64327857Y-67429143D02*
X64327857Y-67333905D01*
X64327857Y-67333905D02*
X64351666Y-67286286D01*
X64351666Y-67286286D02*
X64399285Y-67262476D01*
X64399285Y-67262476D02*
X64446904Y-67262476D01*
X64446904Y-67262476D02*
X64494523Y-67500571D01*
X64327857Y-67048191D02*
X64661190Y-67048191D01*
X64375476Y-67048191D02*
X64351666Y-67024381D01*
X64351666Y-67024381D02*
X64327857Y-66976762D01*
X64327857Y-66976762D02*
X64327857Y-66905334D01*
X64327857Y-66905334D02*
X64351666Y-66857715D01*
X64351666Y-66857715D02*
X64399285Y-66833905D01*
X64399285Y-66833905D02*
X64661190Y-66833905D01*
X64637380Y-66619619D02*
X64661190Y-66572000D01*
X64661190Y-66572000D02*
X64661190Y-66476762D01*
X64661190Y-66476762D02*
X64637380Y-66429143D01*
X64637380Y-66429143D02*
X64589761Y-66405334D01*
X64589761Y-66405334D02*
X64565952Y-66405334D01*
X64565952Y-66405334D02*
X64518333Y-66429143D01*
X64518333Y-66429143D02*
X64494523Y-66476762D01*
X64494523Y-66476762D02*
X64494523Y-66548191D01*
X64494523Y-66548191D02*
X64470714Y-66595810D01*
X64470714Y-66595810D02*
X64423095Y-66619619D01*
X64423095Y-66619619D02*
X64399285Y-66619619D01*
X64399285Y-66619619D02*
X64351666Y-66595810D01*
X64351666Y-66595810D02*
X64327857Y-66548191D01*
X64327857Y-66548191D02*
X64327857Y-66476762D01*
X64327857Y-66476762D02*
X64351666Y-66429143D01*
X64661190Y-66119619D02*
X64637380Y-66167238D01*
X64637380Y-66167238D02*
X64613571Y-66191048D01*
X64613571Y-66191048D02*
X64565952Y-66214857D01*
X64565952Y-66214857D02*
X64423095Y-66214857D01*
X64423095Y-66214857D02*
X64375476Y-66191048D01*
X64375476Y-66191048D02*
X64351666Y-66167238D01*
X64351666Y-66167238D02*
X64327857Y-66119619D01*
X64327857Y-66119619D02*
X64327857Y-66048191D01*
X64327857Y-66048191D02*
X64351666Y-66000572D01*
X64351666Y-66000572D02*
X64375476Y-65976762D01*
X64375476Y-65976762D02*
X64423095Y-65952953D01*
X64423095Y-65952953D02*
X64565952Y-65952953D01*
X64565952Y-65952953D02*
X64613571Y-65976762D01*
X64613571Y-65976762D02*
X64637380Y-66000572D01*
X64637380Y-66000572D02*
X64661190Y-66048191D01*
X64661190Y-66048191D02*
X64661190Y-66119619D01*
X64661190Y-65738667D02*
X64327857Y-65738667D01*
X64423095Y-65738667D02*
X64375476Y-65714857D01*
X64375476Y-65714857D02*
X64351666Y-65691048D01*
X64351666Y-65691048D02*
X64327857Y-65643429D01*
X64327857Y-65643429D02*
X64327857Y-65595810D01*
X64161190Y-65476762D02*
X64161190Y-65167238D01*
X64161190Y-65167238D02*
X64351666Y-65333905D01*
X64351666Y-65333905D02*
X64351666Y-65262476D01*
X64351666Y-65262476D02*
X64375476Y-65214857D01*
X64375476Y-65214857D02*
X64399285Y-65191048D01*
X64399285Y-65191048D02*
X64446904Y-65167238D01*
X64446904Y-65167238D02*
X64565952Y-65167238D01*
X64565952Y-65167238D02*
X64613571Y-65191048D01*
X64613571Y-65191048D02*
X64637380Y-65214857D01*
X64637380Y-65214857D02*
X64661190Y-65262476D01*
X64661190Y-65262476D02*
X64661190Y-65405333D01*
X64661190Y-65405333D02*
X64637380Y-65452952D01*
X64637380Y-65452952D02*
X64613571Y-65476762D01*
D12*
X57209523Y-84686357D02*
X57400000Y-84686357D01*
X57304761Y-84781595D02*
X57304761Y-84591119D01*
D10*
X45704095Y-102525428D02*
X46466000Y-102525428D01*
X46085047Y-102906380D02*
X46085047Y-102144476D01*
X51598380Y-73453714D02*
X51598380Y-73929904D01*
X51598380Y-73929904D02*
X50598380Y-73929904D01*
X51598380Y-73120380D02*
X50598380Y-73120380D01*
X51598380Y-72644190D02*
X50598380Y-72644190D01*
X50598380Y-72644190D02*
X50598380Y-72406095D01*
X50598380Y-72406095D02*
X50646000Y-72263238D01*
X50646000Y-72263238D02*
X50741238Y-72168000D01*
X50741238Y-72168000D02*
X50836476Y-72120381D01*
X50836476Y-72120381D02*
X51026952Y-72072762D01*
X51026952Y-72072762D02*
X51169809Y-72072762D01*
X51169809Y-72072762D02*
X51360285Y-72120381D01*
X51360285Y-72120381D02*
X51455523Y-72168000D01*
X51455523Y-72168000D02*
X51550761Y-72263238D01*
X51550761Y-72263238D02*
X51598380Y-72406095D01*
X51598380Y-72406095D02*
X51598380Y-72644190D01*
X51312666Y-71691809D02*
X51312666Y-71215619D01*
X51598380Y-71787047D02*
X50598380Y-71453714D01*
X50598380Y-71453714D02*
X51598380Y-71120381D01*
X51598380Y-70215619D02*
X51122190Y-70548952D01*
X51598380Y-70787047D02*
X50598380Y-70787047D01*
X50598380Y-70787047D02*
X50598380Y-70406095D01*
X50598380Y-70406095D02*
X50646000Y-70310857D01*
X50646000Y-70310857D02*
X50693619Y-70263238D01*
X50693619Y-70263238D02*
X50788857Y-70215619D01*
X50788857Y-70215619D02*
X50931714Y-70215619D01*
X50931714Y-70215619D02*
X51026952Y-70263238D01*
X51026952Y-70263238D02*
X51074571Y-70310857D01*
X51074571Y-70310857D02*
X51122190Y-70406095D01*
X51122190Y-70406095D02*
X51122190Y-70787047D01*
D12*
X23161619Y-89989380D02*
X23197333Y-90013190D01*
X23197333Y-90013190D02*
X23256857Y-90013190D01*
X23256857Y-90013190D02*
X23280666Y-89989380D01*
X23280666Y-89989380D02*
X23292571Y-89965571D01*
X23292571Y-89965571D02*
X23304476Y-89917952D01*
X23304476Y-89917952D02*
X23304476Y-89870333D01*
X23304476Y-89870333D02*
X23292571Y-89822714D01*
X23292571Y-89822714D02*
X23280666Y-89798904D01*
X23280666Y-89798904D02*
X23256857Y-89775095D01*
X23256857Y-89775095D02*
X23209238Y-89751285D01*
X23209238Y-89751285D02*
X23185428Y-89727476D01*
X23185428Y-89727476D02*
X23173523Y-89703666D01*
X23173523Y-89703666D02*
X23161619Y-89656047D01*
X23161619Y-89656047D02*
X23161619Y-89608428D01*
X23161619Y-89608428D02*
X23173523Y-89560809D01*
X23173523Y-89560809D02*
X23185428Y-89537000D01*
X23185428Y-89537000D02*
X23209238Y-89513190D01*
X23209238Y-89513190D02*
X23268761Y-89513190D01*
X23268761Y-89513190D02*
X23304476Y-89537000D01*
X23530666Y-90013190D02*
X23411618Y-90013190D01*
X23411618Y-90013190D02*
X23411618Y-89513190D01*
X23613999Y-89751285D02*
X23697333Y-89751285D01*
X23733047Y-90013190D02*
X23613999Y-90013190D01*
X23613999Y-90013190D02*
X23613999Y-89513190D01*
X23613999Y-89513190D02*
X23733047Y-89513190D01*
X23840189Y-89751285D02*
X23923523Y-89751285D01*
X23959237Y-90013190D02*
X23840189Y-90013190D01*
X23840189Y-90013190D02*
X23840189Y-89513190D01*
X23840189Y-89513190D02*
X23959237Y-89513190D01*
X24066379Y-90013190D02*
X24066379Y-89513190D01*
X24066379Y-89513190D02*
X24161617Y-89513190D01*
X24161617Y-89513190D02*
X24185427Y-89537000D01*
X24185427Y-89537000D02*
X24197332Y-89560809D01*
X24197332Y-89560809D02*
X24209236Y-89608428D01*
X24209236Y-89608428D02*
X24209236Y-89679857D01*
X24209236Y-89679857D02*
X24197332Y-89727476D01*
X24197332Y-89727476D02*
X24185427Y-89751285D01*
X24185427Y-89751285D02*
X24161617Y-89775095D01*
X24161617Y-89775095D02*
X24066379Y-89775095D01*
X23173523Y-90561285D02*
X23256857Y-90561285D01*
X23292571Y-90823190D02*
X23173523Y-90823190D01*
X23173523Y-90823190D02*
X23173523Y-90323190D01*
X23173523Y-90323190D02*
X23292571Y-90323190D01*
X23399713Y-90823190D02*
X23399713Y-90323190D01*
X23399713Y-90323190D02*
X23542570Y-90823190D01*
X23542570Y-90823190D02*
X23542570Y-90323190D01*
X23649714Y-90680333D02*
X23768761Y-90680333D01*
X23625904Y-90823190D02*
X23709237Y-90323190D01*
X23709237Y-90323190D02*
X23792571Y-90823190D01*
X23959238Y-90561285D02*
X23994952Y-90585095D01*
X23994952Y-90585095D02*
X24006857Y-90608904D01*
X24006857Y-90608904D02*
X24018761Y-90656523D01*
X24018761Y-90656523D02*
X24018761Y-90727952D01*
X24018761Y-90727952D02*
X24006857Y-90775571D01*
X24006857Y-90775571D02*
X23994952Y-90799380D01*
X23994952Y-90799380D02*
X23971142Y-90823190D01*
X23971142Y-90823190D02*
X23875904Y-90823190D01*
X23875904Y-90823190D02*
X23875904Y-90323190D01*
X23875904Y-90323190D02*
X23959238Y-90323190D01*
X23959238Y-90323190D02*
X23983047Y-90347000D01*
X23983047Y-90347000D02*
X23994952Y-90370809D01*
X23994952Y-90370809D02*
X24006857Y-90418428D01*
X24006857Y-90418428D02*
X24006857Y-90466047D01*
X24006857Y-90466047D02*
X23994952Y-90513666D01*
X23994952Y-90513666D02*
X23983047Y-90537476D01*
X23983047Y-90537476D02*
X23959238Y-90561285D01*
X23959238Y-90561285D02*
X23875904Y-90561285D01*
X24244952Y-90823190D02*
X24125904Y-90823190D01*
X24125904Y-90823190D02*
X24125904Y-90323190D01*
X24328285Y-90561285D02*
X24411619Y-90561285D01*
X24447333Y-90823190D02*
X24328285Y-90823190D01*
X24328285Y-90823190D02*
X24328285Y-90323190D01*
X24328285Y-90323190D02*
X24447333Y-90323190D01*
D11*
X71241380Y-67976761D02*
X71265190Y-67905333D01*
X71265190Y-67905333D02*
X71265190Y-67786285D01*
X71265190Y-67786285D02*
X71241380Y-67738666D01*
X71241380Y-67738666D02*
X71217571Y-67714857D01*
X71217571Y-67714857D02*
X71169952Y-67691047D01*
X71169952Y-67691047D02*
X71122333Y-67691047D01*
X71122333Y-67691047D02*
X71074714Y-67714857D01*
X71074714Y-67714857D02*
X71050904Y-67738666D01*
X71050904Y-67738666D02*
X71027095Y-67786285D01*
X71027095Y-67786285D02*
X71003285Y-67881523D01*
X71003285Y-67881523D02*
X70979476Y-67929142D01*
X70979476Y-67929142D02*
X70955666Y-67952952D01*
X70955666Y-67952952D02*
X70908047Y-67976761D01*
X70908047Y-67976761D02*
X70860428Y-67976761D01*
X70860428Y-67976761D02*
X70812809Y-67952952D01*
X70812809Y-67952952D02*
X70789000Y-67929142D01*
X70789000Y-67929142D02*
X70765190Y-67881523D01*
X70765190Y-67881523D02*
X70765190Y-67762476D01*
X70765190Y-67762476D02*
X70789000Y-67691047D01*
X71241380Y-67286286D02*
X71265190Y-67333905D01*
X71265190Y-67333905D02*
X71265190Y-67429143D01*
X71265190Y-67429143D02*
X71241380Y-67476762D01*
X71241380Y-67476762D02*
X71193761Y-67500571D01*
X71193761Y-67500571D02*
X71003285Y-67500571D01*
X71003285Y-67500571D02*
X70955666Y-67476762D01*
X70955666Y-67476762D02*
X70931857Y-67429143D01*
X70931857Y-67429143D02*
X70931857Y-67333905D01*
X70931857Y-67333905D02*
X70955666Y-67286286D01*
X70955666Y-67286286D02*
X71003285Y-67262476D01*
X71003285Y-67262476D02*
X71050904Y-67262476D01*
X71050904Y-67262476D02*
X71098523Y-67500571D01*
X70931857Y-67048191D02*
X71265190Y-67048191D01*
X70979476Y-67048191D02*
X70955666Y-67024381D01*
X70955666Y-67024381D02*
X70931857Y-66976762D01*
X70931857Y-66976762D02*
X70931857Y-66905334D01*
X70931857Y-66905334D02*
X70955666Y-66857715D01*
X70955666Y-66857715D02*
X71003285Y-66833905D01*
X71003285Y-66833905D02*
X71265190Y-66833905D01*
X71241380Y-66619619D02*
X71265190Y-66572000D01*
X71265190Y-66572000D02*
X71265190Y-66476762D01*
X71265190Y-66476762D02*
X71241380Y-66429143D01*
X71241380Y-66429143D02*
X71193761Y-66405334D01*
X71193761Y-66405334D02*
X71169952Y-66405334D01*
X71169952Y-66405334D02*
X71122333Y-66429143D01*
X71122333Y-66429143D02*
X71098523Y-66476762D01*
X71098523Y-66476762D02*
X71098523Y-66548191D01*
X71098523Y-66548191D02*
X71074714Y-66595810D01*
X71074714Y-66595810D02*
X71027095Y-66619619D01*
X71027095Y-66619619D02*
X71003285Y-66619619D01*
X71003285Y-66619619D02*
X70955666Y-66595810D01*
X70955666Y-66595810D02*
X70931857Y-66548191D01*
X70931857Y-66548191D02*
X70931857Y-66476762D01*
X70931857Y-66476762D02*
X70955666Y-66429143D01*
X71265190Y-66119619D02*
X71241380Y-66167238D01*
X71241380Y-66167238D02*
X71217571Y-66191048D01*
X71217571Y-66191048D02*
X71169952Y-66214857D01*
X71169952Y-66214857D02*
X71027095Y-66214857D01*
X71027095Y-66214857D02*
X70979476Y-66191048D01*
X70979476Y-66191048D02*
X70955666Y-66167238D01*
X70955666Y-66167238D02*
X70931857Y-66119619D01*
X70931857Y-66119619D02*
X70931857Y-66048191D01*
X70931857Y-66048191D02*
X70955666Y-66000572D01*
X70955666Y-66000572D02*
X70979476Y-65976762D01*
X70979476Y-65976762D02*
X71027095Y-65952953D01*
X71027095Y-65952953D02*
X71169952Y-65952953D01*
X71169952Y-65952953D02*
X71217571Y-65976762D01*
X71217571Y-65976762D02*
X71241380Y-66000572D01*
X71241380Y-66000572D02*
X71265190Y-66048191D01*
X71265190Y-66048191D02*
X71265190Y-66119619D01*
X71265190Y-65738667D02*
X70931857Y-65738667D01*
X71027095Y-65738667D02*
X70979476Y-65714857D01*
X70979476Y-65714857D02*
X70955666Y-65691048D01*
X70955666Y-65691048D02*
X70931857Y-65643429D01*
X70931857Y-65643429D02*
X70931857Y-65595810D01*
X71265190Y-65167238D02*
X71265190Y-65452952D01*
X71265190Y-65310095D02*
X70765190Y-65310095D01*
X70765190Y-65310095D02*
X70836619Y-65357714D01*
X70836619Y-65357714D02*
X70884238Y-65405333D01*
X70884238Y-65405333D02*
X70908047Y-65452952D01*
D10*
X26562761Y-81597523D02*
X26610380Y-81454666D01*
X26610380Y-81454666D02*
X26610380Y-81216571D01*
X26610380Y-81216571D02*
X26562761Y-81121333D01*
X26562761Y-81121333D02*
X26515142Y-81073714D01*
X26515142Y-81073714D02*
X26419904Y-81026095D01*
X26419904Y-81026095D02*
X26324666Y-81026095D01*
X26324666Y-81026095D02*
X26229428Y-81073714D01*
X26229428Y-81073714D02*
X26181809Y-81121333D01*
X26181809Y-81121333D02*
X26134190Y-81216571D01*
X26134190Y-81216571D02*
X26086571Y-81407047D01*
X26086571Y-81407047D02*
X26038952Y-81502285D01*
X26038952Y-81502285D02*
X25991333Y-81549904D01*
X25991333Y-81549904D02*
X25896095Y-81597523D01*
X25896095Y-81597523D02*
X25800857Y-81597523D01*
X25800857Y-81597523D02*
X25705619Y-81549904D01*
X25705619Y-81549904D02*
X25658000Y-81502285D01*
X25658000Y-81502285D02*
X25610380Y-81407047D01*
X25610380Y-81407047D02*
X25610380Y-81168952D01*
X25610380Y-81168952D02*
X25658000Y-81026095D01*
X25943714Y-80740380D02*
X25943714Y-80359428D01*
X25610380Y-80597523D02*
X26467523Y-80597523D01*
X26467523Y-80597523D02*
X26562761Y-80549904D01*
X26562761Y-80549904D02*
X26610380Y-80454666D01*
X26610380Y-80454666D02*
X26610380Y-80359428D01*
X26562761Y-79645142D02*
X26610380Y-79740380D01*
X26610380Y-79740380D02*
X26610380Y-79930856D01*
X26610380Y-79930856D02*
X26562761Y-80026094D01*
X26562761Y-80026094D02*
X26467523Y-80073713D01*
X26467523Y-80073713D02*
X26086571Y-80073713D01*
X26086571Y-80073713D02*
X25991333Y-80026094D01*
X25991333Y-80026094D02*
X25943714Y-79930856D01*
X25943714Y-79930856D02*
X25943714Y-79740380D01*
X25943714Y-79740380D02*
X25991333Y-79645142D01*
X25991333Y-79645142D02*
X26086571Y-79597523D01*
X26086571Y-79597523D02*
X26181809Y-79597523D01*
X26181809Y-79597523D02*
X26277047Y-80073713D01*
X25943714Y-79168951D02*
X26943714Y-79168951D01*
X25991333Y-79168951D02*
X25943714Y-79073713D01*
X25943714Y-79073713D02*
X25943714Y-78883237D01*
X25943714Y-78883237D02*
X25991333Y-78787999D01*
X25991333Y-78787999D02*
X26038952Y-78740380D01*
X26038952Y-78740380D02*
X26134190Y-78692761D01*
X26134190Y-78692761D02*
X26419904Y-78692761D01*
X26419904Y-78692761D02*
X26515142Y-78740380D01*
X26515142Y-78740380D02*
X26562761Y-78787999D01*
X26562761Y-78787999D02*
X26610380Y-78883237D01*
X26610380Y-78883237D02*
X26610380Y-79073713D01*
X26610380Y-79073713D02*
X26562761Y-79168951D01*
X25943714Y-78264189D02*
X26943714Y-78264189D01*
X25991333Y-78264189D02*
X25943714Y-78168951D01*
X25943714Y-78168951D02*
X25943714Y-77978475D01*
X25943714Y-77978475D02*
X25991333Y-77883237D01*
X25991333Y-77883237D02*
X26038952Y-77835618D01*
X26038952Y-77835618D02*
X26134190Y-77787999D01*
X26134190Y-77787999D02*
X26419904Y-77787999D01*
X26419904Y-77787999D02*
X26515142Y-77835618D01*
X26515142Y-77835618D02*
X26562761Y-77883237D01*
X26562761Y-77883237D02*
X26610380Y-77978475D01*
X26610380Y-77978475D02*
X26610380Y-78168951D01*
X26610380Y-78168951D02*
X26562761Y-78264189D01*
X26562761Y-76978475D02*
X26610380Y-77073713D01*
X26610380Y-77073713D02*
X26610380Y-77264189D01*
X26610380Y-77264189D02*
X26562761Y-77359427D01*
X26562761Y-77359427D02*
X26467523Y-77407046D01*
X26467523Y-77407046D02*
X26086571Y-77407046D01*
X26086571Y-77407046D02*
X25991333Y-77359427D01*
X25991333Y-77359427D02*
X25943714Y-77264189D01*
X25943714Y-77264189D02*
X25943714Y-77073713D01*
X25943714Y-77073713D02*
X25991333Y-76978475D01*
X25991333Y-76978475D02*
X26086571Y-76930856D01*
X26086571Y-76930856D02*
X26181809Y-76930856D01*
X26181809Y-76930856D02*
X26277047Y-77407046D01*
X26610380Y-76502284D02*
X25943714Y-76502284D01*
X26134190Y-76502284D02*
X26038952Y-76454665D01*
X26038952Y-76454665D02*
X25991333Y-76407046D01*
X25991333Y-76407046D02*
X25943714Y-76311808D01*
X25943714Y-76311808D02*
X25943714Y-76216570D01*
X26515142Y-74711808D02*
X26562761Y-74759427D01*
X26562761Y-74759427D02*
X26610380Y-74902284D01*
X26610380Y-74902284D02*
X26610380Y-74997522D01*
X26610380Y-74997522D02*
X26562761Y-75140379D01*
X26562761Y-75140379D02*
X26467523Y-75235617D01*
X26467523Y-75235617D02*
X26372285Y-75283236D01*
X26372285Y-75283236D02*
X26181809Y-75330855D01*
X26181809Y-75330855D02*
X26038952Y-75330855D01*
X26038952Y-75330855D02*
X25848476Y-75283236D01*
X25848476Y-75283236D02*
X25753238Y-75235617D01*
X25753238Y-75235617D02*
X25658000Y-75140379D01*
X25658000Y-75140379D02*
X25610380Y-74997522D01*
X25610380Y-74997522D02*
X25610380Y-74902284D01*
X25610380Y-74902284D02*
X25658000Y-74759427D01*
X25658000Y-74759427D02*
X25705619Y-74711808D01*
X26610380Y-74140379D02*
X26562761Y-74235617D01*
X26562761Y-74235617D02*
X26515142Y-74283236D01*
X26515142Y-74283236D02*
X26419904Y-74330855D01*
X26419904Y-74330855D02*
X26134190Y-74330855D01*
X26134190Y-74330855D02*
X26038952Y-74283236D01*
X26038952Y-74283236D02*
X25991333Y-74235617D01*
X25991333Y-74235617D02*
X25943714Y-74140379D01*
X25943714Y-74140379D02*
X25943714Y-73997522D01*
X25943714Y-73997522D02*
X25991333Y-73902284D01*
X25991333Y-73902284D02*
X26038952Y-73854665D01*
X26038952Y-73854665D02*
X26134190Y-73807046D01*
X26134190Y-73807046D02*
X26419904Y-73807046D01*
X26419904Y-73807046D02*
X26515142Y-73854665D01*
X26515142Y-73854665D02*
X26562761Y-73902284D01*
X26562761Y-73902284D02*
X26610380Y-73997522D01*
X26610380Y-73997522D02*
X26610380Y-74140379D01*
X25943714Y-73378474D02*
X26610380Y-73378474D01*
X26038952Y-73378474D02*
X25991333Y-73330855D01*
X25991333Y-73330855D02*
X25943714Y-73235617D01*
X25943714Y-73235617D02*
X25943714Y-73092760D01*
X25943714Y-73092760D02*
X25991333Y-72997522D01*
X25991333Y-72997522D02*
X26086571Y-72949903D01*
X26086571Y-72949903D02*
X26610380Y-72949903D01*
X25943714Y-72616569D02*
X25943714Y-72235617D01*
X25610380Y-72473712D02*
X26467523Y-72473712D01*
X26467523Y-72473712D02*
X26562761Y-72426093D01*
X26562761Y-72426093D02*
X26610380Y-72330855D01*
X26610380Y-72330855D02*
X26610380Y-72235617D01*
X26610380Y-71902283D02*
X25943714Y-71902283D01*
X26134190Y-71902283D02*
X26038952Y-71854664D01*
X26038952Y-71854664D02*
X25991333Y-71807045D01*
X25991333Y-71807045D02*
X25943714Y-71711807D01*
X25943714Y-71711807D02*
X25943714Y-71616569D01*
X26610380Y-71140378D02*
X26562761Y-71235616D01*
X26562761Y-71235616D02*
X26515142Y-71283235D01*
X26515142Y-71283235D02*
X26419904Y-71330854D01*
X26419904Y-71330854D02*
X26134190Y-71330854D01*
X26134190Y-71330854D02*
X26038952Y-71283235D01*
X26038952Y-71283235D02*
X25991333Y-71235616D01*
X25991333Y-71235616D02*
X25943714Y-71140378D01*
X25943714Y-71140378D02*
X25943714Y-70997521D01*
X25943714Y-70997521D02*
X25991333Y-70902283D01*
X25991333Y-70902283D02*
X26038952Y-70854664D01*
X26038952Y-70854664D02*
X26134190Y-70807045D01*
X26134190Y-70807045D02*
X26419904Y-70807045D01*
X26419904Y-70807045D02*
X26515142Y-70854664D01*
X26515142Y-70854664D02*
X26562761Y-70902283D01*
X26562761Y-70902283D02*
X26610380Y-70997521D01*
X26610380Y-70997521D02*
X26610380Y-71140378D01*
X26610380Y-70235616D02*
X26562761Y-70330854D01*
X26562761Y-70330854D02*
X26467523Y-70378473D01*
X26467523Y-70378473D02*
X25610380Y-70378473D01*
X26086571Y-68921330D02*
X26134190Y-68778473D01*
X26134190Y-68778473D02*
X26181809Y-68730854D01*
X26181809Y-68730854D02*
X26277047Y-68683235D01*
X26277047Y-68683235D02*
X26419904Y-68683235D01*
X26419904Y-68683235D02*
X26515142Y-68730854D01*
X26515142Y-68730854D02*
X26562761Y-68778473D01*
X26562761Y-68778473D02*
X26610380Y-68873711D01*
X26610380Y-68873711D02*
X26610380Y-69254663D01*
X26610380Y-69254663D02*
X25610380Y-69254663D01*
X25610380Y-69254663D02*
X25610380Y-68921330D01*
X25610380Y-68921330D02*
X25658000Y-68826092D01*
X25658000Y-68826092D02*
X25705619Y-68778473D01*
X25705619Y-68778473D02*
X25800857Y-68730854D01*
X25800857Y-68730854D02*
X25896095Y-68730854D01*
X25896095Y-68730854D02*
X25991333Y-68778473D01*
X25991333Y-68778473D02*
X26038952Y-68826092D01*
X26038952Y-68826092D02*
X26086571Y-68921330D01*
X26086571Y-68921330D02*
X26086571Y-69254663D01*
X26610380Y-68111806D02*
X26562761Y-68207044D01*
X26562761Y-68207044D02*
X26515142Y-68254663D01*
X26515142Y-68254663D02*
X26419904Y-68302282D01*
X26419904Y-68302282D02*
X26134190Y-68302282D01*
X26134190Y-68302282D02*
X26038952Y-68254663D01*
X26038952Y-68254663D02*
X25991333Y-68207044D01*
X25991333Y-68207044D02*
X25943714Y-68111806D01*
X25943714Y-68111806D02*
X25943714Y-67968949D01*
X25943714Y-67968949D02*
X25991333Y-67873711D01*
X25991333Y-67873711D02*
X26038952Y-67826092D01*
X26038952Y-67826092D02*
X26134190Y-67778473D01*
X26134190Y-67778473D02*
X26419904Y-67778473D01*
X26419904Y-67778473D02*
X26515142Y-67826092D01*
X26515142Y-67826092D02*
X26562761Y-67873711D01*
X26562761Y-67873711D02*
X26610380Y-67968949D01*
X26610380Y-67968949D02*
X26610380Y-68111806D01*
X26610380Y-66921330D02*
X26086571Y-66921330D01*
X26086571Y-66921330D02*
X25991333Y-66968949D01*
X25991333Y-66968949D02*
X25943714Y-67064187D01*
X25943714Y-67064187D02*
X25943714Y-67254663D01*
X25943714Y-67254663D02*
X25991333Y-67349901D01*
X26562761Y-66921330D02*
X26610380Y-67016568D01*
X26610380Y-67016568D02*
X26610380Y-67254663D01*
X26610380Y-67254663D02*
X26562761Y-67349901D01*
X26562761Y-67349901D02*
X26467523Y-67397520D01*
X26467523Y-67397520D02*
X26372285Y-67397520D01*
X26372285Y-67397520D02*
X26277047Y-67349901D01*
X26277047Y-67349901D02*
X26229428Y-67254663D01*
X26229428Y-67254663D02*
X26229428Y-67016568D01*
X26229428Y-67016568D02*
X26181809Y-66921330D01*
X26610380Y-66445139D02*
X25943714Y-66445139D01*
X26134190Y-66445139D02*
X26038952Y-66397520D01*
X26038952Y-66397520D02*
X25991333Y-66349901D01*
X25991333Y-66349901D02*
X25943714Y-66254663D01*
X25943714Y-66254663D02*
X25943714Y-66159425D01*
X26610380Y-65397520D02*
X25610380Y-65397520D01*
X26562761Y-65397520D02*
X26610380Y-65492758D01*
X26610380Y-65492758D02*
X26610380Y-65683234D01*
X26610380Y-65683234D02*
X26562761Y-65778472D01*
X26562761Y-65778472D02*
X26515142Y-65826091D01*
X26515142Y-65826091D02*
X26419904Y-65873710D01*
X26419904Y-65873710D02*
X26134190Y-65873710D01*
X26134190Y-65873710D02*
X26038952Y-65826091D01*
X26038952Y-65826091D02*
X25991333Y-65778472D01*
X25991333Y-65778472D02*
X25943714Y-65683234D01*
X25943714Y-65683234D02*
X25943714Y-65492758D01*
X25943714Y-65492758D02*
X25991333Y-65397520D01*
X25610380Y-64464186D02*
X26610380Y-64130853D01*
X26610380Y-64130853D02*
X25610380Y-63797520D01*
X25705619Y-63511805D02*
X25658000Y-63464186D01*
X25658000Y-63464186D02*
X25610380Y-63368948D01*
X25610380Y-63368948D02*
X25610380Y-63130853D01*
X25610380Y-63130853D02*
X25658000Y-63035615D01*
X25658000Y-63035615D02*
X25705619Y-62987996D01*
X25705619Y-62987996D02*
X25800857Y-62940377D01*
X25800857Y-62940377D02*
X25896095Y-62940377D01*
X25896095Y-62940377D02*
X26038952Y-62987996D01*
X26038952Y-62987996D02*
X26610380Y-63559424D01*
X26610380Y-63559424D02*
X26610380Y-62940377D01*
X27230380Y-81264190D02*
X27944666Y-81264190D01*
X27944666Y-81264190D02*
X28087523Y-81311809D01*
X28087523Y-81311809D02*
X28182761Y-81407047D01*
X28182761Y-81407047D02*
X28230380Y-81549904D01*
X28230380Y-81549904D02*
X28230380Y-81645142D01*
X28230380Y-80311809D02*
X28230380Y-80787999D01*
X28230380Y-80787999D02*
X27230380Y-80787999D01*
X28135142Y-79407047D02*
X28182761Y-79454666D01*
X28182761Y-79454666D02*
X28230380Y-79597523D01*
X28230380Y-79597523D02*
X28230380Y-79692761D01*
X28230380Y-79692761D02*
X28182761Y-79835618D01*
X28182761Y-79835618D02*
X28087523Y-79930856D01*
X28087523Y-79930856D02*
X27992285Y-79978475D01*
X27992285Y-79978475D02*
X27801809Y-80026094D01*
X27801809Y-80026094D02*
X27658952Y-80026094D01*
X27658952Y-80026094D02*
X27468476Y-79978475D01*
X27468476Y-79978475D02*
X27373238Y-79930856D01*
X27373238Y-79930856D02*
X27278000Y-79835618D01*
X27278000Y-79835618D02*
X27230380Y-79692761D01*
X27230380Y-79692761D02*
X27230380Y-79597523D01*
X27230380Y-79597523D02*
X27278000Y-79454666D01*
X27278000Y-79454666D02*
X27325619Y-79407047D01*
X27230380Y-78692761D02*
X27944666Y-78692761D01*
X27944666Y-78692761D02*
X28087523Y-78740380D01*
X28087523Y-78740380D02*
X28182761Y-78835618D01*
X28182761Y-78835618D02*
X28230380Y-78978475D01*
X28230380Y-78978475D02*
X28230380Y-79073713D01*
X28230380Y-77740380D02*
X28230380Y-78216570D01*
X28230380Y-78216570D02*
X27230380Y-78216570D01*
X28135142Y-76835618D02*
X28182761Y-76883237D01*
X28182761Y-76883237D02*
X28230380Y-77026094D01*
X28230380Y-77026094D02*
X28230380Y-77121332D01*
X28230380Y-77121332D02*
X28182761Y-77264189D01*
X28182761Y-77264189D02*
X28087523Y-77359427D01*
X28087523Y-77359427D02*
X27992285Y-77407046D01*
X27992285Y-77407046D02*
X27801809Y-77454665D01*
X27801809Y-77454665D02*
X27658952Y-77454665D01*
X27658952Y-77454665D02*
X27468476Y-77407046D01*
X27468476Y-77407046D02*
X27373238Y-77359427D01*
X27373238Y-77359427D02*
X27278000Y-77264189D01*
X27278000Y-77264189D02*
X27230380Y-77121332D01*
X27230380Y-77121332D02*
X27230380Y-77026094D01*
X27230380Y-77026094D02*
X27278000Y-76883237D01*
X27278000Y-76883237D02*
X27325619Y-76835618D01*
X27230380Y-76121332D02*
X27944666Y-76121332D01*
X27944666Y-76121332D02*
X28087523Y-76168951D01*
X28087523Y-76168951D02*
X28182761Y-76264189D01*
X28182761Y-76264189D02*
X28230380Y-76407046D01*
X28230380Y-76407046D02*
X28230380Y-76502284D01*
X28230380Y-75168951D02*
X28230380Y-75645141D01*
X28230380Y-75645141D02*
X27230380Y-75645141D01*
X28135142Y-74264189D02*
X28182761Y-74311808D01*
X28182761Y-74311808D02*
X28230380Y-74454665D01*
X28230380Y-74454665D02*
X28230380Y-74549903D01*
X28230380Y-74549903D02*
X28182761Y-74692760D01*
X28182761Y-74692760D02*
X28087523Y-74787998D01*
X28087523Y-74787998D02*
X27992285Y-74835617D01*
X27992285Y-74835617D02*
X27801809Y-74883236D01*
X27801809Y-74883236D02*
X27658952Y-74883236D01*
X27658952Y-74883236D02*
X27468476Y-74835617D01*
X27468476Y-74835617D02*
X27373238Y-74787998D01*
X27373238Y-74787998D02*
X27278000Y-74692760D01*
X27278000Y-74692760D02*
X27230380Y-74549903D01*
X27230380Y-74549903D02*
X27230380Y-74454665D01*
X27230380Y-74454665D02*
X27278000Y-74311808D01*
X27278000Y-74311808D02*
X27325619Y-74264189D01*
X27230380Y-73549903D02*
X27944666Y-73549903D01*
X27944666Y-73549903D02*
X28087523Y-73597522D01*
X28087523Y-73597522D02*
X28182761Y-73692760D01*
X28182761Y-73692760D02*
X28230380Y-73835617D01*
X28230380Y-73835617D02*
X28230380Y-73930855D01*
X28230380Y-72597522D02*
X28230380Y-73073712D01*
X28230380Y-73073712D02*
X27230380Y-73073712D01*
X28135142Y-71692760D02*
X28182761Y-71740379D01*
X28182761Y-71740379D02*
X28230380Y-71883236D01*
X28230380Y-71883236D02*
X28230380Y-71978474D01*
X28230380Y-71978474D02*
X28182761Y-72121331D01*
X28182761Y-72121331D02*
X28087523Y-72216569D01*
X28087523Y-72216569D02*
X27992285Y-72264188D01*
X27992285Y-72264188D02*
X27801809Y-72311807D01*
X27801809Y-72311807D02*
X27658952Y-72311807D01*
X27658952Y-72311807D02*
X27468476Y-72264188D01*
X27468476Y-72264188D02*
X27373238Y-72216569D01*
X27373238Y-72216569D02*
X27278000Y-72121331D01*
X27278000Y-72121331D02*
X27230380Y-71978474D01*
X27230380Y-71978474D02*
X27230380Y-71883236D01*
X27230380Y-71883236D02*
X27278000Y-71740379D01*
X27278000Y-71740379D02*
X27325619Y-71692760D01*
D12*
X50605523Y-84686357D02*
X50796000Y-84686357D01*
X50700761Y-84781595D02*
X50700761Y-84591119D01*
X30539523Y-89766357D02*
X30730000Y-89766357D01*
X30634761Y-89861595D02*
X30634761Y-89671119D01*
D10*
X80506761Y-75247523D02*
X80554380Y-75104666D01*
X80554380Y-75104666D02*
X80554380Y-74866571D01*
X80554380Y-74866571D02*
X80506761Y-74771333D01*
X80506761Y-74771333D02*
X80459142Y-74723714D01*
X80459142Y-74723714D02*
X80363904Y-74676095D01*
X80363904Y-74676095D02*
X80268666Y-74676095D01*
X80268666Y-74676095D02*
X80173428Y-74723714D01*
X80173428Y-74723714D02*
X80125809Y-74771333D01*
X80125809Y-74771333D02*
X80078190Y-74866571D01*
X80078190Y-74866571D02*
X80030571Y-75057047D01*
X80030571Y-75057047D02*
X79982952Y-75152285D01*
X79982952Y-75152285D02*
X79935333Y-75199904D01*
X79935333Y-75199904D02*
X79840095Y-75247523D01*
X79840095Y-75247523D02*
X79744857Y-75247523D01*
X79744857Y-75247523D02*
X79649619Y-75199904D01*
X79649619Y-75199904D02*
X79602000Y-75152285D01*
X79602000Y-75152285D02*
X79554380Y-75057047D01*
X79554380Y-75057047D02*
X79554380Y-74818952D01*
X79554380Y-74818952D02*
X79602000Y-74676095D01*
X80506761Y-73866571D02*
X80554380Y-73961809D01*
X80554380Y-73961809D02*
X80554380Y-74152285D01*
X80554380Y-74152285D02*
X80506761Y-74247523D01*
X80506761Y-74247523D02*
X80411523Y-74295142D01*
X80411523Y-74295142D02*
X80030571Y-74295142D01*
X80030571Y-74295142D02*
X79935333Y-74247523D01*
X79935333Y-74247523D02*
X79887714Y-74152285D01*
X79887714Y-74152285D02*
X79887714Y-73961809D01*
X79887714Y-73961809D02*
X79935333Y-73866571D01*
X79935333Y-73866571D02*
X80030571Y-73818952D01*
X80030571Y-73818952D02*
X80125809Y-73818952D01*
X80125809Y-73818952D02*
X80221047Y-74295142D01*
X79887714Y-73390380D02*
X80554380Y-73390380D01*
X79982952Y-73390380D02*
X79935333Y-73342761D01*
X79935333Y-73342761D02*
X79887714Y-73247523D01*
X79887714Y-73247523D02*
X79887714Y-73104666D01*
X79887714Y-73104666D02*
X79935333Y-73009428D01*
X79935333Y-73009428D02*
X80030571Y-72961809D01*
X80030571Y-72961809D02*
X80554380Y-72961809D01*
X80506761Y-72533237D02*
X80554380Y-72437999D01*
X80554380Y-72437999D02*
X80554380Y-72247523D01*
X80554380Y-72247523D02*
X80506761Y-72152285D01*
X80506761Y-72152285D02*
X80411523Y-72104666D01*
X80411523Y-72104666D02*
X80363904Y-72104666D01*
X80363904Y-72104666D02*
X80268666Y-72152285D01*
X80268666Y-72152285D02*
X80221047Y-72247523D01*
X80221047Y-72247523D02*
X80221047Y-72390380D01*
X80221047Y-72390380D02*
X80173428Y-72485618D01*
X80173428Y-72485618D02*
X80078190Y-72533237D01*
X80078190Y-72533237D02*
X80030571Y-72533237D01*
X80030571Y-72533237D02*
X79935333Y-72485618D01*
X79935333Y-72485618D02*
X79887714Y-72390380D01*
X79887714Y-72390380D02*
X79887714Y-72247523D01*
X79887714Y-72247523D02*
X79935333Y-72152285D01*
X80554380Y-71533237D02*
X80506761Y-71628475D01*
X80506761Y-71628475D02*
X80459142Y-71676094D01*
X80459142Y-71676094D02*
X80363904Y-71723713D01*
X80363904Y-71723713D02*
X80078190Y-71723713D01*
X80078190Y-71723713D02*
X79982952Y-71676094D01*
X79982952Y-71676094D02*
X79935333Y-71628475D01*
X79935333Y-71628475D02*
X79887714Y-71533237D01*
X79887714Y-71533237D02*
X79887714Y-71390380D01*
X79887714Y-71390380D02*
X79935333Y-71295142D01*
X79935333Y-71295142D02*
X79982952Y-71247523D01*
X79982952Y-71247523D02*
X80078190Y-71199904D01*
X80078190Y-71199904D02*
X80363904Y-71199904D01*
X80363904Y-71199904D02*
X80459142Y-71247523D01*
X80459142Y-71247523D02*
X80506761Y-71295142D01*
X80506761Y-71295142D02*
X80554380Y-71390380D01*
X80554380Y-71390380D02*
X80554380Y-71533237D01*
X80554380Y-70771332D02*
X79887714Y-70771332D01*
X80078190Y-70771332D02*
X79982952Y-70723713D01*
X79982952Y-70723713D02*
X79935333Y-70676094D01*
X79935333Y-70676094D02*
X79887714Y-70580856D01*
X79887714Y-70580856D02*
X79887714Y-70485618D01*
X80506761Y-70199903D02*
X80554380Y-70104665D01*
X80554380Y-70104665D02*
X80554380Y-69914189D01*
X80554380Y-69914189D02*
X80506761Y-69818951D01*
X80506761Y-69818951D02*
X80411523Y-69771332D01*
X80411523Y-69771332D02*
X80363904Y-69771332D01*
X80363904Y-69771332D02*
X80268666Y-69818951D01*
X80268666Y-69818951D02*
X80221047Y-69914189D01*
X80221047Y-69914189D02*
X80221047Y-70057046D01*
X80221047Y-70057046D02*
X80173428Y-70152284D01*
X80173428Y-70152284D02*
X80078190Y-70199903D01*
X80078190Y-70199903D02*
X80030571Y-70199903D01*
X80030571Y-70199903D02*
X79935333Y-70152284D01*
X79935333Y-70152284D02*
X79887714Y-70057046D01*
X79887714Y-70057046D02*
X79887714Y-69914189D01*
X79887714Y-69914189D02*
X79935333Y-69818951D01*
D11*
X68701380Y-67976761D02*
X68725190Y-67905333D01*
X68725190Y-67905333D02*
X68725190Y-67786285D01*
X68725190Y-67786285D02*
X68701380Y-67738666D01*
X68701380Y-67738666D02*
X68677571Y-67714857D01*
X68677571Y-67714857D02*
X68629952Y-67691047D01*
X68629952Y-67691047D02*
X68582333Y-67691047D01*
X68582333Y-67691047D02*
X68534714Y-67714857D01*
X68534714Y-67714857D02*
X68510904Y-67738666D01*
X68510904Y-67738666D02*
X68487095Y-67786285D01*
X68487095Y-67786285D02*
X68463285Y-67881523D01*
X68463285Y-67881523D02*
X68439476Y-67929142D01*
X68439476Y-67929142D02*
X68415666Y-67952952D01*
X68415666Y-67952952D02*
X68368047Y-67976761D01*
X68368047Y-67976761D02*
X68320428Y-67976761D01*
X68320428Y-67976761D02*
X68272809Y-67952952D01*
X68272809Y-67952952D02*
X68249000Y-67929142D01*
X68249000Y-67929142D02*
X68225190Y-67881523D01*
X68225190Y-67881523D02*
X68225190Y-67762476D01*
X68225190Y-67762476D02*
X68249000Y-67691047D01*
X68701380Y-67286286D02*
X68725190Y-67333905D01*
X68725190Y-67333905D02*
X68725190Y-67429143D01*
X68725190Y-67429143D02*
X68701380Y-67476762D01*
X68701380Y-67476762D02*
X68653761Y-67500571D01*
X68653761Y-67500571D02*
X68463285Y-67500571D01*
X68463285Y-67500571D02*
X68415666Y-67476762D01*
X68415666Y-67476762D02*
X68391857Y-67429143D01*
X68391857Y-67429143D02*
X68391857Y-67333905D01*
X68391857Y-67333905D02*
X68415666Y-67286286D01*
X68415666Y-67286286D02*
X68463285Y-67262476D01*
X68463285Y-67262476D02*
X68510904Y-67262476D01*
X68510904Y-67262476D02*
X68558523Y-67500571D01*
X68391857Y-67048191D02*
X68725190Y-67048191D01*
X68439476Y-67048191D02*
X68415666Y-67024381D01*
X68415666Y-67024381D02*
X68391857Y-66976762D01*
X68391857Y-66976762D02*
X68391857Y-66905334D01*
X68391857Y-66905334D02*
X68415666Y-66857715D01*
X68415666Y-66857715D02*
X68463285Y-66833905D01*
X68463285Y-66833905D02*
X68725190Y-66833905D01*
X68701380Y-66619619D02*
X68725190Y-66572000D01*
X68725190Y-66572000D02*
X68725190Y-66476762D01*
X68725190Y-66476762D02*
X68701380Y-66429143D01*
X68701380Y-66429143D02*
X68653761Y-66405334D01*
X68653761Y-66405334D02*
X68629952Y-66405334D01*
X68629952Y-66405334D02*
X68582333Y-66429143D01*
X68582333Y-66429143D02*
X68558523Y-66476762D01*
X68558523Y-66476762D02*
X68558523Y-66548191D01*
X68558523Y-66548191D02*
X68534714Y-66595810D01*
X68534714Y-66595810D02*
X68487095Y-66619619D01*
X68487095Y-66619619D02*
X68463285Y-66619619D01*
X68463285Y-66619619D02*
X68415666Y-66595810D01*
X68415666Y-66595810D02*
X68391857Y-66548191D01*
X68391857Y-66548191D02*
X68391857Y-66476762D01*
X68391857Y-66476762D02*
X68415666Y-66429143D01*
X68725190Y-66119619D02*
X68701380Y-66167238D01*
X68701380Y-66167238D02*
X68677571Y-66191048D01*
X68677571Y-66191048D02*
X68629952Y-66214857D01*
X68629952Y-66214857D02*
X68487095Y-66214857D01*
X68487095Y-66214857D02*
X68439476Y-66191048D01*
X68439476Y-66191048D02*
X68415666Y-66167238D01*
X68415666Y-66167238D02*
X68391857Y-66119619D01*
X68391857Y-66119619D02*
X68391857Y-66048191D01*
X68391857Y-66048191D02*
X68415666Y-66000572D01*
X68415666Y-66000572D02*
X68439476Y-65976762D01*
X68439476Y-65976762D02*
X68487095Y-65952953D01*
X68487095Y-65952953D02*
X68629952Y-65952953D01*
X68629952Y-65952953D02*
X68677571Y-65976762D01*
X68677571Y-65976762D02*
X68701380Y-66000572D01*
X68701380Y-66000572D02*
X68725190Y-66048191D01*
X68725190Y-66048191D02*
X68725190Y-66119619D01*
X68725190Y-65738667D02*
X68391857Y-65738667D01*
X68487095Y-65738667D02*
X68439476Y-65714857D01*
X68439476Y-65714857D02*
X68415666Y-65691048D01*
X68415666Y-65691048D02*
X68391857Y-65643429D01*
X68391857Y-65643429D02*
X68391857Y-65595810D01*
X68272809Y-65452952D02*
X68249000Y-65429143D01*
X68249000Y-65429143D02*
X68225190Y-65381524D01*
X68225190Y-65381524D02*
X68225190Y-65262476D01*
X68225190Y-65262476D02*
X68249000Y-65214857D01*
X68249000Y-65214857D02*
X68272809Y-65191048D01*
X68272809Y-65191048D02*
X68320428Y-65167238D01*
X68320428Y-65167238D02*
X68368047Y-65167238D01*
X68368047Y-65167238D02*
X68439476Y-65191048D01*
X68439476Y-65191048D02*
X68725190Y-65476762D01*
X68725190Y-65476762D02*
X68725190Y-65167238D01*
D12*
X70671523Y-70716357D02*
X70862000Y-70716357D01*
X70766761Y-70811595D02*
X70766761Y-70621119D01*
D11*
X60293238Y-75051380D02*
X60364666Y-75075190D01*
X60364666Y-75075190D02*
X60483714Y-75075190D01*
X60483714Y-75075190D02*
X60531333Y-75051380D01*
X60531333Y-75051380D02*
X60555142Y-75027571D01*
X60555142Y-75027571D02*
X60578952Y-74979952D01*
X60578952Y-74979952D02*
X60578952Y-74932333D01*
X60578952Y-74932333D02*
X60555142Y-74884714D01*
X60555142Y-74884714D02*
X60531333Y-74860904D01*
X60531333Y-74860904D02*
X60483714Y-74837095D01*
X60483714Y-74837095D02*
X60388476Y-74813285D01*
X60388476Y-74813285D02*
X60340857Y-74789476D01*
X60340857Y-74789476D02*
X60317047Y-74765666D01*
X60317047Y-74765666D02*
X60293238Y-74718047D01*
X60293238Y-74718047D02*
X60293238Y-74670428D01*
X60293238Y-74670428D02*
X60317047Y-74622809D01*
X60317047Y-74622809D02*
X60340857Y-74599000D01*
X60340857Y-74599000D02*
X60388476Y-74575190D01*
X60388476Y-74575190D02*
X60507523Y-74575190D01*
X60507523Y-74575190D02*
X60578952Y-74599000D01*
X60983713Y-75051380D02*
X60936094Y-75075190D01*
X60936094Y-75075190D02*
X60840856Y-75075190D01*
X60840856Y-75075190D02*
X60793237Y-75051380D01*
X60793237Y-75051380D02*
X60769428Y-75003761D01*
X60769428Y-75003761D02*
X60769428Y-74813285D01*
X60769428Y-74813285D02*
X60793237Y-74765666D01*
X60793237Y-74765666D02*
X60840856Y-74741857D01*
X60840856Y-74741857D02*
X60936094Y-74741857D01*
X60936094Y-74741857D02*
X60983713Y-74765666D01*
X60983713Y-74765666D02*
X61007523Y-74813285D01*
X61007523Y-74813285D02*
X61007523Y-74860904D01*
X61007523Y-74860904D02*
X60769428Y-74908523D01*
X61221808Y-74741857D02*
X61221808Y-75075190D01*
X61221808Y-74789476D02*
X61245618Y-74765666D01*
X61245618Y-74765666D02*
X61293237Y-74741857D01*
X61293237Y-74741857D02*
X61364665Y-74741857D01*
X61364665Y-74741857D02*
X61412284Y-74765666D01*
X61412284Y-74765666D02*
X61436094Y-74813285D01*
X61436094Y-74813285D02*
X61436094Y-75075190D01*
X61650380Y-75051380D02*
X61697999Y-75075190D01*
X61697999Y-75075190D02*
X61793237Y-75075190D01*
X61793237Y-75075190D02*
X61840856Y-75051380D01*
X61840856Y-75051380D02*
X61864665Y-75003761D01*
X61864665Y-75003761D02*
X61864665Y-74979952D01*
X61864665Y-74979952D02*
X61840856Y-74932333D01*
X61840856Y-74932333D02*
X61793237Y-74908523D01*
X61793237Y-74908523D02*
X61721808Y-74908523D01*
X61721808Y-74908523D02*
X61674189Y-74884714D01*
X61674189Y-74884714D02*
X61650380Y-74837095D01*
X61650380Y-74837095D02*
X61650380Y-74813285D01*
X61650380Y-74813285D02*
X61674189Y-74765666D01*
X61674189Y-74765666D02*
X61721808Y-74741857D01*
X61721808Y-74741857D02*
X61793237Y-74741857D01*
X61793237Y-74741857D02*
X61840856Y-74765666D01*
X62150380Y-75075190D02*
X62102761Y-75051380D01*
X62102761Y-75051380D02*
X62078951Y-75027571D01*
X62078951Y-75027571D02*
X62055142Y-74979952D01*
X62055142Y-74979952D02*
X62055142Y-74837095D01*
X62055142Y-74837095D02*
X62078951Y-74789476D01*
X62078951Y-74789476D02*
X62102761Y-74765666D01*
X62102761Y-74765666D02*
X62150380Y-74741857D01*
X62150380Y-74741857D02*
X62221808Y-74741857D01*
X62221808Y-74741857D02*
X62269427Y-74765666D01*
X62269427Y-74765666D02*
X62293237Y-74789476D01*
X62293237Y-74789476D02*
X62317046Y-74837095D01*
X62317046Y-74837095D02*
X62317046Y-74979952D01*
X62317046Y-74979952D02*
X62293237Y-75027571D01*
X62293237Y-75027571D02*
X62269427Y-75051380D01*
X62269427Y-75051380D02*
X62221808Y-75075190D01*
X62221808Y-75075190D02*
X62150380Y-75075190D01*
X62531332Y-75075190D02*
X62531332Y-74741857D01*
X62531332Y-74837095D02*
X62555142Y-74789476D01*
X62555142Y-74789476D02*
X62578951Y-74765666D01*
X62578951Y-74765666D02*
X62626570Y-74741857D01*
X62626570Y-74741857D02*
X62674189Y-74741857D01*
X62793237Y-74575190D02*
X63102761Y-74575190D01*
X63102761Y-74575190D02*
X62936094Y-74765666D01*
X62936094Y-74765666D02*
X63007523Y-74765666D01*
X63007523Y-74765666D02*
X63055142Y-74789476D01*
X63055142Y-74789476D02*
X63078951Y-74813285D01*
X63078951Y-74813285D02*
X63102761Y-74860904D01*
X63102761Y-74860904D02*
X63102761Y-74979952D01*
X63102761Y-74979952D02*
X63078951Y-75027571D01*
X63078951Y-75027571D02*
X63055142Y-75051380D01*
X63055142Y-75051380D02*
X63007523Y-75075190D01*
X63007523Y-75075190D02*
X62864666Y-75075190D01*
X62864666Y-75075190D02*
X62817047Y-75051380D01*
X62817047Y-75051380D02*
X62793237Y-75027571D01*
D10*
X24129904Y-112558380D02*
X23558476Y-112558380D01*
X23844190Y-112558380D02*
X23844190Y-111558380D01*
X23844190Y-111558380D02*
X23748952Y-111701238D01*
X23748952Y-111701238D02*
X23653714Y-111796476D01*
X23653714Y-111796476D02*
X23558476Y-111844095D01*
X24510857Y-111653619D02*
X24558476Y-111606000D01*
X24558476Y-111606000D02*
X24653714Y-111558380D01*
X24653714Y-111558380D02*
X24891809Y-111558380D01*
X24891809Y-111558380D02*
X24987047Y-111606000D01*
X24987047Y-111606000D02*
X25034666Y-111653619D01*
X25034666Y-111653619D02*
X25082285Y-111748857D01*
X25082285Y-111748857D02*
X25082285Y-111844095D01*
X25082285Y-111844095D02*
X25034666Y-111986952D01*
X25034666Y-111986952D02*
X24463238Y-112558380D01*
X24463238Y-112558380D02*
X25082285Y-112558380D01*
X25368000Y-111558380D02*
X25701333Y-112558380D01*
X25701333Y-112558380D02*
X26034666Y-111558380D01*
X53578095Y-106335428D02*
X54340000Y-106335428D01*
X53959047Y-106716380D02*
X53959047Y-105954476D01*
X66024095Y-102525428D02*
X66786000Y-102525428D01*
X66405047Y-102906380D02*
X66405047Y-102144476D01*
D12*
X57209523Y-87988357D02*
X57400000Y-87988357D01*
X57304761Y-88083595D02*
X57304761Y-87893119D01*
X57209523Y-91798357D02*
X57400000Y-91798357D01*
X57304761Y-91893595D02*
X57304761Y-91703119D01*
X50605523Y-87988357D02*
X50796000Y-87988357D01*
X50700761Y-88083595D02*
X50700761Y-87893119D01*
D10*
X43878476Y-79998761D02*
X44021333Y-80046380D01*
X44021333Y-80046380D02*
X44259428Y-80046380D01*
X44259428Y-80046380D02*
X44354666Y-79998761D01*
X44354666Y-79998761D02*
X44402285Y-79951142D01*
X44402285Y-79951142D02*
X44449904Y-79855904D01*
X44449904Y-79855904D02*
X44449904Y-79760666D01*
X44449904Y-79760666D02*
X44402285Y-79665428D01*
X44402285Y-79665428D02*
X44354666Y-79617809D01*
X44354666Y-79617809D02*
X44259428Y-79570190D01*
X44259428Y-79570190D02*
X44068952Y-79522571D01*
X44068952Y-79522571D02*
X43973714Y-79474952D01*
X43973714Y-79474952D02*
X43926095Y-79427333D01*
X43926095Y-79427333D02*
X43878476Y-79332095D01*
X43878476Y-79332095D02*
X43878476Y-79236857D01*
X43878476Y-79236857D02*
X43926095Y-79141619D01*
X43926095Y-79141619D02*
X43973714Y-79094000D01*
X43973714Y-79094000D02*
X44068952Y-79046380D01*
X44068952Y-79046380D02*
X44307047Y-79046380D01*
X44307047Y-79046380D02*
X44449904Y-79094000D01*
X44735619Y-79379714D02*
X45116571Y-79379714D01*
X44878476Y-79046380D02*
X44878476Y-79903523D01*
X44878476Y-79903523D02*
X44926095Y-79998761D01*
X44926095Y-79998761D02*
X45021333Y-80046380D01*
X45021333Y-80046380D02*
X45116571Y-80046380D01*
X45830857Y-79998761D02*
X45735619Y-80046380D01*
X45735619Y-80046380D02*
X45545143Y-80046380D01*
X45545143Y-80046380D02*
X45449905Y-79998761D01*
X45449905Y-79998761D02*
X45402286Y-79903523D01*
X45402286Y-79903523D02*
X45402286Y-79522571D01*
X45402286Y-79522571D02*
X45449905Y-79427333D01*
X45449905Y-79427333D02*
X45545143Y-79379714D01*
X45545143Y-79379714D02*
X45735619Y-79379714D01*
X45735619Y-79379714D02*
X45830857Y-79427333D01*
X45830857Y-79427333D02*
X45878476Y-79522571D01*
X45878476Y-79522571D02*
X45878476Y-79617809D01*
X45878476Y-79617809D02*
X45402286Y-79713047D01*
X46307048Y-79379714D02*
X46307048Y-80379714D01*
X46307048Y-79427333D02*
X46402286Y-79379714D01*
X46402286Y-79379714D02*
X46592762Y-79379714D01*
X46592762Y-79379714D02*
X46688000Y-79427333D01*
X46688000Y-79427333D02*
X46735619Y-79474952D01*
X46735619Y-79474952D02*
X46783238Y-79570190D01*
X46783238Y-79570190D02*
X46783238Y-79855904D01*
X46783238Y-79855904D02*
X46735619Y-79951142D01*
X46735619Y-79951142D02*
X46688000Y-79998761D01*
X46688000Y-79998761D02*
X46592762Y-80046380D01*
X46592762Y-80046380D02*
X46402286Y-80046380D01*
X46402286Y-80046380D02*
X46307048Y-79998761D01*
X47211810Y-79379714D02*
X47211810Y-80379714D01*
X47211810Y-79427333D02*
X47307048Y-79379714D01*
X47307048Y-79379714D02*
X47497524Y-79379714D01*
X47497524Y-79379714D02*
X47592762Y-79427333D01*
X47592762Y-79427333D02*
X47640381Y-79474952D01*
X47640381Y-79474952D02*
X47688000Y-79570190D01*
X47688000Y-79570190D02*
X47688000Y-79855904D01*
X47688000Y-79855904D02*
X47640381Y-79951142D01*
X47640381Y-79951142D02*
X47592762Y-79998761D01*
X47592762Y-79998761D02*
X47497524Y-80046380D01*
X47497524Y-80046380D02*
X47307048Y-80046380D01*
X47307048Y-80046380D02*
X47211810Y-79998761D01*
X48497524Y-79998761D02*
X48402286Y-80046380D01*
X48402286Y-80046380D02*
X48211810Y-80046380D01*
X48211810Y-80046380D02*
X48116572Y-79998761D01*
X48116572Y-79998761D02*
X48068953Y-79903523D01*
X48068953Y-79903523D02*
X48068953Y-79522571D01*
X48068953Y-79522571D02*
X48116572Y-79427333D01*
X48116572Y-79427333D02*
X48211810Y-79379714D01*
X48211810Y-79379714D02*
X48402286Y-79379714D01*
X48402286Y-79379714D02*
X48497524Y-79427333D01*
X48497524Y-79427333D02*
X48545143Y-79522571D01*
X48545143Y-79522571D02*
X48545143Y-79617809D01*
X48545143Y-79617809D02*
X48068953Y-79713047D01*
X48973715Y-80046380D02*
X48973715Y-79379714D01*
X48973715Y-79570190D02*
X49021334Y-79474952D01*
X49021334Y-79474952D02*
X49068953Y-79427333D01*
X49068953Y-79427333D02*
X49164191Y-79379714D01*
X49164191Y-79379714D02*
X49259429Y-79379714D01*
X50116572Y-80046380D02*
X49545144Y-80046380D01*
X49830858Y-80046380D02*
X49830858Y-79046380D01*
X49830858Y-79046380D02*
X49735620Y-79189238D01*
X49735620Y-79189238D02*
X49640382Y-79284476D01*
X49640382Y-79284476D02*
X49545144Y-79332095D01*
D11*
X60293238Y-72511380D02*
X60364666Y-72535190D01*
X60364666Y-72535190D02*
X60483714Y-72535190D01*
X60483714Y-72535190D02*
X60531333Y-72511380D01*
X60531333Y-72511380D02*
X60555142Y-72487571D01*
X60555142Y-72487571D02*
X60578952Y-72439952D01*
X60578952Y-72439952D02*
X60578952Y-72392333D01*
X60578952Y-72392333D02*
X60555142Y-72344714D01*
X60555142Y-72344714D02*
X60531333Y-72320904D01*
X60531333Y-72320904D02*
X60483714Y-72297095D01*
X60483714Y-72297095D02*
X60388476Y-72273285D01*
X60388476Y-72273285D02*
X60340857Y-72249476D01*
X60340857Y-72249476D02*
X60317047Y-72225666D01*
X60317047Y-72225666D02*
X60293238Y-72178047D01*
X60293238Y-72178047D02*
X60293238Y-72130428D01*
X60293238Y-72130428D02*
X60317047Y-72082809D01*
X60317047Y-72082809D02*
X60340857Y-72059000D01*
X60340857Y-72059000D02*
X60388476Y-72035190D01*
X60388476Y-72035190D02*
X60507523Y-72035190D01*
X60507523Y-72035190D02*
X60578952Y-72059000D01*
X60983713Y-72511380D02*
X60936094Y-72535190D01*
X60936094Y-72535190D02*
X60840856Y-72535190D01*
X60840856Y-72535190D02*
X60793237Y-72511380D01*
X60793237Y-72511380D02*
X60769428Y-72463761D01*
X60769428Y-72463761D02*
X60769428Y-72273285D01*
X60769428Y-72273285D02*
X60793237Y-72225666D01*
X60793237Y-72225666D02*
X60840856Y-72201857D01*
X60840856Y-72201857D02*
X60936094Y-72201857D01*
X60936094Y-72201857D02*
X60983713Y-72225666D01*
X60983713Y-72225666D02*
X61007523Y-72273285D01*
X61007523Y-72273285D02*
X61007523Y-72320904D01*
X61007523Y-72320904D02*
X60769428Y-72368523D01*
X61221808Y-72201857D02*
X61221808Y-72535190D01*
X61221808Y-72249476D02*
X61245618Y-72225666D01*
X61245618Y-72225666D02*
X61293237Y-72201857D01*
X61293237Y-72201857D02*
X61364665Y-72201857D01*
X61364665Y-72201857D02*
X61412284Y-72225666D01*
X61412284Y-72225666D02*
X61436094Y-72273285D01*
X61436094Y-72273285D02*
X61436094Y-72535190D01*
X61650380Y-72511380D02*
X61697999Y-72535190D01*
X61697999Y-72535190D02*
X61793237Y-72535190D01*
X61793237Y-72535190D02*
X61840856Y-72511380D01*
X61840856Y-72511380D02*
X61864665Y-72463761D01*
X61864665Y-72463761D02*
X61864665Y-72439952D01*
X61864665Y-72439952D02*
X61840856Y-72392333D01*
X61840856Y-72392333D02*
X61793237Y-72368523D01*
X61793237Y-72368523D02*
X61721808Y-72368523D01*
X61721808Y-72368523D02*
X61674189Y-72344714D01*
X61674189Y-72344714D02*
X61650380Y-72297095D01*
X61650380Y-72297095D02*
X61650380Y-72273285D01*
X61650380Y-72273285D02*
X61674189Y-72225666D01*
X61674189Y-72225666D02*
X61721808Y-72201857D01*
X61721808Y-72201857D02*
X61793237Y-72201857D01*
X61793237Y-72201857D02*
X61840856Y-72225666D01*
X62150380Y-72535190D02*
X62102761Y-72511380D01*
X62102761Y-72511380D02*
X62078951Y-72487571D01*
X62078951Y-72487571D02*
X62055142Y-72439952D01*
X62055142Y-72439952D02*
X62055142Y-72297095D01*
X62055142Y-72297095D02*
X62078951Y-72249476D01*
X62078951Y-72249476D02*
X62102761Y-72225666D01*
X62102761Y-72225666D02*
X62150380Y-72201857D01*
X62150380Y-72201857D02*
X62221808Y-72201857D01*
X62221808Y-72201857D02*
X62269427Y-72225666D01*
X62269427Y-72225666D02*
X62293237Y-72249476D01*
X62293237Y-72249476D02*
X62317046Y-72297095D01*
X62317046Y-72297095D02*
X62317046Y-72439952D01*
X62317046Y-72439952D02*
X62293237Y-72487571D01*
X62293237Y-72487571D02*
X62269427Y-72511380D01*
X62269427Y-72511380D02*
X62221808Y-72535190D01*
X62221808Y-72535190D02*
X62150380Y-72535190D01*
X62531332Y-72535190D02*
X62531332Y-72201857D01*
X62531332Y-72297095D02*
X62555142Y-72249476D01*
X62555142Y-72249476D02*
X62578951Y-72225666D01*
X62578951Y-72225666D02*
X62626570Y-72201857D01*
X62626570Y-72201857D02*
X62674189Y-72201857D01*
X62817047Y-72082809D02*
X62840856Y-72059000D01*
X62840856Y-72059000D02*
X62888475Y-72035190D01*
X62888475Y-72035190D02*
X63007523Y-72035190D01*
X63007523Y-72035190D02*
X63055142Y-72059000D01*
X63055142Y-72059000D02*
X63078951Y-72082809D01*
X63078951Y-72082809D02*
X63102761Y-72130428D01*
X63102761Y-72130428D02*
X63102761Y-72178047D01*
X63102761Y-72178047D02*
X63078951Y-72249476D01*
X63078951Y-72249476D02*
X62793237Y-72535190D01*
X62793237Y-72535190D02*
X63102761Y-72535190D01*
D12*
X77275523Y-85956357D02*
X77466000Y-85956357D01*
X77370761Y-86051595D02*
X77370761Y-85861119D01*
X30539523Y-91544357D02*
X30730000Y-91544357D01*
X30634761Y-91639595D02*
X30634761Y-91449119D01*
D11*
X60293238Y-69971380D02*
X60364666Y-69995190D01*
X60364666Y-69995190D02*
X60483714Y-69995190D01*
X60483714Y-69995190D02*
X60531333Y-69971380D01*
X60531333Y-69971380D02*
X60555142Y-69947571D01*
X60555142Y-69947571D02*
X60578952Y-69899952D01*
X60578952Y-69899952D02*
X60578952Y-69852333D01*
X60578952Y-69852333D02*
X60555142Y-69804714D01*
X60555142Y-69804714D02*
X60531333Y-69780904D01*
X60531333Y-69780904D02*
X60483714Y-69757095D01*
X60483714Y-69757095D02*
X60388476Y-69733285D01*
X60388476Y-69733285D02*
X60340857Y-69709476D01*
X60340857Y-69709476D02*
X60317047Y-69685666D01*
X60317047Y-69685666D02*
X60293238Y-69638047D01*
X60293238Y-69638047D02*
X60293238Y-69590428D01*
X60293238Y-69590428D02*
X60317047Y-69542809D01*
X60317047Y-69542809D02*
X60340857Y-69519000D01*
X60340857Y-69519000D02*
X60388476Y-69495190D01*
X60388476Y-69495190D02*
X60507523Y-69495190D01*
X60507523Y-69495190D02*
X60578952Y-69519000D01*
X60983713Y-69971380D02*
X60936094Y-69995190D01*
X60936094Y-69995190D02*
X60840856Y-69995190D01*
X60840856Y-69995190D02*
X60793237Y-69971380D01*
X60793237Y-69971380D02*
X60769428Y-69923761D01*
X60769428Y-69923761D02*
X60769428Y-69733285D01*
X60769428Y-69733285D02*
X60793237Y-69685666D01*
X60793237Y-69685666D02*
X60840856Y-69661857D01*
X60840856Y-69661857D02*
X60936094Y-69661857D01*
X60936094Y-69661857D02*
X60983713Y-69685666D01*
X60983713Y-69685666D02*
X61007523Y-69733285D01*
X61007523Y-69733285D02*
X61007523Y-69780904D01*
X61007523Y-69780904D02*
X60769428Y-69828523D01*
X61221808Y-69661857D02*
X61221808Y-69995190D01*
X61221808Y-69709476D02*
X61245618Y-69685666D01*
X61245618Y-69685666D02*
X61293237Y-69661857D01*
X61293237Y-69661857D02*
X61364665Y-69661857D01*
X61364665Y-69661857D02*
X61412284Y-69685666D01*
X61412284Y-69685666D02*
X61436094Y-69733285D01*
X61436094Y-69733285D02*
X61436094Y-69995190D01*
X61650380Y-69971380D02*
X61697999Y-69995190D01*
X61697999Y-69995190D02*
X61793237Y-69995190D01*
X61793237Y-69995190D02*
X61840856Y-69971380D01*
X61840856Y-69971380D02*
X61864665Y-69923761D01*
X61864665Y-69923761D02*
X61864665Y-69899952D01*
X61864665Y-69899952D02*
X61840856Y-69852333D01*
X61840856Y-69852333D02*
X61793237Y-69828523D01*
X61793237Y-69828523D02*
X61721808Y-69828523D01*
X61721808Y-69828523D02*
X61674189Y-69804714D01*
X61674189Y-69804714D02*
X61650380Y-69757095D01*
X61650380Y-69757095D02*
X61650380Y-69733285D01*
X61650380Y-69733285D02*
X61674189Y-69685666D01*
X61674189Y-69685666D02*
X61721808Y-69661857D01*
X61721808Y-69661857D02*
X61793237Y-69661857D01*
X61793237Y-69661857D02*
X61840856Y-69685666D01*
X62150380Y-69995190D02*
X62102761Y-69971380D01*
X62102761Y-69971380D02*
X62078951Y-69947571D01*
X62078951Y-69947571D02*
X62055142Y-69899952D01*
X62055142Y-69899952D02*
X62055142Y-69757095D01*
X62055142Y-69757095D02*
X62078951Y-69709476D01*
X62078951Y-69709476D02*
X62102761Y-69685666D01*
X62102761Y-69685666D02*
X62150380Y-69661857D01*
X62150380Y-69661857D02*
X62221808Y-69661857D01*
X62221808Y-69661857D02*
X62269427Y-69685666D01*
X62269427Y-69685666D02*
X62293237Y-69709476D01*
X62293237Y-69709476D02*
X62317046Y-69757095D01*
X62317046Y-69757095D02*
X62317046Y-69899952D01*
X62317046Y-69899952D02*
X62293237Y-69947571D01*
X62293237Y-69947571D02*
X62269427Y-69971380D01*
X62269427Y-69971380D02*
X62221808Y-69995190D01*
X62221808Y-69995190D02*
X62150380Y-69995190D01*
X62531332Y-69995190D02*
X62531332Y-69661857D01*
X62531332Y-69757095D02*
X62555142Y-69709476D01*
X62555142Y-69709476D02*
X62578951Y-69685666D01*
X62578951Y-69685666D02*
X62626570Y-69661857D01*
X62626570Y-69661857D02*
X62674189Y-69661857D01*
X63102761Y-69995190D02*
X62817047Y-69995190D01*
X62959904Y-69995190D02*
X62959904Y-69495190D01*
X62959904Y-69495190D02*
X62912285Y-69566619D01*
X62912285Y-69566619D02*
X62864666Y-69614238D01*
X62864666Y-69614238D02*
X62817047Y-69638047D01*
D12*
X77275523Y-87734357D02*
X77466000Y-87734357D01*
X77370761Y-87829595D02*
X77370761Y-87639119D01*
X70671523Y-73256357D02*
X70862000Y-73256357D01*
X70766761Y-73351595D02*
X70766761Y-73161119D01*
D10*
X35798095Y-77379428D02*
X36560000Y-77379428D01*
X36179047Y-77760380D02*
X36179047Y-76998476D01*
X58102476Y-79744761D02*
X58245333Y-79792380D01*
X58245333Y-79792380D02*
X58483428Y-79792380D01*
X58483428Y-79792380D02*
X58578666Y-79744761D01*
X58578666Y-79744761D02*
X58626285Y-79697142D01*
X58626285Y-79697142D02*
X58673904Y-79601904D01*
X58673904Y-79601904D02*
X58673904Y-79506666D01*
X58673904Y-79506666D02*
X58626285Y-79411428D01*
X58626285Y-79411428D02*
X58578666Y-79363809D01*
X58578666Y-79363809D02*
X58483428Y-79316190D01*
X58483428Y-79316190D02*
X58292952Y-79268571D01*
X58292952Y-79268571D02*
X58197714Y-79220952D01*
X58197714Y-79220952D02*
X58150095Y-79173333D01*
X58150095Y-79173333D02*
X58102476Y-79078095D01*
X58102476Y-79078095D02*
X58102476Y-78982857D01*
X58102476Y-78982857D02*
X58150095Y-78887619D01*
X58150095Y-78887619D02*
X58197714Y-78840000D01*
X58197714Y-78840000D02*
X58292952Y-78792380D01*
X58292952Y-78792380D02*
X58531047Y-78792380D01*
X58531047Y-78792380D02*
X58673904Y-78840000D01*
X58959619Y-79125714D02*
X59340571Y-79125714D01*
X59102476Y-78792380D02*
X59102476Y-79649523D01*
X59102476Y-79649523D02*
X59150095Y-79744761D01*
X59150095Y-79744761D02*
X59245333Y-79792380D01*
X59245333Y-79792380D02*
X59340571Y-79792380D01*
X60054857Y-79744761D02*
X59959619Y-79792380D01*
X59959619Y-79792380D02*
X59769143Y-79792380D01*
X59769143Y-79792380D02*
X59673905Y-79744761D01*
X59673905Y-79744761D02*
X59626286Y-79649523D01*
X59626286Y-79649523D02*
X59626286Y-79268571D01*
X59626286Y-79268571D02*
X59673905Y-79173333D01*
X59673905Y-79173333D02*
X59769143Y-79125714D01*
X59769143Y-79125714D02*
X59959619Y-79125714D01*
X59959619Y-79125714D02*
X60054857Y-79173333D01*
X60054857Y-79173333D02*
X60102476Y-79268571D01*
X60102476Y-79268571D02*
X60102476Y-79363809D01*
X60102476Y-79363809D02*
X59626286Y-79459047D01*
X60531048Y-79125714D02*
X60531048Y-80125714D01*
X60531048Y-79173333D02*
X60626286Y-79125714D01*
X60626286Y-79125714D02*
X60816762Y-79125714D01*
X60816762Y-79125714D02*
X60912000Y-79173333D01*
X60912000Y-79173333D02*
X60959619Y-79220952D01*
X60959619Y-79220952D02*
X61007238Y-79316190D01*
X61007238Y-79316190D02*
X61007238Y-79601904D01*
X61007238Y-79601904D02*
X60959619Y-79697142D01*
X60959619Y-79697142D02*
X60912000Y-79744761D01*
X60912000Y-79744761D02*
X60816762Y-79792380D01*
X60816762Y-79792380D02*
X60626286Y-79792380D01*
X60626286Y-79792380D02*
X60531048Y-79744761D01*
X61435810Y-79125714D02*
X61435810Y-80125714D01*
X61435810Y-79173333D02*
X61531048Y-79125714D01*
X61531048Y-79125714D02*
X61721524Y-79125714D01*
X61721524Y-79125714D02*
X61816762Y-79173333D01*
X61816762Y-79173333D02*
X61864381Y-79220952D01*
X61864381Y-79220952D02*
X61912000Y-79316190D01*
X61912000Y-79316190D02*
X61912000Y-79601904D01*
X61912000Y-79601904D02*
X61864381Y-79697142D01*
X61864381Y-79697142D02*
X61816762Y-79744761D01*
X61816762Y-79744761D02*
X61721524Y-79792380D01*
X61721524Y-79792380D02*
X61531048Y-79792380D01*
X61531048Y-79792380D02*
X61435810Y-79744761D01*
X62721524Y-79744761D02*
X62626286Y-79792380D01*
X62626286Y-79792380D02*
X62435810Y-79792380D01*
X62435810Y-79792380D02*
X62340572Y-79744761D01*
X62340572Y-79744761D02*
X62292953Y-79649523D01*
X62292953Y-79649523D02*
X62292953Y-79268571D01*
X62292953Y-79268571D02*
X62340572Y-79173333D01*
X62340572Y-79173333D02*
X62435810Y-79125714D01*
X62435810Y-79125714D02*
X62626286Y-79125714D01*
X62626286Y-79125714D02*
X62721524Y-79173333D01*
X62721524Y-79173333D02*
X62769143Y-79268571D01*
X62769143Y-79268571D02*
X62769143Y-79363809D01*
X62769143Y-79363809D02*
X62292953Y-79459047D01*
X63197715Y-79792380D02*
X63197715Y-79125714D01*
X63197715Y-79316190D02*
X63245334Y-79220952D01*
X63245334Y-79220952D02*
X63292953Y-79173333D01*
X63292953Y-79173333D02*
X63388191Y-79125714D01*
X63388191Y-79125714D02*
X63483429Y-79125714D01*
X63769144Y-78887619D02*
X63816763Y-78840000D01*
X63816763Y-78840000D02*
X63912001Y-78792380D01*
X63912001Y-78792380D02*
X64150096Y-78792380D01*
X64150096Y-78792380D02*
X64245334Y-78840000D01*
X64245334Y-78840000D02*
X64292953Y-78887619D01*
X64292953Y-78887619D02*
X64340572Y-78982857D01*
X64340572Y-78982857D02*
X64340572Y-79078095D01*
X64340572Y-79078095D02*
X64292953Y-79220952D01*
X64292953Y-79220952D02*
X63721525Y-79792380D01*
X63721525Y-79792380D02*
X64340572Y-79792380D01*
D12*
X50605523Y-95100357D02*
X50796000Y-95100357D01*
X50700761Y-95195595D02*
X50700761Y-95005119D01*
D11*
X75533238Y-65399380D02*
X75580857Y-65423190D01*
X75580857Y-65423190D02*
X75676095Y-65423190D01*
X75676095Y-65423190D02*
X75723714Y-65399380D01*
X75723714Y-65399380D02*
X75747523Y-65351761D01*
X75747523Y-65351761D02*
X75747523Y-65327952D01*
X75747523Y-65327952D02*
X75723714Y-65280333D01*
X75723714Y-65280333D02*
X75676095Y-65256523D01*
X75676095Y-65256523D02*
X75604666Y-65256523D01*
X75604666Y-65256523D02*
X75557047Y-65232714D01*
X75557047Y-65232714D02*
X75533238Y-65185095D01*
X75533238Y-65185095D02*
X75533238Y-65161285D01*
X75533238Y-65161285D02*
X75557047Y-65113666D01*
X75557047Y-65113666D02*
X75604666Y-65089857D01*
X75604666Y-65089857D02*
X75676095Y-65089857D01*
X75676095Y-65089857D02*
X75723714Y-65113666D01*
X76223714Y-65423190D02*
X75938000Y-65423190D01*
X76080857Y-65423190D02*
X76080857Y-64923190D01*
X76080857Y-64923190D02*
X76033238Y-64994619D01*
X76033238Y-64994619D02*
X75985619Y-65042238D01*
X75985619Y-65042238D02*
X75938000Y-65066047D01*
X76652285Y-65423190D02*
X76652285Y-64923190D01*
X76652285Y-65399380D02*
X76604666Y-65423190D01*
X76604666Y-65423190D02*
X76509428Y-65423190D01*
X76509428Y-65423190D02*
X76461809Y-65399380D01*
X76461809Y-65399380D02*
X76437999Y-65375571D01*
X76437999Y-65375571D02*
X76414190Y-65327952D01*
X76414190Y-65327952D02*
X76414190Y-65185095D01*
X76414190Y-65185095D02*
X76437999Y-65137476D01*
X76437999Y-65137476D02*
X76461809Y-65113666D01*
X76461809Y-65113666D02*
X76509428Y-65089857D01*
X76509428Y-65089857D02*
X76604666Y-65089857D01*
X76604666Y-65089857D02*
X76652285Y-65113666D01*
X76890380Y-65423190D02*
X76890380Y-65089857D01*
X76890380Y-64923190D02*
X76866571Y-64947000D01*
X76866571Y-64947000D02*
X76890380Y-64970809D01*
X76890380Y-64970809D02*
X76914190Y-64947000D01*
X76914190Y-64947000D02*
X76890380Y-64923190D01*
X76890380Y-64923190D02*
X76890380Y-64970809D01*
X77128475Y-65423190D02*
X77128475Y-65089857D01*
X77128475Y-65185095D02*
X77152285Y-65137476D01*
X77152285Y-65137476D02*
X77176094Y-65113666D01*
X77176094Y-65113666D02*
X77223713Y-65089857D01*
X77223713Y-65089857D02*
X77271332Y-65089857D01*
X80613238Y-65399380D02*
X80660857Y-65423190D01*
X80660857Y-65423190D02*
X80756095Y-65423190D01*
X80756095Y-65423190D02*
X80803714Y-65399380D01*
X80803714Y-65399380D02*
X80827523Y-65351761D01*
X80827523Y-65351761D02*
X80827523Y-65327952D01*
X80827523Y-65327952D02*
X80803714Y-65280333D01*
X80803714Y-65280333D02*
X80756095Y-65256523D01*
X80756095Y-65256523D02*
X80684666Y-65256523D01*
X80684666Y-65256523D02*
X80637047Y-65232714D01*
X80637047Y-65232714D02*
X80613238Y-65185095D01*
X80613238Y-65185095D02*
X80613238Y-65161285D01*
X80613238Y-65161285D02*
X80637047Y-65113666D01*
X80637047Y-65113666D02*
X80684666Y-65089857D01*
X80684666Y-65089857D02*
X80756095Y-65089857D01*
X80756095Y-65089857D02*
X80803714Y-65113666D01*
X81018000Y-64970809D02*
X81041809Y-64947000D01*
X81041809Y-64947000D02*
X81089428Y-64923190D01*
X81089428Y-64923190D02*
X81208476Y-64923190D01*
X81208476Y-64923190D02*
X81256095Y-64947000D01*
X81256095Y-64947000D02*
X81279904Y-64970809D01*
X81279904Y-64970809D02*
X81303714Y-65018428D01*
X81303714Y-65018428D02*
X81303714Y-65066047D01*
X81303714Y-65066047D02*
X81279904Y-65137476D01*
X81279904Y-65137476D02*
X80994190Y-65423190D01*
X80994190Y-65423190D02*
X81303714Y-65423190D01*
X81732285Y-65423190D02*
X81732285Y-64923190D01*
X81732285Y-65399380D02*
X81684666Y-65423190D01*
X81684666Y-65423190D02*
X81589428Y-65423190D01*
X81589428Y-65423190D02*
X81541809Y-65399380D01*
X81541809Y-65399380D02*
X81517999Y-65375571D01*
X81517999Y-65375571D02*
X81494190Y-65327952D01*
X81494190Y-65327952D02*
X81494190Y-65185095D01*
X81494190Y-65185095D02*
X81517999Y-65137476D01*
X81517999Y-65137476D02*
X81541809Y-65113666D01*
X81541809Y-65113666D02*
X81589428Y-65089857D01*
X81589428Y-65089857D02*
X81684666Y-65089857D01*
X81684666Y-65089857D02*
X81732285Y-65113666D01*
X81970380Y-65423190D02*
X81970380Y-65089857D01*
X81970380Y-64923190D02*
X81946571Y-64947000D01*
X81946571Y-64947000D02*
X81970380Y-64970809D01*
X81970380Y-64970809D02*
X81994190Y-64947000D01*
X81994190Y-64947000D02*
X81970380Y-64923190D01*
X81970380Y-64923190D02*
X81970380Y-64970809D01*
X82208475Y-65423190D02*
X82208475Y-65089857D01*
X82208475Y-65185095D02*
X82232285Y-65137476D01*
X82232285Y-65137476D02*
X82256094Y-65113666D01*
X82256094Y-65113666D02*
X82303713Y-65089857D01*
X82303713Y-65089857D02*
X82351332Y-65089857D01*
D10*
X49990285Y-103684380D02*
X49514095Y-103684380D01*
X49514095Y-103684380D02*
X49466476Y-104160571D01*
X49466476Y-104160571D02*
X49514095Y-104112952D01*
X49514095Y-104112952D02*
X49609333Y-104065333D01*
X49609333Y-104065333D02*
X49847428Y-104065333D01*
X49847428Y-104065333D02*
X49942666Y-104112952D01*
X49942666Y-104112952D02*
X49990285Y-104160571D01*
X49990285Y-104160571D02*
X50037904Y-104255809D01*
X50037904Y-104255809D02*
X50037904Y-104493904D01*
X50037904Y-104493904D02*
X49990285Y-104589142D01*
X49990285Y-104589142D02*
X49942666Y-104636761D01*
X49942666Y-104636761D02*
X49847428Y-104684380D01*
X49847428Y-104684380D02*
X49609333Y-104684380D01*
X49609333Y-104684380D02*
X49514095Y-104636761D01*
X49514095Y-104636761D02*
X49466476Y-104589142D01*
X50323619Y-103684380D02*
X50656952Y-104684380D01*
X50656952Y-104684380D02*
X50990285Y-103684380D01*
D12*
X30539523Y-93576357D02*
X30730000Y-93576357D01*
X30634761Y-93671595D02*
X30634761Y-93481119D01*
D11*
X72739238Y-65399380D02*
X72786857Y-65423190D01*
X72786857Y-65423190D02*
X72882095Y-65423190D01*
X72882095Y-65423190D02*
X72929714Y-65399380D01*
X72929714Y-65399380D02*
X72953523Y-65351761D01*
X72953523Y-65351761D02*
X72953523Y-65327952D01*
X72953523Y-65327952D02*
X72929714Y-65280333D01*
X72929714Y-65280333D02*
X72882095Y-65256523D01*
X72882095Y-65256523D02*
X72810666Y-65256523D01*
X72810666Y-65256523D02*
X72763047Y-65232714D01*
X72763047Y-65232714D02*
X72739238Y-65185095D01*
X72739238Y-65185095D02*
X72739238Y-65161285D01*
X72739238Y-65161285D02*
X72763047Y-65113666D01*
X72763047Y-65113666D02*
X72810666Y-65089857D01*
X72810666Y-65089857D02*
X72882095Y-65089857D01*
X72882095Y-65089857D02*
X72929714Y-65113666D01*
X73429714Y-65423190D02*
X73144000Y-65423190D01*
X73286857Y-65423190D02*
X73286857Y-64923190D01*
X73286857Y-64923190D02*
X73239238Y-64994619D01*
X73239238Y-64994619D02*
X73191619Y-65042238D01*
X73191619Y-65042238D02*
X73144000Y-65066047D01*
X73620190Y-65399380D02*
X73667809Y-65423190D01*
X73667809Y-65423190D02*
X73763047Y-65423190D01*
X73763047Y-65423190D02*
X73810666Y-65399380D01*
X73810666Y-65399380D02*
X73834475Y-65351761D01*
X73834475Y-65351761D02*
X73834475Y-65327952D01*
X73834475Y-65327952D02*
X73810666Y-65280333D01*
X73810666Y-65280333D02*
X73763047Y-65256523D01*
X73763047Y-65256523D02*
X73691618Y-65256523D01*
X73691618Y-65256523D02*
X73643999Y-65232714D01*
X73643999Y-65232714D02*
X73620190Y-65185095D01*
X73620190Y-65185095D02*
X73620190Y-65161285D01*
X73620190Y-65161285D02*
X73643999Y-65113666D01*
X73643999Y-65113666D02*
X73691618Y-65089857D01*
X73691618Y-65089857D02*
X73763047Y-65089857D01*
X73763047Y-65089857D02*
X73810666Y-65113666D01*
X73977333Y-65089857D02*
X74167809Y-65089857D01*
X74048761Y-64923190D02*
X74048761Y-65351761D01*
X74048761Y-65351761D02*
X74072571Y-65399380D01*
X74072571Y-65399380D02*
X74120190Y-65423190D01*
X74120190Y-65423190D02*
X74167809Y-65423190D01*
X74524951Y-65399380D02*
X74477332Y-65423190D01*
X74477332Y-65423190D02*
X74382094Y-65423190D01*
X74382094Y-65423190D02*
X74334475Y-65399380D01*
X74334475Y-65399380D02*
X74310666Y-65351761D01*
X74310666Y-65351761D02*
X74310666Y-65161285D01*
X74310666Y-65161285D02*
X74334475Y-65113666D01*
X74334475Y-65113666D02*
X74382094Y-65089857D01*
X74382094Y-65089857D02*
X74477332Y-65089857D01*
X74477332Y-65089857D02*
X74524951Y-65113666D01*
X74524951Y-65113666D02*
X74548761Y-65161285D01*
X74548761Y-65161285D02*
X74548761Y-65208904D01*
X74548761Y-65208904D02*
X74310666Y-65256523D01*
X74763046Y-65089857D02*
X74763046Y-65589857D01*
X74763046Y-65113666D02*
X74810665Y-65089857D01*
X74810665Y-65089857D02*
X74905903Y-65089857D01*
X74905903Y-65089857D02*
X74953522Y-65113666D01*
X74953522Y-65113666D02*
X74977332Y-65137476D01*
X74977332Y-65137476D02*
X75001141Y-65185095D01*
X75001141Y-65185095D02*
X75001141Y-65327952D01*
X75001141Y-65327952D02*
X74977332Y-65375571D01*
X74977332Y-65375571D02*
X74953522Y-65399380D01*
X74953522Y-65399380D02*
X74905903Y-65423190D01*
X74905903Y-65423190D02*
X74810665Y-65423190D01*
X74810665Y-65423190D02*
X74763046Y-65399380D01*
D13*
%TO.C,XA1*%
X85990952Y-65588690D02*
X85990952Y-65088690D01*
X85990952Y-65088690D02*
X86110000Y-65088690D01*
X86110000Y-65088690D02*
X86181428Y-65112500D01*
X86181428Y-65112500D02*
X86229047Y-65160119D01*
X86229047Y-65160119D02*
X86252857Y-65207738D01*
X86252857Y-65207738D02*
X86276666Y-65302976D01*
X86276666Y-65302976D02*
X86276666Y-65374404D01*
X86276666Y-65374404D02*
X86252857Y-65469642D01*
X86252857Y-65469642D02*
X86229047Y-65517261D01*
X86229047Y-65517261D02*
X86181428Y-65564880D01*
X86181428Y-65564880D02*
X86110000Y-65588690D01*
X86110000Y-65588690D02*
X85990952Y-65588690D01*
X86586190Y-65088690D02*
X86633809Y-65088690D01*
X86633809Y-65088690D02*
X86681428Y-65112500D01*
X86681428Y-65112500D02*
X86705238Y-65136309D01*
X86705238Y-65136309D02*
X86729047Y-65183928D01*
X86729047Y-65183928D02*
X86752857Y-65279166D01*
X86752857Y-65279166D02*
X86752857Y-65398214D01*
X86752857Y-65398214D02*
X86729047Y-65493452D01*
X86729047Y-65493452D02*
X86705238Y-65541071D01*
X86705238Y-65541071D02*
X86681428Y-65564880D01*
X86681428Y-65564880D02*
X86633809Y-65588690D01*
X86633809Y-65588690D02*
X86586190Y-65588690D01*
X86586190Y-65588690D02*
X86538571Y-65564880D01*
X86538571Y-65564880D02*
X86514762Y-65541071D01*
X86514762Y-65541071D02*
X86490952Y-65493452D01*
X86490952Y-65493452D02*
X86467143Y-65398214D01*
X86467143Y-65398214D02*
X86467143Y-65279166D01*
X86467143Y-65279166D02*
X86490952Y-65183928D01*
X86490952Y-65183928D02*
X86514762Y-65136309D01*
X86514762Y-65136309D02*
X86538571Y-65112500D01*
X86538571Y-65112500D02*
X86586190Y-65088690D01*
D10*
X85344000Y-82568142D02*
X85391619Y-82615761D01*
X85391619Y-82615761D02*
X85344000Y-82663380D01*
X85344000Y-82663380D02*
X85296381Y-82615761D01*
X85296381Y-82615761D02*
X85344000Y-82568142D01*
X85344000Y-82568142D02*
X85344000Y-82663380D01*
D14*
%TO.C,R1*%
X26544000Y-85768641D02*
X26544000Y-85461359D01*
X27304000Y-85768641D02*
X27304000Y-85461359D01*
%TO.C,R4*%
X81660000Y-92304359D02*
X81660000Y-92611641D01*
X80900000Y-92304359D02*
X80900000Y-92611641D01*
%TO.C,J3*%
X65710000Y-80870000D02*
X65710000Y-82870000D01*
X64460000Y-80870000D02*
X65710000Y-80870000D01*
X65320000Y-81260000D02*
X57850000Y-81260000D01*
X57850000Y-81260000D02*
X57850000Y-96880000D01*
X64360000Y-82320000D02*
X64360000Y-85320000D01*
X63010000Y-82320000D02*
X63010000Y-83070000D01*
X58710000Y-82320000D02*
X63010000Y-82320000D01*
X63360000Y-82570000D02*
X64360000Y-82320000D01*
X63360000Y-83070000D02*
X63360000Y-82570000D01*
X63010000Y-83070000D02*
X63360000Y-83070000D01*
X58710000Y-83070000D02*
X58710000Y-82320000D01*
X63360000Y-84570000D02*
X63010000Y-84570000D01*
X63010000Y-84570000D02*
X63010000Y-85320000D01*
X63360000Y-85070000D02*
X63360000Y-84570000D01*
X64360000Y-85320000D02*
X63360000Y-85070000D01*
X63010000Y-85320000D02*
X58710000Y-85320000D01*
X58710000Y-85320000D02*
X58710000Y-84570000D01*
X64360000Y-85820000D02*
X64360000Y-88820000D01*
X63010000Y-85820000D02*
X63010000Y-86570000D01*
X58710000Y-85820000D02*
X63010000Y-85820000D01*
X63360000Y-86070000D02*
X64360000Y-85820000D01*
X63360000Y-86570000D02*
X63360000Y-86070000D01*
X63010000Y-86570000D02*
X63360000Y-86570000D01*
X58710000Y-86570000D02*
X58710000Y-85820000D01*
X63360000Y-88070000D02*
X63010000Y-88070000D01*
X63010000Y-88070000D02*
X63010000Y-88820000D01*
X63360000Y-88570000D02*
X63360000Y-88070000D01*
X64360000Y-88820000D02*
X63360000Y-88570000D01*
X63010000Y-88820000D02*
X58710000Y-88820000D01*
X58710000Y-88820000D02*
X58710000Y-88070000D01*
X64360000Y-89320000D02*
X64360000Y-92320000D01*
X63010000Y-89320000D02*
X63010000Y-90070000D01*
X58710000Y-89320000D02*
X63010000Y-89320000D01*
X63360000Y-89570000D02*
X64360000Y-89320000D01*
X63360000Y-90070000D02*
X63360000Y-89570000D01*
X63010000Y-90070000D02*
X63360000Y-90070000D01*
X58710000Y-90070000D02*
X58710000Y-89320000D01*
X63360000Y-91570000D02*
X63010000Y-91570000D01*
X63010000Y-91570000D02*
X63010000Y-92320000D01*
X63360000Y-92070000D02*
X63360000Y-91570000D01*
X64360000Y-92320000D02*
X63360000Y-92070000D01*
X63010000Y-92320000D02*
X58710000Y-92320000D01*
X58710000Y-92320000D02*
X58710000Y-91570000D01*
X64360000Y-92820000D02*
X64360000Y-95820000D01*
X63010000Y-92820000D02*
X63010000Y-93570000D01*
X58710000Y-92820000D02*
X63010000Y-92820000D01*
X63360000Y-93070000D02*
X64360000Y-92820000D01*
X63360000Y-93570000D02*
X63360000Y-93070000D01*
X63010000Y-93570000D02*
X63360000Y-93570000D01*
X58710000Y-93570000D02*
X58710000Y-92820000D01*
X63360000Y-95070000D02*
X63010000Y-95070000D01*
X63010000Y-95070000D02*
X63010000Y-95820000D01*
X63360000Y-95570000D02*
X63360000Y-95070000D01*
X64360000Y-95820000D02*
X63360000Y-95570000D01*
X63010000Y-95820000D02*
X58710000Y-95820000D01*
X58710000Y-95820000D02*
X58710000Y-95070000D01*
X65320000Y-96880000D02*
X65320000Y-81260000D01*
X57850000Y-96880000D02*
X65320000Y-96880000D01*
X58710155Y-84569647D02*
G75*
G03*
X58710000Y-83070000I-1700155J749647D01*
G01*
X58710155Y-88069647D02*
G75*
G03*
X58710000Y-86570000I-1700155J749647D01*
G01*
X58710155Y-91569647D02*
G75*
G03*
X58710000Y-90070000I-1700155J749647D01*
G01*
X58710155Y-95069647D02*
G75*
G03*
X58710000Y-93570000I-1700155J749647D01*
G01*
%TO.C,D17*%
X80504500Y-87857000D02*
X80504500Y-86387000D01*
X80504500Y-86387000D02*
X78219500Y-86387000D01*
X78219500Y-87857000D02*
X80504500Y-87857000D01*
%TO.C,R9*%
X55777641Y-92836000D02*
X55470359Y-92836000D01*
X55777641Y-92076000D02*
X55470359Y-92076000D01*
%TO.C,D9*%
X54115500Y-83085000D02*
X54115500Y-84555000D01*
X54115500Y-84555000D02*
X56400500Y-84555000D01*
X56400500Y-83085000D02*
X54115500Y-83085000D01*
%TO.C,D16*%
X27699500Y-90216000D02*
X27699500Y-91686000D01*
X27699500Y-91686000D02*
X29984500Y-91686000D01*
X29984500Y-90216000D02*
X27699500Y-90216000D01*
%TO.C,C2*%
X67230164Y-85492000D02*
X67445836Y-85492000D01*
X67230164Y-86212000D02*
X67445836Y-86212000D01*
%TO.C,D3*%
X54115500Y-93499000D02*
X54115500Y-94969000D01*
X54115500Y-94969000D02*
X56400500Y-94969000D01*
X56400500Y-93499000D02*
X54115500Y-93499000D01*
%TO.C,R11*%
X55777641Y-89026000D02*
X55470359Y-89026000D01*
X55777641Y-88266000D02*
X55470359Y-88266000D01*
%TO.C,R16*%
X26567641Y-89553000D02*
X26260359Y-89553000D01*
X26567641Y-88793000D02*
X26260359Y-88793000D01*
%TO.C,J2*%
X42240000Y-97270000D02*
X42240000Y-95270000D01*
X43490000Y-97270000D02*
X42240000Y-97270000D01*
X42630000Y-96880000D02*
X50100000Y-96880000D01*
X50100000Y-96880000D02*
X50100000Y-81260000D01*
X43590000Y-95820000D02*
X43590000Y-92820000D01*
X44940000Y-95820000D02*
X44940000Y-95070000D01*
X49240000Y-95820000D02*
X44940000Y-95820000D01*
X44590000Y-95570000D02*
X43590000Y-95820000D01*
X44590000Y-95070000D02*
X44590000Y-95570000D01*
X44940000Y-95070000D02*
X44590000Y-95070000D01*
X49240000Y-95070000D02*
X49240000Y-95820000D01*
X44590000Y-93570000D02*
X44940000Y-93570000D01*
X44940000Y-93570000D02*
X44940000Y-92820000D01*
X44590000Y-93070000D02*
X44590000Y-93570000D01*
X43590000Y-92820000D02*
X44590000Y-93070000D01*
X44940000Y-92820000D02*
X49240000Y-92820000D01*
X49240000Y-92820000D02*
X49240000Y-93570000D01*
X43590000Y-92320000D02*
X43590000Y-89320000D01*
X44940000Y-92320000D02*
X44940000Y-91570000D01*
X49240000Y-92320000D02*
X44940000Y-92320000D01*
X44590000Y-92070000D02*
X43590000Y-92320000D01*
X44590000Y-91570000D02*
X44590000Y-92070000D01*
X44940000Y-91570000D02*
X44590000Y-91570000D01*
X49240000Y-91570000D02*
X49240000Y-92320000D01*
X44590000Y-90070000D02*
X44940000Y-90070000D01*
X44940000Y-90070000D02*
X44940000Y-89320000D01*
X44590000Y-89570000D02*
X44590000Y-90070000D01*
X43590000Y-89320000D02*
X44590000Y-89570000D01*
X44940000Y-89320000D02*
X49240000Y-89320000D01*
X49240000Y-89320000D02*
X49240000Y-90070000D01*
X43590000Y-88820000D02*
X43590000Y-85820000D01*
X44940000Y-88820000D02*
X44940000Y-88070000D01*
X49240000Y-88820000D02*
X44940000Y-88820000D01*
X44590000Y-88570000D02*
X43590000Y-88820000D01*
X44590000Y-88070000D02*
X44590000Y-88570000D01*
X44940000Y-88070000D02*
X44590000Y-88070000D01*
X49240000Y-88070000D02*
X49240000Y-88820000D01*
X44590000Y-86570000D02*
X44940000Y-86570000D01*
X44940000Y-86570000D02*
X44940000Y-85820000D01*
X44590000Y-86070000D02*
X44590000Y-86570000D01*
X43590000Y-85820000D02*
X44590000Y-86070000D01*
X44940000Y-85820000D02*
X49240000Y-85820000D01*
X49240000Y-85820000D02*
X49240000Y-86570000D01*
X43590000Y-85320000D02*
X43590000Y-82320000D01*
X44940000Y-85320000D02*
X44940000Y-84570000D01*
X49240000Y-85320000D02*
X44940000Y-85320000D01*
X44590000Y-85070000D02*
X43590000Y-85320000D01*
X44590000Y-84570000D02*
X44590000Y-85070000D01*
X44940000Y-84570000D02*
X44590000Y-84570000D01*
X49240000Y-84570000D02*
X49240000Y-85320000D01*
X44590000Y-83070000D02*
X44940000Y-83070000D01*
X44940000Y-83070000D02*
X44940000Y-82320000D01*
X44590000Y-82570000D02*
X44590000Y-83070000D01*
X43590000Y-82320000D02*
X44590000Y-82570000D01*
X44940000Y-82320000D02*
X49240000Y-82320000D01*
X49240000Y-82320000D02*
X49240000Y-83070000D01*
X42630000Y-81260000D02*
X42630000Y-96880000D01*
X50100000Y-81260000D02*
X42630000Y-81260000D01*
X49239845Y-93570353D02*
G75*
G03*
X49240000Y-95070000I1700155J-749647D01*
G01*
X49239845Y-90070353D02*
G75*
G03*
X49240000Y-91570000I1700155J-749647D01*
G01*
X49239845Y-86570353D02*
G75*
G03*
X49240000Y-88070000I1700155J-749647D01*
G01*
X49239845Y-83070353D02*
G75*
G03*
X49240000Y-84570000I1700155J-749647D01*
G01*
%TO.C,C6*%
X40560164Y-90591000D02*
X40775836Y-90591000D01*
X40560164Y-91311000D02*
X40775836Y-91311000D01*
%TO.C,J5*%
X74410000Y-77980000D02*
X74410000Y-76180000D01*
X75860000Y-77980000D02*
X74410000Y-77980000D01*
X78680000Y-76710000D02*
X78680000Y-68280000D01*
X74410000Y-76180000D02*
X73420000Y-76180000D01*
X74410000Y-67010000D02*
X74410000Y-68810000D01*
X75860000Y-67010000D02*
X74410000Y-67010000D01*
%TO.C,D8*%
X53834500Y-94969000D02*
X53834500Y-93499000D01*
X53834500Y-93499000D02*
X51549500Y-93499000D01*
X51549500Y-94969000D02*
X53834500Y-94969000D01*
%TO.C,C5*%
X40280000Y-84990836D02*
X40280000Y-84775164D01*
X41000000Y-84990836D02*
X41000000Y-84775164D01*
%TO.C,R5*%
X54738000Y-101243641D02*
X54738000Y-100936359D01*
X55498000Y-101243641D02*
X55498000Y-100936359D01*
%TO.C,R17*%
X81636359Y-88520000D02*
X81943641Y-88520000D01*
X81636359Y-89280000D02*
X81943641Y-89280000D01*
%TO.C,D1*%
X55853000Y-103137500D02*
X54383000Y-103137500D01*
X54383000Y-103137500D02*
X54383000Y-105422500D01*
X55853000Y-105422500D02*
X55853000Y-103137500D01*
%TO.C,D7*%
X54115500Y-86387000D02*
X54115500Y-87857000D01*
X54115500Y-87857000D02*
X56400500Y-87857000D01*
X56400500Y-86387000D02*
X54115500Y-86387000D01*
%TO.C,R2*%
X28574000Y-85465359D02*
X28574000Y-85772641D01*
X27814000Y-85465359D02*
X27814000Y-85772641D01*
%TO.C,C13*%
X77703000Y-92447164D02*
X77703000Y-92662836D01*
X76983000Y-92447164D02*
X76983000Y-92662836D01*
%TO.C,C1*%
X68698164Y-83460000D02*
X68913836Y-83460000D01*
X68698164Y-84180000D02*
X68913836Y-84180000D01*
%TO.C,D12*%
X27699500Y-88438000D02*
X27699500Y-89908000D01*
X27699500Y-89908000D02*
X29984500Y-89908000D01*
X29984500Y-88438000D02*
X27699500Y-88438000D01*
%TO.C,D2*%
X53783500Y-84555000D02*
X53783500Y-83085000D01*
X53783500Y-83085000D02*
X51498500Y-83085000D01*
X51498500Y-84555000D02*
X53783500Y-84555000D01*
%TO.C,R13*%
X55777641Y-85724000D02*
X55470359Y-85724000D01*
X55777641Y-84964000D02*
X55470359Y-84964000D01*
%TO.C,R3*%
X79376000Y-92607641D02*
X79376000Y-92300359D01*
X80136000Y-92607641D02*
X80136000Y-92300359D01*
%TO.C,D6*%
X53834500Y-91667000D02*
X53834500Y-90197000D01*
X53834500Y-90197000D02*
X51549500Y-90197000D01*
X51549500Y-91667000D02*
X53834500Y-91667000D01*
%TO.C,D13*%
X80504500Y-89635000D02*
X80504500Y-88165000D01*
X80504500Y-88165000D02*
X78219500Y-88165000D01*
X78219500Y-89635000D02*
X80504500Y-89635000D01*
%TO.C,C12*%
X77470000Y-103378000D02*
G75*
G03*
X77470000Y-103378000I-5120000J0D01*
G01*
%TO.C,R21*%
X81634359Y-86742000D02*
X81941641Y-86742000D01*
X81634359Y-87502000D02*
X81941641Y-87502000D01*
%TO.C,R19*%
X65683641Y-70230000D02*
X65376359Y-70230000D01*
X65683641Y-69470000D02*
X65376359Y-69470000D01*
%TO.C,D14*%
X53313000Y-103137500D02*
X51843000Y-103137500D01*
X51843000Y-103137500D02*
X51843000Y-105422500D01*
X53313000Y-105422500D02*
X53313000Y-103137500D01*
%TO.C,C7*%
X45466000Y-103124000D02*
G75*
G03*
X45466000Y-103124000I-5120000J0D01*
G01*
%TO.C,C15*%
X40188000Y-73688000D02*
G75*
G03*
X40188000Y-73688000I-4120000J0D01*
G01*
%TO.C,D4*%
X53834500Y-87857000D02*
X53834500Y-86387000D01*
X53834500Y-86387000D02*
X51549500Y-86387000D01*
X51549500Y-87857000D02*
X53834500Y-87857000D01*
%TO.C,D19*%
X67577500Y-74195000D02*
X67577500Y-75665000D01*
X67577500Y-75665000D02*
X69862500Y-75665000D01*
X69862500Y-74195000D02*
X67577500Y-74195000D01*
%TO.C,R10*%
X52172359Y-92076000D02*
X52479641Y-92076000D01*
X52172359Y-92836000D02*
X52479641Y-92836000D01*
%TO.C,C10*%
X67445836Y-87482000D02*
X67230164Y-87482000D01*
X67445836Y-86762000D02*
X67230164Y-86762000D01*
%TO.C,U1*%
X72458500Y-84759000D02*
X68808500Y-84759000D01*
X72458500Y-84759000D02*
X74658500Y-84759000D01*
X72458500Y-93079000D02*
X70258500Y-93079000D01*
X72458500Y-93079000D02*
X74658500Y-93079000D01*
%TO.C,R18*%
X52198000Y-101243641D02*
X52198000Y-100936359D01*
X52958000Y-101243641D02*
X52958000Y-100936359D01*
%TO.C,R23*%
X65683641Y-75310000D02*
X65376359Y-75310000D01*
X65683641Y-74550000D02*
X65376359Y-74550000D01*
%TO.C,D15*%
X67577500Y-69115000D02*
X67577500Y-70585000D01*
X67577500Y-70585000D02*
X69862500Y-70585000D01*
X69862500Y-69115000D02*
X67577500Y-69115000D01*
%TO.C,R22*%
X65683641Y-72770000D02*
X65376359Y-72770000D01*
X65683641Y-72010000D02*
X65376359Y-72010000D01*
%TO.C,C9*%
X32152000Y-83720836D02*
X32152000Y-83505164D01*
X32872000Y-83720836D02*
X32872000Y-83505164D01*
%TO.C,C4*%
X40775836Y-92581000D02*
X40560164Y-92581000D01*
X40775836Y-91861000D02*
X40560164Y-91861000D01*
%TO.C,C8*%
X30374000Y-85752836D02*
X30374000Y-85537164D01*
X31094000Y-85752836D02*
X31094000Y-85537164D01*
%TO.C,C3*%
X39505836Y-94613000D02*
X39290164Y-94613000D01*
X39505836Y-93893000D02*
X39290164Y-93893000D01*
%TO.C,J4*%
X32298000Y-102088000D02*
X22878000Y-102088000D01*
X32298000Y-102088000D02*
X32298000Y-103598000D01*
X26188000Y-102088000D02*
X26188000Y-110708000D01*
X22878000Y-102088000D02*
X22878000Y-110708000D01*
X33588000Y-104348000D02*
X33588000Y-104948000D01*
X32988000Y-104648000D02*
X33588000Y-104348000D01*
X33588000Y-104948000D02*
X32988000Y-104648000D01*
X32298000Y-105698000D02*
X32298000Y-107098000D01*
X32298000Y-110708000D02*
X32298000Y-109198000D01*
X22878000Y-110708000D02*
X32298000Y-110708000D01*
%TO.C,R7*%
X55777641Y-96138000D02*
X55470359Y-96138000D01*
X55777641Y-95378000D02*
X55470359Y-95378000D01*
%TO.C,U2*%
X35560000Y-93333000D02*
X39210000Y-93333000D01*
X35560000Y-93333000D02*
X33360000Y-93333000D01*
X35560000Y-85013000D02*
X37760000Y-85013000D01*
X35560000Y-85013000D02*
X33360000Y-85013000D01*
%TO.C,C11*%
X67797000Y-93209164D02*
X67797000Y-93424836D01*
X67077000Y-93209164D02*
X67077000Y-93424836D01*
%TO.C,D18*%
X67577500Y-71655000D02*
X67577500Y-73125000D01*
X67577500Y-73125000D02*
X69862500Y-73125000D01*
X69862500Y-71655000D02*
X67577500Y-71655000D01*
%TO.C,R6*%
X52172359Y-84964000D02*
X52479641Y-84964000D01*
X52172359Y-85724000D02*
X52479641Y-85724000D01*
%TO.C,D5*%
X54115500Y-90197000D02*
X54115500Y-91667000D01*
X54115500Y-91667000D02*
X56400500Y-91667000D01*
X56400500Y-90197000D02*
X54115500Y-90197000D01*
%TO.C,R8*%
X52172359Y-88266000D02*
X52479641Y-88266000D01*
X52172359Y-89026000D02*
X52479641Y-89026000D01*
%TO.C,R20*%
X26567641Y-91331000D02*
X26260359Y-91331000D01*
X26567641Y-90571000D02*
X26260359Y-90571000D01*
%TO.C,C14*%
X75925000Y-94352164D02*
X75925000Y-94567836D01*
X75205000Y-94352164D02*
X75205000Y-94567836D01*
%TO.C,R12*%
X52168359Y-95378000D02*
X52475641Y-95378000D01*
X52168359Y-96138000D02*
X52475641Y-96138000D01*
%TO.C,J1*%
X45200000Y-77770000D02*
X45200000Y-75970000D01*
X46650000Y-77770000D02*
X45200000Y-77770000D01*
X49470000Y-76500000D02*
X49470000Y-68070000D01*
X45200000Y-75970000D02*
X44210000Y-75970000D01*
X45200000Y-66800000D02*
X45200000Y-68600000D01*
X46650000Y-66800000D02*
X45200000Y-66800000D01*
%TD*%
M02*
