M48
; DRILL file {KiCad (7.0.0)} date Wed Apr 19 19:47:17 2023
; FORMAT={-:-/ absolute / metric / decimal}
; #@! TF.CreationDate,2023-04-19T19:47:17-05:00
; #@! TF.GenerationSoftware,Kicad,Pcbnew,(7.0.0)
; #@! TF.FileFunction,Plated,1,4,PTH
FMAT,2
METRIC
; #@! TA.AperFunction,Plated,PTH,ViaDrill
T1C0.400
; #@! TA.AperFunction,Plated,PTH,ComponentDrill
T2C0.800
; #@! TA.AperFunction,Plated,PTH,ComponentDrill
T3C1.016
; #@! TA.AperFunction,Plated,PTH,ComponentDrill
T4C1.100
; #@! TA.AperFunction,Plated,PTH,ComponentDrill
T5C1.200
%
G90
G05
T1
X112.522Y-103.886
X120.857Y-88.138
X120.904Y-91.419
X120.904Y-94.996
X126.238Y-129.54
X129.286Y-91.44
X129.286Y-94.996
X138.43Y-115.57
X138.43Y-122.936
X139.7Y-124.46
T2
X129.794Y-110.49
X129.794Y-113.03
X129.794Y-117.856
X129.794Y-120.396
X129.794Y-125.222
X129.794Y-127.762
X137.414Y-110.49
X137.414Y-113.03
X137.414Y-117.856
X137.414Y-120.396
X137.414Y-125.222
X137.414Y-127.762
T3
X126.321Y-83.359
X128.861Y-83.359
X131.401Y-83.359
X133.941Y-83.359
X135.465Y-131.619
X136.481Y-83.359
X138.005Y-131.619
X139.021Y-83.359
X140.545Y-131.619
X141.561Y-83.359
X143.085Y-131.619
X144.101Y-83.359
X145.625Y-131.619
X146.641Y-83.359
X148.165Y-131.619
X149.181Y-83.359
X150.705Y-131.619
X153.245Y-83.359
X153.245Y-131.619
X155.785Y-83.359
X158.325Y-83.359
X158.325Y-131.619
X160.865Y-83.359
X160.865Y-131.619
X163.405Y-83.359
X163.405Y-131.619
X165.945Y-83.359
X165.945Y-131.619
X168.485Y-83.359
X168.485Y-131.619
X171.025Y-83.359
X171.025Y-131.619
X171.152Y-103.679
X171.152Y-106.219
X171.152Y-108.759
X173.692Y-103.679
X173.692Y-106.219
X173.692Y-108.759
T4
X132.588Y-105.918
X135.128Y-105.918
X137.668Y-105.918
X143.764Y-105.918
X143.764Y-128.61
X146.304Y-105.918
X148.844Y-105.918
X148.844Y-128.61
X154.94Y-105.918
X154.94Y-128.61
X157.48Y-105.918
X160.02Y-105.918
X160.02Y-128.61
T5
X115.57Y-88.9
X115.57Y-92.4
X115.57Y-114.3
X115.57Y-117.8
X165.1Y-88.9
X165.1Y-92.4
X167.501Y-114.3
X167.501Y-117.8
T0
M30
